<?xml version="1.0" encoding="utf-8" standalone="no"?>
<!DOCTYPE svg PUBLIC "-//W3C//DTD SVG 1.1//EN"
  "http://www.w3.org/Graphics/SVG/1.1/DTD/svg11.dtd">
<svg xmlns:xlink="http://www.w3.org/1999/xlink" width="460.8pt" height="345.6pt" viewBox="0 0 460.8 345.6" xmlns="http://www.w3.org/2000/svg" version="1.1">
 <metadata>
  <rdf:RDF xmlns:dc="http://purl.org/dc/elements/1.1/" xmlns:cc="http://creativecommons.org/ns#" xmlns:rdf="http://www.w3.org/1999/02/22-rdf-syntax-ns#">
   <cc:Work>
    <dc:type rdf:resource="http://purl.org/dc/dcmitype/StillImage"/>
    <dc:date>2023-04-16T20:57:02.367807</dc:date>
    <dc:format>image/svg+xml</dc:format>
    <dc:creator>
     <cc:Agent>
      <dc:title>Matplotlib v3.6.2, https://matplotlib.org/</dc:title>
     </cc:Agent>
    </dc:creator>
   </cc:Work>
  </rdf:RDF>
 </metadata>
 <defs>
  <style type="text/css">*{stroke-linejoin: round; stroke-linecap: butt}</style>
 </defs>
 <g id="figure_1">
  <g id="patch_1">
   <path d="M 0 345.6 
L 460.8 345.6 
L 460.8 0 
L 0 0 
z
" style="fill: #ffffff"/>
  </g>
  <g id="axes_1">
   <g id="patch_2">
    <path d="M 57.6 307.584 
L 414.72 307.584 
L 414.72 41.472 
L 57.6 41.472 
z
" style="fill: #ffffff"/>
   </g>
   <g id="patch_3">
    <path d="M 73.832727 307.584 
L 75.091078 307.584 
L 75.091078 307.584 
L 73.832727 307.584 
z
" clip-path="url(#p111f8205e3)" style="fill: #1f77b4"/>
   </g>
   <g id="patch_4">
    <path d="M 75.091078 307.584 
L 76.349429 307.584 
L 76.349429 54.144 
L 75.091078 54.144 
z
" clip-path="url(#p111f8205e3)" style="fill: #1f77b4"/>
   </g>
   <g id="patch_5">
    <path d="M 76.349429 307.584 
L 77.60778 307.584 
L 77.60778 242.068919 
L 76.349429 242.068919 
z
" clip-path="url(#p111f8205e3)" style="fill: #1f77b4"/>
   </g>
   <g id="patch_6">
    <path d="M 77.60778 307.584 
L 78.866131 307.584 
L 78.866131 250.714112 
L 77.60778 250.714112 
z
" clip-path="url(#p111f8205e3)" style="fill: #1f77b4"/>
   </g>
   <g id="patch_7">
    <path d="M 78.866131 307.584 
L 80.124482 307.584 
L 80.124482 276.307738 
L 78.866131 276.307738 
z
" clip-path="url(#p111f8205e3)" style="fill: #1f77b4"/>
   </g>
   <g id="patch_8">
    <path d="M 80.124482 307.584 
L 81.382833 307.584 
L 81.382833 280.952081 
L 80.124482 280.952081 
z
" clip-path="url(#p111f8205e3)" style="fill: #1f77b4"/>
   </g>
   <g id="patch_9">
    <path d="M 81.382833 307.584 
L 82.641184 307.584 
L 82.641184 287.564208 
L 81.382833 287.564208 
z
" clip-path="url(#p111f8205e3)" style="fill: #1f77b4"/>
   </g>
   <g id="patch_10">
    <path d="M 82.641184 307.584 
L 83.899535 307.584 
L 83.899535 290.557851 
L 82.641184 290.557851 
z
" clip-path="url(#p111f8205e3)" style="fill: #1f77b4"/>
   </g>
   <g id="patch_11">
    <path d="M 83.899535 307.584 
L 85.157886 307.584 
L 85.157886 292.982608 
L 83.899535 292.982608 
z
" clip-path="url(#p111f8205e3)" style="fill: #1f77b4"/>
   </g>
   <g id="patch_12">
    <path d="M 85.157886 307.584 
L 86.416237 307.584 
L 86.416237 294.65196 
L 85.157886 294.65196 
z
" clip-path="url(#p111f8205e3)" style="fill: #1f77b4"/>
   </g>
   <g id="patch_13">
    <path d="M 86.416237 307.584 
L 87.674588 307.584 
L 87.674588 295.901643 
L 86.416237 295.901643 
z
" clip-path="url(#p111f8205e3)" style="fill: #1f77b4"/>
   </g>
   <g id="patch_14">
    <path d="M 87.674588 307.584 
L 88.932939 307.584 
L 88.932939 297.157543 
L 87.674588 297.157543 
z
" clip-path="url(#p111f8205e3)" style="fill: #1f77b4"/>
   </g>
   <g id="patch_15">
    <path d="M 88.932939 307.584 
L 90.19129 307.584 
L 90.19129 297.67669 
L 88.932939 297.67669 
z
" clip-path="url(#p111f8205e3)" style="fill: #1f77b4"/>
   </g>
   <g id="patch_16">
    <path d="M 90.19129 307.584 
L 91.449641 307.584 
L 91.449641 298.683897 
L 90.19129 298.683897 
z
" clip-path="url(#p111f8205e3)" style="fill: #1f77b4"/>
   </g>
   <g id="patch_17">
    <path d="M 91.449641 307.584 
L 92.707992 307.584 
L 92.707992 299.088023 
L 91.449641 299.088023 
z
" clip-path="url(#p111f8205e3)" style="fill: #1f77b4"/>
   </g>
   <g id="patch_18">
    <path d="M 92.707992 307.584 
L 93.966342 307.584 
L 93.966342 299.184392 
L 92.707992 299.184392 
z
" clip-path="url(#p111f8205e3)" style="fill: #1f77b4"/>
   </g>
   <g id="patch_19">
    <path d="M 93.966342 307.584 
L 95.224693 307.584 
L 95.224693 300.390553 
L 93.966342 300.390553 
z
" clip-path="url(#p111f8205e3)" style="fill: #1f77b4"/>
   </g>
   <g id="patch_20">
    <path d="M 95.224693 307.584 
L 96.483044 307.584 
L 96.483044 300.726289 
L 95.224693 300.726289 
z
" clip-path="url(#p111f8205e3)" style="fill: #1f77b4"/>
   </g>
   <g id="patch_21">
    <path d="M 96.483044 307.584 
L 97.741395 307.584 
L 97.741395 300.844418 
L 96.483044 300.844418 
z
" clip-path="url(#p111f8205e3)" style="fill: #1f77b4"/>
   </g>
   <g id="patch_22">
    <path d="M 97.741395 307.584 
L 98.999746 307.584 
L 98.999746 301.764582 
L 97.741395 301.764582 
z
" clip-path="url(#p111f8205e3)" style="fill: #1f77b4"/>
   </g>
   <g id="patch_23">
    <path d="M 98.999746 307.584 
L 100.258097 307.584 
L 100.258097 302.367663 
L 98.999746 302.367663 
z
" clip-path="url(#p111f8205e3)" style="fill: #1f77b4"/>
   </g>
   <g id="patch_24">
    <path d="M 100.258097 307.584 
L 101.516448 307.584 
L 101.516448 302.504444 
L 100.258097 302.504444 
z
" clip-path="url(#p111f8205e3)" style="fill: #1f77b4"/>
   </g>
   <g id="patch_25">
    <path d="M 101.516448 307.584 
L 102.774799 307.584 
L 102.774799 303.306479 
L 101.516448 303.306479 
z
" clip-path="url(#p111f8205e3)" style="fill: #1f77b4"/>
   </g>
   <g id="patch_26">
    <path d="M 102.774799 307.584 
L 104.03315 307.584 
L 104.03315 303.548955 
L 102.774799 303.548955 
z
" clip-path="url(#p111f8205e3)" style="fill: #1f77b4"/>
   </g>
   <g id="patch_27">
    <path d="M 104.03315 307.584 
L 105.291501 307.584 
L 105.291501 303.934429 
L 104.03315 303.934429 
z
" clip-path="url(#p111f8205e3)" style="fill: #1f77b4"/>
   </g>
   <g id="patch_28">
    <path d="M 105.291501 307.584 
L 106.549852 307.584 
L 106.549852 304.403837 
L 105.291501 304.403837 
z
" clip-path="url(#p111f8205e3)" style="fill: #1f77b4"/>
   </g>
   <g id="patch_29">
    <path d="M 106.549852 307.584 
L 107.808203 307.584 
L 107.808203 304.807964 
L 106.549852 304.807964 
z
" clip-path="url(#p111f8205e3)" style="fill: #1f77b4"/>
   </g>
   <g id="patch_30">
    <path d="M 107.808203 307.584 
L 109.066554 307.584 
L 109.066554 305.249394 
L 107.808203 305.249394 
z
" clip-path="url(#p111f8205e3)" style="fill: #1f77b4"/>
   </g>
   <g id="patch_31">
    <path d="M 109.066554 307.584 
L 110.324905 307.584 
L 110.324905 305.457674 
L 109.066554 305.457674 
z
" clip-path="url(#p111f8205e3)" style="fill: #1f77b4"/>
   </g>
   <g id="patch_32">
    <path d="M 110.324905 307.584 
L 111.583256 307.584 
L 111.583256 305.830714 
L 110.324905 305.830714 
z
" clip-path="url(#p111f8205e3)" style="fill: #1f77b4"/>
   </g>
   <g id="patch_33">
    <path d="M 111.583256 307.584 
L 112.841607 307.584 
L 112.841607 306.129146 
L 111.583256 306.129146 
z
" clip-path="url(#p111f8205e3)" style="fill: #1f77b4"/>
   </g>
   <g id="patch_34">
    <path d="M 112.841607 307.584 
L 114.099958 307.584 
L 114.099958 306.42136 
L 112.841607 306.42136 
z
" clip-path="url(#p111f8205e3)" style="fill: #1f77b4"/>
   </g>
   <g id="patch_35">
    <path d="M 114.099958 307.584 
L 115.358309 307.584 
L 115.358309 306.729118 
L 114.099958 306.729118 
z
" clip-path="url(#p111f8205e3)" style="fill: #1f77b4"/>
   </g>
   <g id="patch_36">
    <path d="M 115.358309 307.584 
L 116.61666 307.584 
L 116.61666 306.601662 
L 115.358309 306.601662 
z
" clip-path="url(#p111f8205e3)" style="fill: #1f77b4"/>
   </g>
   <g id="patch_37">
    <path d="M 116.61666 307.584 
L 117.875011 307.584 
L 117.875011 306.928072 
L 116.61666 306.928072 
z
" clip-path="url(#p111f8205e3)" style="fill: #1f77b4"/>
   </g>
   <g id="patch_38">
    <path d="M 117.875011 307.584 
L 119.133362 307.584 
L 119.133362 307.012006 
L 117.875011 307.012006 
z
" clip-path="url(#p111f8205e3)" style="fill: #1f77b4"/>
   </g>
   <g id="patch_39">
    <path d="M 119.133362 307.584 
L 120.391712 307.584 
L 120.391712 307.1177 
L 119.133362 307.1177 
z
" clip-path="url(#p111f8205e3)" style="fill: #1f77b4"/>
   </g>
   <g id="patch_40">
    <path d="M 120.391712 307.584 
L 121.650063 307.584 
L 121.650063 307.080397 
L 120.391712 307.080397 
z
" clip-path="url(#p111f8205e3)" style="fill: #1f77b4"/>
   </g>
   <g id="patch_41">
    <path d="M 121.650063 307.584 
L 122.908414 307.584 
L 122.908414 307.25759 
L 121.650063 307.25759 
z
" clip-path="url(#p111f8205e3)" style="fill: #1f77b4"/>
   </g>
   <g id="patch_42">
    <path d="M 122.908414 307.584 
L 124.166765 307.584 
L 124.166765 307.301112 
L 122.908414 307.301112 
z
" clip-path="url(#p111f8205e3)" style="fill: #1f77b4"/>
   </g>
   <g id="patch_43">
    <path d="M 124.166765 307.584 
L 125.425116 307.584 
L 125.425116 307.319764 
L 124.166765 307.319764 
z
" clip-path="url(#p111f8205e3)" style="fill: #1f77b4"/>
   </g>
   <g id="patch_44">
    <path d="M 125.425116 307.584 
L 126.683467 307.584 
L 126.683467 307.381937 
L 125.425116 307.381937 
z
" clip-path="url(#p111f8205e3)" style="fill: #1f77b4"/>
   </g>
   <g id="patch_45">
    <path d="M 126.683467 307.584 
L 127.941818 307.584 
L 127.941818 307.400589 
L 126.683467 307.400589 
z
" clip-path="url(#p111f8205e3)" style="fill: #1f77b4"/>
   </g>
   <g id="patch_46">
    <path d="M 127.941818 307.584 
L 129.200169 307.584 
L 129.200169 307.378828 
L 127.941818 307.378828 
z
" clip-path="url(#p111f8205e3)" style="fill: #1f77b4"/>
   </g>
   <g id="patch_47">
    <path d="M 129.200169 307.584 
L 130.45852 307.584 
L 130.45852 307.406806 
L 129.200169 307.406806 
z
" clip-path="url(#p111f8205e3)" style="fill: #1f77b4"/>
   </g>
   <g id="patch_48">
    <path d="M 130.45852 307.584 
L 131.716871 307.584 
L 131.716871 307.437893 
L 130.45852 307.437893 
z
" clip-path="url(#p111f8205e3)" style="fill: #1f77b4"/>
   </g>
   <g id="patch_49">
    <path d="M 131.716871 307.584 
L 132.975222 307.584 
L 132.975222 307.450327 
L 131.716871 307.450327 
z
" clip-path="url(#p111f8205e3)" style="fill: #1f77b4"/>
   </g>
   <g id="patch_50">
    <path d="M 132.975222 307.584 
L 134.233573 307.584 
L 134.233573 307.441001 
L 132.975222 307.441001 
z
" clip-path="url(#p111f8205e3)" style="fill: #1f77b4"/>
   </g>
   <g id="patch_51">
    <path d="M 134.233573 307.584 
L 135.491924 307.584 
L 135.491924 307.450327 
L 134.233573 307.450327 
z
" clip-path="url(#p111f8205e3)" style="fill: #1f77b4"/>
   </g>
   <g id="patch_52">
    <path d="M 135.491924 307.584 
L 136.750275 307.584 
L 136.750275 307.493849 
L 135.491924 307.493849 
z
" clip-path="url(#p111f8205e3)" style="fill: #1f77b4"/>
   </g>
   <g id="patch_53">
    <path d="M 136.750275 307.584 
L 138.008626 307.584 
L 138.008626 307.441001 
L 136.750275 307.441001 
z
" clip-path="url(#p111f8205e3)" style="fill: #1f77b4"/>
   </g>
   <g id="patch_54">
    <path d="M 138.008626 307.584 
L 139.266977 307.584 
L 139.266977 307.465871 
L 138.008626 307.465871 
z
" clip-path="url(#p111f8205e3)" style="fill: #1f77b4"/>
   </g>
   <g id="patch_55">
    <path d="M 139.266977 307.584 
L 140.525328 307.584 
L 140.525328 307.462762 
L 139.266977 307.462762 
z
" clip-path="url(#p111f8205e3)" style="fill: #1f77b4"/>
   </g>
   <g id="patch_56">
    <path d="M 140.525328 307.584 
L 141.783679 307.584 
L 141.783679 307.509392 
L 140.525328 307.509392 
z
" clip-path="url(#p111f8205e3)" style="fill: #1f77b4"/>
   </g>
   <g id="patch_57">
    <path d="M 141.783679 307.584 
L 143.04203 307.584 
L 143.04203 307.500066 
L 141.783679 307.500066 
z
" clip-path="url(#p111f8205e3)" style="fill: #1f77b4"/>
   </g>
   <g id="patch_58">
    <path d="M 143.04203 307.584 
L 144.300381 307.584 
L 144.300381 307.515609 
L 143.04203 307.515609 
z
" clip-path="url(#p111f8205e3)" style="fill: #1f77b4"/>
   </g>
   <g id="patch_59">
    <path d="M 144.300381 307.584 
L 145.558732 307.584 
L 145.558732 307.512501 
L 144.300381 307.512501 
z
" clip-path="url(#p111f8205e3)" style="fill: #1f77b4"/>
   </g>
   <g id="patch_60">
    <path d="M 145.558732 307.584 
L 146.817082 307.584 
L 146.817082 307.518718 
L 145.558732 307.518718 
z
" clip-path="url(#p111f8205e3)" style="fill: #1f77b4"/>
   </g>
   <g id="patch_61">
    <path d="M 146.817082 307.584 
L 148.075433 307.584 
L 148.075433 307.493849 
L 146.817082 307.493849 
z
" clip-path="url(#p111f8205e3)" style="fill: #1f77b4"/>
   </g>
   <g id="patch_62">
    <path d="M 148.075433 307.584 
L 149.333784 307.584 
L 149.333784 307.512501 
L 148.075433 307.512501 
z
" clip-path="url(#p111f8205e3)" style="fill: #1f77b4"/>
   </g>
   <g id="patch_63">
    <path d="M 149.333784 307.584 
L 150.592135 307.584 
L 150.592135 307.546696 
L 149.333784 307.546696 
z
" clip-path="url(#p111f8205e3)" style="fill: #1f77b4"/>
   </g>
   <g id="patch_64">
    <path d="M 150.592135 307.584 
L 151.850486 307.584 
L 151.850486 307.528044 
L 150.592135 307.528044 
z
" clip-path="url(#p111f8205e3)" style="fill: #1f77b4"/>
   </g>
   <g id="patch_65">
    <path d="M 151.850486 307.584 
L 153.108837 307.584 
L 153.108837 307.556022 
L 151.850486 307.556022 
z
" clip-path="url(#p111f8205e3)" style="fill: #1f77b4"/>
   </g>
   <g id="patch_66">
    <path d="M 153.108837 307.584 
L 154.367188 307.584 
L 154.367188 307.534261 
L 153.108837 307.534261 
z
" clip-path="url(#p111f8205e3)" style="fill: #1f77b4"/>
   </g>
   <g id="patch_67">
    <path d="M 154.367188 307.584 
L 155.625539 307.584 
L 155.625539 307.556022 
L 154.367188 307.556022 
z
" clip-path="url(#p111f8205e3)" style="fill: #1f77b4"/>
   </g>
   <g id="patch_68">
    <path d="M 155.625539 307.584 
L 156.88389 307.584 
L 156.88389 307.53737 
L 155.625539 307.53737 
z
" clip-path="url(#p111f8205e3)" style="fill: #1f77b4"/>
   </g>
   <g id="patch_69">
    <path d="M 156.88389 307.584 
L 158.142241 307.584 
L 158.142241 307.549805 
L 156.88389 307.549805 
z
" clip-path="url(#p111f8205e3)" style="fill: #1f77b4"/>
   </g>
   <g id="patch_70">
    <path d="M 158.142241 307.584 
L 159.400592 307.584 
L 159.400592 307.568457 
L 158.142241 307.568457 
z
" clip-path="url(#p111f8205e3)" style="fill: #1f77b4"/>
   </g>
   <g id="patch_71">
    <path d="M 159.400592 307.584 
L 160.658943 307.584 
L 160.658943 307.549805 
L 159.400592 307.549805 
z
" clip-path="url(#p111f8205e3)" style="fill: #1f77b4"/>
   </g>
   <g id="patch_72">
    <path d="M 160.658943 307.584 
L 161.917294 307.584 
L 161.917294 307.562239 
L 160.658943 307.562239 
z
" clip-path="url(#p111f8205e3)" style="fill: #1f77b4"/>
   </g>
   <g id="patch_73">
    <path d="M 161.917294 307.584 
L 163.175645 307.584 
L 163.175645 307.546696 
L 161.917294 307.546696 
z
" clip-path="url(#p111f8205e3)" style="fill: #1f77b4"/>
   </g>
   <g id="patch_74">
    <path d="M 163.175645 307.584 
L 164.433996 307.584 
L 164.433996 307.559131 
L 163.175645 307.559131 
z
" clip-path="url(#p111f8205e3)" style="fill: #1f77b4"/>
   </g>
   <g id="patch_75">
    <path d="M 164.433996 307.584 
L 165.692347 307.584 
L 165.692347 307.552913 
L 164.433996 307.552913 
z
" clip-path="url(#p111f8205e3)" style="fill: #1f77b4"/>
   </g>
   <g id="patch_76">
    <path d="M 165.692347 307.584 
L 166.950698 307.584 
L 166.950698 307.565348 
L 165.692347 307.565348 
z
" clip-path="url(#p111f8205e3)" style="fill: #1f77b4"/>
   </g>
   <g id="patch_77">
    <path d="M 166.950698 307.584 
L 168.209049 307.584 
L 168.209049 307.559131 
L 166.950698 307.559131 
z
" clip-path="url(#p111f8205e3)" style="fill: #1f77b4"/>
   </g>
   <g id="patch_78">
    <path d="M 168.209049 307.584 
L 169.4674 307.584 
L 169.4674 307.552913 
L 168.209049 307.552913 
z
" clip-path="url(#p111f8205e3)" style="fill: #1f77b4"/>
   </g>
   <g id="patch_79">
    <path d="M 169.4674 307.584 
L 170.725751 307.584 
L 170.725751 307.559131 
L 169.4674 307.559131 
z
" clip-path="url(#p111f8205e3)" style="fill: #1f77b4"/>
   </g>
   <g id="patch_80">
    <path d="M 170.725751 307.584 
L 171.984101 307.584 
L 171.984101 307.571565 
L 170.725751 307.571565 
z
" clip-path="url(#p111f8205e3)" style="fill: #1f77b4"/>
   </g>
   <g id="patch_81">
    <path d="M 171.984101 307.584 
L 173.242452 307.584 
L 173.242452 307.562239 
L 171.984101 307.562239 
z
" clip-path="url(#p111f8205e3)" style="fill: #1f77b4"/>
   </g>
   <g id="patch_82">
    <path d="M 173.242452 307.584 
L 174.500803 307.584 
L 174.500803 307.562239 
L 173.242452 307.562239 
z
" clip-path="url(#p111f8205e3)" style="fill: #1f77b4"/>
   </g>
   <g id="patch_83">
    <path d="M 174.500803 307.584 
L 175.759154 307.584 
L 175.759154 307.565348 
L 174.500803 307.565348 
z
" clip-path="url(#p111f8205e3)" style="fill: #1f77b4"/>
   </g>
   <g id="patch_84">
    <path d="M 175.759154 307.584 
L 177.017505 307.584 
L 177.017505 307.571565 
L 175.759154 307.571565 
z
" clip-path="url(#p111f8205e3)" style="fill: #1f77b4"/>
   </g>
   <g id="patch_85">
    <path d="M 177.017505 307.584 
L 178.275856 307.584 
L 178.275856 307.562239 
L 177.017505 307.562239 
z
" clip-path="url(#p111f8205e3)" style="fill: #1f77b4"/>
   </g>
   <g id="patch_86">
    <path d="M 178.275856 307.584 
L 179.534207 307.584 
L 179.534207 307.562239 
L 178.275856 307.562239 
z
" clip-path="url(#p111f8205e3)" style="fill: #1f77b4"/>
   </g>
   <g id="patch_87">
    <path d="M 179.534207 307.584 
L 180.792558 307.584 
L 180.792558 307.574674 
L 179.534207 307.574674 
z
" clip-path="url(#p111f8205e3)" style="fill: #1f77b4"/>
   </g>
   <g id="patch_88">
    <path d="M 180.792558 307.584 
L 182.050909 307.584 
L 182.050909 307.559131 
L 180.792558 307.559131 
z
" clip-path="url(#p111f8205e3)" style="fill: #1f77b4"/>
   </g>
   <g id="patch_89">
    <path d="M 182.050909 307.584 
L 183.30926 307.584 
L 183.30926 307.577783 
L 182.050909 307.577783 
z
" clip-path="url(#p111f8205e3)" style="fill: #1f77b4"/>
   </g>
   <g id="patch_90">
    <path d="M 183.30926 307.584 
L 184.567611 307.584 
L 184.567611 307.580891 
L 183.30926 307.580891 
z
" clip-path="url(#p111f8205e3)" style="fill: #1f77b4"/>
   </g>
   <g id="patch_91">
    <path d="M 184.567611 307.584 
L 185.825962 307.584 
L 185.825962 307.580891 
L 184.567611 307.580891 
z
" clip-path="url(#p111f8205e3)" style="fill: #1f77b4"/>
   </g>
   <g id="patch_92">
    <path d="M 185.825962 307.584 
L 187.084313 307.584 
L 187.084313 307.574674 
L 185.825962 307.574674 
z
" clip-path="url(#p111f8205e3)" style="fill: #1f77b4"/>
   </g>
   <g id="patch_93">
    <path d="M 187.084313 307.584 
L 188.342664 307.584 
L 188.342664 307.574674 
L 187.084313 307.574674 
z
" clip-path="url(#p111f8205e3)" style="fill: #1f77b4"/>
   </g>
   <g id="patch_94">
    <path d="M 188.342664 307.584 
L 189.601015 307.584 
L 189.601015 307.574674 
L 188.342664 307.574674 
z
" clip-path="url(#p111f8205e3)" style="fill: #1f77b4"/>
   </g>
   <g id="patch_95">
    <path d="M 189.601015 307.584 
L 190.859366 307.584 
L 190.859366 307.574674 
L 189.601015 307.574674 
z
" clip-path="url(#p111f8205e3)" style="fill: #1f77b4"/>
   </g>
   <g id="patch_96">
    <path d="M 190.859366 307.584 
L 192.117717 307.584 
L 192.117717 307.577783 
L 190.859366 307.577783 
z
" clip-path="url(#p111f8205e3)" style="fill: #1f77b4"/>
   </g>
   <g id="patch_97">
    <path d="M 192.117717 307.584 
L 193.376068 307.584 
L 193.376068 307.580891 
L 192.117717 307.580891 
z
" clip-path="url(#p111f8205e3)" style="fill: #1f77b4"/>
   </g>
   <g id="patch_98">
    <path d="M 193.376068 307.584 
L 194.634419 307.584 
L 194.634419 307.577783 
L 193.376068 307.577783 
z
" clip-path="url(#p111f8205e3)" style="fill: #1f77b4"/>
   </g>
   <g id="patch_99">
    <path d="M 194.634419 307.584 
L 195.89277 307.584 
L 195.89277 307.584 
L 194.634419 307.584 
z
" clip-path="url(#p111f8205e3)" style="fill: #1f77b4"/>
   </g>
   <g id="patch_100">
    <path d="M 195.89277 307.584 
L 197.151121 307.584 
L 197.151121 307.577783 
L 195.89277 307.577783 
z
" clip-path="url(#p111f8205e3)" style="fill: #1f77b4"/>
   </g>
   <g id="patch_101">
    <path d="M 197.151121 307.584 
L 198.409471 307.584 
L 198.409471 307.577783 
L 197.151121 307.577783 
z
" clip-path="url(#p111f8205e3)" style="fill: #1f77b4"/>
   </g>
   <g id="patch_102">
    <path d="M 198.409471 307.584 
L 199.667822 307.584 
L 199.667822 307.580891 
L 198.409471 307.580891 
z
" clip-path="url(#p111f8205e3)" style="fill: #1f77b4"/>
   </g>
   <g id="patch_103">
    <path d="M 199.667822 307.584 
L 200.926173 307.584 
L 200.926173 307.584 
L 199.667822 307.584 
z
" clip-path="url(#p111f8205e3)" style="fill: #1f77b4"/>
   </g>
   <g id="patch_104">
    <path d="M 200.926173 307.584 
L 202.184524 307.584 
L 202.184524 307.571565 
L 200.926173 307.571565 
z
" clip-path="url(#p111f8205e3)" style="fill: #1f77b4"/>
   </g>
   <g id="patch_105">
    <path d="M 202.184524 307.584 
L 203.442875 307.584 
L 203.442875 307.580891 
L 202.184524 307.580891 
z
" clip-path="url(#p111f8205e3)" style="fill: #1f77b4"/>
   </g>
   <g id="patch_106">
    <path d="M 203.442875 307.584 
L 204.701226 307.584 
L 204.701226 307.577783 
L 203.442875 307.577783 
z
" clip-path="url(#p111f8205e3)" style="fill: #1f77b4"/>
   </g>
   <g id="patch_107">
    <path d="M 204.701226 307.584 
L 205.959577 307.584 
L 205.959577 307.577783 
L 204.701226 307.577783 
z
" clip-path="url(#p111f8205e3)" style="fill: #1f77b4"/>
   </g>
   <g id="patch_108">
    <path d="M 205.959577 307.584 
L 207.217928 307.584 
L 207.217928 307.562239 
L 205.959577 307.562239 
z
" clip-path="url(#p111f8205e3)" style="fill: #1f77b4"/>
   </g>
   <g id="patch_109">
    <path d="M 207.217928 307.584 
L 208.476279 307.584 
L 208.476279 307.580891 
L 207.217928 307.580891 
z
" clip-path="url(#p111f8205e3)" style="fill: #1f77b4"/>
   </g>
   <g id="patch_110">
    <path d="M 208.476279 307.584 
L 209.73463 307.584 
L 209.73463 307.584 
L 208.476279 307.584 
z
" clip-path="url(#p111f8205e3)" style="fill: #1f77b4"/>
   </g>
   <g id="patch_111">
    <path d="M 209.73463 307.584 
L 210.992981 307.584 
L 210.992981 307.580891 
L 209.73463 307.580891 
z
" clip-path="url(#p111f8205e3)" style="fill: #1f77b4"/>
   </g>
   <g id="patch_112">
    <path d="M 210.992981 307.584 
L 212.251332 307.584 
L 212.251332 307.584 
L 210.992981 307.584 
z
" clip-path="url(#p111f8205e3)" style="fill: #1f77b4"/>
   </g>
   <g id="patch_113">
    <path d="M 212.251332 307.584 
L 213.509683 307.584 
L 213.509683 307.584 
L 212.251332 307.584 
z
" clip-path="url(#p111f8205e3)" style="fill: #1f77b4"/>
   </g>
   <g id="patch_114">
    <path d="M 213.509683 307.584 
L 214.768034 307.584 
L 214.768034 307.580891 
L 213.509683 307.580891 
z
" clip-path="url(#p111f8205e3)" style="fill: #1f77b4"/>
   </g>
   <g id="patch_115">
    <path d="M 214.768034 307.584 
L 216.026385 307.584 
L 216.026385 307.577783 
L 214.768034 307.577783 
z
" clip-path="url(#p111f8205e3)" style="fill: #1f77b4"/>
   </g>
   <g id="patch_116">
    <path d="M 216.026385 307.584 
L 217.284736 307.584 
L 217.284736 307.574674 
L 216.026385 307.574674 
z
" clip-path="url(#p111f8205e3)" style="fill: #1f77b4"/>
   </g>
   <g id="patch_117">
    <path d="M 217.284736 307.584 
L 218.543087 307.584 
L 218.543087 307.580891 
L 217.284736 307.580891 
z
" clip-path="url(#p111f8205e3)" style="fill: #1f77b4"/>
   </g>
   <g id="patch_118">
    <path d="M 218.543087 307.584 
L 219.801438 307.584 
L 219.801438 307.584 
L 218.543087 307.584 
z
" clip-path="url(#p111f8205e3)" style="fill: #1f77b4"/>
   </g>
   <g id="patch_119">
    <path d="M 219.801438 307.584 
L 221.059789 307.584 
L 221.059789 307.580891 
L 219.801438 307.580891 
z
" clip-path="url(#p111f8205e3)" style="fill: #1f77b4"/>
   </g>
   <g id="patch_120">
    <path d="M 221.059789 307.584 
L 222.31814 307.584 
L 222.31814 307.580891 
L 221.059789 307.580891 
z
" clip-path="url(#p111f8205e3)" style="fill: #1f77b4"/>
   </g>
   <g id="patch_121">
    <path d="M 222.31814 307.584 
L 223.57649 307.584 
L 223.57649 307.577783 
L 222.31814 307.577783 
z
" clip-path="url(#p111f8205e3)" style="fill: #1f77b4"/>
   </g>
   <g id="patch_122">
    <path d="M 223.57649 307.584 
L 224.834841 307.584 
L 224.834841 307.580891 
L 223.57649 307.580891 
z
" clip-path="url(#p111f8205e3)" style="fill: #1f77b4"/>
   </g>
   <g id="patch_123">
    <path d="M 224.834841 307.584 
L 226.093192 307.584 
L 226.093192 307.577783 
L 224.834841 307.577783 
z
" clip-path="url(#p111f8205e3)" style="fill: #1f77b4"/>
   </g>
   <g id="patch_124">
    <path d="M 226.093192 307.584 
L 227.351543 307.584 
L 227.351543 307.584 
L 226.093192 307.584 
z
" clip-path="url(#p111f8205e3)" style="fill: #1f77b4"/>
   </g>
   <g id="patch_125">
    <path d="M 227.351543 307.584 
L 228.609894 307.584 
L 228.609894 307.584 
L 227.351543 307.584 
z
" clip-path="url(#p111f8205e3)" style="fill: #1f77b4"/>
   </g>
   <g id="patch_126">
    <path d="M 228.609894 307.584 
L 229.868245 307.584 
L 229.868245 307.584 
L 228.609894 307.584 
z
" clip-path="url(#p111f8205e3)" style="fill: #1f77b4"/>
   </g>
   <g id="patch_127">
    <path d="M 229.868245 307.584 
L 231.126596 307.584 
L 231.126596 307.580891 
L 229.868245 307.580891 
z
" clip-path="url(#p111f8205e3)" style="fill: #1f77b4"/>
   </g>
   <g id="patch_128">
    <path d="M 231.126596 307.584 
L 232.384947 307.584 
L 232.384947 307.584 
L 231.126596 307.584 
z
" clip-path="url(#p111f8205e3)" style="fill: #1f77b4"/>
   </g>
   <g id="patch_129">
    <path d="M 232.384947 307.584 
L 233.643298 307.584 
L 233.643298 307.584 
L 232.384947 307.584 
z
" clip-path="url(#p111f8205e3)" style="fill: #1f77b4"/>
   </g>
   <g id="patch_130">
    <path d="M 233.643298 307.584 
L 234.901649 307.584 
L 234.901649 307.584 
L 233.643298 307.584 
z
" clip-path="url(#p111f8205e3)" style="fill: #1f77b4"/>
   </g>
   <g id="patch_131">
    <path d="M 234.901649 307.584 
L 236.16 307.584 
L 236.16 307.580891 
L 234.901649 307.580891 
z
" clip-path="url(#p111f8205e3)" style="fill: #1f77b4"/>
   </g>
   <g id="patch_132">
    <path d="M 236.16 307.584 
L 237.418351 307.584 
L 237.418351 307.584 
L 236.16 307.584 
z
" clip-path="url(#p111f8205e3)" style="fill: #1f77b4"/>
   </g>
   <g id="patch_133">
    <path d="M 237.418351 307.584 
L 238.676702 307.584 
L 238.676702 307.584 
L 237.418351 307.584 
z
" clip-path="url(#p111f8205e3)" style="fill: #1f77b4"/>
   </g>
   <g id="patch_134">
    <path d="M 238.676702 307.584 
L 239.935053 307.584 
L 239.935053 307.580891 
L 238.676702 307.580891 
z
" clip-path="url(#p111f8205e3)" style="fill: #1f77b4"/>
   </g>
   <g id="patch_135">
    <path d="M 239.935053 307.584 
L 241.193404 307.584 
L 241.193404 307.584 
L 239.935053 307.584 
z
" clip-path="url(#p111f8205e3)" style="fill: #1f77b4"/>
   </g>
   <g id="patch_136">
    <path d="M 241.193404 307.584 
L 242.451755 307.584 
L 242.451755 307.584 
L 241.193404 307.584 
z
" clip-path="url(#p111f8205e3)" style="fill: #1f77b4"/>
   </g>
   <g id="patch_137">
    <path d="M 242.451755 307.584 
L 243.710106 307.584 
L 243.710106 307.584 
L 242.451755 307.584 
z
" clip-path="url(#p111f8205e3)" style="fill: #1f77b4"/>
   </g>
   <g id="patch_138">
    <path d="M 243.710106 307.584 
L 244.968457 307.584 
L 244.968457 307.584 
L 243.710106 307.584 
z
" clip-path="url(#p111f8205e3)" style="fill: #1f77b4"/>
   </g>
   <g id="patch_139">
    <path d="M 244.968457 307.584 
L 246.226808 307.584 
L 246.226808 307.584 
L 244.968457 307.584 
z
" clip-path="url(#p111f8205e3)" style="fill: #1f77b4"/>
   </g>
   <g id="patch_140">
    <path d="M 246.226808 307.584 
L 247.485159 307.584 
L 247.485159 307.580891 
L 246.226808 307.580891 
z
" clip-path="url(#p111f8205e3)" style="fill: #1f77b4"/>
   </g>
   <g id="patch_141">
    <path d="M 247.485159 307.584 
L 248.74351 307.584 
L 248.74351 307.584 
L 247.485159 307.584 
z
" clip-path="url(#p111f8205e3)" style="fill: #1f77b4"/>
   </g>
   <g id="patch_142">
    <path d="M 248.74351 307.584 
L 250.00186 307.584 
L 250.00186 307.584 
L 248.74351 307.584 
z
" clip-path="url(#p111f8205e3)" style="fill: #1f77b4"/>
   </g>
   <g id="patch_143">
    <path d="M 250.00186 307.584 
L 251.260211 307.584 
L 251.260211 307.584 
L 250.00186 307.584 
z
" clip-path="url(#p111f8205e3)" style="fill: #1f77b4"/>
   </g>
   <g id="patch_144">
    <path d="M 251.260211 307.584 
L 252.518562 307.584 
L 252.518562 307.584 
L 251.260211 307.584 
z
" clip-path="url(#p111f8205e3)" style="fill: #1f77b4"/>
   </g>
   <g id="patch_145">
    <path d="M 252.518562 307.584 
L 253.776913 307.584 
L 253.776913 307.584 
L 252.518562 307.584 
z
" clip-path="url(#p111f8205e3)" style="fill: #1f77b4"/>
   </g>
   <g id="patch_146">
    <path d="M 253.776913 307.584 
L 255.035264 307.584 
L 255.035264 307.584 
L 253.776913 307.584 
z
" clip-path="url(#p111f8205e3)" style="fill: #1f77b4"/>
   </g>
   <g id="patch_147">
    <path d="M 255.035264 307.584 
L 256.293615 307.584 
L 256.293615 307.584 
L 255.035264 307.584 
z
" clip-path="url(#p111f8205e3)" style="fill: #1f77b4"/>
   </g>
   <g id="patch_148">
    <path d="M 256.293615 307.584 
L 257.551966 307.584 
L 257.551966 307.584 
L 256.293615 307.584 
z
" clip-path="url(#p111f8205e3)" style="fill: #1f77b4"/>
   </g>
   <g id="patch_149">
    <path d="M 257.551966 307.584 
L 258.810317 307.584 
L 258.810317 307.584 
L 257.551966 307.584 
z
" clip-path="url(#p111f8205e3)" style="fill: #1f77b4"/>
   </g>
   <g id="patch_150">
    <path d="M 258.810317 307.584 
L 260.068668 307.584 
L 260.068668 307.577783 
L 258.810317 307.577783 
z
" clip-path="url(#p111f8205e3)" style="fill: #1f77b4"/>
   </g>
   <g id="patch_151">
    <path d="M 260.068668 307.584 
L 261.327019 307.584 
L 261.327019 307.584 
L 260.068668 307.584 
z
" clip-path="url(#p111f8205e3)" style="fill: #1f77b4"/>
   </g>
   <g id="patch_152">
    <path d="M 261.327019 307.584 
L 262.58537 307.584 
L 262.58537 307.584 
L 261.327019 307.584 
z
" clip-path="url(#p111f8205e3)" style="fill: #1f77b4"/>
   </g>
   <g id="patch_153">
    <path d="M 262.58537 307.584 
L 263.843721 307.584 
L 263.843721 307.584 
L 262.58537 307.584 
z
" clip-path="url(#p111f8205e3)" style="fill: #1f77b4"/>
   </g>
   <g id="patch_154">
    <path d="M 263.843721 307.584 
L 265.102072 307.584 
L 265.102072 307.584 
L 263.843721 307.584 
z
" clip-path="url(#p111f8205e3)" style="fill: #1f77b4"/>
   </g>
   <g id="patch_155">
    <path d="M 265.102072 307.584 
L 266.360423 307.584 
L 266.360423 307.584 
L 265.102072 307.584 
z
" clip-path="url(#p111f8205e3)" style="fill: #1f77b4"/>
   </g>
   <g id="patch_156">
    <path d="M 266.360423 307.584 
L 267.618774 307.584 
L 267.618774 307.584 
L 266.360423 307.584 
z
" clip-path="url(#p111f8205e3)" style="fill: #1f77b4"/>
   </g>
   <g id="patch_157">
    <path d="M 267.618774 307.584 
L 268.877125 307.584 
L 268.877125 307.584 
L 267.618774 307.584 
z
" clip-path="url(#p111f8205e3)" style="fill: #1f77b4"/>
   </g>
   <g id="patch_158">
    <path d="M 268.877125 307.584 
L 270.135476 307.584 
L 270.135476 307.580891 
L 268.877125 307.580891 
z
" clip-path="url(#p111f8205e3)" style="fill: #1f77b4"/>
   </g>
   <g id="patch_159">
    <path d="M 270.135476 307.584 
L 271.393827 307.584 
L 271.393827 307.584 
L 270.135476 307.584 
z
" clip-path="url(#p111f8205e3)" style="fill: #1f77b4"/>
   </g>
   <g id="patch_160">
    <path d="M 271.393827 307.584 
L 272.652178 307.584 
L 272.652178 307.584 
L 271.393827 307.584 
z
" clip-path="url(#p111f8205e3)" style="fill: #1f77b4"/>
   </g>
   <g id="patch_161">
    <path d="M 272.652178 307.584 
L 273.910529 307.584 
L 273.910529 307.584 
L 272.652178 307.584 
z
" clip-path="url(#p111f8205e3)" style="fill: #1f77b4"/>
   </g>
   <g id="patch_162">
    <path d="M 273.910529 307.584 
L 275.168879 307.584 
L 275.168879 307.584 
L 273.910529 307.584 
z
" clip-path="url(#p111f8205e3)" style="fill: #1f77b4"/>
   </g>
   <g id="patch_163">
    <path d="M 275.168879 307.584 
L 276.42723 307.584 
L 276.42723 307.584 
L 275.168879 307.584 
z
" clip-path="url(#p111f8205e3)" style="fill: #1f77b4"/>
   </g>
   <g id="patch_164">
    <path d="M 276.42723 307.584 
L 277.685581 307.584 
L 277.685581 307.584 
L 276.42723 307.584 
z
" clip-path="url(#p111f8205e3)" style="fill: #1f77b4"/>
   </g>
   <g id="patch_165">
    <path d="M 277.685581 307.584 
L 278.943932 307.584 
L 278.943932 307.584 
L 277.685581 307.584 
z
" clip-path="url(#p111f8205e3)" style="fill: #1f77b4"/>
   </g>
   <g id="patch_166">
    <path d="M 278.943932 307.584 
L 280.202283 307.584 
L 280.202283 307.584 
L 278.943932 307.584 
z
" clip-path="url(#p111f8205e3)" style="fill: #1f77b4"/>
   </g>
   <g id="patch_167">
    <path d="M 280.202283 307.584 
L 281.460634 307.584 
L 281.460634 307.584 
L 280.202283 307.584 
z
" clip-path="url(#p111f8205e3)" style="fill: #1f77b4"/>
   </g>
   <g id="patch_168">
    <path d="M 281.460634 307.584 
L 282.718985 307.584 
L 282.718985 307.584 
L 281.460634 307.584 
z
" clip-path="url(#p111f8205e3)" style="fill: #1f77b4"/>
   </g>
   <g id="patch_169">
    <path d="M 282.718985 307.584 
L 283.977336 307.584 
L 283.977336 307.584 
L 282.718985 307.584 
z
" clip-path="url(#p111f8205e3)" style="fill: #1f77b4"/>
   </g>
   <g id="patch_170">
    <path d="M 283.977336 307.584 
L 285.235687 307.584 
L 285.235687 307.584 
L 283.977336 307.584 
z
" clip-path="url(#p111f8205e3)" style="fill: #1f77b4"/>
   </g>
   <g id="patch_171">
    <path d="M 285.235687 307.584 
L 286.494038 307.584 
L 286.494038 307.580891 
L 285.235687 307.580891 
z
" clip-path="url(#p111f8205e3)" style="fill: #1f77b4"/>
   </g>
   <g id="patch_172">
    <path d="M 286.494038 307.584 
L 287.752389 307.584 
L 287.752389 307.584 
L 286.494038 307.584 
z
" clip-path="url(#p111f8205e3)" style="fill: #1f77b4"/>
   </g>
   <g id="patch_173">
    <path d="M 287.752389 307.584 
L 289.01074 307.584 
L 289.01074 307.584 
L 287.752389 307.584 
z
" clip-path="url(#p111f8205e3)" style="fill: #1f77b4"/>
   </g>
   <g id="patch_174">
    <path d="M 289.01074 307.584 
L 290.269091 307.584 
L 290.269091 307.584 
L 289.01074 307.584 
z
" clip-path="url(#p111f8205e3)" style="fill: #1f77b4"/>
   </g>
   <g id="patch_175">
    <path d="M 290.269091 307.584 
L 291.527442 307.584 
L 291.527442 307.584 
L 290.269091 307.584 
z
" clip-path="url(#p111f8205e3)" style="fill: #1f77b4"/>
   </g>
   <g id="patch_176">
    <path d="M 291.527442 307.584 
L 292.785793 307.584 
L 292.785793 307.584 
L 291.527442 307.584 
z
" clip-path="url(#p111f8205e3)" style="fill: #1f77b4"/>
   </g>
   <g id="patch_177">
    <path d="M 292.785793 307.584 
L 294.044144 307.584 
L 294.044144 307.580891 
L 292.785793 307.580891 
z
" clip-path="url(#p111f8205e3)" style="fill: #1f77b4"/>
   </g>
   <g id="patch_178">
    <path d="M 294.044144 307.584 
L 295.302495 307.584 
L 295.302495 307.584 
L 294.044144 307.584 
z
" clip-path="url(#p111f8205e3)" style="fill: #1f77b4"/>
   </g>
   <g id="patch_179">
    <path d="M 295.302495 307.584 
L 296.560846 307.584 
L 296.560846 307.584 
L 295.302495 307.584 
z
" clip-path="url(#p111f8205e3)" style="fill: #1f77b4"/>
   </g>
   <g id="patch_180">
    <path d="M 296.560846 307.584 
L 297.819197 307.584 
L 297.819197 307.584 
L 296.560846 307.584 
z
" clip-path="url(#p111f8205e3)" style="fill: #1f77b4"/>
   </g>
   <g id="patch_181">
    <path d="M 297.819197 307.584 
L 299.077548 307.584 
L 299.077548 307.584 
L 297.819197 307.584 
z
" clip-path="url(#p111f8205e3)" style="fill: #1f77b4"/>
   </g>
   <g id="patch_182">
    <path d="M 299.077548 307.584 
L 300.335899 307.584 
L 300.335899 307.584 
L 299.077548 307.584 
z
" clip-path="url(#p111f8205e3)" style="fill: #1f77b4"/>
   </g>
   <g id="patch_183">
    <path d="M 300.335899 307.584 
L 301.594249 307.584 
L 301.594249 307.584 
L 300.335899 307.584 
z
" clip-path="url(#p111f8205e3)" style="fill: #1f77b4"/>
   </g>
   <g id="patch_184">
    <path d="M 301.594249 307.584 
L 302.8526 307.584 
L 302.8526 307.584 
L 301.594249 307.584 
z
" clip-path="url(#p111f8205e3)" style="fill: #1f77b4"/>
   </g>
   <g id="patch_185">
    <path d="M 302.8526 307.584 
L 304.110951 307.584 
L 304.110951 307.584 
L 302.8526 307.584 
z
" clip-path="url(#p111f8205e3)" style="fill: #1f77b4"/>
   </g>
   <g id="patch_186">
    <path d="M 304.110951 307.584 
L 305.369302 307.584 
L 305.369302 307.584 
L 304.110951 307.584 
z
" clip-path="url(#p111f8205e3)" style="fill: #1f77b4"/>
   </g>
   <g id="patch_187">
    <path d="M 305.369302 307.584 
L 306.627653 307.584 
L 306.627653 307.584 
L 305.369302 307.584 
z
" clip-path="url(#p111f8205e3)" style="fill: #1f77b4"/>
   </g>
   <g id="patch_188">
    <path d="M 306.627653 307.584 
L 307.886004 307.584 
L 307.886004 307.584 
L 306.627653 307.584 
z
" clip-path="url(#p111f8205e3)" style="fill: #1f77b4"/>
   </g>
   <g id="patch_189">
    <path d="M 307.886004 307.584 
L 309.144355 307.584 
L 309.144355 307.584 
L 307.886004 307.584 
z
" clip-path="url(#p111f8205e3)" style="fill: #1f77b4"/>
   </g>
   <g id="patch_190">
    <path d="M 309.144355 307.584 
L 310.402706 307.584 
L 310.402706 307.584 
L 309.144355 307.584 
z
" clip-path="url(#p111f8205e3)" style="fill: #1f77b4"/>
   </g>
   <g id="patch_191">
    <path d="M 310.402706 307.584 
L 311.661057 307.584 
L 311.661057 307.584 
L 310.402706 307.584 
z
" clip-path="url(#p111f8205e3)" style="fill: #1f77b4"/>
   </g>
   <g id="patch_192">
    <path d="M 311.661057 307.584 
L 312.919408 307.584 
L 312.919408 307.584 
L 311.661057 307.584 
z
" clip-path="url(#p111f8205e3)" style="fill: #1f77b4"/>
   </g>
   <g id="patch_193">
    <path d="M 312.919408 307.584 
L 314.177759 307.584 
L 314.177759 307.584 
L 312.919408 307.584 
z
" clip-path="url(#p111f8205e3)" style="fill: #1f77b4"/>
   </g>
   <g id="patch_194">
    <path d="M 314.177759 307.584 
L 315.43611 307.584 
L 315.43611 307.584 
L 314.177759 307.584 
z
" clip-path="url(#p111f8205e3)" style="fill: #1f77b4"/>
   </g>
   <g id="patch_195">
    <path d="M 315.43611 307.584 
L 316.694461 307.584 
L 316.694461 307.584 
L 315.43611 307.584 
z
" clip-path="url(#p111f8205e3)" style="fill: #1f77b4"/>
   </g>
   <g id="patch_196">
    <path d="M 316.694461 307.584 
L 317.952812 307.584 
L 317.952812 307.584 
L 316.694461 307.584 
z
" clip-path="url(#p111f8205e3)" style="fill: #1f77b4"/>
   </g>
   <g id="patch_197">
    <path d="M 317.952812 307.584 
L 319.211163 307.584 
L 319.211163 307.584 
L 317.952812 307.584 
z
" clip-path="url(#p111f8205e3)" style="fill: #1f77b4"/>
   </g>
   <g id="patch_198">
    <path d="M 319.211163 307.584 
L 320.469514 307.584 
L 320.469514 307.584 
L 319.211163 307.584 
z
" clip-path="url(#p111f8205e3)" style="fill: #1f77b4"/>
   </g>
   <g id="patch_199">
    <path d="M 320.469514 307.584 
L 321.727865 307.584 
L 321.727865 307.584 
L 320.469514 307.584 
z
" clip-path="url(#p111f8205e3)" style="fill: #1f77b4"/>
   </g>
   <g id="patch_200">
    <path d="M 321.727865 307.584 
L 322.986216 307.584 
L 322.986216 307.584 
L 321.727865 307.584 
z
" clip-path="url(#p111f8205e3)" style="fill: #1f77b4"/>
   </g>
   <g id="patch_201">
    <path d="M 322.986216 307.584 
L 324.244567 307.584 
L 324.244567 307.584 
L 322.986216 307.584 
z
" clip-path="url(#p111f8205e3)" style="fill: #1f77b4"/>
   </g>
   <g id="patch_202">
    <path d="M 324.244567 307.584 
L 325.502918 307.584 
L 325.502918 307.584 
L 324.244567 307.584 
z
" clip-path="url(#p111f8205e3)" style="fill: #1f77b4"/>
   </g>
   <g id="patch_203">
    <path d="M 325.502918 307.584 
L 326.761268 307.584 
L 326.761268 307.584 
L 325.502918 307.584 
z
" clip-path="url(#p111f8205e3)" style="fill: #1f77b4"/>
   </g>
   <g id="patch_204">
    <path d="M 326.761268 307.584 
L 328.019619 307.584 
L 328.019619 307.584 
L 326.761268 307.584 
z
" clip-path="url(#p111f8205e3)" style="fill: #1f77b4"/>
   </g>
   <g id="patch_205">
    <path d="M 328.019619 307.584 
L 329.27797 307.584 
L 329.27797 307.584 
L 328.019619 307.584 
z
" clip-path="url(#p111f8205e3)" style="fill: #1f77b4"/>
   </g>
   <g id="patch_206">
    <path d="M 329.27797 307.584 
L 330.536321 307.584 
L 330.536321 307.584 
L 329.27797 307.584 
z
" clip-path="url(#p111f8205e3)" style="fill: #1f77b4"/>
   </g>
   <g id="patch_207">
    <path d="M 330.536321 307.584 
L 331.794672 307.584 
L 331.794672 307.584 
L 330.536321 307.584 
z
" clip-path="url(#p111f8205e3)" style="fill: #1f77b4"/>
   </g>
   <g id="patch_208">
    <path d="M 331.794672 307.584 
L 333.053023 307.584 
L 333.053023 307.584 
L 331.794672 307.584 
z
" clip-path="url(#p111f8205e3)" style="fill: #1f77b4"/>
   </g>
   <g id="patch_209">
    <path d="M 333.053023 307.584 
L 334.311374 307.584 
L 334.311374 307.584 
L 333.053023 307.584 
z
" clip-path="url(#p111f8205e3)" style="fill: #1f77b4"/>
   </g>
   <g id="patch_210">
    <path d="M 334.311374 307.584 
L 335.569725 307.584 
L 335.569725 307.584 
L 334.311374 307.584 
z
" clip-path="url(#p111f8205e3)" style="fill: #1f77b4"/>
   </g>
   <g id="patch_211">
    <path d="M 335.569725 307.584 
L 336.828076 307.584 
L 336.828076 307.584 
L 335.569725 307.584 
z
" clip-path="url(#p111f8205e3)" style="fill: #1f77b4"/>
   </g>
   <g id="patch_212">
    <path d="M 336.828076 307.584 
L 338.086427 307.584 
L 338.086427 307.584 
L 336.828076 307.584 
z
" clip-path="url(#p111f8205e3)" style="fill: #1f77b4"/>
   </g>
   <g id="patch_213">
    <path d="M 338.086427 307.584 
L 339.344778 307.584 
L 339.344778 307.584 
L 338.086427 307.584 
z
" clip-path="url(#p111f8205e3)" style="fill: #1f77b4"/>
   </g>
   <g id="patch_214">
    <path d="M 339.344778 307.584 
L 340.603129 307.584 
L 340.603129 307.584 
L 339.344778 307.584 
z
" clip-path="url(#p111f8205e3)" style="fill: #1f77b4"/>
   </g>
   <g id="patch_215">
    <path d="M 340.603129 307.584 
L 341.86148 307.584 
L 341.86148 307.584 
L 340.603129 307.584 
z
" clip-path="url(#p111f8205e3)" style="fill: #1f77b4"/>
   </g>
   <g id="patch_216">
    <path d="M 341.86148 307.584 
L 343.119831 307.584 
L 343.119831 307.584 
L 341.86148 307.584 
z
" clip-path="url(#p111f8205e3)" style="fill: #1f77b4"/>
   </g>
   <g id="patch_217">
    <path d="M 343.119831 307.584 
L 344.378182 307.584 
L 344.378182 307.584 
L 343.119831 307.584 
z
" clip-path="url(#p111f8205e3)" style="fill: #1f77b4"/>
   </g>
   <g id="patch_218">
    <path d="M 344.378182 307.584 
L 345.636533 307.584 
L 345.636533 307.584 
L 344.378182 307.584 
z
" clip-path="url(#p111f8205e3)" style="fill: #1f77b4"/>
   </g>
   <g id="patch_219">
    <path d="M 345.636533 307.584 
L 346.894884 307.584 
L 346.894884 307.584 
L 345.636533 307.584 
z
" clip-path="url(#p111f8205e3)" style="fill: #1f77b4"/>
   </g>
   <g id="patch_220">
    <path d="M 346.894884 307.584 
L 348.153235 307.584 
L 348.153235 307.584 
L 346.894884 307.584 
z
" clip-path="url(#p111f8205e3)" style="fill: #1f77b4"/>
   </g>
   <g id="patch_221">
    <path d="M 348.153235 307.584 
L 349.411586 307.584 
L 349.411586 307.584 
L 348.153235 307.584 
z
" clip-path="url(#p111f8205e3)" style="fill: #1f77b4"/>
   </g>
   <g id="patch_222">
    <path d="M 349.411586 307.584 
L 350.669937 307.584 
L 350.669937 307.584 
L 349.411586 307.584 
z
" clip-path="url(#p111f8205e3)" style="fill: #1f77b4"/>
   </g>
   <g id="patch_223">
    <path d="M 350.669937 307.584 
L 351.928288 307.584 
L 351.928288 307.584 
L 350.669937 307.584 
z
" clip-path="url(#p111f8205e3)" style="fill: #1f77b4"/>
   </g>
   <g id="patch_224">
    <path d="M 351.928288 307.584 
L 353.186638 307.584 
L 353.186638 307.584 
L 351.928288 307.584 
z
" clip-path="url(#p111f8205e3)" style="fill: #1f77b4"/>
   </g>
   <g id="patch_225">
    <path d="M 353.186638 307.584 
L 354.444989 307.584 
L 354.444989 307.584 
L 353.186638 307.584 
z
" clip-path="url(#p111f8205e3)" style="fill: #1f77b4"/>
   </g>
   <g id="patch_226">
    <path d="M 354.444989 307.584 
L 355.70334 307.584 
L 355.70334 307.584 
L 354.444989 307.584 
z
" clip-path="url(#p111f8205e3)" style="fill: #1f77b4"/>
   </g>
   <g id="patch_227">
    <path d="M 355.70334 307.584 
L 356.961691 307.584 
L 356.961691 307.584 
L 355.70334 307.584 
z
" clip-path="url(#p111f8205e3)" style="fill: #1f77b4"/>
   </g>
   <g id="patch_228">
    <path d="M 356.961691 307.584 
L 358.220042 307.584 
L 358.220042 307.584 
L 356.961691 307.584 
z
" clip-path="url(#p111f8205e3)" style="fill: #1f77b4"/>
   </g>
   <g id="patch_229">
    <path d="M 358.220042 307.584 
L 359.478393 307.584 
L 359.478393 307.584 
L 358.220042 307.584 
z
" clip-path="url(#p111f8205e3)" style="fill: #1f77b4"/>
   </g>
   <g id="patch_230">
    <path d="M 359.478393 307.584 
L 360.736744 307.584 
L 360.736744 307.580891 
L 359.478393 307.580891 
z
" clip-path="url(#p111f8205e3)" style="fill: #1f77b4"/>
   </g>
   <g id="patch_231">
    <path d="M 360.736744 307.584 
L 361.995095 307.584 
L 361.995095 307.584 
L 360.736744 307.584 
z
" clip-path="url(#p111f8205e3)" style="fill: #1f77b4"/>
   </g>
   <g id="patch_232">
    <path d="M 361.995095 307.584 
L 363.253446 307.584 
L 363.253446 307.584 
L 361.995095 307.584 
z
" clip-path="url(#p111f8205e3)" style="fill: #1f77b4"/>
   </g>
   <g id="patch_233">
    <path d="M 363.253446 307.584 
L 364.511797 307.584 
L 364.511797 307.584 
L 363.253446 307.584 
z
" clip-path="url(#p111f8205e3)" style="fill: #1f77b4"/>
   </g>
   <g id="patch_234">
    <path d="M 364.511797 307.584 
L 365.770148 307.584 
L 365.770148 307.584 
L 364.511797 307.584 
z
" clip-path="url(#p111f8205e3)" style="fill: #1f77b4"/>
   </g>
   <g id="patch_235">
    <path d="M 365.770148 307.584 
L 367.028499 307.584 
L 367.028499 307.584 
L 365.770148 307.584 
z
" clip-path="url(#p111f8205e3)" style="fill: #1f77b4"/>
   </g>
   <g id="patch_236">
    <path d="M 367.028499 307.584 
L 368.28685 307.584 
L 368.28685 307.584 
L 367.028499 307.584 
z
" clip-path="url(#p111f8205e3)" style="fill: #1f77b4"/>
   </g>
   <g id="patch_237">
    <path d="M 368.28685 307.584 
L 369.545201 307.584 
L 369.545201 307.584 
L 368.28685 307.584 
z
" clip-path="url(#p111f8205e3)" style="fill: #1f77b4"/>
   </g>
   <g id="patch_238">
    <path d="M 369.545201 307.584 
L 370.803552 307.584 
L 370.803552 307.584 
L 369.545201 307.584 
z
" clip-path="url(#p111f8205e3)" style="fill: #1f77b4"/>
   </g>
   <g id="patch_239">
    <path d="M 370.803552 307.584 
L 372.061903 307.584 
L 372.061903 307.584 
L 370.803552 307.584 
z
" clip-path="url(#p111f8205e3)" style="fill: #1f77b4"/>
   </g>
   <g id="patch_240">
    <path d="M 372.061903 307.584 
L 373.320254 307.584 
L 373.320254 307.584 
L 372.061903 307.584 
z
" clip-path="url(#p111f8205e3)" style="fill: #1f77b4"/>
   </g>
   <g id="patch_241">
    <path d="M 373.320254 307.584 
L 374.578605 307.584 
L 374.578605 307.584 
L 373.320254 307.584 
z
" clip-path="url(#p111f8205e3)" style="fill: #1f77b4"/>
   </g>
   <g id="patch_242">
    <path d="M 374.578605 307.584 
L 375.836956 307.584 
L 375.836956 307.584 
L 374.578605 307.584 
z
" clip-path="url(#p111f8205e3)" style="fill: #1f77b4"/>
   </g>
   <g id="patch_243">
    <path d="M 375.836956 307.584 
L 377.095307 307.584 
L 377.095307 307.584 
L 375.836956 307.584 
z
" clip-path="url(#p111f8205e3)" style="fill: #1f77b4"/>
   </g>
   <g id="patch_244">
    <path d="M 377.095307 307.584 
L 378.353658 307.584 
L 378.353658 307.584 
L 377.095307 307.584 
z
" clip-path="url(#p111f8205e3)" style="fill: #1f77b4"/>
   </g>
   <g id="patch_245">
    <path d="M 378.353658 307.584 
L 379.612008 307.584 
L 379.612008 307.584 
L 378.353658 307.584 
z
" clip-path="url(#p111f8205e3)" style="fill: #1f77b4"/>
   </g>
   <g id="patch_246">
    <path d="M 379.612008 307.584 
L 380.870359 307.584 
L 380.870359 307.584 
L 379.612008 307.584 
z
" clip-path="url(#p111f8205e3)" style="fill: #1f77b4"/>
   </g>
   <g id="patch_247">
    <path d="M 380.870359 307.584 
L 382.12871 307.584 
L 382.12871 307.584 
L 380.870359 307.584 
z
" clip-path="url(#p111f8205e3)" style="fill: #1f77b4"/>
   </g>
   <g id="patch_248">
    <path d="M 382.12871 307.584 
L 383.387061 307.584 
L 383.387061 307.584 
L 382.12871 307.584 
z
" clip-path="url(#p111f8205e3)" style="fill: #1f77b4"/>
   </g>
   <g id="patch_249">
    <path d="M 383.387061 307.584 
L 384.645412 307.584 
L 384.645412 307.584 
L 383.387061 307.584 
z
" clip-path="url(#p111f8205e3)" style="fill: #1f77b4"/>
   </g>
   <g id="patch_250">
    <path d="M 384.645412 307.584 
L 385.903763 307.584 
L 385.903763 307.584 
L 384.645412 307.584 
z
" clip-path="url(#p111f8205e3)" style="fill: #1f77b4"/>
   </g>
   <g id="patch_251">
    <path d="M 385.903763 307.584 
L 387.162114 307.584 
L 387.162114 307.584 
L 385.903763 307.584 
z
" clip-path="url(#p111f8205e3)" style="fill: #1f77b4"/>
   </g>
   <g id="patch_252">
    <path d="M 387.162114 307.584 
L 388.420465 307.584 
L 388.420465 307.584 
L 387.162114 307.584 
z
" clip-path="url(#p111f8205e3)" style="fill: #1f77b4"/>
   </g>
   <g id="patch_253">
    <path d="M 388.420465 307.584 
L 389.678816 307.584 
L 389.678816 307.584 
L 388.420465 307.584 
z
" clip-path="url(#p111f8205e3)" style="fill: #1f77b4"/>
   </g>
   <g id="patch_254">
    <path d="M 389.678816 307.584 
L 390.937167 307.584 
L 390.937167 307.584 
L 389.678816 307.584 
z
" clip-path="url(#p111f8205e3)" style="fill: #1f77b4"/>
   </g>
   <g id="patch_255">
    <path d="M 390.937167 307.584 
L 392.195518 307.584 
L 392.195518 307.584 
L 390.937167 307.584 
z
" clip-path="url(#p111f8205e3)" style="fill: #1f77b4"/>
   </g>
   <g id="patch_256">
    <path d="M 392.195518 307.584 
L 393.453869 307.584 
L 393.453869 307.584 
L 392.195518 307.584 
z
" clip-path="url(#p111f8205e3)" style="fill: #1f77b4"/>
   </g>
   <g id="patch_257">
    <path d="M 393.453869 307.584 
L 394.71222 307.584 
L 394.71222 307.584 
L 393.453869 307.584 
z
" clip-path="url(#p111f8205e3)" style="fill: #1f77b4"/>
   </g>
   <g id="patch_258">
    <path d="M 394.71222 307.584 
L 395.970571 307.584 
L 395.970571 307.584 
L 394.71222 307.584 
z
" clip-path="url(#p111f8205e3)" style="fill: #1f77b4"/>
   </g>
   <g id="patch_259">
    <path d="M 395.970571 307.584 
L 397.228922 307.584 
L 397.228922 307.584 
L 395.970571 307.584 
z
" clip-path="url(#p111f8205e3)" style="fill: #1f77b4"/>
   </g>
   <g id="patch_260">
    <path d="M 397.228922 307.584 
L 398.487273 307.584 
L 398.487273 307.580891 
L 397.228922 307.580891 
z
" clip-path="url(#p111f8205e3)" style="fill: #1f77b4"/>
   </g>
   <g id="matplotlib.axis_1">
    <g id="xtick_1">
     <g id="line2d_1">
      <defs>
       <path id="mbc4c4e5e75" d="M 0 0 
L 0 3.5 
" style="stroke: #000000; stroke-width: 0.8"/>
      </defs>
      <g>
       <use xlink:href="#mbc4c4e5e75" x="73.203552" y="307.584" style="stroke: #000000; stroke-width: 0.8"/>
      </g>
     </g>
     <g id="text_1">
      <!-- 0 -->
      <g transform="translate(70.022302 322.182437) scale(0.1 -0.1)">
       <defs>
        <path id="DejaVuSans-30" d="M 2034 4250 
Q 1547 4250 1301 3770 
Q 1056 3291 1056 2328 
Q 1056 1369 1301 889 
Q 1547 409 2034 409 
Q 2525 409 2770 889 
Q 3016 1369 3016 2328 
Q 3016 3291 2770 3770 
Q 2525 4250 2034 4250 
z
M 2034 4750 
Q 2819 4750 3233 4129 
Q 3647 3509 3647 2328 
Q 3647 1150 3233 529 
Q 2819 -91 2034 -91 
Q 1250 -91 836 529 
Q 422 1150 422 2328 
Q 422 3509 836 4129 
Q 1250 4750 2034 4750 
z
" transform="scale(0.015625)"/>
       </defs>
       <use xlink:href="#DejaVuSans-30"/>
      </g>
     </g>
    </g>
    <g id="xtick_2">
     <g id="line2d_2">
      <g>
       <use xlink:href="#mbc4c4e5e75" x="136.121099" y="307.584" style="stroke: #000000; stroke-width: 0.8"/>
      </g>
     </g>
     <g id="text_2">
      <!-- 50 -->
      <g transform="translate(129.758599 322.182437) scale(0.1 -0.1)">
       <defs>
        <path id="DejaVuSans-35" d="M 691 4666 
L 3169 4666 
L 3169 4134 
L 1269 4134 
L 1269 2991 
Q 1406 3038 1543 3061 
Q 1681 3084 1819 3084 
Q 2600 3084 3056 2656 
Q 3513 2228 3513 1497 
Q 3513 744 3044 326 
Q 2575 -91 1722 -91 
Q 1428 -91 1123 -41 
Q 819 9 494 109 
L 494 744 
Q 775 591 1075 516 
Q 1375 441 1709 441 
Q 2250 441 2565 725 
Q 2881 1009 2881 1497 
Q 2881 1984 2565 2268 
Q 2250 2553 1709 2553 
Q 1456 2553 1204 2497 
Q 953 2441 691 2322 
L 691 4666 
z
" transform="scale(0.015625)"/>
       </defs>
       <use xlink:href="#DejaVuSans-35"/>
       <use xlink:href="#DejaVuSans-30" x="63.623047"/>
      </g>
     </g>
    </g>
    <g id="xtick_3">
     <g id="line2d_3">
      <g>
       <use xlink:href="#mbc4c4e5e75" x="199.038647" y="307.584" style="stroke: #000000; stroke-width: 0.8"/>
      </g>
     </g>
     <g id="text_3">
      <!-- 100 -->
      <g transform="translate(189.494897 322.182437) scale(0.1 -0.1)">
       <defs>
        <path id="DejaVuSans-31" d="M 794 531 
L 1825 531 
L 1825 4091 
L 703 3866 
L 703 4441 
L 1819 4666 
L 2450 4666 
L 2450 531 
L 3481 531 
L 3481 0 
L 794 0 
L 794 531 
z
" transform="scale(0.015625)"/>
       </defs>
       <use xlink:href="#DejaVuSans-31"/>
       <use xlink:href="#DejaVuSans-30" x="63.623047"/>
       <use xlink:href="#DejaVuSans-30" x="127.246094"/>
      </g>
     </g>
    </g>
    <g id="xtick_4">
     <g id="line2d_4">
      <g>
       <use xlink:href="#mbc4c4e5e75" x="261.956195" y="307.584" style="stroke: #000000; stroke-width: 0.8"/>
      </g>
     </g>
     <g id="text_4">
      <!-- 150 -->
      <g transform="translate(252.412445 322.182437) scale(0.1 -0.1)">
       <use xlink:href="#DejaVuSans-31"/>
       <use xlink:href="#DejaVuSans-35" x="63.623047"/>
       <use xlink:href="#DejaVuSans-30" x="127.246094"/>
      </g>
     </g>
    </g>
    <g id="xtick_5">
     <g id="line2d_5">
      <g>
       <use xlink:href="#mbc4c4e5e75" x="324.873742" y="307.584" style="stroke: #000000; stroke-width: 0.8"/>
      </g>
     </g>
     <g id="text_5">
      <!-- 200 -->
      <g transform="translate(315.329992 322.182437) scale(0.1 -0.1)">
       <defs>
        <path id="DejaVuSans-32" d="M 1228 531 
L 3431 531 
L 3431 0 
L 469 0 
L 469 531 
Q 828 903 1448 1529 
Q 2069 2156 2228 2338 
Q 2531 2678 2651 2914 
Q 2772 3150 2772 3378 
Q 2772 3750 2511 3984 
Q 2250 4219 1831 4219 
Q 1534 4219 1204 4116 
Q 875 4013 500 3803 
L 500 4441 
Q 881 4594 1212 4672 
Q 1544 4750 1819 4750 
Q 2544 4750 2975 4387 
Q 3406 4025 3406 3419 
Q 3406 3131 3298 2873 
Q 3191 2616 2906 2266 
Q 2828 2175 2409 1742 
Q 1991 1309 1228 531 
z
" transform="scale(0.015625)"/>
       </defs>
       <use xlink:href="#DejaVuSans-32"/>
       <use xlink:href="#DejaVuSans-30" x="63.623047"/>
       <use xlink:href="#DejaVuSans-30" x="127.246094"/>
      </g>
     </g>
    </g>
    <g id="xtick_6">
     <g id="line2d_6">
      <g>
       <use xlink:href="#mbc4c4e5e75" x="387.79129" y="307.584" style="stroke: #000000; stroke-width: 0.8"/>
      </g>
     </g>
     <g id="text_6">
      <!-- 250 -->
      <g transform="translate(378.24754 322.182437) scale(0.1 -0.1)">
       <use xlink:href="#DejaVuSans-32"/>
       <use xlink:href="#DejaVuSans-35" x="63.623047"/>
       <use xlink:href="#DejaVuSans-30" x="127.246094"/>
      </g>
     </g>
    </g>
    <g id="text_7">
     <!-- Group size -->
     <g transform="translate(209.656875 335.860562) scale(0.1 -0.1)">
      <defs>
       <path id="DejaVuSans-47" d="M 3809 666 
L 3809 1919 
L 2778 1919 
L 2778 2438 
L 4434 2438 
L 4434 434 
Q 4069 175 3628 42 
Q 3188 -91 2688 -91 
Q 1594 -91 976 548 
Q 359 1188 359 2328 
Q 359 3472 976 4111 
Q 1594 4750 2688 4750 
Q 3144 4750 3555 4637 
Q 3966 4525 4313 4306 
L 4313 3634 
Q 3963 3931 3569 4081 
Q 3175 4231 2741 4231 
Q 1884 4231 1454 3753 
Q 1025 3275 1025 2328 
Q 1025 1384 1454 906 
Q 1884 428 2741 428 
Q 3075 428 3337 486 
Q 3600 544 3809 666 
z
" transform="scale(0.015625)"/>
       <path id="DejaVuSans-72" d="M 2631 2963 
Q 2534 3019 2420 3045 
Q 2306 3072 2169 3072 
Q 1681 3072 1420 2755 
Q 1159 2438 1159 1844 
L 1159 0 
L 581 0 
L 581 3500 
L 1159 3500 
L 1159 2956 
Q 1341 3275 1631 3429 
Q 1922 3584 2338 3584 
Q 2397 3584 2469 3576 
Q 2541 3569 2628 3553 
L 2631 2963 
z
" transform="scale(0.015625)"/>
       <path id="DejaVuSans-6f" d="M 1959 3097 
Q 1497 3097 1228 2736 
Q 959 2375 959 1747 
Q 959 1119 1226 758 
Q 1494 397 1959 397 
Q 2419 397 2687 759 
Q 2956 1122 2956 1747 
Q 2956 2369 2687 2733 
Q 2419 3097 1959 3097 
z
M 1959 3584 
Q 2709 3584 3137 3096 
Q 3566 2609 3566 1747 
Q 3566 888 3137 398 
Q 2709 -91 1959 -91 
Q 1206 -91 779 398 
Q 353 888 353 1747 
Q 353 2609 779 3096 
Q 1206 3584 1959 3584 
z
" transform="scale(0.015625)"/>
       <path id="DejaVuSans-75" d="M 544 1381 
L 544 3500 
L 1119 3500 
L 1119 1403 
Q 1119 906 1312 657 
Q 1506 409 1894 409 
Q 2359 409 2629 706 
Q 2900 1003 2900 1516 
L 2900 3500 
L 3475 3500 
L 3475 0 
L 2900 0 
L 2900 538 
Q 2691 219 2414 64 
Q 2138 -91 1772 -91 
Q 1169 -91 856 284 
Q 544 659 544 1381 
z
M 1991 3584 
L 1991 3584 
z
" transform="scale(0.015625)"/>
       <path id="DejaVuSans-70" d="M 1159 525 
L 1159 -1331 
L 581 -1331 
L 581 3500 
L 1159 3500 
L 1159 2969 
Q 1341 3281 1617 3432 
Q 1894 3584 2278 3584 
Q 2916 3584 3314 3078 
Q 3713 2572 3713 1747 
Q 3713 922 3314 415 
Q 2916 -91 2278 -91 
Q 1894 -91 1617 61 
Q 1341 213 1159 525 
z
M 3116 1747 
Q 3116 2381 2855 2742 
Q 2594 3103 2138 3103 
Q 1681 3103 1420 2742 
Q 1159 2381 1159 1747 
Q 1159 1113 1420 752 
Q 1681 391 2138 391 
Q 2594 391 2855 752 
Q 3116 1113 3116 1747 
z
" transform="scale(0.015625)"/>
       <path id="DejaVuSans-20" transform="scale(0.015625)"/>
       <path id="DejaVuSans-73" d="M 2834 3397 
L 2834 2853 
Q 2591 2978 2328 3040 
Q 2066 3103 1784 3103 
Q 1356 3103 1142 2972 
Q 928 2841 928 2578 
Q 928 2378 1081 2264 
Q 1234 2150 1697 2047 
L 1894 2003 
Q 2506 1872 2764 1633 
Q 3022 1394 3022 966 
Q 3022 478 2636 193 
Q 2250 -91 1575 -91 
Q 1294 -91 989 -36 
Q 684 19 347 128 
L 347 722 
Q 666 556 975 473 
Q 1284 391 1588 391 
Q 1994 391 2212 530 
Q 2431 669 2431 922 
Q 2431 1156 2273 1281 
Q 2116 1406 1581 1522 
L 1381 1569 
Q 847 1681 609 1914 
Q 372 2147 372 2553 
Q 372 3047 722 3315 
Q 1072 3584 1716 3584 
Q 2034 3584 2315 3537 
Q 2597 3491 2834 3397 
z
" transform="scale(0.015625)"/>
       <path id="DejaVuSans-69" d="M 603 3500 
L 1178 3500 
L 1178 0 
L 603 0 
L 603 3500 
z
M 603 4863 
L 1178 4863 
L 1178 4134 
L 603 4134 
L 603 4863 
z
" transform="scale(0.015625)"/>
       <path id="DejaVuSans-7a" d="M 353 3500 
L 3084 3500 
L 3084 2975 
L 922 459 
L 3084 459 
L 3084 0 
L 275 0 
L 275 525 
L 2438 3041 
L 353 3041 
L 353 3500 
z
" transform="scale(0.015625)"/>
       <path id="DejaVuSans-65" d="M 3597 1894 
L 3597 1613 
L 953 1613 
Q 991 1019 1311 708 
Q 1631 397 2203 397 
Q 2534 397 2845 478 
Q 3156 559 3463 722 
L 3463 178 
Q 3153 47 2828 -22 
Q 2503 -91 2169 -91 
Q 1331 -91 842 396 
Q 353 884 353 1716 
Q 353 2575 817 3079 
Q 1281 3584 2069 3584 
Q 2775 3584 3186 3129 
Q 3597 2675 3597 1894 
z
M 3022 2063 
Q 3016 2534 2758 2815 
Q 2500 3097 2075 3097 
Q 1594 3097 1305 2825 
Q 1016 2553 972 2059 
L 3022 2063 
z
" transform="scale(0.015625)"/>
      </defs>
      <use xlink:href="#DejaVuSans-47"/>
      <use xlink:href="#DejaVuSans-72" x="77.490234"/>
      <use xlink:href="#DejaVuSans-6f" x="116.353516"/>
      <use xlink:href="#DejaVuSans-75" x="177.535156"/>
      <use xlink:href="#DejaVuSans-70" x="240.914062"/>
      <use xlink:href="#DejaVuSans-20" x="304.390625"/>
      <use xlink:href="#DejaVuSans-73" x="336.177734"/>
      <use xlink:href="#DejaVuSans-69" x="388.277344"/>
      <use xlink:href="#DejaVuSans-7a" x="416.060547"/>
      <use xlink:href="#DejaVuSans-65" x="468.550781"/>
     </g>
    </g>
   </g>
   <g id="matplotlib.axis_2">
    <g id="ytick_1">
     <g id="line2d_7">
      <defs>
       <path id="m9c1e0488d0" d="M 0 0 
L -3.5 0 
" style="stroke: #000000; stroke-width: 0.8"/>
      </defs>
      <g>
       <use xlink:href="#m9c1e0488d0" x="57.6" y="307.584" style="stroke: #000000; stroke-width: 0.8"/>
      </g>
     </g>
     <g id="text_8">
      <!-- 0 -->
      <g transform="translate(44.2375 311.383219) scale(0.1 -0.1)">
       <use xlink:href="#DejaVuSans-30"/>
      </g>
     </g>
    </g>
    <g id="ytick_2">
     <g id="line2d_8">
      <g>
       <use xlink:href="#m9c1e0488d0" x="57.6" y="276.497366" style="stroke: #000000; stroke-width: 0.8"/>
      </g>
     </g>
     <g id="text_9">
      <!-- 10000 -->
      <g transform="translate(18.7875 280.296585) scale(0.1 -0.1)">
       <use xlink:href="#DejaVuSans-31"/>
       <use xlink:href="#DejaVuSans-30" x="63.623047"/>
       <use xlink:href="#DejaVuSans-30" x="127.246094"/>
       <use xlink:href="#DejaVuSans-30" x="190.869141"/>
       <use xlink:href="#DejaVuSans-30" x="254.492188"/>
      </g>
     </g>
    </g>
    <g id="ytick_3">
     <g id="line2d_9">
      <g>
       <use xlink:href="#m9c1e0488d0" x="57.6" y="245.410732" style="stroke: #000000; stroke-width: 0.8"/>
      </g>
     </g>
     <g id="text_10">
      <!-- 20000 -->
      <g transform="translate(18.7875 249.209951) scale(0.1 -0.1)">
       <use xlink:href="#DejaVuSans-32"/>
       <use xlink:href="#DejaVuSans-30" x="63.623047"/>
       <use xlink:href="#DejaVuSans-30" x="127.246094"/>
       <use xlink:href="#DejaVuSans-30" x="190.869141"/>
       <use xlink:href="#DejaVuSans-30" x="254.492188"/>
      </g>
     </g>
    </g>
    <g id="ytick_4">
     <g id="line2d_10">
      <g>
       <use xlink:href="#m9c1e0488d0" x="57.6" y="214.324098" style="stroke: #000000; stroke-width: 0.8"/>
      </g>
     </g>
     <g id="text_11">
      <!-- 30000 -->
      <g transform="translate(18.7875 218.123317) scale(0.1 -0.1)">
       <defs>
        <path id="DejaVuSans-33" d="M 2597 2516 
Q 3050 2419 3304 2112 
Q 3559 1806 3559 1356 
Q 3559 666 3084 287 
Q 2609 -91 1734 -91 
Q 1441 -91 1130 -33 
Q 819 25 488 141 
L 488 750 
Q 750 597 1062 519 
Q 1375 441 1716 441 
Q 2309 441 2620 675 
Q 2931 909 2931 1356 
Q 2931 1769 2642 2001 
Q 2353 2234 1838 2234 
L 1294 2234 
L 1294 2753 
L 1863 2753 
Q 2328 2753 2575 2939 
Q 2822 3125 2822 3475 
Q 2822 3834 2567 4026 
Q 2313 4219 1838 4219 
Q 1578 4219 1281 4162 
Q 984 4106 628 3988 
L 628 4550 
Q 988 4650 1302 4700 
Q 1616 4750 1894 4750 
Q 2613 4750 3031 4423 
Q 3450 4097 3450 3541 
Q 3450 3153 3228 2886 
Q 3006 2619 2597 2516 
z
" transform="scale(0.015625)"/>
       </defs>
       <use xlink:href="#DejaVuSans-33"/>
       <use xlink:href="#DejaVuSans-30" x="63.623047"/>
       <use xlink:href="#DejaVuSans-30" x="127.246094"/>
       <use xlink:href="#DejaVuSans-30" x="190.869141"/>
       <use xlink:href="#DejaVuSans-30" x="254.492188"/>
      </g>
     </g>
    </g>
    <g id="ytick_5">
     <g id="line2d_11">
      <g>
       <use xlink:href="#m9c1e0488d0" x="57.6" y="183.237464" style="stroke: #000000; stroke-width: 0.8"/>
      </g>
     </g>
     <g id="text_12">
      <!-- 40000 -->
      <g transform="translate(18.7875 187.036683) scale(0.1 -0.1)">
       <defs>
        <path id="DejaVuSans-34" d="M 2419 4116 
L 825 1625 
L 2419 1625 
L 2419 4116 
z
M 2253 4666 
L 3047 4666 
L 3047 1625 
L 3713 1625 
L 3713 1100 
L 3047 1100 
L 3047 0 
L 2419 0 
L 2419 1100 
L 313 1100 
L 313 1709 
L 2253 4666 
z
" transform="scale(0.015625)"/>
       </defs>
       <use xlink:href="#DejaVuSans-34"/>
       <use xlink:href="#DejaVuSans-30" x="63.623047"/>
       <use xlink:href="#DejaVuSans-30" x="127.246094"/>
       <use xlink:href="#DejaVuSans-30" x="190.869141"/>
       <use xlink:href="#DejaVuSans-30" x="254.492188"/>
      </g>
     </g>
    </g>
    <g id="ytick_6">
     <g id="line2d_12">
      <g>
       <use xlink:href="#m9c1e0488d0" x="57.6" y="152.150831" style="stroke: #000000; stroke-width: 0.8"/>
      </g>
     </g>
     <g id="text_13">
      <!-- 50000 -->
      <g transform="translate(18.7875 155.950049) scale(0.1 -0.1)">
       <use xlink:href="#DejaVuSans-35"/>
       <use xlink:href="#DejaVuSans-30" x="63.623047"/>
       <use xlink:href="#DejaVuSans-30" x="127.246094"/>
       <use xlink:href="#DejaVuSans-30" x="190.869141"/>
       <use xlink:href="#DejaVuSans-30" x="254.492188"/>
      </g>
     </g>
    </g>
    <g id="ytick_7">
     <g id="line2d_13">
      <g>
       <use xlink:href="#m9c1e0488d0" x="57.6" y="121.064197" style="stroke: #000000; stroke-width: 0.8"/>
      </g>
     </g>
     <g id="text_14">
      <!-- 60000 -->
      <g transform="translate(18.7875 124.863415) scale(0.1 -0.1)">
       <defs>
        <path id="DejaVuSans-36" d="M 2113 2584 
Q 1688 2584 1439 2293 
Q 1191 2003 1191 1497 
Q 1191 994 1439 701 
Q 1688 409 2113 409 
Q 2538 409 2786 701 
Q 3034 994 3034 1497 
Q 3034 2003 2786 2293 
Q 2538 2584 2113 2584 
z
M 3366 4563 
L 3366 3988 
Q 3128 4100 2886 4159 
Q 2644 4219 2406 4219 
Q 1781 4219 1451 3797 
Q 1122 3375 1075 2522 
Q 1259 2794 1537 2939 
Q 1816 3084 2150 3084 
Q 2853 3084 3261 2657 
Q 3669 2231 3669 1497 
Q 3669 778 3244 343 
Q 2819 -91 2113 -91 
Q 1303 -91 875 529 
Q 447 1150 447 2328 
Q 447 3434 972 4092 
Q 1497 4750 2381 4750 
Q 2619 4750 2861 4703 
Q 3103 4656 3366 4563 
z
" transform="scale(0.015625)"/>
       </defs>
       <use xlink:href="#DejaVuSans-36"/>
       <use xlink:href="#DejaVuSans-30" x="63.623047"/>
       <use xlink:href="#DejaVuSans-30" x="127.246094"/>
       <use xlink:href="#DejaVuSans-30" x="190.869141"/>
       <use xlink:href="#DejaVuSans-30" x="254.492188"/>
      </g>
     </g>
    </g>
    <g id="ytick_8">
     <g id="line2d_14">
      <g>
       <use xlink:href="#m9c1e0488d0" x="57.6" y="89.977563" style="stroke: #000000; stroke-width: 0.8"/>
      </g>
     </g>
     <g id="text_15">
      <!-- 70000 -->
      <g transform="translate(18.7875 93.776782) scale(0.1 -0.1)">
       <defs>
        <path id="DejaVuSans-37" d="M 525 4666 
L 3525 4666 
L 3525 4397 
L 1831 0 
L 1172 0 
L 2766 4134 
L 525 4134 
L 525 4666 
z
" transform="scale(0.015625)"/>
       </defs>
       <use xlink:href="#DejaVuSans-37"/>
       <use xlink:href="#DejaVuSans-30" x="63.623047"/>
       <use xlink:href="#DejaVuSans-30" x="127.246094"/>
       <use xlink:href="#DejaVuSans-30" x="190.869141"/>
       <use xlink:href="#DejaVuSans-30" x="254.492188"/>
      </g>
     </g>
    </g>
    <g id="ytick_9">
     <g id="line2d_15">
      <g>
       <use xlink:href="#m9c1e0488d0" x="57.6" y="58.890929" style="stroke: #000000; stroke-width: 0.8"/>
      </g>
     </g>
     <g id="text_16">
      <!-- 80000 -->
      <g transform="translate(18.7875 62.690148) scale(0.1 -0.1)">
       <defs>
        <path id="DejaVuSans-38" d="M 2034 2216 
Q 1584 2216 1326 1975 
Q 1069 1734 1069 1313 
Q 1069 891 1326 650 
Q 1584 409 2034 409 
Q 2484 409 2743 651 
Q 3003 894 3003 1313 
Q 3003 1734 2745 1975 
Q 2488 2216 2034 2216 
z
M 1403 2484 
Q 997 2584 770 2862 
Q 544 3141 544 3541 
Q 544 4100 942 4425 
Q 1341 4750 2034 4750 
Q 2731 4750 3128 4425 
Q 3525 4100 3525 3541 
Q 3525 3141 3298 2862 
Q 3072 2584 2669 2484 
Q 3125 2378 3379 2068 
Q 3634 1759 3634 1313 
Q 3634 634 3220 271 
Q 2806 -91 2034 -91 
Q 1263 -91 848 271 
Q 434 634 434 1313 
Q 434 1759 690 2068 
Q 947 2378 1403 2484 
z
M 1172 3481 
Q 1172 3119 1398 2916 
Q 1625 2713 2034 2713 
Q 2441 2713 2670 2916 
Q 2900 3119 2900 3481 
Q 2900 3844 2670 4047 
Q 2441 4250 2034 4250 
Q 1625 4250 1398 4047 
Q 1172 3844 1172 3481 
z
" transform="scale(0.015625)"/>
       </defs>
       <use xlink:href="#DejaVuSans-38"/>
       <use xlink:href="#DejaVuSans-30" x="63.623047"/>
       <use xlink:href="#DejaVuSans-30" x="127.246094"/>
       <use xlink:href="#DejaVuSans-30" x="190.869141"/>
       <use xlink:href="#DejaVuSans-30" x="254.492188"/>
      </g>
     </g>
    </g>
    <g id="text_17">
     <!-- Frequency -->
     <g transform="translate(12.707812 200.357687) rotate(-90) scale(0.1 -0.1)">
      <defs>
       <path id="DejaVuSans-46" d="M 628 4666 
L 3309 4666 
L 3309 4134 
L 1259 4134 
L 1259 2759 
L 3109 2759 
L 3109 2228 
L 1259 2228 
L 1259 0 
L 628 0 
L 628 4666 
z
" transform="scale(0.015625)"/>
       <path id="DejaVuSans-71" d="M 947 1747 
Q 947 1113 1208 752 
Q 1469 391 1925 391 
Q 2381 391 2643 752 
Q 2906 1113 2906 1747 
Q 2906 2381 2643 2742 
Q 2381 3103 1925 3103 
Q 1469 3103 1208 2742 
Q 947 2381 947 1747 
z
M 2906 525 
Q 2725 213 2448 61 
Q 2172 -91 1784 -91 
Q 1150 -91 751 415 
Q 353 922 353 1747 
Q 353 2572 751 3078 
Q 1150 3584 1784 3584 
Q 2172 3584 2448 3432 
Q 2725 3281 2906 2969 
L 2906 3500 
L 3481 3500 
L 3481 -1331 
L 2906 -1331 
L 2906 525 
z
" transform="scale(0.015625)"/>
       <path id="DejaVuSans-6e" d="M 3513 2113 
L 3513 0 
L 2938 0 
L 2938 2094 
Q 2938 2591 2744 2837 
Q 2550 3084 2163 3084 
Q 1697 3084 1428 2787 
Q 1159 2491 1159 1978 
L 1159 0 
L 581 0 
L 581 3500 
L 1159 3500 
L 1159 2956 
Q 1366 3272 1645 3428 
Q 1925 3584 2291 3584 
Q 2894 3584 3203 3211 
Q 3513 2838 3513 2113 
z
" transform="scale(0.015625)"/>
       <path id="DejaVuSans-63" d="M 3122 3366 
L 3122 2828 
Q 2878 2963 2633 3030 
Q 2388 3097 2138 3097 
Q 1578 3097 1268 2742 
Q 959 2388 959 1747 
Q 959 1106 1268 751 
Q 1578 397 2138 397 
Q 2388 397 2633 464 
Q 2878 531 3122 666 
L 3122 134 
Q 2881 22 2623 -34 
Q 2366 -91 2075 -91 
Q 1284 -91 818 406 
Q 353 903 353 1747 
Q 353 2603 823 3093 
Q 1294 3584 2113 3584 
Q 2378 3584 2631 3529 
Q 2884 3475 3122 3366 
z
" transform="scale(0.015625)"/>
       <path id="DejaVuSans-79" d="M 2059 -325 
Q 1816 -950 1584 -1140 
Q 1353 -1331 966 -1331 
L 506 -1331 
L 506 -850 
L 844 -850 
Q 1081 -850 1212 -737 
Q 1344 -625 1503 -206 
L 1606 56 
L 191 3500 
L 800 3500 
L 1894 763 
L 2988 3500 
L 3597 3500 
L 2059 -325 
z
" transform="scale(0.015625)"/>
      </defs>
      <use xlink:href="#DejaVuSans-46"/>
      <use xlink:href="#DejaVuSans-72" x="50.269531"/>
      <use xlink:href="#DejaVuSans-65" x="89.132812"/>
      <use xlink:href="#DejaVuSans-71" x="150.65625"/>
      <use xlink:href="#DejaVuSans-75" x="214.132812"/>
      <use xlink:href="#DejaVuSans-65" x="277.511719"/>
      <use xlink:href="#DejaVuSans-6e" x="339.035156"/>
      <use xlink:href="#DejaVuSans-63" x="402.414062"/>
      <use xlink:href="#DejaVuSans-79" x="457.394531"/>
     </g>
    </g>
   </g>
   <g id="patch_261">
    <path d="M 57.6 307.584 
L 57.6 41.472 
" style="fill: none; stroke: #000000; stroke-width: 0.8; stroke-linejoin: miter; stroke-linecap: square"/>
   </g>
   <g id="patch_262">
    <path d="M 414.72 307.584 
L 414.72 41.472 
" style="fill: none; stroke: #000000; stroke-width: 0.8; stroke-linejoin: miter; stroke-linecap: square"/>
   </g>
   <g id="patch_263">
    <path d="M 57.6 307.584 
L 414.72 307.584 
" style="fill: none; stroke: #000000; stroke-width: 0.8; stroke-linejoin: miter; stroke-linecap: square"/>
   </g>
   <g id="patch_264">
    <path d="M 57.6 41.472 
L 414.72 41.472 
" style="fill: none; stroke: #000000; stroke-width: 0.8; stroke-linejoin: miter; stroke-linecap: square"/>
   </g>
   <g id="text_18">
    <!-- Histogram of group sizes -->
    <g transform="translate(161.348437 35.472) scale(0.12 -0.12)">
     <defs>
      <path id="DejaVuSans-48" d="M 628 4666 
L 1259 4666 
L 1259 2753 
L 3553 2753 
L 3553 4666 
L 4184 4666 
L 4184 0 
L 3553 0 
L 3553 2222 
L 1259 2222 
L 1259 0 
L 628 0 
L 628 4666 
z
" transform="scale(0.015625)"/>
      <path id="DejaVuSans-74" d="M 1172 4494 
L 1172 3500 
L 2356 3500 
L 2356 3053 
L 1172 3053 
L 1172 1153 
Q 1172 725 1289 603 
Q 1406 481 1766 481 
L 2356 481 
L 2356 0 
L 1766 0 
Q 1100 0 847 248 
Q 594 497 594 1153 
L 594 3053 
L 172 3053 
L 172 3500 
L 594 3500 
L 594 4494 
L 1172 4494 
z
" transform="scale(0.015625)"/>
      <path id="DejaVuSans-67" d="M 2906 1791 
Q 2906 2416 2648 2759 
Q 2391 3103 1925 3103 
Q 1463 3103 1205 2759 
Q 947 2416 947 1791 
Q 947 1169 1205 825 
Q 1463 481 1925 481 
Q 2391 481 2648 825 
Q 2906 1169 2906 1791 
z
M 3481 434 
Q 3481 -459 3084 -895 
Q 2688 -1331 1869 -1331 
Q 1566 -1331 1297 -1286 
Q 1028 -1241 775 -1147 
L 775 -588 
Q 1028 -725 1275 -790 
Q 1522 -856 1778 -856 
Q 2344 -856 2625 -561 
Q 2906 -266 2906 331 
L 2906 616 
Q 2728 306 2450 153 
Q 2172 0 1784 0 
Q 1141 0 747 490 
Q 353 981 353 1791 
Q 353 2603 747 3093 
Q 1141 3584 1784 3584 
Q 2172 3584 2450 3431 
Q 2728 3278 2906 2969 
L 2906 3500 
L 3481 3500 
L 3481 434 
z
" transform="scale(0.015625)"/>
      <path id="DejaVuSans-61" d="M 2194 1759 
Q 1497 1759 1228 1600 
Q 959 1441 959 1056 
Q 959 750 1161 570 
Q 1363 391 1709 391 
Q 2188 391 2477 730 
Q 2766 1069 2766 1631 
L 2766 1759 
L 2194 1759 
z
M 3341 1997 
L 3341 0 
L 2766 0 
L 2766 531 
Q 2569 213 2275 61 
Q 1981 -91 1556 -91 
Q 1019 -91 701 211 
Q 384 513 384 1019 
Q 384 1609 779 1909 
Q 1175 2209 1959 2209 
L 2766 2209 
L 2766 2266 
Q 2766 2663 2505 2880 
Q 2244 3097 1772 3097 
Q 1472 3097 1187 3025 
Q 903 2953 641 2809 
L 641 3341 
Q 956 3463 1253 3523 
Q 1550 3584 1831 3584 
Q 2591 3584 2966 3190 
Q 3341 2797 3341 1997 
z
" transform="scale(0.015625)"/>
      <path id="DejaVuSans-6d" d="M 3328 2828 
Q 3544 3216 3844 3400 
Q 4144 3584 4550 3584 
Q 5097 3584 5394 3201 
Q 5691 2819 5691 2113 
L 5691 0 
L 5113 0 
L 5113 2094 
Q 5113 2597 4934 2840 
Q 4756 3084 4391 3084 
Q 3944 3084 3684 2787 
Q 3425 2491 3425 1978 
L 3425 0 
L 2847 0 
L 2847 2094 
Q 2847 2600 2669 2842 
Q 2491 3084 2119 3084 
Q 1678 3084 1418 2786 
Q 1159 2488 1159 1978 
L 1159 0 
L 581 0 
L 581 3500 
L 1159 3500 
L 1159 2956 
Q 1356 3278 1631 3431 
Q 1906 3584 2284 3584 
Q 2666 3584 2933 3390 
Q 3200 3197 3328 2828 
z
" transform="scale(0.015625)"/>
      <path id="DejaVuSans-66" d="M 2375 4863 
L 2375 4384 
L 1825 4384 
Q 1516 4384 1395 4259 
Q 1275 4134 1275 3809 
L 1275 3500 
L 2222 3500 
L 2222 3053 
L 1275 3053 
L 1275 0 
L 697 0 
L 697 3053 
L 147 3053 
L 147 3500 
L 697 3500 
L 697 3744 
Q 697 4328 969 4595 
Q 1241 4863 1831 4863 
L 2375 4863 
z
" transform="scale(0.015625)"/>
     </defs>
     <use xlink:href="#DejaVuSans-48"/>
     <use xlink:href="#DejaVuSans-69" x="75.195312"/>
     <use xlink:href="#DejaVuSans-73" x="102.978516"/>
     <use xlink:href="#DejaVuSans-74" x="155.078125"/>
     <use xlink:href="#DejaVuSans-6f" x="194.287109"/>
     <use xlink:href="#DejaVuSans-67" x="255.46875"/>
     <use xlink:href="#DejaVuSans-72" x="318.945312"/>
     <use xlink:href="#DejaVuSans-61" x="360.058594"/>
     <use xlink:href="#DejaVuSans-6d" x="421.337891"/>
     <use xlink:href="#DejaVuSans-20" x="518.75"/>
     <use xlink:href="#DejaVuSans-6f" x="550.537109"/>
     <use xlink:href="#DejaVuSans-66" x="611.71875"/>
     <use xlink:href="#DejaVuSans-20" x="646.923828"/>
     <use xlink:href="#DejaVuSans-67" x="678.710938"/>
     <use xlink:href="#DejaVuSans-72" x="742.1875"/>
     <use xlink:href="#DejaVuSans-6f" x="781.050781"/>
     <use xlink:href="#DejaVuSans-75" x="842.232422"/>
     <use xlink:href="#DejaVuSans-70" x="905.611328"/>
     <use xlink:href="#DejaVuSans-20" x="969.087891"/>
     <use xlink:href="#DejaVuSans-73" x="1000.875"/>
     <use xlink:href="#DejaVuSans-69" x="1052.974609"/>
     <use xlink:href="#DejaVuSans-7a" x="1080.757812"/>
     <use xlink:href="#DejaVuSans-65" x="1133.248047"/>
     <use xlink:href="#DejaVuSans-73" x="1194.771484"/>
    </g>
   </g>
  </g>
 </g>
 <defs>
  <clipPath id="p111f8205e3">
   <rect x="57.6" y="41.472" width="357.12" height="266.112"/>
  </clipPath>
 </defs>
</svg>
