<?xml version="1.0" encoding="utf-8" standalone="no"?>
<!DOCTYPE svg PUBLIC "-//W3C//DTD SVG 1.1//EN"
  "http://www.w3.org/Graphics/SVG/1.1/DTD/svg11.dtd">
<svg xmlns:xlink="http://www.w3.org/1999/xlink" width="460.8pt" height="345.6pt" viewBox="0 0 460.8 345.6" xmlns="http://www.w3.org/2000/svg" version="1.1">
 <metadata>
  <rdf:RDF xmlns:dc="http://purl.org/dc/elements/1.1/" xmlns:cc="http://creativecommons.org/ns#" xmlns:rdf="http://www.w3.org/1999/02/22-rdf-syntax-ns#">
   <cc:Work>
    <dc:type rdf:resource="http://purl.org/dc/dcmitype/StillImage"/>
    <dc:date>2023-04-20T17:27:17.548108</dc:date>
    <dc:format>image/svg+xml</dc:format>
    <dc:creator>
     <cc:Agent>
      <dc:title>Matplotlib v3.6.2, https://matplotlib.org/</dc:title>
     </cc:Agent>
    </dc:creator>
   </cc:Work>
  </rdf:RDF>
 </metadata>
 <defs>
  <style type="text/css">*{stroke-linejoin: round; stroke-linecap: butt}</style>
 </defs>
 <g id="figure_1">
  <g id="patch_1">
   <path d="M 0 345.6 
L 460.8 345.6 
L 460.8 0 
L 0 0 
z
" style="fill: #ffffff"/>
  </g>
  <g id="axes_1">
   <g id="patch_2">
    <path d="M 57.6 307.584 
L 414.72 307.584 
L 414.72 41.472 
L 57.6 41.472 
z
" style="fill: #ffffff"/>
   </g>
   <g id="patch_3">
    <path d="M 73.832727 49553.307315 
L 75.091078 49553.307315 
L 75.091078 49553.307315 
L 73.832727 49553.307315 
z
" clip-path="url(#p556accd03b)" style="fill: #1f77b4"/>
   </g>
   <g id="patch_4">
    <path d="M 75.091078 49553.307315 
L 76.349429 49553.307315 
L 76.349429 53.568 
L 75.091078 53.568 
z
" clip-path="url(#p556accd03b)" style="fill: #1f77b4"/>
   </g>
   <g id="patch_5">
    <path d="M 76.349429 49553.307315 
L 77.60778 49553.307315 
L 77.60778 82.508638 
L 76.349429 82.508638 
z
" clip-path="url(#p556accd03b)" style="fill: #1f77b4"/>
   </g>
   <g id="patch_6">
    <path d="M 77.60778 49553.307315 
L 78.866131 49553.307315 
L 78.866131 85.535969 
L 77.60778 85.535969 
z
" clip-path="url(#p556accd03b)" style="fill: #1f77b4"/>
   </g>
   <g id="patch_7">
    <path d="M 78.866131 49553.307315 
L 80.124482 49553.307315 
L 80.124482 98.326625 
L 78.866131 98.326625 
z
" clip-path="url(#p556accd03b)" style="fill: #1f77b4"/>
   </g>
   <g id="patch_8">
    <path d="M 80.124482 49553.307315 
L 81.382833 49553.307315 
L 81.382833 101.765431 
L 80.124482 101.765431 
z
" clip-path="url(#p556accd03b)" style="fill: #1f77b4"/>
   </g>
   <g id="patch_9">
    <path d="M 81.382833 49553.307315 
L 82.641184 49553.307315 
L 82.641184 107.870588 
L 81.382833 107.870588 
z
" clip-path="url(#p556accd03b)" style="fill: #1f77b4"/>
   </g>
   <g id="patch_10">
    <path d="M 82.641184 49553.307315 
L 83.899535 49553.307315 
L 83.899535 111.335537 
L 82.641184 111.335537 
z
" clip-path="url(#p556accd03b)" style="fill: #1f77b4"/>
   </g>
   <g id="patch_11">
    <path d="M 83.899535 49553.307315 
L 85.157886 49553.307315 
L 85.157886 114.622126 
L 83.899535 114.622126 
z
" clip-path="url(#p556accd03b)" style="fill: #1f77b4"/>
   </g>
   <g id="patch_12">
    <path d="M 85.157886 49553.307315 
L 86.416237 49553.307315 
L 86.416237 117.219355 
L 85.157886 117.219355 
z
" clip-path="url(#p556accd03b)" style="fill: #1f77b4"/>
   </g>
   <g id="patch_13">
    <path d="M 86.416237 49553.307315 
L 87.674588 49553.307315 
L 87.674588 119.393425 
L 86.416237 119.393425 
z
" clip-path="url(#p556accd03b)" style="fill: #1f77b4"/>
   </g>
   <g id="patch_14">
    <path d="M 87.674588 49553.307315 
L 88.932939 49553.307315 
L 88.932939 121.826452 
L 87.674588 121.826452 
z
" clip-path="url(#p556accd03b)" style="fill: #1f77b4"/>
   </g>
   <g id="patch_15">
    <path d="M 88.932939 49553.307315 
L 90.19129 49553.307315 
L 90.19129 122.919039 
L 88.932939 122.919039 
z
" clip-path="url(#p556accd03b)" style="fill: #1f77b4"/>
   </g>
   <g id="patch_16">
    <path d="M 90.19129 49553.307315 
L 91.449641 49553.307315 
L 91.449641 125.212519 
L 90.19129 125.212519 
z
" clip-path="url(#p556accd03b)" style="fill: #1f77b4"/>
   </g>
   <g id="patch_17">
    <path d="M 91.449641 49553.307315 
L 92.707992 49553.307315 
L 92.707992 126.206626 
L 91.449641 126.206626 
z
" clip-path="url(#p556accd03b)" style="fill: #1f77b4"/>
   </g>
   <g id="patch_18">
    <path d="M 92.707992 49553.307315 
L 93.966342 49553.307315 
L 93.966342 126.450663 
L 92.707992 126.450663 
z
" clip-path="url(#p556accd03b)" style="fill: #1f77b4"/>
   </g>
   <g id="patch_19">
    <path d="M 93.966342 49553.307315 
L 95.224693 49553.307315 
L 95.224693 129.766798 
L 93.966342 129.766798 
z
" clip-path="url(#p556accd03b)" style="fill: #1f77b4"/>
   </g>
   <g id="patch_20">
    <path d="M 95.224693 49553.307315 
L 96.483044 49553.307315 
L 96.483044 130.789284 
L 95.224693 130.789284 
z
" clip-path="url(#p556accd03b)" style="fill: #1f77b4"/>
   </g>
   <g id="patch_21">
    <path d="M 96.483044 49553.307315 
L 97.741395 49553.307315 
L 97.741395 131.160995 
L 96.483044 131.160995 
z
" clip-path="url(#p556accd03b)" style="fill: #1f77b4"/>
   </g>
   <g id="patch_22">
    <path d="M 97.741395 49553.307315 
L 98.999746 49553.307315 
L 98.999746 134.30135 
L 97.741395 134.30135 
z
" clip-path="url(#p556accd03b)" style="fill: #1f77b4"/>
   </g>
   <g id="patch_23">
    <path d="M 98.999746 49553.307315 
L 100.258097 49553.307315 
L 100.258097 136.64178 
L 98.999746 136.64178 
z
" clip-path="url(#p556accd03b)" style="fill: #1f77b4"/>
   </g>
   <g id="patch_24">
    <path d="M 100.258097 49553.307315 
L 101.516448 49553.307315 
L 101.516448 137.210211 
L 100.258097 137.210211 
z
" clip-path="url(#p556accd03b)" style="fill: #1f77b4"/>
   </g>
   <g id="patch_25">
    <path d="M 101.516448 49553.307315 
L 102.774799 49553.307315 
L 102.774799 140.8865 
L 101.516448 140.8865 
z
" clip-path="url(#p556accd03b)" style="fill: #1f77b4"/>
   </g>
   <g id="patch_26">
    <path d="M 102.774799 49553.307315 
L 104.03315 49553.307315 
L 104.03315 142.134878 
L 102.774799 142.134878 
z
" clip-path="url(#p556accd03b)" style="fill: #1f77b4"/>
   </g>
   <g id="patch_27">
    <path d="M 104.03315 49553.307315 
L 105.291501 49553.307315 
L 105.291501 144.282844 
L 104.03315 144.282844 
z
" clip-path="url(#p556accd03b)" style="fill: #1f77b4"/>
   </g>
   <g id="patch_28">
    <path d="M 105.291501 49553.307315 
L 106.549852 49553.307315 
L 106.549852 147.22809 
L 105.291501 147.22809 
z
" clip-path="url(#p556accd03b)" style="fill: #1f77b4"/>
   </g>
   <g id="patch_29">
    <path d="M 106.549852 49553.307315 
L 107.808203 49553.307315 
L 107.808203 150.135492 
L 106.549852 150.135492 
z
" clip-path="url(#p556accd03b)" style="fill: #1f77b4"/>
   </g>
   <g id="patch_30">
    <path d="M 107.808203 49553.307315 
L 109.066554 49553.307315 
L 109.066554 153.840248 
L 107.808203 153.840248 
z
" clip-path="url(#p556accd03b)" style="fill: #1f77b4"/>
   </g>
   <g id="patch_31">
    <path d="M 109.066554 49553.307315 
L 110.324905 49553.307315 
L 110.324905 155.839319 
L 109.066554 155.839319 
z
" clip-path="url(#p556accd03b)" style="fill: #1f77b4"/>
   </g>
   <g id="patch_32">
    <path d="M 110.324905 49553.307315 
L 111.583256 49553.307315 
L 111.583256 159.965991 
L 110.324905 159.965991 
z
" clip-path="url(#p556accd03b)" style="fill: #1f77b4"/>
   </g>
   <g id="patch_33">
    <path d="M 111.583256 49553.307315 
L 112.841607 49553.307315 
L 112.841607 163.957512 
L 111.583256 163.957512 
z
" clip-path="url(#p556accd03b)" style="fill: #1f77b4"/>
   </g>
   <g id="patch_34">
    <path d="M 112.841607 49553.307315 
L 114.099958 49553.307315 
L 114.099958 168.753955 
L 112.841607 168.753955 
z
" clip-path="url(#p556accd03b)" style="fill: #1f77b4"/>
   </g>
   <g id="patch_35">
    <path d="M 114.099958 49553.307315 
L 115.358309 49553.307315 
L 115.358309 175.331791 
L 114.099958 175.331791 
z
" clip-path="url(#p556accd03b)" style="fill: #1f77b4"/>
   </g>
   <g id="patch_36">
    <path d="M 115.358309 49553.307315 
L 116.61666 49553.307315 
L 116.61666 172.358865 
L 115.358309 172.358865 
z
" clip-path="url(#p556accd03b)" style="fill: #1f77b4"/>
   </g>
   <g id="patch_37">
    <path d="M 116.61666 49553.307315 
L 117.875011 49553.307315 
L 117.875011 180.998915 
L 116.61666 180.998915 
z
" clip-path="url(#p556accd03b)" style="fill: #1f77b4"/>
   </g>
   <g id="patch_38">
    <path d="M 117.875011 49553.307315 
L 119.133362 49553.307315 
L 119.133362 183.928013 
L 117.875011 183.928013 
z
" clip-path="url(#p556accd03b)" style="fill: #1f77b4"/>
   </g>
   <g id="patch_39">
    <path d="M 119.133362 49553.307315 
L 120.391712 49553.307315 
L 120.391712 188.29849 
L 119.133362 188.29849 
z
" clip-path="url(#p556accd03b)" style="fill: #1f77b4"/>
   </g>
   <g id="patch_40">
    <path d="M 120.391712 49553.307315 
L 121.650063 49553.307315 
L 121.650063 186.652109 
L 120.391712 186.652109 
z
" clip-path="url(#p556accd03b)" style="fill: #1f77b4"/>
   </g>
   <g id="patch_41">
    <path d="M 121.650063 49553.307315 
L 122.908414 49553.307315 
L 122.908414 195.928623 
L 121.650063 195.928623 
z
" clip-path="url(#p556accd03b)" style="fill: #1f77b4"/>
   </g>
   <g id="patch_42">
    <path d="M 122.908414 49553.307315 
L 124.166765 49553.307315 
L 124.166765 198.989893 
L 122.908414 198.989893 
z
" clip-path="url(#p556accd03b)" style="fill: #1f77b4"/>
   </g>
   <g id="patch_43">
    <path d="M 124.166765 49553.307315 
L 125.425116 49553.307315 
L 125.425116 200.449031 
L 124.166765 200.449031 
z
" clip-path="url(#p556accd03b)" style="fill: #1f77b4"/>
   </g>
   <g id="patch_44">
    <path d="M 125.425116 49553.307315 
L 126.683467 49553.307315 
L 126.683467 206.187841 
L 125.425116 206.187841 
z
" clip-path="url(#p556accd03b)" style="fill: #1f77b4"/>
   </g>
   <g id="patch_45">
    <path d="M 126.683467 49553.307315 
L 127.941818 49553.307315 
L 127.941818 208.259692 
L 126.683467 208.259692 
z
" clip-path="url(#p556accd03b)" style="fill: #1f77b4"/>
   </g>
   <g id="patch_46">
    <path d="M 127.941818 49553.307315 
L 129.200169 49553.307315 
L 129.200169 205.861234 
L 127.941818 205.861234 
z
" clip-path="url(#p556accd03b)" style="fill: #1f77b4"/>
   </g>
   <g id="patch_47">
    <path d="M 129.200169 49553.307315 
L 130.45852 49553.307315 
L 130.45852 208.997434 
L 129.200169 208.997434 
z
" clip-path="url(#p556accd03b)" style="fill: #1f77b4"/>
   </g>
   <g id="patch_48">
    <path d="M 130.45852 49553.307315 
L 131.716871 49553.307315 
L 131.716871 213.124106 
L 130.45852 213.124106 
z
" clip-path="url(#p556accd03b)" style="fill: #1f77b4"/>
   </g>
   <g id="patch_49">
    <path d="M 131.716871 49553.307315 
L 132.975222 49553.307315 
L 132.975222 215.026906 
L 131.716871 215.026906 
z
" clip-path="url(#p556accd03b)" style="fill: #1f77b4"/>
   </g>
   <g id="patch_50">
    <path d="M 132.975222 49553.307315 
L 134.233573 49553.307315 
L 134.233573 213.584175 
L 132.975222 213.584175 
z
" clip-path="url(#p556accd03b)" style="fill: #1f77b4"/>
   </g>
   <g id="patch_51">
    <path d="M 134.233573 49553.307315 
L 135.491924 49553.307315 
L 135.491924 215.026906 
L 134.233573 215.026906 
z
" clip-path="url(#p556accd03b)" style="fill: #1f77b4"/>
   </g>
   <g id="patch_52">
    <path d="M 135.491924 49553.307315 
L 136.750275 49553.307315 
L 136.750275 223.453464 
L 135.491924 223.453464 
z
" clip-path="url(#p556accd03b)" style="fill: #1f77b4"/>
   </g>
   <g id="patch_53">
    <path d="M 136.750275 49553.307315 
L 138.008626 49553.307315 
L 138.008626 213.584175 
L 136.750275 213.584175 
z
" clip-path="url(#p556accd03b)" style="fill: #1f77b4"/>
   </g>
   <g id="patch_54">
    <path d="M 138.008626 49553.307315 
L 139.266977 49553.307315 
L 139.266977 217.671305 
L 138.008626 217.671305 
z
" clip-path="url(#p556accd03b)" style="fill: #1f77b4"/>
   </g>
   <g id="patch_55">
    <path d="M 139.266977 49553.307315 
L 140.525328 49553.307315 
L 140.525328 217.115627 
L 139.266977 217.115627 
z
" clip-path="url(#p556accd03b)" style="fill: #1f77b4"/>
   </g>
   <g id="patch_56">
    <path d="M 140.525328 49553.307315 
L 141.783679 49553.307315 
L 141.783679 227.501804 
L 140.525328 227.501804 
z
" clip-path="url(#p556accd03b)" style="fill: #1f77b4"/>
   </g>
   <g id="patch_57">
    <path d="M 141.783679 49553.307315 
L 143.04203 49553.307315 
L 143.04203 224.982142 
L 141.783679 224.982142 
z
" clip-path="url(#p556accd03b)" style="fill: #1f77b4"/>
   </g>
   <g id="patch_58">
    <path d="M 143.04203 49553.307315 
L 144.300381 49553.307315 
L 144.300381 229.363186 
L 143.04203 229.363186 
z
" clip-path="url(#p556accd03b)" style="fill: #1f77b4"/>
   </g>
   <g id="patch_59">
    <path d="M 144.300381 49553.307315 
L 145.558732 49553.307315 
L 145.558732 228.412256 
L 144.300381 228.412256 
z
" clip-path="url(#p556accd03b)" style="fill: #1f77b4"/>
   </g>
   <g id="patch_60">
    <path d="M 145.558732 49553.307315 
L 146.817082 49553.307315 
L 146.817082 230.358361 
L 145.558732 230.358361 
z
" clip-path="url(#p556accd03b)" style="fill: #1f77b4"/>
   </g>
   <g id="patch_61">
    <path d="M 146.817082 49553.307315 
L 148.075433 49553.307315 
L 148.075433 223.453464 
L 146.817082 223.453464 
z
" clip-path="url(#p556accd03b)" style="fill: #1f77b4"/>
   </g>
   <g id="patch_62">
    <path d="M 148.075433 49553.307315 
L 149.333784 49553.307315 
L 149.333784 228.412256 
L 148.075433 228.412256 
z
" clip-path="url(#p556accd03b)" style="fill: #1f77b4"/>
   </g>
   <g id="patch_63">
    <path d="M 149.333784 49553.307315 
L 150.592135 49553.307315 
L 150.592135 242.329885 
L 149.333784 242.329885 
z
" clip-path="url(#p556accd03b)" style="fill: #1f77b4"/>
   </g>
   <g id="patch_64">
    <path d="M 150.592135 49553.307315 
L 151.850486 49553.307315 
L 151.850486 233.656014 
L 150.592135 233.656014 
z
" clip-path="url(#p556accd03b)" style="fill: #1f77b4"/>
   </g>
   <g id="patch_65">
    <path d="M 151.850486 49553.307315 
L 153.108837 49553.307315 
L 153.108837 248.484095 
L 151.850486 248.484095 
z
" clip-path="url(#p556accd03b)" style="fill: #1f77b4"/>
   </g>
   <g id="patch_66">
    <path d="M 153.108837 49553.307315 
L 154.367188 49553.307315 
L 154.367188 236.175675 
L 153.108837 236.175675 
z
" clip-path="url(#p556accd03b)" style="fill: #1f77b4"/>
   </g>
   <g id="patch_67">
    <path d="M 154.367188 49553.307315 
L 155.625539 49553.307315 
L 155.625539 248.484095 
L 154.367188 248.484095 
z
" clip-path="url(#p556accd03b)" style="fill: #1f77b4"/>
   </g>
   <g id="patch_68">
    <path d="M 155.625539 49553.307315 
L 156.88389 49553.307315 
L 156.88389 237.556309 
L 155.625539 237.556309 
z
" clip-path="url(#p556accd03b)" style="fill: #1f77b4"/>
   </g>
   <g id="patch_69">
    <path d="M 156.88389 49553.307315 
L 158.142241 49553.307315 
L 158.142241 244.191267 
L 156.88389 244.191267 
z
" clip-path="url(#p556accd03b)" style="fill: #1f77b4"/>
   </g>
   <g id="patch_70">
    <path d="M 158.142241 49553.307315 
L 159.400592 49553.307315 
L 159.400592 261.058262 
L 158.142241 261.058262 
z
" clip-path="url(#p556accd03b)" style="fill: #1f77b4"/>
   </g>
   <g id="patch_71">
    <path d="M 159.400592 49553.307315 
L 160.658943 49553.307315 
L 160.658943 244.191267 
L 159.400592 244.191267 
z
" clip-path="url(#p556accd03b)" style="fill: #1f77b4"/>
   </g>
   <g id="patch_72">
    <path d="M 160.658943 49553.307315 
L 161.917294 49553.307315 
L 161.917294 253.860313 
L 160.658943 253.860313 
z
" clip-path="url(#p556accd03b)" style="fill: #1f77b4"/>
   </g>
   <g id="patch_73">
    <path d="M 161.917294 49553.307315 
L 163.175645 49553.307315 
L 163.175645 242.329885 
L 161.917294 242.329885 
z
" clip-path="url(#p556accd03b)" style="fill: #1f77b4"/>
   </g>
   <g id="patch_74">
    <path d="M 163.175645 49553.307315 
L 164.433996 49553.307315 
L 164.433996 251.003757 
L 163.175645 251.003757 
z
" clip-path="url(#p556accd03b)" style="fill: #1f77b4"/>
   </g>
   <g id="patch_75">
    <path d="M 164.433996 49553.307315 
L 165.692347 49553.307315 
L 165.692347 246.230181 
L 164.433996 246.230181 
z
" clip-path="url(#p556accd03b)" style="fill: #1f77b4"/>
   </g>
   <g id="patch_76">
    <path d="M 165.692347 49553.307315 
L 166.950698 49553.307315 
L 166.950698 257.157966 
L 165.692347 257.157966 
z
" clip-path="url(#p556accd03b)" style="fill: #1f77b4"/>
   </g>
   <g id="patch_77">
    <path d="M 166.950698 49553.307315 
L 168.209049 49553.307315 
L 168.209049 251.003757 
L 166.950698 251.003757 
z
" clip-path="url(#p556accd03b)" style="fill: #1f77b4"/>
   </g>
   <g id="patch_78">
    <path d="M 168.209049 49553.307315 
L 169.4674 49553.307315 
L 169.4674 246.230181 
L 168.209049 246.230181 
z
" clip-path="url(#p556accd03b)" style="fill: #1f77b4"/>
   </g>
   <g id="patch_79">
    <path d="M 169.4674 49553.307315 
L 170.725751 49553.307315 
L 170.725751 251.003757 
L 169.4674 251.003757 
z
" clip-path="url(#p556accd03b)" style="fill: #1f77b4"/>
   </g>
   <g id="patch_80">
    <path d="M 170.725751 49553.307315 
L 171.984101 49553.307315 
L 171.984101 265.831838 
L 170.725751 265.831838 
z
" clip-path="url(#p556accd03b)" style="fill: #1f77b4"/>
   </g>
   <g id="patch_81">
    <path d="M 171.984101 49553.307315 
L 173.242452 49553.307315 
L 173.242452 253.860313 
L 171.984101 253.860313 
z
" clip-path="url(#p556accd03b)" style="fill: #1f77b4"/>
   </g>
   <g id="patch_82">
    <path d="M 173.242452 49553.307315 
L 174.500803 49553.307315 
L 174.500803 253.860313 
L 173.242452 253.860313 
z
" clip-path="url(#p556accd03b)" style="fill: #1f77b4"/>
   </g>
   <g id="patch_83">
    <path d="M 174.500803 49553.307315 
L 175.759154 49553.307315 
L 175.759154 257.157966 
L 174.500803 257.157966 
z
" clip-path="url(#p556accd03b)" style="fill: #1f77b4"/>
   </g>
   <g id="patch_84">
    <path d="M 175.759154 49553.307315 
L 177.017505 49553.307315 
L 177.017505 265.831838 
L 175.759154 265.831838 
z
" clip-path="url(#p556accd03b)" style="fill: #1f77b4"/>
   </g>
   <g id="patch_85">
    <path d="M 177.017505 49553.307315 
L 178.275856 49553.307315 
L 178.275856 253.860313 
L 177.017505 253.860313 
z
" clip-path="url(#p556accd03b)" style="fill: #1f77b4"/>
   </g>
   <g id="patch_86">
    <path d="M 178.275856 49553.307315 
L 179.534207 49553.307315 
L 179.534207 253.860313 
L 178.275856 253.860313 
z
" clip-path="url(#p556accd03b)" style="fill: #1f77b4"/>
   </g>
   <g id="patch_87">
    <path d="M 179.534207 49553.307315 
L 180.792558 49553.307315 
L 180.792558 271.986047 
L 179.534207 271.986047 
z
" clip-path="url(#p556accd03b)" style="fill: #1f77b4"/>
   </g>
   <g id="patch_88">
    <path d="M 180.792558 49553.307315 
L 182.050909 49553.307315 
L 182.050909 251.003757 
L 180.792558 251.003757 
z
" clip-path="url(#p556accd03b)" style="fill: #1f77b4"/>
   </g>
   <g id="patch_89">
    <path d="M 182.050909 49553.307315 
L 183.30926 49553.307315 
L 183.30926 280.659919 
L 182.050909 280.659919 
z
" clip-path="url(#p556accd03b)" style="fill: #1f77b4"/>
   </g>
   <g id="patch_90">
    <path d="M 183.30926 49553.307315 
L 184.567611 49553.307315 
L 184.567611 295.488 
L 183.30926 295.488 
z
" clip-path="url(#p556accd03b)" style="fill: #1f77b4"/>
   </g>
   <g id="patch_91">
    <path d="M 184.567611 49553.307315 
L 185.825962 49553.307315 
L 185.825962 295.488 
L 184.567611 295.488 
z
" clip-path="url(#p556accd03b)" style="fill: #1f77b4"/>
   </g>
   <g id="patch_92">
    <path d="M 185.825962 49553.307315 
L 187.084313 49553.307315 
L 187.084313 271.986047 
L 185.825962 271.986047 
z
" clip-path="url(#p556accd03b)" style="fill: #1f77b4"/>
   </g>
   <g id="patch_93">
    <path d="M 187.084313 49553.307315 
L 188.342664 49553.307315 
L 188.342664 271.986047 
L 187.084313 271.986047 
z
" clip-path="url(#p556accd03b)" style="fill: #1f77b4"/>
   </g>
   <g id="patch_94">
    <path d="M 188.342664 49553.307315 
L 189.601015 49553.307315 
L 189.601015 271.986047 
L 188.342664 271.986047 
z
" clip-path="url(#p556accd03b)" style="fill: #1f77b4"/>
   </g>
   <g id="patch_95">
    <path d="M 189.601015 49553.307315 
L 190.859366 49553.307315 
L 190.859366 271.986047 
L 189.601015 271.986047 
z
" clip-path="url(#p556accd03b)" style="fill: #1f77b4"/>
   </g>
   <g id="patch_96">
    <path d="M 190.859366 49553.307315 
L 192.117717 49553.307315 
L 192.117717 280.659919 
L 190.859366 280.659919 
z
" clip-path="url(#p556accd03b)" style="fill: #1f77b4"/>
   </g>
   <g id="patch_97">
    <path d="M 192.117717 49553.307315 
L 193.376068 49553.307315 
L 193.376068 295.488 
L 192.117717 295.488 
z
" clip-path="url(#p556accd03b)" style="fill: #1f77b4"/>
   </g>
   <g id="patch_98">
    <path d="M 193.376068 49553.307315 
L 194.634419 49553.307315 
L 194.634419 280.659919 
L 193.376068 280.659919 
z
" clip-path="url(#p556accd03b)" style="fill: #1f77b4"/>
   </g>
   <g id="patch_99">
    <path d="M 194.634419 49553.307315 
L 195.89277 49553.307315 
L 195.89277 49553.307315 
L 194.634419 49553.307315 
z
" clip-path="url(#p556accd03b)" style="fill: #1f77b4"/>
   </g>
   <g id="patch_100">
    <path d="M 195.89277 49553.307315 
L 197.151121 49553.307315 
L 197.151121 280.659919 
L 195.89277 280.659919 
z
" clip-path="url(#p556accd03b)" style="fill: #1f77b4"/>
   </g>
   <g id="patch_101">
    <path d="M 197.151121 49553.307315 
L 198.409471 49553.307315 
L 198.409471 280.659919 
L 197.151121 280.659919 
z
" clip-path="url(#p556accd03b)" style="fill: #1f77b4"/>
   </g>
   <g id="patch_102">
    <path d="M 198.409471 49553.307315 
L 199.667822 49553.307315 
L 199.667822 295.488 
L 198.409471 295.488 
z
" clip-path="url(#p556accd03b)" style="fill: #1f77b4"/>
   </g>
   <g id="patch_103">
    <path d="M 199.667822 49553.307315 
L 200.926173 49553.307315 
L 200.926173 49553.307315 
L 199.667822 49553.307315 
z
" clip-path="url(#p556accd03b)" style="fill: #1f77b4"/>
   </g>
   <g id="patch_104">
    <path d="M 200.926173 49553.307315 
L 202.184524 49553.307315 
L 202.184524 265.831838 
L 200.926173 265.831838 
z
" clip-path="url(#p556accd03b)" style="fill: #1f77b4"/>
   </g>
   <g id="patch_105">
    <path d="M 202.184524 49553.307315 
L 203.442875 49553.307315 
L 203.442875 295.488 
L 202.184524 295.488 
z
" clip-path="url(#p556accd03b)" style="fill: #1f77b4"/>
   </g>
   <g id="patch_106">
    <path d="M 203.442875 49553.307315 
L 204.701226 49553.307315 
L 204.701226 280.659919 
L 203.442875 280.659919 
z
" clip-path="url(#p556accd03b)" style="fill: #1f77b4"/>
   </g>
   <g id="patch_107">
    <path d="M 204.701226 49553.307315 
L 205.959577 49553.307315 
L 205.959577 280.659919 
L 204.701226 280.659919 
z
" clip-path="url(#p556accd03b)" style="fill: #1f77b4"/>
   </g>
   <g id="patch_108">
    <path d="M 205.959577 49553.307315 
L 207.217928 49553.307315 
L 207.217928 253.860313 
L 205.959577 253.860313 
z
" clip-path="url(#p556accd03b)" style="fill: #1f77b4"/>
   </g>
   <g id="patch_109">
    <path d="M 207.217928 49553.307315 
L 208.476279 49553.307315 
L 208.476279 295.488 
L 207.217928 295.488 
z
" clip-path="url(#p556accd03b)" style="fill: #1f77b4"/>
   </g>
   <g id="patch_110">
    <path d="M 208.476279 49553.307315 
L 209.73463 49553.307315 
L 209.73463 49553.307315 
L 208.476279 49553.307315 
z
" clip-path="url(#p556accd03b)" style="fill: #1f77b4"/>
   </g>
   <g id="patch_111">
    <path d="M 209.73463 49553.307315 
L 210.992981 49553.307315 
L 210.992981 295.488 
L 209.73463 295.488 
z
" clip-path="url(#p556accd03b)" style="fill: #1f77b4"/>
   </g>
   <g id="patch_112">
    <path d="M 210.992981 49553.307315 
L 212.251332 49553.307315 
L 212.251332 49553.307315 
L 210.992981 49553.307315 
z
" clip-path="url(#p556accd03b)" style="fill: #1f77b4"/>
   </g>
   <g id="patch_113">
    <path d="M 212.251332 49553.307315 
L 213.509683 49553.307315 
L 213.509683 49553.307315 
L 212.251332 49553.307315 
z
" clip-path="url(#p556accd03b)" style="fill: #1f77b4"/>
   </g>
   <g id="patch_114">
    <path d="M 213.509683 49553.307315 
L 214.768034 49553.307315 
L 214.768034 295.488 
L 213.509683 295.488 
z
" clip-path="url(#p556accd03b)" style="fill: #1f77b4"/>
   </g>
   <g id="patch_115">
    <path d="M 214.768034 49553.307315 
L 216.026385 49553.307315 
L 216.026385 280.659919 
L 214.768034 280.659919 
z
" clip-path="url(#p556accd03b)" style="fill: #1f77b4"/>
   </g>
   <g id="patch_116">
    <path d="M 216.026385 49553.307315 
L 217.284736 49553.307315 
L 217.284736 271.986047 
L 216.026385 271.986047 
z
" clip-path="url(#p556accd03b)" style="fill: #1f77b4"/>
   </g>
   <g id="patch_117">
    <path d="M 217.284736 49553.307315 
L 218.543087 49553.307315 
L 218.543087 295.488 
L 217.284736 295.488 
z
" clip-path="url(#p556accd03b)" style="fill: #1f77b4"/>
   </g>
   <g id="patch_118">
    <path d="M 218.543087 49553.307315 
L 219.801438 49553.307315 
L 219.801438 49553.307315 
L 218.543087 49553.307315 
z
" clip-path="url(#p556accd03b)" style="fill: #1f77b4"/>
   </g>
   <g id="patch_119">
    <path d="M 219.801438 49553.307315 
L 221.059789 49553.307315 
L 221.059789 295.488 
L 219.801438 295.488 
z
" clip-path="url(#p556accd03b)" style="fill: #1f77b4"/>
   </g>
   <g id="patch_120">
    <path d="M 221.059789 49553.307315 
L 222.31814 49553.307315 
L 222.31814 295.488 
L 221.059789 295.488 
z
" clip-path="url(#p556accd03b)" style="fill: #1f77b4"/>
   </g>
   <g id="patch_121">
    <path d="M 222.31814 49553.307315 
L 223.57649 49553.307315 
L 223.57649 280.659919 
L 222.31814 280.659919 
z
" clip-path="url(#p556accd03b)" style="fill: #1f77b4"/>
   </g>
   <g id="patch_122">
    <path d="M 223.57649 49553.307315 
L 224.834841 49553.307315 
L 224.834841 295.488 
L 223.57649 295.488 
z
" clip-path="url(#p556accd03b)" style="fill: #1f77b4"/>
   </g>
   <g id="patch_123">
    <path d="M 224.834841 49553.307315 
L 226.093192 49553.307315 
L 226.093192 280.659919 
L 224.834841 280.659919 
z
" clip-path="url(#p556accd03b)" style="fill: #1f77b4"/>
   </g>
   <g id="patch_124">
    <path d="M 226.093192 49553.307315 
L 227.351543 49553.307315 
L 227.351543 49553.307315 
L 226.093192 49553.307315 
z
" clip-path="url(#p556accd03b)" style="fill: #1f77b4"/>
   </g>
   <g id="patch_125">
    <path d="M 227.351543 49553.307315 
L 228.609894 49553.307315 
L 228.609894 49553.307315 
L 227.351543 49553.307315 
z
" clip-path="url(#p556accd03b)" style="fill: #1f77b4"/>
   </g>
   <g id="patch_126">
    <path d="M 228.609894 49553.307315 
L 229.868245 49553.307315 
L 229.868245 49553.307315 
L 228.609894 49553.307315 
z
" clip-path="url(#p556accd03b)" style="fill: #1f77b4"/>
   </g>
   <g id="patch_127">
    <path d="M 229.868245 49553.307315 
L 231.126596 49553.307315 
L 231.126596 295.488 
L 229.868245 295.488 
z
" clip-path="url(#p556accd03b)" style="fill: #1f77b4"/>
   </g>
   <g id="patch_128">
    <path d="M 231.126596 49553.307315 
L 232.384947 49553.307315 
L 232.384947 49553.307315 
L 231.126596 49553.307315 
z
" clip-path="url(#p556accd03b)" style="fill: #1f77b4"/>
   </g>
   <g id="patch_129">
    <path d="M 232.384947 49553.307315 
L 233.643298 49553.307315 
L 233.643298 49553.307315 
L 232.384947 49553.307315 
z
" clip-path="url(#p556accd03b)" style="fill: #1f77b4"/>
   </g>
   <g id="patch_130">
    <path d="M 233.643298 49553.307315 
L 234.901649 49553.307315 
L 234.901649 49553.307315 
L 233.643298 49553.307315 
z
" clip-path="url(#p556accd03b)" style="fill: #1f77b4"/>
   </g>
   <g id="patch_131">
    <path d="M 234.901649 49553.307315 
L 236.16 49553.307315 
L 236.16 295.488 
L 234.901649 295.488 
z
" clip-path="url(#p556accd03b)" style="fill: #1f77b4"/>
   </g>
   <g id="patch_132">
    <path d="M 236.16 49553.307315 
L 237.418351 49553.307315 
L 237.418351 49553.307315 
L 236.16 49553.307315 
z
" clip-path="url(#p556accd03b)" style="fill: #1f77b4"/>
   </g>
   <g id="patch_133">
    <path d="M 237.418351 49553.307315 
L 238.676702 49553.307315 
L 238.676702 49553.307315 
L 237.418351 49553.307315 
z
" clip-path="url(#p556accd03b)" style="fill: #1f77b4"/>
   </g>
   <g id="patch_134">
    <path d="M 238.676702 49553.307315 
L 239.935053 49553.307315 
L 239.935053 295.488 
L 238.676702 295.488 
z
" clip-path="url(#p556accd03b)" style="fill: #1f77b4"/>
   </g>
   <g id="patch_135">
    <path d="M 239.935053 49553.307315 
L 241.193404 49553.307315 
L 241.193404 49553.307315 
L 239.935053 49553.307315 
z
" clip-path="url(#p556accd03b)" style="fill: #1f77b4"/>
   </g>
   <g id="patch_136">
    <path d="M 241.193404 49553.307315 
L 242.451755 49553.307315 
L 242.451755 49553.307315 
L 241.193404 49553.307315 
z
" clip-path="url(#p556accd03b)" style="fill: #1f77b4"/>
   </g>
   <g id="patch_137">
    <path d="M 242.451755 49553.307315 
L 243.710106 49553.307315 
L 243.710106 49553.307315 
L 242.451755 49553.307315 
z
" clip-path="url(#p556accd03b)" style="fill: #1f77b4"/>
   </g>
   <g id="patch_138">
    <path d="M 243.710106 49553.307315 
L 244.968457 49553.307315 
L 244.968457 49553.307315 
L 243.710106 49553.307315 
z
" clip-path="url(#p556accd03b)" style="fill: #1f77b4"/>
   </g>
   <g id="patch_139">
    <path d="M 244.968457 49553.307315 
L 246.226808 49553.307315 
L 246.226808 49553.307315 
L 244.968457 49553.307315 
z
" clip-path="url(#p556accd03b)" style="fill: #1f77b4"/>
   </g>
   <g id="patch_140">
    <path d="M 246.226808 49553.307315 
L 247.485159 49553.307315 
L 247.485159 295.488 
L 246.226808 295.488 
z
" clip-path="url(#p556accd03b)" style="fill: #1f77b4"/>
   </g>
   <g id="patch_141">
    <path d="M 247.485159 49553.307315 
L 248.74351 49553.307315 
L 248.74351 49553.307315 
L 247.485159 49553.307315 
z
" clip-path="url(#p556accd03b)" style="fill: #1f77b4"/>
   </g>
   <g id="patch_142">
    <path d="M 248.74351 49553.307315 
L 250.00186 49553.307315 
L 250.00186 49553.307315 
L 248.74351 49553.307315 
z
" clip-path="url(#p556accd03b)" style="fill: #1f77b4"/>
   </g>
   <g id="patch_143">
    <path d="M 250.00186 49553.307315 
L 251.260211 49553.307315 
L 251.260211 49553.307315 
L 250.00186 49553.307315 
z
" clip-path="url(#p556accd03b)" style="fill: #1f77b4"/>
   </g>
   <g id="patch_144">
    <path d="M 251.260211 49553.307315 
L 252.518562 49553.307315 
L 252.518562 49553.307315 
L 251.260211 49553.307315 
z
" clip-path="url(#p556accd03b)" style="fill: #1f77b4"/>
   </g>
   <g id="patch_145">
    <path d="M 252.518562 49553.307315 
L 253.776913 49553.307315 
L 253.776913 49553.307315 
L 252.518562 49553.307315 
z
" clip-path="url(#p556accd03b)" style="fill: #1f77b4"/>
   </g>
   <g id="patch_146">
    <path d="M 253.776913 49553.307315 
L 255.035264 49553.307315 
L 255.035264 49553.307315 
L 253.776913 49553.307315 
z
" clip-path="url(#p556accd03b)" style="fill: #1f77b4"/>
   </g>
   <g id="patch_147">
    <path d="M 255.035264 49553.307315 
L 256.293615 49553.307315 
L 256.293615 49553.307315 
L 255.035264 49553.307315 
z
" clip-path="url(#p556accd03b)" style="fill: #1f77b4"/>
   </g>
   <g id="patch_148">
    <path d="M 256.293615 49553.307315 
L 257.551966 49553.307315 
L 257.551966 49553.307315 
L 256.293615 49553.307315 
z
" clip-path="url(#p556accd03b)" style="fill: #1f77b4"/>
   </g>
   <g id="patch_149">
    <path d="M 257.551966 49553.307315 
L 258.810317 49553.307315 
L 258.810317 49553.307315 
L 257.551966 49553.307315 
z
" clip-path="url(#p556accd03b)" style="fill: #1f77b4"/>
   </g>
   <g id="patch_150">
    <path d="M 258.810317 49553.307315 
L 260.068668 49553.307315 
L 260.068668 280.659919 
L 258.810317 280.659919 
z
" clip-path="url(#p556accd03b)" style="fill: #1f77b4"/>
   </g>
   <g id="patch_151">
    <path d="M 260.068668 49553.307315 
L 261.327019 49553.307315 
L 261.327019 49553.307315 
L 260.068668 49553.307315 
z
" clip-path="url(#p556accd03b)" style="fill: #1f77b4"/>
   </g>
   <g id="patch_152">
    <path d="M 261.327019 49553.307315 
L 262.58537 49553.307315 
L 262.58537 49553.307315 
L 261.327019 49553.307315 
z
" clip-path="url(#p556accd03b)" style="fill: #1f77b4"/>
   </g>
   <g id="patch_153">
    <path d="M 262.58537 49553.307315 
L 263.843721 49553.307315 
L 263.843721 49553.307315 
L 262.58537 49553.307315 
z
" clip-path="url(#p556accd03b)" style="fill: #1f77b4"/>
   </g>
   <g id="patch_154">
    <path d="M 263.843721 49553.307315 
L 265.102072 49553.307315 
L 265.102072 49553.307315 
L 263.843721 49553.307315 
z
" clip-path="url(#p556accd03b)" style="fill: #1f77b4"/>
   </g>
   <g id="patch_155">
    <path d="M 265.102072 49553.307315 
L 266.360423 49553.307315 
L 266.360423 49553.307315 
L 265.102072 49553.307315 
z
" clip-path="url(#p556accd03b)" style="fill: #1f77b4"/>
   </g>
   <g id="patch_156">
    <path d="M 266.360423 49553.307315 
L 267.618774 49553.307315 
L 267.618774 49553.307315 
L 266.360423 49553.307315 
z
" clip-path="url(#p556accd03b)" style="fill: #1f77b4"/>
   </g>
   <g id="patch_157">
    <path d="M 267.618774 49553.307315 
L 268.877125 49553.307315 
L 268.877125 49553.307315 
L 267.618774 49553.307315 
z
" clip-path="url(#p556accd03b)" style="fill: #1f77b4"/>
   </g>
   <g id="patch_158">
    <path d="M 268.877125 49553.307315 
L 270.135476 49553.307315 
L 270.135476 295.488 
L 268.877125 295.488 
z
" clip-path="url(#p556accd03b)" style="fill: #1f77b4"/>
   </g>
   <g id="patch_159">
    <path d="M 270.135476 49553.307315 
L 271.393827 49553.307315 
L 271.393827 49553.307315 
L 270.135476 49553.307315 
z
" clip-path="url(#p556accd03b)" style="fill: #1f77b4"/>
   </g>
   <g id="patch_160">
    <path d="M 271.393827 49553.307315 
L 272.652178 49553.307315 
L 272.652178 49553.307315 
L 271.393827 49553.307315 
z
" clip-path="url(#p556accd03b)" style="fill: #1f77b4"/>
   </g>
   <g id="patch_161">
    <path d="M 272.652178 49553.307315 
L 273.910529 49553.307315 
L 273.910529 49553.307315 
L 272.652178 49553.307315 
z
" clip-path="url(#p556accd03b)" style="fill: #1f77b4"/>
   </g>
   <g id="patch_162">
    <path d="M 273.910529 49553.307315 
L 275.168879 49553.307315 
L 275.168879 49553.307315 
L 273.910529 49553.307315 
z
" clip-path="url(#p556accd03b)" style="fill: #1f77b4"/>
   </g>
   <g id="patch_163">
    <path d="M 275.168879 49553.307315 
L 276.42723 49553.307315 
L 276.42723 49553.307315 
L 275.168879 49553.307315 
z
" clip-path="url(#p556accd03b)" style="fill: #1f77b4"/>
   </g>
   <g id="patch_164">
    <path d="M 276.42723 49553.307315 
L 277.685581 49553.307315 
L 277.685581 49553.307315 
L 276.42723 49553.307315 
z
" clip-path="url(#p556accd03b)" style="fill: #1f77b4"/>
   </g>
   <g id="patch_165">
    <path d="M 277.685581 49553.307315 
L 278.943932 49553.307315 
L 278.943932 49553.307315 
L 277.685581 49553.307315 
z
" clip-path="url(#p556accd03b)" style="fill: #1f77b4"/>
   </g>
   <g id="patch_166">
    <path d="M 278.943932 49553.307315 
L 280.202283 49553.307315 
L 280.202283 49553.307315 
L 278.943932 49553.307315 
z
" clip-path="url(#p556accd03b)" style="fill: #1f77b4"/>
   </g>
   <g id="patch_167">
    <path d="M 280.202283 49553.307315 
L 281.460634 49553.307315 
L 281.460634 49553.307315 
L 280.202283 49553.307315 
z
" clip-path="url(#p556accd03b)" style="fill: #1f77b4"/>
   </g>
   <g id="patch_168">
    <path d="M 281.460634 49553.307315 
L 282.718985 49553.307315 
L 282.718985 49553.307315 
L 281.460634 49553.307315 
z
" clip-path="url(#p556accd03b)" style="fill: #1f77b4"/>
   </g>
   <g id="patch_169">
    <path d="M 282.718985 49553.307315 
L 283.977336 49553.307315 
L 283.977336 49553.307315 
L 282.718985 49553.307315 
z
" clip-path="url(#p556accd03b)" style="fill: #1f77b4"/>
   </g>
   <g id="patch_170">
    <path d="M 283.977336 49553.307315 
L 285.235687 49553.307315 
L 285.235687 49553.307315 
L 283.977336 49553.307315 
z
" clip-path="url(#p556accd03b)" style="fill: #1f77b4"/>
   </g>
   <g id="patch_171">
    <path d="M 285.235687 49553.307315 
L 286.494038 49553.307315 
L 286.494038 295.488 
L 285.235687 295.488 
z
" clip-path="url(#p556accd03b)" style="fill: #1f77b4"/>
   </g>
   <g id="patch_172">
    <path d="M 286.494038 49553.307315 
L 287.752389 49553.307315 
L 287.752389 49553.307315 
L 286.494038 49553.307315 
z
" clip-path="url(#p556accd03b)" style="fill: #1f77b4"/>
   </g>
   <g id="patch_173">
    <path d="M 287.752389 49553.307315 
L 289.01074 49553.307315 
L 289.01074 49553.307315 
L 287.752389 49553.307315 
z
" clip-path="url(#p556accd03b)" style="fill: #1f77b4"/>
   </g>
   <g id="patch_174">
    <path d="M 289.01074 49553.307315 
L 290.269091 49553.307315 
L 290.269091 49553.307315 
L 289.01074 49553.307315 
z
" clip-path="url(#p556accd03b)" style="fill: #1f77b4"/>
   </g>
   <g id="patch_175">
    <path d="M 290.269091 49553.307315 
L 291.527442 49553.307315 
L 291.527442 49553.307315 
L 290.269091 49553.307315 
z
" clip-path="url(#p556accd03b)" style="fill: #1f77b4"/>
   </g>
   <g id="patch_176">
    <path d="M 291.527442 49553.307315 
L 292.785793 49553.307315 
L 292.785793 49553.307315 
L 291.527442 49553.307315 
z
" clip-path="url(#p556accd03b)" style="fill: #1f77b4"/>
   </g>
   <g id="patch_177">
    <path d="M 292.785793 49553.307315 
L 294.044144 49553.307315 
L 294.044144 295.488 
L 292.785793 295.488 
z
" clip-path="url(#p556accd03b)" style="fill: #1f77b4"/>
   </g>
   <g id="patch_178">
    <path d="M 294.044144 49553.307315 
L 295.302495 49553.307315 
L 295.302495 49553.307315 
L 294.044144 49553.307315 
z
" clip-path="url(#p556accd03b)" style="fill: #1f77b4"/>
   </g>
   <g id="patch_179">
    <path d="M 295.302495 49553.307315 
L 296.560846 49553.307315 
L 296.560846 49553.307315 
L 295.302495 49553.307315 
z
" clip-path="url(#p556accd03b)" style="fill: #1f77b4"/>
   </g>
   <g id="patch_180">
    <path d="M 296.560846 49553.307315 
L 297.819197 49553.307315 
L 297.819197 49553.307315 
L 296.560846 49553.307315 
z
" clip-path="url(#p556accd03b)" style="fill: #1f77b4"/>
   </g>
   <g id="patch_181">
    <path d="M 297.819197 49553.307315 
L 299.077548 49553.307315 
L 299.077548 49553.307315 
L 297.819197 49553.307315 
z
" clip-path="url(#p556accd03b)" style="fill: #1f77b4"/>
   </g>
   <g id="patch_182">
    <path d="M 299.077548 49553.307315 
L 300.335899 49553.307315 
L 300.335899 49553.307315 
L 299.077548 49553.307315 
z
" clip-path="url(#p556accd03b)" style="fill: #1f77b4"/>
   </g>
   <g id="patch_183">
    <path d="M 300.335899 49553.307315 
L 301.594249 49553.307315 
L 301.594249 49553.307315 
L 300.335899 49553.307315 
z
" clip-path="url(#p556accd03b)" style="fill: #1f77b4"/>
   </g>
   <g id="patch_184">
    <path d="M 301.594249 49553.307315 
L 302.8526 49553.307315 
L 302.8526 49553.307315 
L 301.594249 49553.307315 
z
" clip-path="url(#p556accd03b)" style="fill: #1f77b4"/>
   </g>
   <g id="patch_185">
    <path d="M 302.8526 49553.307315 
L 304.110951 49553.307315 
L 304.110951 49553.307315 
L 302.8526 49553.307315 
z
" clip-path="url(#p556accd03b)" style="fill: #1f77b4"/>
   </g>
   <g id="patch_186">
    <path d="M 304.110951 49553.307315 
L 305.369302 49553.307315 
L 305.369302 49553.307315 
L 304.110951 49553.307315 
z
" clip-path="url(#p556accd03b)" style="fill: #1f77b4"/>
   </g>
   <g id="patch_187">
    <path d="M 305.369302 49553.307315 
L 306.627653 49553.307315 
L 306.627653 49553.307315 
L 305.369302 49553.307315 
z
" clip-path="url(#p556accd03b)" style="fill: #1f77b4"/>
   </g>
   <g id="patch_188">
    <path d="M 306.627653 49553.307315 
L 307.886004 49553.307315 
L 307.886004 49553.307315 
L 306.627653 49553.307315 
z
" clip-path="url(#p556accd03b)" style="fill: #1f77b4"/>
   </g>
   <g id="patch_189">
    <path d="M 307.886004 49553.307315 
L 309.144355 49553.307315 
L 309.144355 49553.307315 
L 307.886004 49553.307315 
z
" clip-path="url(#p556accd03b)" style="fill: #1f77b4"/>
   </g>
   <g id="patch_190">
    <path d="M 309.144355 49553.307315 
L 310.402706 49553.307315 
L 310.402706 49553.307315 
L 309.144355 49553.307315 
z
" clip-path="url(#p556accd03b)" style="fill: #1f77b4"/>
   </g>
   <g id="patch_191">
    <path d="M 310.402706 49553.307315 
L 311.661057 49553.307315 
L 311.661057 49553.307315 
L 310.402706 49553.307315 
z
" clip-path="url(#p556accd03b)" style="fill: #1f77b4"/>
   </g>
   <g id="patch_192">
    <path d="M 311.661057 49553.307315 
L 312.919408 49553.307315 
L 312.919408 49553.307315 
L 311.661057 49553.307315 
z
" clip-path="url(#p556accd03b)" style="fill: #1f77b4"/>
   </g>
   <g id="patch_193">
    <path d="M 312.919408 49553.307315 
L 314.177759 49553.307315 
L 314.177759 49553.307315 
L 312.919408 49553.307315 
z
" clip-path="url(#p556accd03b)" style="fill: #1f77b4"/>
   </g>
   <g id="patch_194">
    <path d="M 314.177759 49553.307315 
L 315.43611 49553.307315 
L 315.43611 49553.307315 
L 314.177759 49553.307315 
z
" clip-path="url(#p556accd03b)" style="fill: #1f77b4"/>
   </g>
   <g id="patch_195">
    <path d="M 315.43611 49553.307315 
L 316.694461 49553.307315 
L 316.694461 49553.307315 
L 315.43611 49553.307315 
z
" clip-path="url(#p556accd03b)" style="fill: #1f77b4"/>
   </g>
   <g id="patch_196">
    <path d="M 316.694461 49553.307315 
L 317.952812 49553.307315 
L 317.952812 49553.307315 
L 316.694461 49553.307315 
z
" clip-path="url(#p556accd03b)" style="fill: #1f77b4"/>
   </g>
   <g id="patch_197">
    <path d="M 317.952812 49553.307315 
L 319.211163 49553.307315 
L 319.211163 49553.307315 
L 317.952812 49553.307315 
z
" clip-path="url(#p556accd03b)" style="fill: #1f77b4"/>
   </g>
   <g id="patch_198">
    <path d="M 319.211163 49553.307315 
L 320.469514 49553.307315 
L 320.469514 49553.307315 
L 319.211163 49553.307315 
z
" clip-path="url(#p556accd03b)" style="fill: #1f77b4"/>
   </g>
   <g id="patch_199">
    <path d="M 320.469514 49553.307315 
L 321.727865 49553.307315 
L 321.727865 49553.307315 
L 320.469514 49553.307315 
z
" clip-path="url(#p556accd03b)" style="fill: #1f77b4"/>
   </g>
   <g id="patch_200">
    <path d="M 321.727865 49553.307315 
L 322.986216 49553.307315 
L 322.986216 49553.307315 
L 321.727865 49553.307315 
z
" clip-path="url(#p556accd03b)" style="fill: #1f77b4"/>
   </g>
   <g id="patch_201">
    <path d="M 322.986216 49553.307315 
L 324.244567 49553.307315 
L 324.244567 49553.307315 
L 322.986216 49553.307315 
z
" clip-path="url(#p556accd03b)" style="fill: #1f77b4"/>
   </g>
   <g id="patch_202">
    <path d="M 324.244567 49553.307315 
L 325.502918 49553.307315 
L 325.502918 49553.307315 
L 324.244567 49553.307315 
z
" clip-path="url(#p556accd03b)" style="fill: #1f77b4"/>
   </g>
   <g id="patch_203">
    <path d="M 325.502918 49553.307315 
L 326.761268 49553.307315 
L 326.761268 49553.307315 
L 325.502918 49553.307315 
z
" clip-path="url(#p556accd03b)" style="fill: #1f77b4"/>
   </g>
   <g id="patch_204">
    <path d="M 326.761268 49553.307315 
L 328.019619 49553.307315 
L 328.019619 49553.307315 
L 326.761268 49553.307315 
z
" clip-path="url(#p556accd03b)" style="fill: #1f77b4"/>
   </g>
   <g id="patch_205">
    <path d="M 328.019619 49553.307315 
L 329.27797 49553.307315 
L 329.27797 49553.307315 
L 328.019619 49553.307315 
z
" clip-path="url(#p556accd03b)" style="fill: #1f77b4"/>
   </g>
   <g id="patch_206">
    <path d="M 329.27797 49553.307315 
L 330.536321 49553.307315 
L 330.536321 49553.307315 
L 329.27797 49553.307315 
z
" clip-path="url(#p556accd03b)" style="fill: #1f77b4"/>
   </g>
   <g id="patch_207">
    <path d="M 330.536321 49553.307315 
L 331.794672 49553.307315 
L 331.794672 49553.307315 
L 330.536321 49553.307315 
z
" clip-path="url(#p556accd03b)" style="fill: #1f77b4"/>
   </g>
   <g id="patch_208">
    <path d="M 331.794672 49553.307315 
L 333.053023 49553.307315 
L 333.053023 49553.307315 
L 331.794672 49553.307315 
z
" clip-path="url(#p556accd03b)" style="fill: #1f77b4"/>
   </g>
   <g id="patch_209">
    <path d="M 333.053023 49553.307315 
L 334.311374 49553.307315 
L 334.311374 49553.307315 
L 333.053023 49553.307315 
z
" clip-path="url(#p556accd03b)" style="fill: #1f77b4"/>
   </g>
   <g id="patch_210">
    <path d="M 334.311374 49553.307315 
L 335.569725 49553.307315 
L 335.569725 49553.307315 
L 334.311374 49553.307315 
z
" clip-path="url(#p556accd03b)" style="fill: #1f77b4"/>
   </g>
   <g id="patch_211">
    <path d="M 335.569725 49553.307315 
L 336.828076 49553.307315 
L 336.828076 49553.307315 
L 335.569725 49553.307315 
z
" clip-path="url(#p556accd03b)" style="fill: #1f77b4"/>
   </g>
   <g id="patch_212">
    <path d="M 336.828076 49553.307315 
L 338.086427 49553.307315 
L 338.086427 49553.307315 
L 336.828076 49553.307315 
z
" clip-path="url(#p556accd03b)" style="fill: #1f77b4"/>
   </g>
   <g id="patch_213">
    <path d="M 338.086427 49553.307315 
L 339.344778 49553.307315 
L 339.344778 49553.307315 
L 338.086427 49553.307315 
z
" clip-path="url(#p556accd03b)" style="fill: #1f77b4"/>
   </g>
   <g id="patch_214">
    <path d="M 339.344778 49553.307315 
L 340.603129 49553.307315 
L 340.603129 49553.307315 
L 339.344778 49553.307315 
z
" clip-path="url(#p556accd03b)" style="fill: #1f77b4"/>
   </g>
   <g id="patch_215">
    <path d="M 340.603129 49553.307315 
L 341.86148 49553.307315 
L 341.86148 49553.307315 
L 340.603129 49553.307315 
z
" clip-path="url(#p556accd03b)" style="fill: #1f77b4"/>
   </g>
   <g id="patch_216">
    <path d="M 341.86148 49553.307315 
L 343.119831 49553.307315 
L 343.119831 49553.307315 
L 341.86148 49553.307315 
z
" clip-path="url(#p556accd03b)" style="fill: #1f77b4"/>
   </g>
   <g id="patch_217">
    <path d="M 343.119831 49553.307315 
L 344.378182 49553.307315 
L 344.378182 49553.307315 
L 343.119831 49553.307315 
z
" clip-path="url(#p556accd03b)" style="fill: #1f77b4"/>
   </g>
   <g id="patch_218">
    <path d="M 344.378182 49553.307315 
L 345.636533 49553.307315 
L 345.636533 49553.307315 
L 344.378182 49553.307315 
z
" clip-path="url(#p556accd03b)" style="fill: #1f77b4"/>
   </g>
   <g id="patch_219">
    <path d="M 345.636533 49553.307315 
L 346.894884 49553.307315 
L 346.894884 49553.307315 
L 345.636533 49553.307315 
z
" clip-path="url(#p556accd03b)" style="fill: #1f77b4"/>
   </g>
   <g id="patch_220">
    <path d="M 346.894884 49553.307315 
L 348.153235 49553.307315 
L 348.153235 49553.307315 
L 346.894884 49553.307315 
z
" clip-path="url(#p556accd03b)" style="fill: #1f77b4"/>
   </g>
   <g id="patch_221">
    <path d="M 348.153235 49553.307315 
L 349.411586 49553.307315 
L 349.411586 49553.307315 
L 348.153235 49553.307315 
z
" clip-path="url(#p556accd03b)" style="fill: #1f77b4"/>
   </g>
   <g id="patch_222">
    <path d="M 349.411586 49553.307315 
L 350.669937 49553.307315 
L 350.669937 49553.307315 
L 349.411586 49553.307315 
z
" clip-path="url(#p556accd03b)" style="fill: #1f77b4"/>
   </g>
   <g id="patch_223">
    <path d="M 350.669937 49553.307315 
L 351.928288 49553.307315 
L 351.928288 49553.307315 
L 350.669937 49553.307315 
z
" clip-path="url(#p556accd03b)" style="fill: #1f77b4"/>
   </g>
   <g id="patch_224">
    <path d="M 351.928288 49553.307315 
L 353.186638 49553.307315 
L 353.186638 49553.307315 
L 351.928288 49553.307315 
z
" clip-path="url(#p556accd03b)" style="fill: #1f77b4"/>
   </g>
   <g id="patch_225">
    <path d="M 353.186638 49553.307315 
L 354.444989 49553.307315 
L 354.444989 49553.307315 
L 353.186638 49553.307315 
z
" clip-path="url(#p556accd03b)" style="fill: #1f77b4"/>
   </g>
   <g id="patch_226">
    <path d="M 354.444989 49553.307315 
L 355.70334 49553.307315 
L 355.70334 49553.307315 
L 354.444989 49553.307315 
z
" clip-path="url(#p556accd03b)" style="fill: #1f77b4"/>
   </g>
   <g id="patch_227">
    <path d="M 355.70334 49553.307315 
L 356.961691 49553.307315 
L 356.961691 49553.307315 
L 355.70334 49553.307315 
z
" clip-path="url(#p556accd03b)" style="fill: #1f77b4"/>
   </g>
   <g id="patch_228">
    <path d="M 356.961691 49553.307315 
L 358.220042 49553.307315 
L 358.220042 49553.307315 
L 356.961691 49553.307315 
z
" clip-path="url(#p556accd03b)" style="fill: #1f77b4"/>
   </g>
   <g id="patch_229">
    <path d="M 358.220042 49553.307315 
L 359.478393 49553.307315 
L 359.478393 49553.307315 
L 358.220042 49553.307315 
z
" clip-path="url(#p556accd03b)" style="fill: #1f77b4"/>
   </g>
   <g id="patch_230">
    <path d="M 359.478393 49553.307315 
L 360.736744 49553.307315 
L 360.736744 295.488 
L 359.478393 295.488 
z
" clip-path="url(#p556accd03b)" style="fill: #1f77b4"/>
   </g>
   <g id="patch_231">
    <path d="M 360.736744 49553.307315 
L 361.995095 49553.307315 
L 361.995095 49553.307315 
L 360.736744 49553.307315 
z
" clip-path="url(#p556accd03b)" style="fill: #1f77b4"/>
   </g>
   <g id="patch_232">
    <path d="M 361.995095 49553.307315 
L 363.253446 49553.307315 
L 363.253446 49553.307315 
L 361.995095 49553.307315 
z
" clip-path="url(#p556accd03b)" style="fill: #1f77b4"/>
   </g>
   <g id="patch_233">
    <path d="M 363.253446 49553.307315 
L 364.511797 49553.307315 
L 364.511797 49553.307315 
L 363.253446 49553.307315 
z
" clip-path="url(#p556accd03b)" style="fill: #1f77b4"/>
   </g>
   <g id="patch_234">
    <path d="M 364.511797 49553.307315 
L 365.770148 49553.307315 
L 365.770148 49553.307315 
L 364.511797 49553.307315 
z
" clip-path="url(#p556accd03b)" style="fill: #1f77b4"/>
   </g>
   <g id="patch_235">
    <path d="M 365.770148 49553.307315 
L 367.028499 49553.307315 
L 367.028499 49553.307315 
L 365.770148 49553.307315 
z
" clip-path="url(#p556accd03b)" style="fill: #1f77b4"/>
   </g>
   <g id="patch_236">
    <path d="M 367.028499 49553.307315 
L 368.28685 49553.307315 
L 368.28685 49553.307315 
L 367.028499 49553.307315 
z
" clip-path="url(#p556accd03b)" style="fill: #1f77b4"/>
   </g>
   <g id="patch_237">
    <path d="M 368.28685 49553.307315 
L 369.545201 49553.307315 
L 369.545201 49553.307315 
L 368.28685 49553.307315 
z
" clip-path="url(#p556accd03b)" style="fill: #1f77b4"/>
   </g>
   <g id="patch_238">
    <path d="M 369.545201 49553.307315 
L 370.803552 49553.307315 
L 370.803552 49553.307315 
L 369.545201 49553.307315 
z
" clip-path="url(#p556accd03b)" style="fill: #1f77b4"/>
   </g>
   <g id="patch_239">
    <path d="M 370.803552 49553.307315 
L 372.061903 49553.307315 
L 372.061903 49553.307315 
L 370.803552 49553.307315 
z
" clip-path="url(#p556accd03b)" style="fill: #1f77b4"/>
   </g>
   <g id="patch_240">
    <path d="M 372.061903 49553.307315 
L 373.320254 49553.307315 
L 373.320254 49553.307315 
L 372.061903 49553.307315 
z
" clip-path="url(#p556accd03b)" style="fill: #1f77b4"/>
   </g>
   <g id="patch_241">
    <path d="M 373.320254 49553.307315 
L 374.578605 49553.307315 
L 374.578605 49553.307315 
L 373.320254 49553.307315 
z
" clip-path="url(#p556accd03b)" style="fill: #1f77b4"/>
   </g>
   <g id="patch_242">
    <path d="M 374.578605 49553.307315 
L 375.836956 49553.307315 
L 375.836956 49553.307315 
L 374.578605 49553.307315 
z
" clip-path="url(#p556accd03b)" style="fill: #1f77b4"/>
   </g>
   <g id="patch_243">
    <path d="M 375.836956 49553.307315 
L 377.095307 49553.307315 
L 377.095307 49553.307315 
L 375.836956 49553.307315 
z
" clip-path="url(#p556accd03b)" style="fill: #1f77b4"/>
   </g>
   <g id="patch_244">
    <path d="M 377.095307 49553.307315 
L 378.353658 49553.307315 
L 378.353658 49553.307315 
L 377.095307 49553.307315 
z
" clip-path="url(#p556accd03b)" style="fill: #1f77b4"/>
   </g>
   <g id="patch_245">
    <path d="M 378.353658 49553.307315 
L 379.612008 49553.307315 
L 379.612008 49553.307315 
L 378.353658 49553.307315 
z
" clip-path="url(#p556accd03b)" style="fill: #1f77b4"/>
   </g>
   <g id="patch_246">
    <path d="M 379.612008 49553.307315 
L 380.870359 49553.307315 
L 380.870359 49553.307315 
L 379.612008 49553.307315 
z
" clip-path="url(#p556accd03b)" style="fill: #1f77b4"/>
   </g>
   <g id="patch_247">
    <path d="M 380.870359 49553.307315 
L 382.12871 49553.307315 
L 382.12871 49553.307315 
L 380.870359 49553.307315 
z
" clip-path="url(#p556accd03b)" style="fill: #1f77b4"/>
   </g>
   <g id="patch_248">
    <path d="M 382.12871 49553.307315 
L 383.387061 49553.307315 
L 383.387061 49553.307315 
L 382.12871 49553.307315 
z
" clip-path="url(#p556accd03b)" style="fill: #1f77b4"/>
   </g>
   <g id="patch_249">
    <path d="M 383.387061 49553.307315 
L 384.645412 49553.307315 
L 384.645412 49553.307315 
L 383.387061 49553.307315 
z
" clip-path="url(#p556accd03b)" style="fill: #1f77b4"/>
   </g>
   <g id="patch_250">
    <path d="M 384.645412 49553.307315 
L 385.903763 49553.307315 
L 385.903763 49553.307315 
L 384.645412 49553.307315 
z
" clip-path="url(#p556accd03b)" style="fill: #1f77b4"/>
   </g>
   <g id="patch_251">
    <path d="M 385.903763 49553.307315 
L 387.162114 49553.307315 
L 387.162114 49553.307315 
L 385.903763 49553.307315 
z
" clip-path="url(#p556accd03b)" style="fill: #1f77b4"/>
   </g>
   <g id="patch_252">
    <path d="M 387.162114 49553.307315 
L 388.420465 49553.307315 
L 388.420465 49553.307315 
L 387.162114 49553.307315 
z
" clip-path="url(#p556accd03b)" style="fill: #1f77b4"/>
   </g>
   <g id="patch_253">
    <path d="M 388.420465 49553.307315 
L 389.678816 49553.307315 
L 389.678816 49553.307315 
L 388.420465 49553.307315 
z
" clip-path="url(#p556accd03b)" style="fill: #1f77b4"/>
   </g>
   <g id="patch_254">
    <path d="M 389.678816 49553.307315 
L 390.937167 49553.307315 
L 390.937167 49553.307315 
L 389.678816 49553.307315 
z
" clip-path="url(#p556accd03b)" style="fill: #1f77b4"/>
   </g>
   <g id="patch_255">
    <path d="M 390.937167 49553.307315 
L 392.195518 49553.307315 
L 392.195518 49553.307315 
L 390.937167 49553.307315 
z
" clip-path="url(#p556accd03b)" style="fill: #1f77b4"/>
   </g>
   <g id="patch_256">
    <path d="M 392.195518 49553.307315 
L 393.453869 49553.307315 
L 393.453869 49553.307315 
L 392.195518 49553.307315 
z
" clip-path="url(#p556accd03b)" style="fill: #1f77b4"/>
   </g>
   <g id="patch_257">
    <path d="M 393.453869 49553.307315 
L 394.71222 49553.307315 
L 394.71222 49553.307315 
L 393.453869 49553.307315 
z
" clip-path="url(#p556accd03b)" style="fill: #1f77b4"/>
   </g>
   <g id="patch_258">
    <path d="M 394.71222 49553.307315 
L 395.970571 49553.307315 
L 395.970571 49553.307315 
L 394.71222 49553.307315 
z
" clip-path="url(#p556accd03b)" style="fill: #1f77b4"/>
   </g>
   <g id="patch_259">
    <path d="M 395.970571 49553.307315 
L 397.228922 49553.307315 
L 397.228922 49553.307315 
L 395.970571 49553.307315 
z
" clip-path="url(#p556accd03b)" style="fill: #1f77b4"/>
   </g>
   <g id="patch_260">
    <path d="M 397.228922 49553.307315 
L 398.487273 49553.307315 
L 398.487273 295.488 
L 397.228922 295.488 
z
" clip-path="url(#p556accd03b)" style="fill: #1f77b4"/>
   </g>
   <g id="matplotlib.axis_1">
    <g id="xtick_1">
     <g id="line2d_1">
      <defs>
       <path id="m15a007fc71" d="M 0 0 
L 0 3.5 
" style="stroke: #000000; stroke-width: 0.8"/>
      </defs>
      <g>
       <use xlink:href="#m15a007fc71" x="73.203552" y="307.584" style="stroke: #000000; stroke-width: 0.8"/>
      </g>
     </g>
     <g id="text_1">
      <!-- 0 -->
      <g transform="translate(70.022302 322.182437) scale(0.1 -0.1)">
       <defs>
        <path id="DejaVuSans-30" d="M 2034 4250 
Q 1547 4250 1301 3770 
Q 1056 3291 1056 2328 
Q 1056 1369 1301 889 
Q 1547 409 2034 409 
Q 2525 409 2770 889 
Q 3016 1369 3016 2328 
Q 3016 3291 2770 3770 
Q 2525 4250 2034 4250 
z
M 2034 4750 
Q 2819 4750 3233 4129 
Q 3647 3509 3647 2328 
Q 3647 1150 3233 529 
Q 2819 -91 2034 -91 
Q 1250 -91 836 529 
Q 422 1150 422 2328 
Q 422 3509 836 4129 
Q 1250 4750 2034 4750 
z
" transform="scale(0.015625)"/>
       </defs>
       <use xlink:href="#DejaVuSans-30"/>
      </g>
     </g>
    </g>
    <g id="xtick_2">
     <g id="line2d_2">
      <g>
       <use xlink:href="#m15a007fc71" x="136.121099" y="307.584" style="stroke: #000000; stroke-width: 0.8"/>
      </g>
     </g>
     <g id="text_2">
      <!-- 50 -->
      <g transform="translate(129.758599 322.182437) scale(0.1 -0.1)">
       <defs>
        <path id="DejaVuSans-35" d="M 691 4666 
L 3169 4666 
L 3169 4134 
L 1269 4134 
L 1269 2991 
Q 1406 3038 1543 3061 
Q 1681 3084 1819 3084 
Q 2600 3084 3056 2656 
Q 3513 2228 3513 1497 
Q 3513 744 3044 326 
Q 2575 -91 1722 -91 
Q 1428 -91 1123 -41 
Q 819 9 494 109 
L 494 744 
Q 775 591 1075 516 
Q 1375 441 1709 441 
Q 2250 441 2565 725 
Q 2881 1009 2881 1497 
Q 2881 1984 2565 2268 
Q 2250 2553 1709 2553 
Q 1456 2553 1204 2497 
Q 953 2441 691 2322 
L 691 4666 
z
" transform="scale(0.015625)"/>
       </defs>
       <use xlink:href="#DejaVuSans-35"/>
       <use xlink:href="#DejaVuSans-30" x="63.623047"/>
      </g>
     </g>
    </g>
    <g id="xtick_3">
     <g id="line2d_3">
      <g>
       <use xlink:href="#m15a007fc71" x="199.038647" y="307.584" style="stroke: #000000; stroke-width: 0.8"/>
      </g>
     </g>
     <g id="text_3">
      <!-- 100 -->
      <g transform="translate(189.494897 322.182437) scale(0.1 -0.1)">
       <defs>
        <path id="DejaVuSans-31" d="M 794 531 
L 1825 531 
L 1825 4091 
L 703 3866 
L 703 4441 
L 1819 4666 
L 2450 4666 
L 2450 531 
L 3481 531 
L 3481 0 
L 794 0 
L 794 531 
z
" transform="scale(0.015625)"/>
       </defs>
       <use xlink:href="#DejaVuSans-31"/>
       <use xlink:href="#DejaVuSans-30" x="63.623047"/>
       <use xlink:href="#DejaVuSans-30" x="127.246094"/>
      </g>
     </g>
    </g>
    <g id="xtick_4">
     <g id="line2d_4">
      <g>
       <use xlink:href="#m15a007fc71" x="261.956195" y="307.584" style="stroke: #000000; stroke-width: 0.8"/>
      </g>
     </g>
     <g id="text_4">
      <!-- 150 -->
      <g transform="translate(252.412445 322.182437) scale(0.1 -0.1)">
       <use xlink:href="#DejaVuSans-31"/>
       <use xlink:href="#DejaVuSans-35" x="63.623047"/>
       <use xlink:href="#DejaVuSans-30" x="127.246094"/>
      </g>
     </g>
    </g>
    <g id="xtick_5">
     <g id="line2d_5">
      <g>
       <use xlink:href="#m15a007fc71" x="324.873742" y="307.584" style="stroke: #000000; stroke-width: 0.8"/>
      </g>
     </g>
     <g id="text_5">
      <!-- 200 -->
      <g transform="translate(315.329992 322.182437) scale(0.1 -0.1)">
       <defs>
        <path id="DejaVuSans-32" d="M 1228 531 
L 3431 531 
L 3431 0 
L 469 0 
L 469 531 
Q 828 903 1448 1529 
Q 2069 2156 2228 2338 
Q 2531 2678 2651 2914 
Q 2772 3150 2772 3378 
Q 2772 3750 2511 3984 
Q 2250 4219 1831 4219 
Q 1534 4219 1204 4116 
Q 875 4013 500 3803 
L 500 4441 
Q 881 4594 1212 4672 
Q 1544 4750 1819 4750 
Q 2544 4750 2975 4387 
Q 3406 4025 3406 3419 
Q 3406 3131 3298 2873 
Q 3191 2616 2906 2266 
Q 2828 2175 2409 1742 
Q 1991 1309 1228 531 
z
" transform="scale(0.015625)"/>
       </defs>
       <use xlink:href="#DejaVuSans-32"/>
       <use xlink:href="#DejaVuSans-30" x="63.623047"/>
       <use xlink:href="#DejaVuSans-30" x="127.246094"/>
      </g>
     </g>
    </g>
    <g id="xtick_6">
     <g id="line2d_6">
      <g>
       <use xlink:href="#m15a007fc71" x="387.79129" y="307.584" style="stroke: #000000; stroke-width: 0.8"/>
      </g>
     </g>
     <g id="text_6">
      <!-- 250 -->
      <g transform="translate(378.24754 322.182437) scale(0.1 -0.1)">
       <use xlink:href="#DejaVuSans-32"/>
       <use xlink:href="#DejaVuSans-35" x="63.623047"/>
       <use xlink:href="#DejaVuSans-30" x="127.246094"/>
      </g>
     </g>
    </g>
    <g id="text_7">
     <!-- References per Unique Historical Individual -->
     <g transform="translate(128.307656 335.860562) scale(0.1 -0.1)">
      <defs>
       <path id="DejaVuSans-52" d="M 2841 2188 
Q 3044 2119 3236 1894 
Q 3428 1669 3622 1275 
L 4263 0 
L 3584 0 
L 2988 1197 
Q 2756 1666 2539 1819 
Q 2322 1972 1947 1972 
L 1259 1972 
L 1259 0 
L 628 0 
L 628 4666 
L 2053 4666 
Q 2853 4666 3247 4331 
Q 3641 3997 3641 3322 
Q 3641 2881 3436 2590 
Q 3231 2300 2841 2188 
z
M 1259 4147 
L 1259 2491 
L 2053 2491 
Q 2509 2491 2742 2702 
Q 2975 2913 2975 3322 
Q 2975 3731 2742 3939 
Q 2509 4147 2053 4147 
L 1259 4147 
z
" transform="scale(0.015625)"/>
       <path id="DejaVuSans-65" d="M 3597 1894 
L 3597 1613 
L 953 1613 
Q 991 1019 1311 708 
Q 1631 397 2203 397 
Q 2534 397 2845 478 
Q 3156 559 3463 722 
L 3463 178 
Q 3153 47 2828 -22 
Q 2503 -91 2169 -91 
Q 1331 -91 842 396 
Q 353 884 353 1716 
Q 353 2575 817 3079 
Q 1281 3584 2069 3584 
Q 2775 3584 3186 3129 
Q 3597 2675 3597 1894 
z
M 3022 2063 
Q 3016 2534 2758 2815 
Q 2500 3097 2075 3097 
Q 1594 3097 1305 2825 
Q 1016 2553 972 2059 
L 3022 2063 
z
" transform="scale(0.015625)"/>
       <path id="DejaVuSans-66" d="M 2375 4863 
L 2375 4384 
L 1825 4384 
Q 1516 4384 1395 4259 
Q 1275 4134 1275 3809 
L 1275 3500 
L 2222 3500 
L 2222 3053 
L 1275 3053 
L 1275 0 
L 697 0 
L 697 3053 
L 147 3053 
L 147 3500 
L 697 3500 
L 697 3744 
Q 697 4328 969 4595 
Q 1241 4863 1831 4863 
L 2375 4863 
z
" transform="scale(0.015625)"/>
       <path id="DejaVuSans-72" d="M 2631 2963 
Q 2534 3019 2420 3045 
Q 2306 3072 2169 3072 
Q 1681 3072 1420 2755 
Q 1159 2438 1159 1844 
L 1159 0 
L 581 0 
L 581 3500 
L 1159 3500 
L 1159 2956 
Q 1341 3275 1631 3429 
Q 1922 3584 2338 3584 
Q 2397 3584 2469 3576 
Q 2541 3569 2628 3553 
L 2631 2963 
z
" transform="scale(0.015625)"/>
       <path id="DejaVuSans-6e" d="M 3513 2113 
L 3513 0 
L 2938 0 
L 2938 2094 
Q 2938 2591 2744 2837 
Q 2550 3084 2163 3084 
Q 1697 3084 1428 2787 
Q 1159 2491 1159 1978 
L 1159 0 
L 581 0 
L 581 3500 
L 1159 3500 
L 1159 2956 
Q 1366 3272 1645 3428 
Q 1925 3584 2291 3584 
Q 2894 3584 3203 3211 
Q 3513 2838 3513 2113 
z
" transform="scale(0.015625)"/>
       <path id="DejaVuSans-63" d="M 3122 3366 
L 3122 2828 
Q 2878 2963 2633 3030 
Q 2388 3097 2138 3097 
Q 1578 3097 1268 2742 
Q 959 2388 959 1747 
Q 959 1106 1268 751 
Q 1578 397 2138 397 
Q 2388 397 2633 464 
Q 2878 531 3122 666 
L 3122 134 
Q 2881 22 2623 -34 
Q 2366 -91 2075 -91 
Q 1284 -91 818 406 
Q 353 903 353 1747 
Q 353 2603 823 3093 
Q 1294 3584 2113 3584 
Q 2378 3584 2631 3529 
Q 2884 3475 3122 3366 
z
" transform="scale(0.015625)"/>
       <path id="DejaVuSans-73" d="M 2834 3397 
L 2834 2853 
Q 2591 2978 2328 3040 
Q 2066 3103 1784 3103 
Q 1356 3103 1142 2972 
Q 928 2841 928 2578 
Q 928 2378 1081 2264 
Q 1234 2150 1697 2047 
L 1894 2003 
Q 2506 1872 2764 1633 
Q 3022 1394 3022 966 
Q 3022 478 2636 193 
Q 2250 -91 1575 -91 
Q 1294 -91 989 -36 
Q 684 19 347 128 
L 347 722 
Q 666 556 975 473 
Q 1284 391 1588 391 
Q 1994 391 2212 530 
Q 2431 669 2431 922 
Q 2431 1156 2273 1281 
Q 2116 1406 1581 1522 
L 1381 1569 
Q 847 1681 609 1914 
Q 372 2147 372 2553 
Q 372 3047 722 3315 
Q 1072 3584 1716 3584 
Q 2034 3584 2315 3537 
Q 2597 3491 2834 3397 
z
" transform="scale(0.015625)"/>
       <path id="DejaVuSans-20" transform="scale(0.015625)"/>
       <path id="DejaVuSans-70" d="M 1159 525 
L 1159 -1331 
L 581 -1331 
L 581 3500 
L 1159 3500 
L 1159 2969 
Q 1341 3281 1617 3432 
Q 1894 3584 2278 3584 
Q 2916 3584 3314 3078 
Q 3713 2572 3713 1747 
Q 3713 922 3314 415 
Q 2916 -91 2278 -91 
Q 1894 -91 1617 61 
Q 1341 213 1159 525 
z
M 3116 1747 
Q 3116 2381 2855 2742 
Q 2594 3103 2138 3103 
Q 1681 3103 1420 2742 
Q 1159 2381 1159 1747 
Q 1159 1113 1420 752 
Q 1681 391 2138 391 
Q 2594 391 2855 752 
Q 3116 1113 3116 1747 
z
" transform="scale(0.015625)"/>
       <path id="DejaVuSans-55" d="M 556 4666 
L 1191 4666 
L 1191 1831 
Q 1191 1081 1462 751 
Q 1734 422 2344 422 
Q 2950 422 3222 751 
Q 3494 1081 3494 1831 
L 3494 4666 
L 4128 4666 
L 4128 1753 
Q 4128 841 3676 375 
Q 3225 -91 2344 -91 
Q 1459 -91 1007 375 
Q 556 841 556 1753 
L 556 4666 
z
" transform="scale(0.015625)"/>
       <path id="DejaVuSans-69" d="M 603 3500 
L 1178 3500 
L 1178 0 
L 603 0 
L 603 3500 
z
M 603 4863 
L 1178 4863 
L 1178 4134 
L 603 4134 
L 603 4863 
z
" transform="scale(0.015625)"/>
       <path id="DejaVuSans-71" d="M 947 1747 
Q 947 1113 1208 752 
Q 1469 391 1925 391 
Q 2381 391 2643 752 
Q 2906 1113 2906 1747 
Q 2906 2381 2643 2742 
Q 2381 3103 1925 3103 
Q 1469 3103 1208 2742 
Q 947 2381 947 1747 
z
M 2906 525 
Q 2725 213 2448 61 
Q 2172 -91 1784 -91 
Q 1150 -91 751 415 
Q 353 922 353 1747 
Q 353 2572 751 3078 
Q 1150 3584 1784 3584 
Q 2172 3584 2448 3432 
Q 2725 3281 2906 2969 
L 2906 3500 
L 3481 3500 
L 3481 -1331 
L 2906 -1331 
L 2906 525 
z
" transform="scale(0.015625)"/>
       <path id="DejaVuSans-75" d="M 544 1381 
L 544 3500 
L 1119 3500 
L 1119 1403 
Q 1119 906 1312 657 
Q 1506 409 1894 409 
Q 2359 409 2629 706 
Q 2900 1003 2900 1516 
L 2900 3500 
L 3475 3500 
L 3475 0 
L 2900 0 
L 2900 538 
Q 2691 219 2414 64 
Q 2138 -91 1772 -91 
Q 1169 -91 856 284 
Q 544 659 544 1381 
z
M 1991 3584 
L 1991 3584 
z
" transform="scale(0.015625)"/>
       <path id="DejaVuSans-48" d="M 628 4666 
L 1259 4666 
L 1259 2753 
L 3553 2753 
L 3553 4666 
L 4184 4666 
L 4184 0 
L 3553 0 
L 3553 2222 
L 1259 2222 
L 1259 0 
L 628 0 
L 628 4666 
z
" transform="scale(0.015625)"/>
       <path id="DejaVuSans-74" d="M 1172 4494 
L 1172 3500 
L 2356 3500 
L 2356 3053 
L 1172 3053 
L 1172 1153 
Q 1172 725 1289 603 
Q 1406 481 1766 481 
L 2356 481 
L 2356 0 
L 1766 0 
Q 1100 0 847 248 
Q 594 497 594 1153 
L 594 3053 
L 172 3053 
L 172 3500 
L 594 3500 
L 594 4494 
L 1172 4494 
z
" transform="scale(0.015625)"/>
       <path id="DejaVuSans-6f" d="M 1959 3097 
Q 1497 3097 1228 2736 
Q 959 2375 959 1747 
Q 959 1119 1226 758 
Q 1494 397 1959 397 
Q 2419 397 2687 759 
Q 2956 1122 2956 1747 
Q 2956 2369 2687 2733 
Q 2419 3097 1959 3097 
z
M 1959 3584 
Q 2709 3584 3137 3096 
Q 3566 2609 3566 1747 
Q 3566 888 3137 398 
Q 2709 -91 1959 -91 
Q 1206 -91 779 398 
Q 353 888 353 1747 
Q 353 2609 779 3096 
Q 1206 3584 1959 3584 
z
" transform="scale(0.015625)"/>
       <path id="DejaVuSans-61" d="M 2194 1759 
Q 1497 1759 1228 1600 
Q 959 1441 959 1056 
Q 959 750 1161 570 
Q 1363 391 1709 391 
Q 2188 391 2477 730 
Q 2766 1069 2766 1631 
L 2766 1759 
L 2194 1759 
z
M 3341 1997 
L 3341 0 
L 2766 0 
L 2766 531 
Q 2569 213 2275 61 
Q 1981 -91 1556 -91 
Q 1019 -91 701 211 
Q 384 513 384 1019 
Q 384 1609 779 1909 
Q 1175 2209 1959 2209 
L 2766 2209 
L 2766 2266 
Q 2766 2663 2505 2880 
Q 2244 3097 1772 3097 
Q 1472 3097 1187 3025 
Q 903 2953 641 2809 
L 641 3341 
Q 956 3463 1253 3523 
Q 1550 3584 1831 3584 
Q 2591 3584 2966 3190 
Q 3341 2797 3341 1997 
z
" transform="scale(0.015625)"/>
       <path id="DejaVuSans-6c" d="M 603 4863 
L 1178 4863 
L 1178 0 
L 603 0 
L 603 4863 
z
" transform="scale(0.015625)"/>
       <path id="DejaVuSans-49" d="M 628 4666 
L 1259 4666 
L 1259 0 
L 628 0 
L 628 4666 
z
" transform="scale(0.015625)"/>
       <path id="DejaVuSans-64" d="M 2906 2969 
L 2906 4863 
L 3481 4863 
L 3481 0 
L 2906 0 
L 2906 525 
Q 2725 213 2448 61 
Q 2172 -91 1784 -91 
Q 1150 -91 751 415 
Q 353 922 353 1747 
Q 353 2572 751 3078 
Q 1150 3584 1784 3584 
Q 2172 3584 2448 3432 
Q 2725 3281 2906 2969 
z
M 947 1747 
Q 947 1113 1208 752 
Q 1469 391 1925 391 
Q 2381 391 2643 752 
Q 2906 1113 2906 1747 
Q 2906 2381 2643 2742 
Q 2381 3103 1925 3103 
Q 1469 3103 1208 2742 
Q 947 2381 947 1747 
z
" transform="scale(0.015625)"/>
       <path id="DejaVuSans-76" d="M 191 3500 
L 800 3500 
L 1894 563 
L 2988 3500 
L 3597 3500 
L 2284 0 
L 1503 0 
L 191 3500 
z
" transform="scale(0.015625)"/>
      </defs>
      <use xlink:href="#DejaVuSans-52"/>
      <use xlink:href="#DejaVuSans-65" x="64.982422"/>
      <use xlink:href="#DejaVuSans-66" x="126.505859"/>
      <use xlink:href="#DejaVuSans-65" x="161.710938"/>
      <use xlink:href="#DejaVuSans-72" x="223.234375"/>
      <use xlink:href="#DejaVuSans-65" x="262.097656"/>
      <use xlink:href="#DejaVuSans-6e" x="323.621094"/>
      <use xlink:href="#DejaVuSans-63" x="387"/>
      <use xlink:href="#DejaVuSans-65" x="441.980469"/>
      <use xlink:href="#DejaVuSans-73" x="503.503906"/>
      <use xlink:href="#DejaVuSans-20" x="555.603516"/>
      <use xlink:href="#DejaVuSans-70" x="587.390625"/>
      <use xlink:href="#DejaVuSans-65" x="650.867188"/>
      <use xlink:href="#DejaVuSans-72" x="712.390625"/>
      <use xlink:href="#DejaVuSans-20" x="753.503906"/>
      <use xlink:href="#DejaVuSans-55" x="785.291016"/>
      <use xlink:href="#DejaVuSans-6e" x="858.484375"/>
      <use xlink:href="#DejaVuSans-69" x="921.863281"/>
      <use xlink:href="#DejaVuSans-71" x="949.646484"/>
      <use xlink:href="#DejaVuSans-75" x="1013.123047"/>
      <use xlink:href="#DejaVuSans-65" x="1076.501953"/>
      <use xlink:href="#DejaVuSans-20" x="1138.025391"/>
      <use xlink:href="#DejaVuSans-48" x="1169.8125"/>
      <use xlink:href="#DejaVuSans-69" x="1245.007812"/>
      <use xlink:href="#DejaVuSans-73" x="1272.791016"/>
      <use xlink:href="#DejaVuSans-74" x="1324.890625"/>
      <use xlink:href="#DejaVuSans-6f" x="1364.099609"/>
      <use xlink:href="#DejaVuSans-72" x="1425.28125"/>
      <use xlink:href="#DejaVuSans-69" x="1466.394531"/>
      <use xlink:href="#DejaVuSans-63" x="1494.177734"/>
      <use xlink:href="#DejaVuSans-61" x="1549.158203"/>
      <use xlink:href="#DejaVuSans-6c" x="1610.4375"/>
      <use xlink:href="#DejaVuSans-20" x="1638.220703"/>
      <use xlink:href="#DejaVuSans-49" x="1670.007812"/>
      <use xlink:href="#DejaVuSans-6e" x="1699.5"/>
      <use xlink:href="#DejaVuSans-64" x="1762.878906"/>
      <use xlink:href="#DejaVuSans-69" x="1826.355469"/>
      <use xlink:href="#DejaVuSans-76" x="1854.138672"/>
      <use xlink:href="#DejaVuSans-69" x="1913.318359"/>
      <use xlink:href="#DejaVuSans-64" x="1941.101562"/>
      <use xlink:href="#DejaVuSans-75" x="2004.578125"/>
      <use xlink:href="#DejaVuSans-61" x="2067.957031"/>
      <use xlink:href="#DejaVuSans-6c" x="2129.236328"/>
     </g>
    </g>
   </g>
   <g id="matplotlib.axis_2">
    <g id="ytick_1">
     <g id="line2d_7">
      <defs>
       <path id="md2f6cd823e" d="M 0 0 
L -3.5 0 
" style="stroke: #000000; stroke-width: 0.8"/>
      </defs>
      <g>
       <use xlink:href="#md2f6cd823e" x="57.6" y="295.488" style="stroke: #000000; stroke-width: 0.8"/>
      </g>
     </g>
     <g id="text_8">
      <!-- $\mathdefault{10^{0}}$ -->
      <g transform="translate(33 299.287219) scale(0.1 -0.1)">
       <use xlink:href="#DejaVuSans-31" transform="translate(0 0.765625)"/>
       <use xlink:href="#DejaVuSans-30" transform="translate(63.623047 0.765625)"/>
       <use xlink:href="#DejaVuSans-30" transform="translate(128.203125 39.046875) scale(0.7)"/>
      </g>
     </g>
    </g>
    <g id="ytick_2">
     <g id="line2d_8">
      <g>
       <use xlink:href="#md2f6cd823e" x="57.6" y="246.230181" style="stroke: #000000; stroke-width: 0.8"/>
      </g>
     </g>
     <g id="text_9">
      <!-- $\mathdefault{10^{1}}$ -->
      <g transform="translate(33 250.029399) scale(0.1 -0.1)">
       <use xlink:href="#DejaVuSans-31" transform="translate(0 0.684375)"/>
       <use xlink:href="#DejaVuSans-30" transform="translate(63.623047 0.684375)"/>
       <use xlink:href="#DejaVuSans-31" transform="translate(128.203125 38.965625) scale(0.7)"/>
      </g>
     </g>
    </g>
    <g id="ytick_3">
     <g id="line2d_9">
      <g>
       <use xlink:href="#md2f6cd823e" x="57.6" y="196.972361" style="stroke: #000000; stroke-width: 0.8"/>
      </g>
     </g>
     <g id="text_10">
      <!-- $\mathdefault{10^{2}}$ -->
      <g transform="translate(33 200.77158) scale(0.1 -0.1)">
       <use xlink:href="#DejaVuSans-31" transform="translate(0 0.765625)"/>
       <use xlink:href="#DejaVuSans-30" transform="translate(63.623047 0.765625)"/>
       <use xlink:href="#DejaVuSans-32" transform="translate(128.203125 39.046875) scale(0.7)"/>
      </g>
     </g>
    </g>
    <g id="ytick_4">
     <g id="line2d_10">
      <g>
       <use xlink:href="#md2f6cd823e" x="57.6" y="147.714542" style="stroke: #000000; stroke-width: 0.8"/>
      </g>
     </g>
     <g id="text_11">
      <!-- $\mathdefault{10^{3}}$ -->
      <g transform="translate(33 151.513761) scale(0.1 -0.1)">
       <defs>
        <path id="DejaVuSans-33" d="M 2597 2516 
Q 3050 2419 3304 2112 
Q 3559 1806 3559 1356 
Q 3559 666 3084 287 
Q 2609 -91 1734 -91 
Q 1441 -91 1130 -33 
Q 819 25 488 141 
L 488 750 
Q 750 597 1062 519 
Q 1375 441 1716 441 
Q 2309 441 2620 675 
Q 2931 909 2931 1356 
Q 2931 1769 2642 2001 
Q 2353 2234 1838 2234 
L 1294 2234 
L 1294 2753 
L 1863 2753 
Q 2328 2753 2575 2939 
Q 2822 3125 2822 3475 
Q 2822 3834 2567 4026 
Q 2313 4219 1838 4219 
Q 1578 4219 1281 4162 
Q 984 4106 628 3988 
L 628 4550 
Q 988 4650 1302 4700 
Q 1616 4750 1894 4750 
Q 2613 4750 3031 4423 
Q 3450 4097 3450 3541 
Q 3450 3153 3228 2886 
Q 3006 2619 2597 2516 
z
" transform="scale(0.015625)"/>
       </defs>
       <use xlink:href="#DejaVuSans-31" transform="translate(0 0.765625)"/>
       <use xlink:href="#DejaVuSans-30" transform="translate(63.623047 0.765625)"/>
       <use xlink:href="#DejaVuSans-33" transform="translate(128.203125 39.046875) scale(0.7)"/>
      </g>
     </g>
    </g>
    <g id="ytick_5">
     <g id="line2d_11">
      <g>
       <use xlink:href="#md2f6cd823e" x="57.6" y="98.456723" style="stroke: #000000; stroke-width: 0.8"/>
      </g>
     </g>
     <g id="text_12">
      <!-- $\mathdefault{10^{4}}$ -->
      <g transform="translate(33 102.255941) scale(0.1 -0.1)">
       <defs>
        <path id="DejaVuSans-34" d="M 2419 4116 
L 825 1625 
L 2419 1625 
L 2419 4116 
z
M 2253 4666 
L 3047 4666 
L 3047 1625 
L 3713 1625 
L 3713 1100 
L 3047 1100 
L 3047 0 
L 2419 0 
L 2419 1100 
L 313 1100 
L 313 1709 
L 2253 4666 
z
" transform="scale(0.015625)"/>
       </defs>
       <use xlink:href="#DejaVuSans-31" transform="translate(0 0.684375)"/>
       <use xlink:href="#DejaVuSans-30" transform="translate(63.623047 0.684375)"/>
       <use xlink:href="#DejaVuSans-34" transform="translate(128.203125 38.965625) scale(0.7)"/>
      </g>
     </g>
    </g>
    <g id="ytick_6">
     <g id="line2d_12">
      <g>
       <use xlink:href="#md2f6cd823e" x="57.6" y="49.198903" style="stroke: #000000; stroke-width: 0.8"/>
      </g>
     </g>
     <g id="text_13">
      <!-- $\mathdefault{10^{5}}$ -->
      <g transform="translate(33 52.998122) scale(0.1 -0.1)">
       <use xlink:href="#DejaVuSans-31" transform="translate(0 0.684375)"/>
       <use xlink:href="#DejaVuSans-30" transform="translate(63.623047 0.684375)"/>
       <use xlink:href="#DejaVuSans-35" transform="translate(128.203125 38.965625) scale(0.7)"/>
      </g>
     </g>
    </g>
    <g id="ytick_7">
     <g id="line2d_13">
      <defs>
       <path id="mce8d3e3802" d="M 0 0 
L -2 0 
" style="stroke: #000000; stroke-width: 0.6"/>
      </defs>
      <g>
       <use xlink:href="#mce8d3e3802" x="57.6" y="306.415786" style="stroke: #000000; stroke-width: 0.6"/>
      </g>
     </g>
    </g>
    <g id="ytick_8">
     <g id="line2d_14">
      <g>
       <use xlink:href="#mce8d3e3802" x="57.6" y="303.118133" style="stroke: #000000; stroke-width: 0.6"/>
      </g>
     </g>
    </g>
    <g id="ytick_9">
     <g id="line2d_15">
      <g>
       <use xlink:href="#mce8d3e3802" x="57.6" y="300.261576" style="stroke: #000000; stroke-width: 0.6"/>
      </g>
     </g>
    </g>
    <g id="ytick_10">
     <g id="line2d_16">
      <g>
       <use xlink:href="#mce8d3e3802" x="57.6" y="297.741914" style="stroke: #000000; stroke-width: 0.6"/>
      </g>
     </g>
    </g>
    <g id="ytick_11">
     <g id="line2d_17">
      <g>
       <use xlink:href="#mce8d3e3802" x="57.6" y="280.659919" style="stroke: #000000; stroke-width: 0.6"/>
      </g>
     </g>
    </g>
    <g id="ytick_12">
     <g id="line2d_18">
      <g>
       <use xlink:href="#mce8d3e3802" x="57.6" y="271.986047" style="stroke: #000000; stroke-width: 0.6"/>
      </g>
     </g>
    </g>
    <g id="ytick_13">
     <g id="line2d_19">
      <g>
       <use xlink:href="#mce8d3e3802" x="57.6" y="265.831838" style="stroke: #000000; stroke-width: 0.6"/>
      </g>
     </g>
    </g>
    <g id="ytick_14">
     <g id="line2d_20">
      <g>
       <use xlink:href="#mce8d3e3802" x="57.6" y="261.058262" style="stroke: #000000; stroke-width: 0.6"/>
      </g>
     </g>
    </g>
    <g id="ytick_15">
     <g id="line2d_21">
      <g>
       <use xlink:href="#mce8d3e3802" x="57.6" y="257.157966" style="stroke: #000000; stroke-width: 0.6"/>
      </g>
     </g>
    </g>
    <g id="ytick_16">
     <g id="line2d_22">
      <g>
       <use xlink:href="#mce8d3e3802" x="57.6" y="253.860313" style="stroke: #000000; stroke-width: 0.6"/>
      </g>
     </g>
    </g>
    <g id="ytick_17">
     <g id="line2d_23">
      <g>
       <use xlink:href="#mce8d3e3802" x="57.6" y="251.003757" style="stroke: #000000; stroke-width: 0.6"/>
      </g>
     </g>
    </g>
    <g id="ytick_18">
     <g id="line2d_24">
      <g>
       <use xlink:href="#mce8d3e3802" x="57.6" y="248.484095" style="stroke: #000000; stroke-width: 0.6"/>
      </g>
     </g>
    </g>
    <g id="ytick_19">
     <g id="line2d_25">
      <g>
       <use xlink:href="#mce8d3e3802" x="57.6" y="231.4021" style="stroke: #000000; stroke-width: 0.6"/>
      </g>
     </g>
    </g>
    <g id="ytick_20">
     <g id="line2d_26">
      <g>
       <use xlink:href="#mce8d3e3802" x="57.6" y="222.728228" style="stroke: #000000; stroke-width: 0.6"/>
      </g>
     </g>
    </g>
    <g id="ytick_21">
     <g id="line2d_27">
      <g>
       <use xlink:href="#mce8d3e3802" x="57.6" y="216.574018" style="stroke: #000000; stroke-width: 0.6"/>
      </g>
     </g>
    </g>
    <g id="ytick_22">
     <g id="line2d_28">
      <g>
       <use xlink:href="#mce8d3e3802" x="57.6" y="211.800443" style="stroke: #000000; stroke-width: 0.6"/>
      </g>
     </g>
    </g>
    <g id="ytick_23">
     <g id="line2d_29">
      <g>
       <use xlink:href="#mce8d3e3802" x="57.6" y="207.900147" style="stroke: #000000; stroke-width: 0.6"/>
      </g>
     </g>
    </g>
    <g id="ytick_24">
     <g id="line2d_30">
      <g>
       <use xlink:href="#mce8d3e3802" x="57.6" y="204.602494" style="stroke: #000000; stroke-width: 0.6"/>
      </g>
     </g>
    </g>
    <g id="ytick_25">
     <g id="line2d_31">
      <g>
       <use xlink:href="#mce8d3e3802" x="57.6" y="201.745937" style="stroke: #000000; stroke-width: 0.6"/>
      </g>
     </g>
    </g>
    <g id="ytick_26">
     <g id="line2d_32">
      <g>
       <use xlink:href="#mce8d3e3802" x="57.6" y="199.226276" style="stroke: #000000; stroke-width: 0.6"/>
      </g>
     </g>
    </g>
    <g id="ytick_27">
     <g id="line2d_33">
      <g>
       <use xlink:href="#mce8d3e3802" x="57.6" y="182.14428" style="stroke: #000000; stroke-width: 0.6"/>
      </g>
     </g>
    </g>
    <g id="ytick_28">
     <g id="line2d_34">
      <g>
       <use xlink:href="#mce8d3e3802" x="57.6" y="173.470409" style="stroke: #000000; stroke-width: 0.6"/>
      </g>
     </g>
    </g>
    <g id="ytick_29">
     <g id="line2d_35">
      <g>
       <use xlink:href="#mce8d3e3802" x="57.6" y="167.316199" style="stroke: #000000; stroke-width: 0.6"/>
      </g>
     </g>
    </g>
    <g id="ytick_30">
     <g id="line2d_36">
      <g>
       <use xlink:href="#mce8d3e3802" x="57.6" y="162.542623" style="stroke: #000000; stroke-width: 0.6"/>
      </g>
     </g>
    </g>
    <g id="ytick_31">
     <g id="line2d_37">
      <g>
       <use xlink:href="#mce8d3e3802" x="57.6" y="158.642328" style="stroke: #000000; stroke-width: 0.6"/>
      </g>
     </g>
    </g>
    <g id="ytick_32">
     <g id="line2d_38">
      <g>
       <use xlink:href="#mce8d3e3802" x="57.6" y="155.344675" style="stroke: #000000; stroke-width: 0.6"/>
      </g>
     </g>
    </g>
    <g id="ytick_33">
     <g id="line2d_39">
      <g>
       <use xlink:href="#mce8d3e3802" x="57.6" y="152.488118" style="stroke: #000000; stroke-width: 0.6"/>
      </g>
     </g>
    </g>
    <g id="ytick_34">
     <g id="line2d_40">
      <g>
       <use xlink:href="#mce8d3e3802" x="57.6" y="149.968456" style="stroke: #000000; stroke-width: 0.6"/>
      </g>
     </g>
    </g>
    <g id="ytick_35">
     <g id="line2d_41">
      <g>
       <use xlink:href="#mce8d3e3802" x="57.6" y="132.886461" style="stroke: #000000; stroke-width: 0.6"/>
      </g>
     </g>
    </g>
    <g id="ytick_36">
     <g id="line2d_42">
      <g>
       <use xlink:href="#mce8d3e3802" x="57.6" y="124.212589" style="stroke: #000000; stroke-width: 0.6"/>
      </g>
     </g>
    </g>
    <g id="ytick_37">
     <g id="line2d_43">
      <g>
       <use xlink:href="#mce8d3e3802" x="57.6" y="118.05838" style="stroke: #000000; stroke-width: 0.6"/>
      </g>
     </g>
    </g>
    <g id="ytick_38">
     <g id="line2d_44">
      <g>
       <use xlink:href="#mce8d3e3802" x="57.6" y="113.284804" style="stroke: #000000; stroke-width: 0.6"/>
      </g>
     </g>
    </g>
    <g id="ytick_39">
     <g id="line2d_45">
      <g>
       <use xlink:href="#mce8d3e3802" x="57.6" y="109.384508" style="stroke: #000000; stroke-width: 0.6"/>
      </g>
     </g>
    </g>
    <g id="ytick_40">
     <g id="line2d_46">
      <g>
       <use xlink:href="#mce8d3e3802" x="57.6" y="106.086855" style="stroke: #000000; stroke-width: 0.6"/>
      </g>
     </g>
    </g>
    <g id="ytick_41">
     <g id="line2d_47">
      <g>
       <use xlink:href="#mce8d3e3802" x="57.6" y="103.230299" style="stroke: #000000; stroke-width: 0.6"/>
      </g>
     </g>
    </g>
    <g id="ytick_42">
     <g id="line2d_48">
      <g>
       <use xlink:href="#mce8d3e3802" x="57.6" y="100.710637" style="stroke: #000000; stroke-width: 0.6"/>
      </g>
     </g>
    </g>
    <g id="ytick_43">
     <g id="line2d_49">
      <g>
       <use xlink:href="#mce8d3e3802" x="57.6" y="83.628642" style="stroke: #000000; stroke-width: 0.6"/>
      </g>
     </g>
    </g>
    <g id="ytick_44">
     <g id="line2d_50">
      <g>
       <use xlink:href="#mce8d3e3802" x="57.6" y="74.95477" style="stroke: #000000; stroke-width: 0.6"/>
      </g>
     </g>
    </g>
    <g id="ytick_45">
     <g id="line2d_51">
      <g>
       <use xlink:href="#mce8d3e3802" x="57.6" y="68.80056" style="stroke: #000000; stroke-width: 0.6"/>
      </g>
     </g>
    </g>
    <g id="ytick_46">
     <g id="line2d_52">
      <g>
       <use xlink:href="#mce8d3e3802" x="57.6" y="64.026985" style="stroke: #000000; stroke-width: 0.6"/>
      </g>
     </g>
    </g>
    <g id="ytick_47">
     <g id="line2d_53">
      <g>
       <use xlink:href="#mce8d3e3802" x="57.6" y="60.126689" style="stroke: #000000; stroke-width: 0.6"/>
      </g>
     </g>
    </g>
    <g id="ytick_48">
     <g id="line2d_54">
      <g>
       <use xlink:href="#mce8d3e3802" x="57.6" y="56.829036" style="stroke: #000000; stroke-width: 0.6"/>
      </g>
     </g>
    </g>
    <g id="ytick_49">
     <g id="line2d_55">
      <g>
       <use xlink:href="#mce8d3e3802" x="57.6" y="53.972479" style="stroke: #000000; stroke-width: 0.6"/>
      </g>
     </g>
    </g>
    <g id="ytick_50">
     <g id="line2d_56">
      <g>
       <use xlink:href="#mce8d3e3802" x="57.6" y="51.452818" style="stroke: #000000; stroke-width: 0.6"/>
      </g>
     </g>
    </g>
    <g id="text_14">
     <!-- Frequency -->
     <g transform="translate(26.920312 200.357687) rotate(-90) scale(0.1 -0.1)">
      <defs>
       <path id="DejaVuSans-46" d="M 628 4666 
L 3309 4666 
L 3309 4134 
L 1259 4134 
L 1259 2759 
L 3109 2759 
L 3109 2228 
L 1259 2228 
L 1259 0 
L 628 0 
L 628 4666 
z
" transform="scale(0.015625)"/>
       <path id="DejaVuSans-79" d="M 2059 -325 
Q 1816 -950 1584 -1140 
Q 1353 -1331 966 -1331 
L 506 -1331 
L 506 -850 
L 844 -850 
Q 1081 -850 1212 -737 
Q 1344 -625 1503 -206 
L 1606 56 
L 191 3500 
L 800 3500 
L 1894 763 
L 2988 3500 
L 3597 3500 
L 2059 -325 
z
" transform="scale(0.015625)"/>
      </defs>
      <use xlink:href="#DejaVuSans-46"/>
      <use xlink:href="#DejaVuSans-72" x="50.269531"/>
      <use xlink:href="#DejaVuSans-65" x="89.132812"/>
      <use xlink:href="#DejaVuSans-71" x="150.65625"/>
      <use xlink:href="#DejaVuSans-75" x="214.132812"/>
      <use xlink:href="#DejaVuSans-65" x="277.511719"/>
      <use xlink:href="#DejaVuSans-6e" x="339.035156"/>
      <use xlink:href="#DejaVuSans-63" x="402.414062"/>
      <use xlink:href="#DejaVuSans-79" x="457.394531"/>
     </g>
    </g>
   </g>
   <g id="patch_261">
    <path d="M 57.6 307.584 
L 57.6 41.472 
" style="fill: none; stroke: #000000; stroke-width: 0.8; stroke-linejoin: miter; stroke-linecap: square"/>
   </g>
   <g id="patch_262">
    <path d="M 414.72 307.584 
L 414.72 41.472 
" style="fill: none; stroke: #000000; stroke-width: 0.8; stroke-linejoin: miter; stroke-linecap: square"/>
   </g>
   <g id="patch_263">
    <path d="M 57.6 307.584 
L 414.72 307.584 
" style="fill: none; stroke: #000000; stroke-width: 0.8; stroke-linejoin: miter; stroke-linecap: square"/>
   </g>
   <g id="patch_264">
    <path d="M 57.6 41.472 
L 414.72 41.472 
" style="fill: none; stroke: #000000; stroke-width: 0.8; stroke-linejoin: miter; stroke-linecap: square"/>
   </g>
   <g id="text_15">
    <!-- Histogram of References per Unique Historical Individual (BL) -->
    <g transform="translate(51.966563 35.472) scale(0.12 -0.12)">
     <defs>
      <path id="DejaVuSans-67" d="M 2906 1791 
Q 2906 2416 2648 2759 
Q 2391 3103 1925 3103 
Q 1463 3103 1205 2759 
Q 947 2416 947 1791 
Q 947 1169 1205 825 
Q 1463 481 1925 481 
Q 2391 481 2648 825 
Q 2906 1169 2906 1791 
z
M 3481 434 
Q 3481 -459 3084 -895 
Q 2688 -1331 1869 -1331 
Q 1566 -1331 1297 -1286 
Q 1028 -1241 775 -1147 
L 775 -588 
Q 1028 -725 1275 -790 
Q 1522 -856 1778 -856 
Q 2344 -856 2625 -561 
Q 2906 -266 2906 331 
L 2906 616 
Q 2728 306 2450 153 
Q 2172 0 1784 0 
Q 1141 0 747 490 
Q 353 981 353 1791 
Q 353 2603 747 3093 
Q 1141 3584 1784 3584 
Q 2172 3584 2450 3431 
Q 2728 3278 2906 2969 
L 2906 3500 
L 3481 3500 
L 3481 434 
z
" transform="scale(0.015625)"/>
      <path id="DejaVuSans-6d" d="M 3328 2828 
Q 3544 3216 3844 3400 
Q 4144 3584 4550 3584 
Q 5097 3584 5394 3201 
Q 5691 2819 5691 2113 
L 5691 0 
L 5113 0 
L 5113 2094 
Q 5113 2597 4934 2840 
Q 4756 3084 4391 3084 
Q 3944 3084 3684 2787 
Q 3425 2491 3425 1978 
L 3425 0 
L 2847 0 
L 2847 2094 
Q 2847 2600 2669 2842 
Q 2491 3084 2119 3084 
Q 1678 3084 1418 2786 
Q 1159 2488 1159 1978 
L 1159 0 
L 581 0 
L 581 3500 
L 1159 3500 
L 1159 2956 
Q 1356 3278 1631 3431 
Q 1906 3584 2284 3584 
Q 2666 3584 2933 3390 
Q 3200 3197 3328 2828 
z
" transform="scale(0.015625)"/>
      <path id="DejaVuSans-28" d="M 1984 4856 
Q 1566 4138 1362 3434 
Q 1159 2731 1159 2009 
Q 1159 1288 1364 580 
Q 1569 -128 1984 -844 
L 1484 -844 
Q 1016 -109 783 600 
Q 550 1309 550 2009 
Q 550 2706 781 3412 
Q 1013 4119 1484 4856 
L 1984 4856 
z
" transform="scale(0.015625)"/>
      <path id="DejaVuSans-42" d="M 1259 2228 
L 1259 519 
L 2272 519 
Q 2781 519 3026 730 
Q 3272 941 3272 1375 
Q 3272 1813 3026 2020 
Q 2781 2228 2272 2228 
L 1259 2228 
z
M 1259 4147 
L 1259 2741 
L 2194 2741 
Q 2656 2741 2882 2914 
Q 3109 3088 3109 3444 
Q 3109 3797 2882 3972 
Q 2656 4147 2194 4147 
L 1259 4147 
z
M 628 4666 
L 2241 4666 
Q 2963 4666 3353 4366 
Q 3744 4066 3744 3513 
Q 3744 3084 3544 2831 
Q 3344 2578 2956 2516 
Q 3422 2416 3680 2098 
Q 3938 1781 3938 1306 
Q 3938 681 3513 340 
Q 3088 0 2303 0 
L 628 0 
L 628 4666 
z
" transform="scale(0.015625)"/>
      <path id="DejaVuSans-4c" d="M 628 4666 
L 1259 4666 
L 1259 531 
L 3531 531 
L 3531 0 
L 628 0 
L 628 4666 
z
" transform="scale(0.015625)"/>
      <path id="DejaVuSans-29" d="M 513 4856 
L 1013 4856 
Q 1481 4119 1714 3412 
Q 1947 2706 1947 2009 
Q 1947 1309 1714 600 
Q 1481 -109 1013 -844 
L 513 -844 
Q 928 -128 1133 580 
Q 1338 1288 1338 2009 
Q 1338 2731 1133 3434 
Q 928 4138 513 4856 
z
" transform="scale(0.015625)"/>
     </defs>
     <use xlink:href="#DejaVuSans-48"/>
     <use xlink:href="#DejaVuSans-69" x="75.195312"/>
     <use xlink:href="#DejaVuSans-73" x="102.978516"/>
     <use xlink:href="#DejaVuSans-74" x="155.078125"/>
     <use xlink:href="#DejaVuSans-6f" x="194.287109"/>
     <use xlink:href="#DejaVuSans-67" x="255.46875"/>
     <use xlink:href="#DejaVuSans-72" x="318.945312"/>
     <use xlink:href="#DejaVuSans-61" x="360.058594"/>
     <use xlink:href="#DejaVuSans-6d" x="421.337891"/>
     <use xlink:href="#DejaVuSans-20" x="518.75"/>
     <use xlink:href="#DejaVuSans-6f" x="550.537109"/>
     <use xlink:href="#DejaVuSans-66" x="611.71875"/>
     <use xlink:href="#DejaVuSans-20" x="646.923828"/>
     <use xlink:href="#DejaVuSans-52" x="678.710938"/>
     <use xlink:href="#DejaVuSans-65" x="743.693359"/>
     <use xlink:href="#DejaVuSans-66" x="805.216797"/>
     <use xlink:href="#DejaVuSans-65" x="840.421875"/>
     <use xlink:href="#DejaVuSans-72" x="901.945312"/>
     <use xlink:href="#DejaVuSans-65" x="940.808594"/>
     <use xlink:href="#DejaVuSans-6e" x="1002.332031"/>
     <use xlink:href="#DejaVuSans-63" x="1065.710938"/>
     <use xlink:href="#DejaVuSans-65" x="1120.691406"/>
     <use xlink:href="#DejaVuSans-73" x="1182.214844"/>
     <use xlink:href="#DejaVuSans-20" x="1234.314453"/>
     <use xlink:href="#DejaVuSans-70" x="1266.101562"/>
     <use xlink:href="#DejaVuSans-65" x="1329.578125"/>
     <use xlink:href="#DejaVuSans-72" x="1391.101562"/>
     <use xlink:href="#DejaVuSans-20" x="1432.214844"/>
     <use xlink:href="#DejaVuSans-55" x="1464.001953"/>
     <use xlink:href="#DejaVuSans-6e" x="1537.195312"/>
     <use xlink:href="#DejaVuSans-69" x="1600.574219"/>
     <use xlink:href="#DejaVuSans-71" x="1628.357422"/>
     <use xlink:href="#DejaVuSans-75" x="1691.833984"/>
     <use xlink:href="#DejaVuSans-65" x="1755.212891"/>
     <use xlink:href="#DejaVuSans-20" x="1816.736328"/>
     <use xlink:href="#DejaVuSans-48" x="1848.523438"/>
     <use xlink:href="#DejaVuSans-69" x="1923.71875"/>
     <use xlink:href="#DejaVuSans-73" x="1951.501953"/>
     <use xlink:href="#DejaVuSans-74" x="2003.601562"/>
     <use xlink:href="#DejaVuSans-6f" x="2042.810547"/>
     <use xlink:href="#DejaVuSans-72" x="2103.992188"/>
     <use xlink:href="#DejaVuSans-69" x="2145.105469"/>
     <use xlink:href="#DejaVuSans-63" x="2172.888672"/>
     <use xlink:href="#DejaVuSans-61" x="2227.869141"/>
     <use xlink:href="#DejaVuSans-6c" x="2289.148438"/>
     <use xlink:href="#DejaVuSans-20" x="2316.931641"/>
     <use xlink:href="#DejaVuSans-49" x="2348.71875"/>
     <use xlink:href="#DejaVuSans-6e" x="2378.210938"/>
     <use xlink:href="#DejaVuSans-64" x="2441.589844"/>
     <use xlink:href="#DejaVuSans-69" x="2505.066406"/>
     <use xlink:href="#DejaVuSans-76" x="2532.849609"/>
     <use xlink:href="#DejaVuSans-69" x="2592.029297"/>
     <use xlink:href="#DejaVuSans-64" x="2619.8125"/>
     <use xlink:href="#DejaVuSans-75" x="2683.289062"/>
     <use xlink:href="#DejaVuSans-61" x="2746.667969"/>
     <use xlink:href="#DejaVuSans-6c" x="2807.947266"/>
     <use xlink:href="#DejaVuSans-20" x="2835.730469"/>
     <use xlink:href="#DejaVuSans-28" x="2867.517578"/>
     <use xlink:href="#DejaVuSans-42" x="2906.53125"/>
     <use xlink:href="#DejaVuSans-4c" x="2975.134766"/>
     <use xlink:href="#DejaVuSans-29" x="3030.847656"/>
    </g>
   </g>
  </g>
 </g>
 <defs>
  <clipPath id="p556accd03b">
   <rect x="57.6" y="41.472" width="357.12" height="266.112"/>
  </clipPath>
 </defs>
</svg>
