<?xml version="1.0" encoding="utf-8" standalone="no"?>
<!DOCTYPE svg PUBLIC "-//W3C//DTD SVG 1.1//EN"
  "http://www.w3.org/Graphics/SVG/1.1/DTD/svg11.dtd">
<svg xmlns:xlink="http://www.w3.org/1999/xlink" width="460.8pt" height="345.6pt" viewBox="0 0 460.8 345.6" xmlns="http://www.w3.org/2000/svg" version="1.1">
 <metadata>
  <rdf:RDF xmlns:dc="http://purl.org/dc/elements/1.1/" xmlns:cc="http://creativecommons.org/ns#" xmlns:rdf="http://www.w3.org/1999/02/22-rdf-syntax-ns#">
   <cc:Work>
    <dc:type rdf:resource="http://purl.org/dc/dcmitype/StillImage"/>
    <dc:date>2023-04-20T17:27:29.712589</dc:date>
    <dc:format>image/svg+xml</dc:format>
    <dc:creator>
     <cc:Agent>
      <dc:title>Matplotlib v3.6.2, https://matplotlib.org/</dc:title>
     </cc:Agent>
    </dc:creator>
   </cc:Work>
  </rdf:RDF>
 </metadata>
 <defs>
  <style type="text/css">*{stroke-linejoin: round; stroke-linecap: butt}</style>
 </defs>
 <g id="figure_1">
  <g id="patch_1">
   <path d="M 0 345.6 
L 460.8 345.6 
L 460.8 0 
L 0 0 
z
" style="fill: #ffffff"/>
  </g>
  <g id="axes_1">
   <g id="patch_2">
    <path d="M 57.6 307.584 
L 414.72 307.584 
L 414.72 41.472 
L 57.6 41.472 
z
" style="fill: #ffffff"/>
   </g>
   <g id="patch_3">
    <path d="M 73.832727 47266.846763 
L 75.578182 47266.846763 
L 75.578182 47266.846763 
L 73.832727 47266.846763 
z
" clip-path="url(#pc751de3ae3)" style="fill: #1f77b4"/>
   </g>
   <g id="patch_4">
    <path d="M 75.578182 47266.846763 
L 77.323636 47266.846763 
L 77.323636 53.568 
L 75.578182 53.568 
z
" clip-path="url(#pc751de3ae3)" style="fill: #1f77b4"/>
   </g>
   <g id="patch_5">
    <path d="M 77.323636 47266.846763 
L 79.069091 47266.846763 
L 79.069091 78.000068 
L 77.323636 78.000068 
z
" clip-path="url(#pc751de3ae3)" style="fill: #1f77b4"/>
   </g>
   <g id="patch_6">
    <path d="M 79.069091 47266.846763 
L 80.814545 47266.846763 
L 80.814545 84.969036 
L 79.069091 84.969036 
z
" clip-path="url(#pc751de3ae3)" style="fill: #1f77b4"/>
   </g>
   <g id="patch_7">
    <path d="M 80.814545 47266.846763 
L 82.56 47266.846763 
L 82.56 97.130279 
L 80.814545 97.130279 
z
" clip-path="url(#pc751de3ae3)" style="fill: #1f77b4"/>
   </g>
   <g id="patch_8">
    <path d="M 82.56 47266.846763 
L 84.305455 47266.846763 
L 84.305455 101.491191 
L 82.56 101.491191 
z
" clip-path="url(#pc751de3ae3)" style="fill: #1f77b4"/>
   </g>
   <g id="patch_9">
    <path d="M 84.305455 47266.846763 
L 86.050909 47266.846763 
L 86.050909 107.745863 
L 84.305455 107.745863 
z
" clip-path="url(#pc751de3ae3)" style="fill: #1f77b4"/>
   </g>
   <g id="patch_10">
    <path d="M 86.050909 47266.846763 
L 87.796364 47266.846763 
L 87.796364 110.850766 
L 86.050909 110.850766 
z
" clip-path="url(#pc751de3ae3)" style="fill: #1f77b4"/>
   </g>
   <g id="patch_11">
    <path d="M 87.796364 47266.846763 
L 89.541818 47266.846763 
L 89.541818 114.704414 
L 87.796364 114.704414 
z
" clip-path="url(#pc751de3ae3)" style="fill: #1f77b4"/>
   </g>
   <g id="patch_12">
    <path d="M 89.541818 47266.846763 
L 91.287273 47266.846763 
L 91.287273 116.735262 
L 89.541818 116.735262 
z
" clip-path="url(#pc751de3ae3)" style="fill: #1f77b4"/>
   </g>
   <g id="patch_13">
    <path d="M 91.287273 47266.846763 
L 93.032727 47266.846763 
L 93.032727 119.87612 
L 91.287273 119.87612 
z
" clip-path="url(#pc751de3ae3)" style="fill: #1f77b4"/>
   </g>
   <g id="patch_14">
    <path d="M 93.032727 47266.846763 
L 94.778182 47266.846763 
L 94.778182 121.511115 
L 93.032727 121.511115 
z
" clip-path="url(#pc751de3ae3)" style="fill: #1f77b4"/>
   </g>
   <g id="patch_15">
    <path d="M 94.778182 47266.846763 
L 96.523636 47266.846763 
L 96.523636 123.087207 
L 94.778182 123.087207 
z
" clip-path="url(#pc751de3ae3)" style="fill: #1f77b4"/>
   </g>
   <g id="patch_16">
    <path d="M 96.523636 47266.846763 
L 98.269091 47266.846763 
L 98.269091 125.401311 
L 96.523636 125.401311 
z
" clip-path="url(#pc751de3ae3)" style="fill: #1f77b4"/>
   </g>
   <g id="patch_17">
    <path d="M 98.269091 47266.846763 
L 100.014545 47266.846763 
L 100.014545 126.53546 
L 98.269091 126.53546 
z
" clip-path="url(#pc751de3ae3)" style="fill: #1f77b4"/>
   </g>
   <g id="patch_18">
    <path d="M 100.014545 47266.846763 
L 101.76 47266.846763 
L 101.76 128.212626 
L 100.014545 128.212626 
z
" clip-path="url(#pc751de3ae3)" style="fill: #1f77b4"/>
   </g>
   <g id="patch_19">
    <path d="M 101.76 47266.846763 
L 103.505455 47266.846763 
L 103.505455 129.288192 
L 101.76 129.288192 
z
" clip-path="url(#pc751de3ae3)" style="fill: #1f77b4"/>
   </g>
   <g id="patch_20">
    <path d="M 103.505455 47266.846763 
L 105.250909 47266.846763 
L 105.250909 130.993493 
L 103.505455 130.993493 
z
" clip-path="url(#pc751de3ae3)" style="fill: #1f77b4"/>
   </g>
   <g id="patch_21">
    <path d="M 105.250909 47266.846763 
L 106.996364 47266.846763 
L 106.996364 133.367323 
L 105.250909 133.367323 
z
" clip-path="url(#pc751de3ae3)" style="fill: #1f77b4"/>
   </g>
   <g id="patch_22">
    <path d="M 106.996364 47266.846763 
L 108.741818 47266.846763 
L 108.741818 134.69349 
L 106.996364 134.69349 
z
" clip-path="url(#pc751de3ae3)" style="fill: #1f77b4"/>
   </g>
   <g id="patch_23">
    <path d="M 108.741818 47266.846763 
L 110.487273 47266.846763 
L 110.487273 136.021331 
L 108.741818 136.021331 
z
" clip-path="url(#pc751de3ae3)" style="fill: #1f77b4"/>
   </g>
   <g id="patch_24">
    <path d="M 110.487273 47266.846763 
L 112.232727 47266.846763 
L 112.232727 137.636361 
L 110.487273 137.636361 
z
" clip-path="url(#pc751de3ae3)" style="fill: #1f77b4"/>
   </g>
   <g id="patch_25">
    <path d="M 112.232727 47266.846763 
L 113.978182 47266.846763 
L 113.978182 139.722515 
L 112.232727 139.722515 
z
" clip-path="url(#pc751de3ae3)" style="fill: #1f77b4"/>
   </g>
   <g id="patch_26">
    <path d="M 113.978182 47266.846763 
L 115.723636 47266.846763 
L 115.723636 141.750683 
L 113.978182 141.750683 
z
" clip-path="url(#pc751de3ae3)" style="fill: #1f77b4"/>
   </g>
   <g id="patch_27">
    <path d="M 115.723636 47266.846763 
L 117.469091 47266.846763 
L 117.469091 144.124847 
L 115.723636 144.124847 
z
" clip-path="url(#pc751de3ae3)" style="fill: #1f77b4"/>
   </g>
   <g id="patch_28">
    <path d="M 117.469091 47266.846763 
L 119.214545 47266.846763 
L 119.214545 146.631708 
L 117.469091 146.631708 
z
" clip-path="url(#pc751de3ae3)" style="fill: #1f77b4"/>
   </g>
   <g id="patch_29">
    <path d="M 119.214545 47266.846763 
L 120.96 47266.846763 
L 120.96 149.714191 
L 119.214545 149.714191 
z
" clip-path="url(#pc751de3ae3)" style="fill: #1f77b4"/>
   </g>
   <g id="patch_30">
    <path d="M 120.96 47266.846763 
L 122.705455 47266.846763 
L 122.705455 153.060708 
L 120.96 153.060708 
z
" clip-path="url(#pc751de3ae3)" style="fill: #1f77b4"/>
   </g>
   <g id="patch_31">
    <path d="M 122.705455 47266.846763 
L 124.450909 47266.846763 
L 124.450909 152.928551 
L 122.705455 152.928551 
z
" clip-path="url(#pc751de3ae3)" style="fill: #1f77b4"/>
   </g>
   <g id="patch_32">
    <path d="M 124.450909 47266.846763 
L 126.196364 47266.846763 
L 126.196364 158.32584 
L 124.450909 158.32584 
z
" clip-path="url(#pc751de3ae3)" style="fill: #1f77b4"/>
   </g>
   <g id="patch_33">
    <path d="M 126.196364 47266.846763 
L 127.941818 47266.846763 
L 127.941818 162.501294 
L 126.196364 162.501294 
z
" clip-path="url(#pc751de3ae3)" style="fill: #1f77b4"/>
   </g>
   <g id="patch_34">
    <path d="M 127.941818 47266.846763 
L 129.687273 47266.846763 
L 129.687273 164.994461 
L 127.941818 164.994461 
z
" clip-path="url(#pc751de3ae3)" style="fill: #1f77b4"/>
   </g>
   <g id="patch_35">
    <path d="M 129.687273 47266.846763 
L 131.432727 47266.846763 
L 131.432727 168.877563 
L 129.687273 168.877563 
z
" clip-path="url(#pc751de3ae3)" style="fill: #1f77b4"/>
   </g>
   <g id="patch_36">
    <path d="M 131.432727 47266.846763 
L 133.178182 47266.846763 
L 133.178182 174.473746 
L 131.432727 174.473746 
z
" clip-path="url(#pc751de3ae3)" style="fill: #1f77b4"/>
   </g>
   <g id="patch_37">
    <path d="M 133.178182 47266.846763 
L 134.923636 47266.846763 
L 134.923636 179.546372 
L 133.178182 179.546372 
z
" clip-path="url(#pc751de3ae3)" style="fill: #1f77b4"/>
   </g>
   <g id="patch_38">
    <path d="M 134.923636 47266.846763 
L 136.669091 47266.846763 
L 136.669091 182.369697 
L 134.923636 182.369697 
z
" clip-path="url(#pc751de3ae3)" style="fill: #1f77b4"/>
   </g>
   <g id="patch_39">
    <path d="M 136.669091 47266.846763 
L 138.414545 47266.846763 
L 138.414545 188.667716 
L 136.669091 188.667716 
z
" clip-path="url(#pc751de3ae3)" style="fill: #1f77b4"/>
   </g>
   <g id="patch_40">
    <path d="M 138.414545 47266.846763 
L 140.16 47266.846763 
L 140.16 193.410488 
L 138.414545 193.410488 
z
" clip-path="url(#pc751de3ae3)" style="fill: #1f77b4"/>
   </g>
   <g id="patch_41">
    <path d="M 140.16 47266.846763 
L 141.905455 47266.846763 
L 141.905455 195.272779 
L 140.16 195.272779 
z
" clip-path="url(#pc751de3ae3)" style="fill: #1f77b4"/>
   </g>
   <g id="patch_42">
    <path d="M 141.905455 47266.846763 
L 143.650909 47266.846763 
L 143.650909 201.141321 
L 141.905455 201.141321 
z
" clip-path="url(#pc751de3ae3)" style="fill: #1f77b4"/>
   </g>
   <g id="patch_43">
    <path d="M 143.650909 47266.846763 
L 145.396364 47266.846763 
L 145.396364 205.593563 
L 143.650909 205.593563 
z
" clip-path="url(#pc751de3ae3)" style="fill: #1f77b4"/>
   </g>
   <g id="patch_44">
    <path d="M 145.396364 47266.846763 
L 147.141818 47266.846763 
L 147.141818 209.11476 
L 145.396364 209.11476 
z
" clip-path="url(#pc751de3ae3)" style="fill: #1f77b4"/>
   </g>
   <g id="patch_45">
    <path d="M 147.141818 47266.846763 
L 148.887273 47266.846763 
L 148.887273 212.308675 
L 147.141818 212.308675 
z
" clip-path="url(#pc751de3ae3)" style="fill: #1f77b4"/>
   </g>
   <g id="patch_46">
    <path d="M 148.887273 47266.846763 
L 150.632727 47266.846763 
L 150.632727 215.68507 
L 148.887273 215.68507 
z
" clip-path="url(#pc751de3ae3)" style="fill: #1f77b4"/>
   </g>
   <g id="patch_47">
    <path d="M 150.632727 47266.846763 
L 152.378182 47266.846763 
L 152.378182 216.097194 
L 150.632727 216.097194 
z
" clip-path="url(#pc751de3ae3)" style="fill: #1f77b4"/>
   </g>
   <g id="patch_48">
    <path d="M 152.378182 47266.846763 
L 154.123636 47266.846763 
L 154.123636 221.283418 
L 152.378182 221.283418 
z
" clip-path="url(#pc751de3ae3)" style="fill: #1f77b4"/>
   </g>
   <g id="patch_49">
    <path d="M 154.123636 47266.846763 
L 155.869091 47266.846763 
L 155.869091 221.827434 
L 154.123636 221.827434 
z
" clip-path="url(#pc751de3ae3)" style="fill: #1f77b4"/>
   </g>
   <g id="patch_50">
    <path d="M 155.869091 47266.846763 
L 157.614545 47266.846763 
L 157.614545 221.283418 
L 155.869091 221.283418 
z
" clip-path="url(#pc751de3ae3)" style="fill: #1f77b4"/>
   </g>
   <g id="patch_51">
    <path d="M 157.614545 47266.846763 
L 159.36 47266.846763 
L 159.36 230.657603 
L 157.614545 230.657603 
z
" clip-path="url(#pc751de3ae3)" style="fill: #1f77b4"/>
   </g>
   <g id="patch_52">
    <path d="M 159.36 47266.846763 
L 161.105455 47266.846763 
L 161.105455 228.254899 
L 159.36 228.254899 
z
" clip-path="url(#pc751de3ae3)" style="fill: #1f77b4"/>
   </g>
   <g id="patch_53">
    <path d="M 161.105455 47266.846763 
L 162.850909 47266.846763 
L 162.850909 229.824858 
L 161.105455 229.824858 
z
" clip-path="url(#pc751de3ae3)" style="fill: #1f77b4"/>
   </g>
   <g id="patch_54">
    <path d="M 162.850909 47266.846763 
L 164.596364 47266.846763 
L 164.596364 226.105608 
L 162.850909 226.105608 
z
" clip-path="url(#pc751de3ae3)" style="fill: #1f77b4"/>
   </g>
   <g id="patch_55">
    <path d="M 164.596364 47266.846763 
L 166.341818 47266.846763 
L 166.341818 234.376853 
L 164.596364 234.376853 
z
" clip-path="url(#pc751de3ae3)" style="fill: #1f77b4"/>
   </g>
   <g id="patch_56">
    <path d="M 166.341818 47266.846763 
L 168.087273 47266.846763 
L 168.087273 240.245396 
L 166.341818 240.245396 
z
" clip-path="url(#pc751de3ae3)" style="fill: #1f77b4"/>
   </g>
   <g id="patch_57">
    <path d="M 168.087273 47266.846763 
L 169.832727 47266.846763 
L 169.832727 236.526145 
L 168.087273 236.526145 
z
" clip-path="url(#pc751de3ae3)" style="fill: #1f77b4"/>
   </g>
   <g id="patch_58">
    <path d="M 169.832727 47266.846763 
L 171.578182 47266.846763 
L 171.578182 253.068636 
L 169.832727 253.068636 
z
" clip-path="url(#pc751de3ae3)" style="fill: #1f77b4"/>
   </g>
   <g id="patch_59">
    <path d="M 171.578182 47266.846763 
L 173.323636 47266.846763 
L 173.323636 241.652809 
L 171.578182 241.652809 
z
" clip-path="url(#pc751de3ae3)" style="fill: #1f77b4"/>
   </g>
   <g id="patch_60">
    <path d="M 173.323636 47266.846763 
L 175.069091 47266.846763 
L 175.069091 238.928848 
L 173.323636 238.928848 
z
" clip-path="url(#pc751de3ae3)" style="fill: #1f77b4"/>
   </g>
   <g id="patch_61">
    <path d="M 175.069091 47266.846763 
L 176.814545 47266.846763 
L 176.814545 240.245396 
L 175.069091 240.245396 
z
" clip-path="url(#pc751de3ae3)" style="fill: #1f77b4"/>
   </g>
   <g id="patch_62">
    <path d="M 176.814545 47266.846763 
L 178.56 47266.846763 
L 178.56 243.164567 
L 176.814545 243.164567 
z
" clip-path="url(#pc751de3ae3)" style="fill: #1f77b4"/>
   </g>
   <g id="patch_63">
    <path d="M 178.56 47266.846763 
L 180.305455 47266.846763 
L 180.305455 250.665933 
L 178.56 250.665933 
z
" clip-path="url(#pc751de3ae3)" style="fill: #1f77b4"/>
   </g>
   <g id="patch_64">
    <path d="M 180.305455 47266.846763 
L 182.050909 47266.846763 
L 182.050909 244.797391 
L 180.305455 244.797391 
z
" clip-path="url(#pc751de3ae3)" style="fill: #1f77b4"/>
   </g>
   <g id="patch_65">
    <path d="M 182.050909 47266.846763 
L 183.796364 47266.846763 
L 183.796364 246.572371 
L 182.050909 246.572371 
z
" clip-path="url(#pc751de3ae3)" style="fill: #1f77b4"/>
   </g>
   <g id="patch_66">
    <path d="M 183.796364 47266.846763 
L 185.541818 47266.846763 
L 185.541818 253.068636 
L 183.796364 253.068636 
z
" clip-path="url(#pc751de3ae3)" style="fill: #1f77b4"/>
   </g>
   <g id="patch_67">
    <path d="M 185.541818 47266.846763 
L 187.287273 47266.846763 
L 187.287273 253.068636 
L 185.541818 253.068636 
z
" clip-path="url(#pc751de3ae3)" style="fill: #1f77b4"/>
   </g>
   <g id="patch_68">
    <path d="M 187.287273 47266.846763 
L 189.032727 47266.846763 
L 189.032727 273.076966 
L 187.287273 273.076966 
z
" clip-path="url(#pc751de3ae3)" style="fill: #1f77b4"/>
   </g>
   <g id="patch_69">
    <path d="M 189.032727 47266.846763 
L 190.778182 47266.846763 
L 190.778182 273.076966 
L 189.032727 273.076966 
z
" clip-path="url(#pc751de3ae3)" style="fill: #1f77b4"/>
   </g>
   <g id="patch_70">
    <path d="M 190.778182 47266.846763 
L 192.523636 47266.846763 
L 192.523636 273.076966 
L 190.778182 273.076966 
z
" clip-path="url(#pc751de3ae3)" style="fill: #1f77b4"/>
   </g>
   <g id="patch_71">
    <path d="M 192.523636 47266.846763 
L 194.269091 47266.846763 
L 194.269091 267.208424 
L 192.523636 267.208424 
z
" clip-path="url(#pc751de3ae3)" style="fill: #1f77b4"/>
   </g>
   <g id="patch_72">
    <path d="M 194.269091 47266.846763 
L 196.014545 47266.846763 
L 196.014545 255.792597 
L 194.269091 255.792597 
z
" clip-path="url(#pc751de3ae3)" style="fill: #1f77b4"/>
   </g>
   <g id="patch_73">
    <path d="M 196.014545 47266.846763 
L 197.76 47266.846763 
L 197.76 281.348212 
L 196.014545 281.348212 
z
" clip-path="url(#pc751de3ae3)" style="fill: #1f77b4"/>
   </g>
   <g id="patch_74">
    <path d="M 197.76 47266.846763 
L 199.505455 47266.846763 
L 199.505455 273.076966 
L 197.76 273.076966 
z
" clip-path="url(#pc751de3ae3)" style="fill: #1f77b4"/>
   </g>
   <g id="patch_75">
    <path d="M 199.505455 47266.846763 
L 201.250909 47266.846763 
L 201.250909 47266.846763 
L 199.505455 47266.846763 
z
" clip-path="url(#pc751de3ae3)" style="fill: #1f77b4"/>
   </g>
   <g id="patch_76">
    <path d="M 201.250909 47266.846763 
L 202.996364 47266.846763 
L 202.996364 267.208424 
L 201.250909 267.208424 
z
" clip-path="url(#pc751de3ae3)" style="fill: #1f77b4"/>
   </g>
   <g id="patch_77">
    <path d="M 202.996364 47266.846763 
L 204.741818 47266.846763 
L 204.741818 258.937178 
L 202.996364 258.937178 
z
" clip-path="url(#pc751de3ae3)" style="fill: #1f77b4"/>
   </g>
   <g id="patch_78">
    <path d="M 204.741818 47266.846763 
L 206.487273 47266.846763 
L 206.487273 273.076966 
L 204.741818 273.076966 
z
" clip-path="url(#pc751de3ae3)" style="fill: #1f77b4"/>
   </g>
   <g id="patch_79">
    <path d="M 206.487273 47266.846763 
L 208.232727 47266.846763 
L 208.232727 295.488 
L 206.487273 295.488 
z
" clip-path="url(#pc751de3ae3)" style="fill: #1f77b4"/>
   </g>
   <g id="patch_80">
    <path d="M 208.232727 47266.846763 
L 209.978182 47266.846763 
L 209.978182 281.348212 
L 208.232727 281.348212 
z
" clip-path="url(#pc751de3ae3)" style="fill: #1f77b4"/>
   </g>
   <g id="patch_81">
    <path d="M 209.978182 47266.846763 
L 211.723636 47266.846763 
L 211.723636 295.488 
L 209.978182 295.488 
z
" clip-path="url(#pc751de3ae3)" style="fill: #1f77b4"/>
   </g>
   <g id="patch_82">
    <path d="M 211.723636 47266.846763 
L 213.469091 47266.846763 
L 213.469091 281.348212 
L 211.723636 281.348212 
z
" clip-path="url(#pc751de3ae3)" style="fill: #1f77b4"/>
   </g>
   <g id="patch_83">
    <path d="M 213.469091 47266.846763 
L 215.214545 47266.846763 
L 215.214545 47266.846763 
L 213.469091 47266.846763 
z
" clip-path="url(#pc751de3ae3)" style="fill: #1f77b4"/>
   </g>
   <g id="patch_84">
    <path d="M 215.214545 47266.846763 
L 216.96 47266.846763 
L 216.96 273.076966 
L 215.214545 273.076966 
z
" clip-path="url(#pc751de3ae3)" style="fill: #1f77b4"/>
   </g>
   <g id="patch_85">
    <path d="M 216.96 47266.846763 
L 218.705455 47266.846763 
L 218.705455 295.488 
L 216.96 295.488 
z
" clip-path="url(#pc751de3ae3)" style="fill: #1f77b4"/>
   </g>
   <g id="patch_86">
    <path d="M 218.705455 47266.846763 
L 220.450909 47266.846763 
L 220.450909 295.488 
L 218.705455 295.488 
z
" clip-path="url(#pc751de3ae3)" style="fill: #1f77b4"/>
   </g>
   <g id="patch_87">
    <path d="M 220.450909 47266.846763 
L 222.196364 47266.846763 
L 222.196364 295.488 
L 220.450909 295.488 
z
" clip-path="url(#pc751de3ae3)" style="fill: #1f77b4"/>
   </g>
   <g id="patch_88">
    <path d="M 222.196364 47266.846763 
L 223.941818 47266.846763 
L 223.941818 47266.846763 
L 222.196364 47266.846763 
z
" clip-path="url(#pc751de3ae3)" style="fill: #1f77b4"/>
   </g>
   <g id="patch_89">
    <path d="M 223.941818 47266.846763 
L 225.687273 47266.846763 
L 225.687273 47266.846763 
L 223.941818 47266.846763 
z
" clip-path="url(#pc751de3ae3)" style="fill: #1f77b4"/>
   </g>
   <g id="patch_90">
    <path d="M 225.687273 47266.846763 
L 227.432727 47266.846763 
L 227.432727 47266.846763 
L 225.687273 47266.846763 
z
" clip-path="url(#pc751de3ae3)" style="fill: #1f77b4"/>
   </g>
   <g id="patch_91">
    <path d="M 227.432727 47266.846763 
L 229.178182 47266.846763 
L 229.178182 47266.846763 
L 227.432727 47266.846763 
z
" clip-path="url(#pc751de3ae3)" style="fill: #1f77b4"/>
   </g>
   <g id="patch_92">
    <path d="M 229.178182 47266.846763 
L 230.923636 47266.846763 
L 230.923636 47266.846763 
L 229.178182 47266.846763 
z
" clip-path="url(#pc751de3ae3)" style="fill: #1f77b4"/>
   </g>
   <g id="patch_93">
    <path d="M 230.923636 47266.846763 
L 232.669091 47266.846763 
L 232.669091 47266.846763 
L 230.923636 47266.846763 
z
" clip-path="url(#pc751de3ae3)" style="fill: #1f77b4"/>
   </g>
   <g id="patch_94">
    <path d="M 232.669091 47266.846763 
L 234.414545 47266.846763 
L 234.414545 47266.846763 
L 232.669091 47266.846763 
z
" clip-path="url(#pc751de3ae3)" style="fill: #1f77b4"/>
   </g>
   <g id="patch_95">
    <path d="M 234.414545 47266.846763 
L 236.16 47266.846763 
L 236.16 47266.846763 
L 234.414545 47266.846763 
z
" clip-path="url(#pc751de3ae3)" style="fill: #1f77b4"/>
   </g>
   <g id="patch_96">
    <path d="M 236.16 47266.846763 
L 237.905455 47266.846763 
L 237.905455 47266.846763 
L 236.16 47266.846763 
z
" clip-path="url(#pc751de3ae3)" style="fill: #1f77b4"/>
   </g>
   <g id="patch_97">
    <path d="M 237.905455 47266.846763 
L 239.650909 47266.846763 
L 239.650909 47266.846763 
L 237.905455 47266.846763 
z
" clip-path="url(#pc751de3ae3)" style="fill: #1f77b4"/>
   </g>
   <g id="patch_98">
    <path d="M 239.650909 47266.846763 
L 241.396364 47266.846763 
L 241.396364 47266.846763 
L 239.650909 47266.846763 
z
" clip-path="url(#pc751de3ae3)" style="fill: #1f77b4"/>
   </g>
   <g id="patch_99">
    <path d="M 241.396364 47266.846763 
L 243.141818 47266.846763 
L 243.141818 47266.846763 
L 241.396364 47266.846763 
z
" clip-path="url(#pc751de3ae3)" style="fill: #1f77b4"/>
   </g>
   <g id="patch_100">
    <path d="M 243.141818 47266.846763 
L 244.887273 47266.846763 
L 244.887273 47266.846763 
L 243.141818 47266.846763 
z
" clip-path="url(#pc751de3ae3)" style="fill: #1f77b4"/>
   </g>
   <g id="patch_101">
    <path d="M 244.887273 47266.846763 
L 246.632727 47266.846763 
L 246.632727 47266.846763 
L 244.887273 47266.846763 
z
" clip-path="url(#pc751de3ae3)" style="fill: #1f77b4"/>
   </g>
   <g id="patch_102">
    <path d="M 246.632727 47266.846763 
L 248.378182 47266.846763 
L 248.378182 47266.846763 
L 246.632727 47266.846763 
z
" clip-path="url(#pc751de3ae3)" style="fill: #1f77b4"/>
   </g>
   <g id="patch_103">
    <path d="M 248.378182 47266.846763 
L 250.123636 47266.846763 
L 250.123636 295.488 
L 248.378182 295.488 
z
" clip-path="url(#pc751de3ae3)" style="fill: #1f77b4"/>
   </g>
   <g id="patch_104">
    <path d="M 250.123636 47266.846763 
L 251.869091 47266.846763 
L 251.869091 47266.846763 
L 250.123636 47266.846763 
z
" clip-path="url(#pc751de3ae3)" style="fill: #1f77b4"/>
   </g>
   <g id="patch_105">
    <path d="M 251.869091 47266.846763 
L 253.614545 47266.846763 
L 253.614545 295.488 
L 251.869091 295.488 
z
" clip-path="url(#pc751de3ae3)" style="fill: #1f77b4"/>
   </g>
   <g id="patch_106">
    <path d="M 253.614545 47266.846763 
L 255.36 47266.846763 
L 255.36 281.348212 
L 253.614545 281.348212 
z
" clip-path="url(#pc751de3ae3)" style="fill: #1f77b4"/>
   </g>
   <g id="patch_107">
    <path d="M 255.36 47266.846763 
L 257.105455 47266.846763 
L 257.105455 47266.846763 
L 255.36 47266.846763 
z
" clip-path="url(#pc751de3ae3)" style="fill: #1f77b4"/>
   </g>
   <g id="patch_108">
    <path d="M 257.105455 47266.846763 
L 258.850909 47266.846763 
L 258.850909 295.488 
L 257.105455 295.488 
z
" clip-path="url(#pc751de3ae3)" style="fill: #1f77b4"/>
   </g>
   <g id="patch_109">
    <path d="M 258.850909 47266.846763 
L 260.596364 47266.846763 
L 260.596364 47266.846763 
L 258.850909 47266.846763 
z
" clip-path="url(#pc751de3ae3)" style="fill: #1f77b4"/>
   </g>
   <g id="patch_110">
    <path d="M 260.596364 47266.846763 
L 262.341818 47266.846763 
L 262.341818 47266.846763 
L 260.596364 47266.846763 
z
" clip-path="url(#pc751de3ae3)" style="fill: #1f77b4"/>
   </g>
   <g id="patch_111">
    <path d="M 262.341818 47266.846763 
L 264.087273 47266.846763 
L 264.087273 47266.846763 
L 262.341818 47266.846763 
z
" clip-path="url(#pc751de3ae3)" style="fill: #1f77b4"/>
   </g>
   <g id="patch_112">
    <path d="M 264.087273 47266.846763 
L 265.832727 47266.846763 
L 265.832727 295.488 
L 264.087273 295.488 
z
" clip-path="url(#pc751de3ae3)" style="fill: #1f77b4"/>
   </g>
   <g id="patch_113">
    <path d="M 265.832727 47266.846763 
L 267.578182 47266.846763 
L 267.578182 47266.846763 
L 265.832727 47266.846763 
z
" clip-path="url(#pc751de3ae3)" style="fill: #1f77b4"/>
   </g>
   <g id="patch_114">
    <path d="M 267.578182 47266.846763 
L 269.323636 47266.846763 
L 269.323636 47266.846763 
L 267.578182 47266.846763 
z
" clip-path="url(#pc751de3ae3)" style="fill: #1f77b4"/>
   </g>
   <g id="patch_115">
    <path d="M 269.323636 47266.846763 
L 271.069091 47266.846763 
L 271.069091 47266.846763 
L 269.323636 47266.846763 
z
" clip-path="url(#pc751de3ae3)" style="fill: #1f77b4"/>
   </g>
   <g id="patch_116">
    <path d="M 271.069091 47266.846763 
L 272.814545 47266.846763 
L 272.814545 47266.846763 
L 271.069091 47266.846763 
z
" clip-path="url(#pc751de3ae3)" style="fill: #1f77b4"/>
   </g>
   <g id="patch_117">
    <path d="M 272.814545 47266.846763 
L 274.56 47266.846763 
L 274.56 47266.846763 
L 272.814545 47266.846763 
z
" clip-path="url(#pc751de3ae3)" style="fill: #1f77b4"/>
   </g>
   <g id="patch_118">
    <path d="M 274.56 47266.846763 
L 276.305455 47266.846763 
L 276.305455 47266.846763 
L 274.56 47266.846763 
z
" clip-path="url(#pc751de3ae3)" style="fill: #1f77b4"/>
   </g>
   <g id="patch_119">
    <path d="M 276.305455 47266.846763 
L 278.050909 47266.846763 
L 278.050909 47266.846763 
L 276.305455 47266.846763 
z
" clip-path="url(#pc751de3ae3)" style="fill: #1f77b4"/>
   </g>
   <g id="patch_120">
    <path d="M 278.050909 47266.846763 
L 279.796364 47266.846763 
L 279.796364 295.488 
L 278.050909 295.488 
z
" clip-path="url(#pc751de3ae3)" style="fill: #1f77b4"/>
   </g>
   <g id="patch_121">
    <path d="M 279.796364 47266.846763 
L 281.541818 47266.846763 
L 281.541818 47266.846763 
L 279.796364 47266.846763 
z
" clip-path="url(#pc751de3ae3)" style="fill: #1f77b4"/>
   </g>
   <g id="patch_122">
    <path d="M 281.541818 47266.846763 
L 283.287273 47266.846763 
L 283.287273 47266.846763 
L 281.541818 47266.846763 
z
" clip-path="url(#pc751de3ae3)" style="fill: #1f77b4"/>
   </g>
   <g id="patch_123">
    <path d="M 283.287273 47266.846763 
L 285.032727 47266.846763 
L 285.032727 47266.846763 
L 283.287273 47266.846763 
z
" clip-path="url(#pc751de3ae3)" style="fill: #1f77b4"/>
   </g>
   <g id="patch_124">
    <path d="M 285.032727 47266.846763 
L 286.778182 47266.846763 
L 286.778182 47266.846763 
L 285.032727 47266.846763 
z
" clip-path="url(#pc751de3ae3)" style="fill: #1f77b4"/>
   </g>
   <g id="patch_125">
    <path d="M 286.778182 47266.846763 
L 288.523636 47266.846763 
L 288.523636 47266.846763 
L 286.778182 47266.846763 
z
" clip-path="url(#pc751de3ae3)" style="fill: #1f77b4"/>
   </g>
   <g id="patch_126">
    <path d="M 288.523636 47266.846763 
L 290.269091 47266.846763 
L 290.269091 47266.846763 
L 288.523636 47266.846763 
z
" clip-path="url(#pc751de3ae3)" style="fill: #1f77b4"/>
   </g>
   <g id="patch_127">
    <path d="M 290.269091 47266.846763 
L 292.014545 47266.846763 
L 292.014545 47266.846763 
L 290.269091 47266.846763 
z
" clip-path="url(#pc751de3ae3)" style="fill: #1f77b4"/>
   </g>
   <g id="patch_128">
    <path d="M 292.014545 47266.846763 
L 293.76 47266.846763 
L 293.76 47266.846763 
L 292.014545 47266.846763 
z
" clip-path="url(#pc751de3ae3)" style="fill: #1f77b4"/>
   </g>
   <g id="patch_129">
    <path d="M 293.76 47266.846763 
L 295.505455 47266.846763 
L 295.505455 47266.846763 
L 293.76 47266.846763 
z
" clip-path="url(#pc751de3ae3)" style="fill: #1f77b4"/>
   </g>
   <g id="patch_130">
    <path d="M 295.505455 47266.846763 
L 297.250909 47266.846763 
L 297.250909 47266.846763 
L 295.505455 47266.846763 
z
" clip-path="url(#pc751de3ae3)" style="fill: #1f77b4"/>
   </g>
   <g id="patch_131">
    <path d="M 297.250909 47266.846763 
L 298.996364 47266.846763 
L 298.996364 47266.846763 
L 297.250909 47266.846763 
z
" clip-path="url(#pc751de3ae3)" style="fill: #1f77b4"/>
   </g>
   <g id="patch_132">
    <path d="M 298.996364 47266.846763 
L 300.741818 47266.846763 
L 300.741818 47266.846763 
L 298.996364 47266.846763 
z
" clip-path="url(#pc751de3ae3)" style="fill: #1f77b4"/>
   </g>
   <g id="patch_133">
    <path d="M 300.741818 47266.846763 
L 302.487273 47266.846763 
L 302.487273 47266.846763 
L 300.741818 47266.846763 
z
" clip-path="url(#pc751de3ae3)" style="fill: #1f77b4"/>
   </g>
   <g id="patch_134">
    <path d="M 302.487273 47266.846763 
L 304.232727 47266.846763 
L 304.232727 47266.846763 
L 302.487273 47266.846763 
z
" clip-path="url(#pc751de3ae3)" style="fill: #1f77b4"/>
   </g>
   <g id="patch_135">
    <path d="M 304.232727 47266.846763 
L 305.978182 47266.846763 
L 305.978182 47266.846763 
L 304.232727 47266.846763 
z
" clip-path="url(#pc751de3ae3)" style="fill: #1f77b4"/>
   </g>
   <g id="patch_136">
    <path d="M 305.978182 47266.846763 
L 307.723636 47266.846763 
L 307.723636 47266.846763 
L 305.978182 47266.846763 
z
" clip-path="url(#pc751de3ae3)" style="fill: #1f77b4"/>
   </g>
   <g id="patch_137">
    <path d="M 307.723636 47266.846763 
L 309.469091 47266.846763 
L 309.469091 47266.846763 
L 307.723636 47266.846763 
z
" clip-path="url(#pc751de3ae3)" style="fill: #1f77b4"/>
   </g>
   <g id="patch_138">
    <path d="M 309.469091 47266.846763 
L 311.214545 47266.846763 
L 311.214545 47266.846763 
L 309.469091 47266.846763 
z
" clip-path="url(#pc751de3ae3)" style="fill: #1f77b4"/>
   </g>
   <g id="patch_139">
    <path d="M 311.214545 47266.846763 
L 312.96 47266.846763 
L 312.96 47266.846763 
L 311.214545 47266.846763 
z
" clip-path="url(#pc751de3ae3)" style="fill: #1f77b4"/>
   </g>
   <g id="patch_140">
    <path d="M 312.96 47266.846763 
L 314.705455 47266.846763 
L 314.705455 47266.846763 
L 312.96 47266.846763 
z
" clip-path="url(#pc751de3ae3)" style="fill: #1f77b4"/>
   </g>
   <g id="patch_141">
    <path d="M 314.705455 47266.846763 
L 316.450909 47266.846763 
L 316.450909 47266.846763 
L 314.705455 47266.846763 
z
" clip-path="url(#pc751de3ae3)" style="fill: #1f77b4"/>
   </g>
   <g id="patch_142">
    <path d="M 316.450909 47266.846763 
L 318.196364 47266.846763 
L 318.196364 47266.846763 
L 316.450909 47266.846763 
z
" clip-path="url(#pc751de3ae3)" style="fill: #1f77b4"/>
   </g>
   <g id="patch_143">
    <path d="M 318.196364 47266.846763 
L 319.941818 47266.846763 
L 319.941818 47266.846763 
L 318.196364 47266.846763 
z
" clip-path="url(#pc751de3ae3)" style="fill: #1f77b4"/>
   </g>
   <g id="patch_144">
    <path d="M 319.941818 47266.846763 
L 321.687273 47266.846763 
L 321.687273 47266.846763 
L 319.941818 47266.846763 
z
" clip-path="url(#pc751de3ae3)" style="fill: #1f77b4"/>
   </g>
   <g id="patch_145">
    <path d="M 321.687273 47266.846763 
L 323.432727 47266.846763 
L 323.432727 47266.846763 
L 321.687273 47266.846763 
z
" clip-path="url(#pc751de3ae3)" style="fill: #1f77b4"/>
   </g>
   <g id="patch_146">
    <path d="M 323.432727 47266.846763 
L 325.178182 47266.846763 
L 325.178182 47266.846763 
L 323.432727 47266.846763 
z
" clip-path="url(#pc751de3ae3)" style="fill: #1f77b4"/>
   </g>
   <g id="patch_147">
    <path d="M 325.178182 47266.846763 
L 326.923636 47266.846763 
L 326.923636 47266.846763 
L 325.178182 47266.846763 
z
" clip-path="url(#pc751de3ae3)" style="fill: #1f77b4"/>
   </g>
   <g id="patch_148">
    <path d="M 326.923636 47266.846763 
L 328.669091 47266.846763 
L 328.669091 47266.846763 
L 326.923636 47266.846763 
z
" clip-path="url(#pc751de3ae3)" style="fill: #1f77b4"/>
   </g>
   <g id="patch_149">
    <path d="M 328.669091 47266.846763 
L 330.414545 47266.846763 
L 330.414545 47266.846763 
L 328.669091 47266.846763 
z
" clip-path="url(#pc751de3ae3)" style="fill: #1f77b4"/>
   </g>
   <g id="patch_150">
    <path d="M 330.414545 47266.846763 
L 332.16 47266.846763 
L 332.16 47266.846763 
L 330.414545 47266.846763 
z
" clip-path="url(#pc751de3ae3)" style="fill: #1f77b4"/>
   </g>
   <g id="patch_151">
    <path d="M 332.16 47266.846763 
L 333.905455 47266.846763 
L 333.905455 47266.846763 
L 332.16 47266.846763 
z
" clip-path="url(#pc751de3ae3)" style="fill: #1f77b4"/>
   </g>
   <g id="patch_152">
    <path d="M 333.905455 47266.846763 
L 335.650909 47266.846763 
L 335.650909 47266.846763 
L 333.905455 47266.846763 
z
" clip-path="url(#pc751de3ae3)" style="fill: #1f77b4"/>
   </g>
   <g id="patch_153">
    <path d="M 335.650909 47266.846763 
L 337.396364 47266.846763 
L 337.396364 47266.846763 
L 335.650909 47266.846763 
z
" clip-path="url(#pc751de3ae3)" style="fill: #1f77b4"/>
   </g>
   <g id="patch_154">
    <path d="M 337.396364 47266.846763 
L 339.141818 47266.846763 
L 339.141818 47266.846763 
L 337.396364 47266.846763 
z
" clip-path="url(#pc751de3ae3)" style="fill: #1f77b4"/>
   </g>
   <g id="patch_155">
    <path d="M 339.141818 47266.846763 
L 340.887273 47266.846763 
L 340.887273 47266.846763 
L 339.141818 47266.846763 
z
" clip-path="url(#pc751de3ae3)" style="fill: #1f77b4"/>
   </g>
   <g id="patch_156">
    <path d="M 340.887273 47266.846763 
L 342.632727 47266.846763 
L 342.632727 47266.846763 
L 340.887273 47266.846763 
z
" clip-path="url(#pc751de3ae3)" style="fill: #1f77b4"/>
   </g>
   <g id="patch_157">
    <path d="M 342.632727 47266.846763 
L 344.378182 47266.846763 
L 344.378182 47266.846763 
L 342.632727 47266.846763 
z
" clip-path="url(#pc751de3ae3)" style="fill: #1f77b4"/>
   </g>
   <g id="patch_158">
    <path d="M 344.378182 47266.846763 
L 346.123636 47266.846763 
L 346.123636 47266.846763 
L 344.378182 47266.846763 
z
" clip-path="url(#pc751de3ae3)" style="fill: #1f77b4"/>
   </g>
   <g id="patch_159">
    <path d="M 346.123636 47266.846763 
L 347.869091 47266.846763 
L 347.869091 47266.846763 
L 346.123636 47266.846763 
z
" clip-path="url(#pc751de3ae3)" style="fill: #1f77b4"/>
   </g>
   <g id="patch_160">
    <path d="M 347.869091 47266.846763 
L 349.614545 47266.846763 
L 349.614545 47266.846763 
L 347.869091 47266.846763 
z
" clip-path="url(#pc751de3ae3)" style="fill: #1f77b4"/>
   </g>
   <g id="patch_161">
    <path d="M 349.614545 47266.846763 
L 351.36 47266.846763 
L 351.36 47266.846763 
L 349.614545 47266.846763 
z
" clip-path="url(#pc751de3ae3)" style="fill: #1f77b4"/>
   </g>
   <g id="patch_162">
    <path d="M 351.36 47266.846763 
L 353.105455 47266.846763 
L 353.105455 47266.846763 
L 351.36 47266.846763 
z
" clip-path="url(#pc751de3ae3)" style="fill: #1f77b4"/>
   </g>
   <g id="patch_163">
    <path d="M 353.105455 47266.846763 
L 354.850909 47266.846763 
L 354.850909 47266.846763 
L 353.105455 47266.846763 
z
" clip-path="url(#pc751de3ae3)" style="fill: #1f77b4"/>
   </g>
   <g id="patch_164">
    <path d="M 354.850909 47266.846763 
L 356.596364 47266.846763 
L 356.596364 47266.846763 
L 354.850909 47266.846763 
z
" clip-path="url(#pc751de3ae3)" style="fill: #1f77b4"/>
   </g>
   <g id="patch_165">
    <path d="M 356.596364 47266.846763 
L 358.341818 47266.846763 
L 358.341818 47266.846763 
L 356.596364 47266.846763 
z
" clip-path="url(#pc751de3ae3)" style="fill: #1f77b4"/>
   </g>
   <g id="patch_166">
    <path d="M 358.341818 47266.846763 
L 360.087273 47266.846763 
L 360.087273 47266.846763 
L 358.341818 47266.846763 
z
" clip-path="url(#pc751de3ae3)" style="fill: #1f77b4"/>
   </g>
   <g id="patch_167">
    <path d="M 360.087273 47266.846763 
L 361.832727 47266.846763 
L 361.832727 47266.846763 
L 360.087273 47266.846763 
z
" clip-path="url(#pc751de3ae3)" style="fill: #1f77b4"/>
   </g>
   <g id="patch_168">
    <path d="M 361.832727 47266.846763 
L 363.578182 47266.846763 
L 363.578182 47266.846763 
L 361.832727 47266.846763 
z
" clip-path="url(#pc751de3ae3)" style="fill: #1f77b4"/>
   </g>
   <g id="patch_169">
    <path d="M 363.578182 47266.846763 
L 365.323636 47266.846763 
L 365.323636 47266.846763 
L 363.578182 47266.846763 
z
" clip-path="url(#pc751de3ae3)" style="fill: #1f77b4"/>
   </g>
   <g id="patch_170">
    <path d="M 365.323636 47266.846763 
L 367.069091 47266.846763 
L 367.069091 47266.846763 
L 365.323636 47266.846763 
z
" clip-path="url(#pc751de3ae3)" style="fill: #1f77b4"/>
   </g>
   <g id="patch_171">
    <path d="M 367.069091 47266.846763 
L 368.814545 47266.846763 
L 368.814545 295.488 
L 367.069091 295.488 
z
" clip-path="url(#pc751de3ae3)" style="fill: #1f77b4"/>
   </g>
   <g id="patch_172">
    <path d="M 368.814545 47266.846763 
L 370.56 47266.846763 
L 370.56 47266.846763 
L 368.814545 47266.846763 
z
" clip-path="url(#pc751de3ae3)" style="fill: #1f77b4"/>
   </g>
   <g id="patch_173">
    <path d="M 370.56 47266.846763 
L 372.305455 47266.846763 
L 372.305455 47266.846763 
L 370.56 47266.846763 
z
" clip-path="url(#pc751de3ae3)" style="fill: #1f77b4"/>
   </g>
   <g id="patch_174">
    <path d="M 372.305455 47266.846763 
L 374.050909 47266.846763 
L 374.050909 47266.846763 
L 372.305455 47266.846763 
z
" clip-path="url(#pc751de3ae3)" style="fill: #1f77b4"/>
   </g>
   <g id="patch_175">
    <path d="M 374.050909 47266.846763 
L 375.796364 47266.846763 
L 375.796364 47266.846763 
L 374.050909 47266.846763 
z
" clip-path="url(#pc751de3ae3)" style="fill: #1f77b4"/>
   </g>
   <g id="patch_176">
    <path d="M 375.796364 47266.846763 
L 377.541818 47266.846763 
L 377.541818 47266.846763 
L 375.796364 47266.846763 
z
" clip-path="url(#pc751de3ae3)" style="fill: #1f77b4"/>
   </g>
   <g id="patch_177">
    <path d="M 377.541818 47266.846763 
L 379.287273 47266.846763 
L 379.287273 47266.846763 
L 377.541818 47266.846763 
z
" clip-path="url(#pc751de3ae3)" style="fill: #1f77b4"/>
   </g>
   <g id="patch_178">
    <path d="M 379.287273 47266.846763 
L 381.032727 47266.846763 
L 381.032727 47266.846763 
L 379.287273 47266.846763 
z
" clip-path="url(#pc751de3ae3)" style="fill: #1f77b4"/>
   </g>
   <g id="patch_179">
    <path d="M 381.032727 47266.846763 
L 382.778182 47266.846763 
L 382.778182 47266.846763 
L 381.032727 47266.846763 
z
" clip-path="url(#pc751de3ae3)" style="fill: #1f77b4"/>
   </g>
   <g id="patch_180">
    <path d="M 382.778182 47266.846763 
L 384.523636 47266.846763 
L 384.523636 47266.846763 
L 382.778182 47266.846763 
z
" clip-path="url(#pc751de3ae3)" style="fill: #1f77b4"/>
   </g>
   <g id="patch_181">
    <path d="M 384.523636 47266.846763 
L 386.269091 47266.846763 
L 386.269091 47266.846763 
L 384.523636 47266.846763 
z
" clip-path="url(#pc751de3ae3)" style="fill: #1f77b4"/>
   </g>
   <g id="patch_182">
    <path d="M 386.269091 47266.846763 
L 388.014545 47266.846763 
L 388.014545 47266.846763 
L 386.269091 47266.846763 
z
" clip-path="url(#pc751de3ae3)" style="fill: #1f77b4"/>
   </g>
   <g id="patch_183">
    <path d="M 388.014545 47266.846763 
L 389.76 47266.846763 
L 389.76 47266.846763 
L 388.014545 47266.846763 
z
" clip-path="url(#pc751de3ae3)" style="fill: #1f77b4"/>
   </g>
   <g id="patch_184">
    <path d="M 389.76 47266.846763 
L 391.505455 47266.846763 
L 391.505455 47266.846763 
L 389.76 47266.846763 
z
" clip-path="url(#pc751de3ae3)" style="fill: #1f77b4"/>
   </g>
   <g id="patch_185">
    <path d="M 391.505455 47266.846763 
L 393.250909 47266.846763 
L 393.250909 47266.846763 
L 391.505455 47266.846763 
z
" clip-path="url(#pc751de3ae3)" style="fill: #1f77b4"/>
   </g>
   <g id="patch_186">
    <path d="M 393.250909 47266.846763 
L 394.996364 47266.846763 
L 394.996364 47266.846763 
L 393.250909 47266.846763 
z
" clip-path="url(#pc751de3ae3)" style="fill: #1f77b4"/>
   </g>
   <g id="patch_187">
    <path d="M 394.996364 47266.846763 
L 396.741818 47266.846763 
L 396.741818 47266.846763 
L 394.996364 47266.846763 
z
" clip-path="url(#pc751de3ae3)" style="fill: #1f77b4"/>
   </g>
   <g id="patch_188">
    <path d="M 396.741818 47266.846763 
L 398.487273 47266.846763 
L 398.487273 295.488 
L 396.741818 295.488 
z
" clip-path="url(#pc751de3ae3)" style="fill: #1f77b4"/>
   </g>
   <g id="matplotlib.axis_1">
    <g id="xtick_1">
     <g id="line2d_1">
      <defs>
       <path id="m8064256fff" d="M 0 0 
L 0 3.5 
" style="stroke: #000000; stroke-width: 0.8"/>
      </defs>
      <g>
       <use xlink:href="#m8064256fff" x="72.96" y="307.584" style="stroke: #000000; stroke-width: 0.8"/>
      </g>
     </g>
     <g id="text_1">
      <!-- 0 -->
      <g transform="translate(69.77875 322.182437) scale(0.1 -0.1)">
       <defs>
        <path id="DejaVuSans-30" d="M 2034 4250 
Q 1547 4250 1301 3770 
Q 1056 3291 1056 2328 
Q 1056 1369 1301 889 
Q 1547 409 2034 409 
Q 2525 409 2770 889 
Q 3016 1369 3016 2328 
Q 3016 3291 2770 3770 
Q 2525 4250 2034 4250 
z
M 2034 4750 
Q 2819 4750 3233 4129 
Q 3647 3509 3647 2328 
Q 3647 1150 3233 529 
Q 2819 -91 2034 -91 
Q 1250 -91 836 529 
Q 422 1150 422 2328 
Q 422 3509 836 4129 
Q 1250 4750 2034 4750 
z
" transform="scale(0.015625)"/>
       </defs>
       <use xlink:href="#DejaVuSans-30"/>
      </g>
     </g>
    </g>
    <g id="xtick_2">
     <g id="line2d_2">
      <g>
       <use xlink:href="#m8064256fff" x="116.596364" y="307.584" style="stroke: #000000; stroke-width: 0.8"/>
      </g>
     </g>
     <g id="text_2">
      <!-- 25 -->
      <g transform="translate(110.233864 322.182437) scale(0.1 -0.1)">
       <defs>
        <path id="DejaVuSans-32" d="M 1228 531 
L 3431 531 
L 3431 0 
L 469 0 
L 469 531 
Q 828 903 1448 1529 
Q 2069 2156 2228 2338 
Q 2531 2678 2651 2914 
Q 2772 3150 2772 3378 
Q 2772 3750 2511 3984 
Q 2250 4219 1831 4219 
Q 1534 4219 1204 4116 
Q 875 4013 500 3803 
L 500 4441 
Q 881 4594 1212 4672 
Q 1544 4750 1819 4750 
Q 2544 4750 2975 4387 
Q 3406 4025 3406 3419 
Q 3406 3131 3298 2873 
Q 3191 2616 2906 2266 
Q 2828 2175 2409 1742 
Q 1991 1309 1228 531 
z
" transform="scale(0.015625)"/>
        <path id="DejaVuSans-35" d="M 691 4666 
L 3169 4666 
L 3169 4134 
L 1269 4134 
L 1269 2991 
Q 1406 3038 1543 3061 
Q 1681 3084 1819 3084 
Q 2600 3084 3056 2656 
Q 3513 2228 3513 1497 
Q 3513 744 3044 326 
Q 2575 -91 1722 -91 
Q 1428 -91 1123 -41 
Q 819 9 494 109 
L 494 744 
Q 775 591 1075 516 
Q 1375 441 1709 441 
Q 2250 441 2565 725 
Q 2881 1009 2881 1497 
Q 2881 1984 2565 2268 
Q 2250 2553 1709 2553 
Q 1456 2553 1204 2497 
Q 953 2441 691 2322 
L 691 4666 
z
" transform="scale(0.015625)"/>
       </defs>
       <use xlink:href="#DejaVuSans-32"/>
       <use xlink:href="#DejaVuSans-35" x="63.623047"/>
      </g>
     </g>
    </g>
    <g id="xtick_3">
     <g id="line2d_3">
      <g>
       <use xlink:href="#m8064256fff" x="160.232727" y="307.584" style="stroke: #000000; stroke-width: 0.8"/>
      </g>
     </g>
     <g id="text_3">
      <!-- 50 -->
      <g transform="translate(153.870227 322.182437) scale(0.1 -0.1)">
       <use xlink:href="#DejaVuSans-35"/>
       <use xlink:href="#DejaVuSans-30" x="63.623047"/>
      </g>
     </g>
    </g>
    <g id="xtick_4">
     <g id="line2d_4">
      <g>
       <use xlink:href="#m8064256fff" x="203.869091" y="307.584" style="stroke: #000000; stroke-width: 0.8"/>
      </g>
     </g>
     <g id="text_4">
      <!-- 75 -->
      <g transform="translate(197.506591 322.182437) scale(0.1 -0.1)">
       <defs>
        <path id="DejaVuSans-37" d="M 525 4666 
L 3525 4666 
L 3525 4397 
L 1831 0 
L 1172 0 
L 2766 4134 
L 525 4134 
L 525 4666 
z
" transform="scale(0.015625)"/>
       </defs>
       <use xlink:href="#DejaVuSans-37"/>
       <use xlink:href="#DejaVuSans-35" x="63.623047"/>
      </g>
     </g>
    </g>
    <g id="xtick_5">
     <g id="line2d_5">
      <g>
       <use xlink:href="#m8064256fff" x="247.505455" y="307.584" style="stroke: #000000; stroke-width: 0.8"/>
      </g>
     </g>
     <g id="text_5">
      <!-- 100 -->
      <g transform="translate(237.961705 322.182437) scale(0.1 -0.1)">
       <defs>
        <path id="DejaVuSans-31" d="M 794 531 
L 1825 531 
L 1825 4091 
L 703 3866 
L 703 4441 
L 1819 4666 
L 2450 4666 
L 2450 531 
L 3481 531 
L 3481 0 
L 794 0 
L 794 531 
z
" transform="scale(0.015625)"/>
       </defs>
       <use xlink:href="#DejaVuSans-31"/>
       <use xlink:href="#DejaVuSans-30" x="63.623047"/>
       <use xlink:href="#DejaVuSans-30" x="127.246094"/>
      </g>
     </g>
    </g>
    <g id="xtick_6">
     <g id="line2d_6">
      <g>
       <use xlink:href="#m8064256fff" x="291.141818" y="307.584" style="stroke: #000000; stroke-width: 0.8"/>
      </g>
     </g>
     <g id="text_6">
      <!-- 125 -->
      <g transform="translate(281.598068 322.182437) scale(0.1 -0.1)">
       <use xlink:href="#DejaVuSans-31"/>
       <use xlink:href="#DejaVuSans-32" x="63.623047"/>
       <use xlink:href="#DejaVuSans-35" x="127.246094"/>
      </g>
     </g>
    </g>
    <g id="xtick_7">
     <g id="line2d_7">
      <g>
       <use xlink:href="#m8064256fff" x="334.778182" y="307.584" style="stroke: #000000; stroke-width: 0.8"/>
      </g>
     </g>
     <g id="text_7">
      <!-- 150 -->
      <g transform="translate(325.234432 322.182437) scale(0.1 -0.1)">
       <use xlink:href="#DejaVuSans-31"/>
       <use xlink:href="#DejaVuSans-35" x="63.623047"/>
       <use xlink:href="#DejaVuSans-30" x="127.246094"/>
      </g>
     </g>
    </g>
    <g id="xtick_8">
     <g id="line2d_8">
      <g>
       <use xlink:href="#m8064256fff" x="378.414545" y="307.584" style="stroke: #000000; stroke-width: 0.8"/>
      </g>
     </g>
     <g id="text_8">
      <!-- 175 -->
      <g transform="translate(368.870795 322.182437) scale(0.1 -0.1)">
       <use xlink:href="#DejaVuSans-31"/>
       <use xlink:href="#DejaVuSans-37" x="63.623047"/>
       <use xlink:href="#DejaVuSans-35" x="127.246094"/>
      </g>
     </g>
    </g>
    <g id="text_9">
     <!-- References per Unique Historical Individual -->
     <g transform="translate(128.307656 335.860562) scale(0.1 -0.1)">
      <defs>
       <path id="DejaVuSans-52" d="M 2841 2188 
Q 3044 2119 3236 1894 
Q 3428 1669 3622 1275 
L 4263 0 
L 3584 0 
L 2988 1197 
Q 2756 1666 2539 1819 
Q 2322 1972 1947 1972 
L 1259 1972 
L 1259 0 
L 628 0 
L 628 4666 
L 2053 4666 
Q 2853 4666 3247 4331 
Q 3641 3997 3641 3322 
Q 3641 2881 3436 2590 
Q 3231 2300 2841 2188 
z
M 1259 4147 
L 1259 2491 
L 2053 2491 
Q 2509 2491 2742 2702 
Q 2975 2913 2975 3322 
Q 2975 3731 2742 3939 
Q 2509 4147 2053 4147 
L 1259 4147 
z
" transform="scale(0.015625)"/>
       <path id="DejaVuSans-65" d="M 3597 1894 
L 3597 1613 
L 953 1613 
Q 991 1019 1311 708 
Q 1631 397 2203 397 
Q 2534 397 2845 478 
Q 3156 559 3463 722 
L 3463 178 
Q 3153 47 2828 -22 
Q 2503 -91 2169 -91 
Q 1331 -91 842 396 
Q 353 884 353 1716 
Q 353 2575 817 3079 
Q 1281 3584 2069 3584 
Q 2775 3584 3186 3129 
Q 3597 2675 3597 1894 
z
M 3022 2063 
Q 3016 2534 2758 2815 
Q 2500 3097 2075 3097 
Q 1594 3097 1305 2825 
Q 1016 2553 972 2059 
L 3022 2063 
z
" transform="scale(0.015625)"/>
       <path id="DejaVuSans-66" d="M 2375 4863 
L 2375 4384 
L 1825 4384 
Q 1516 4384 1395 4259 
Q 1275 4134 1275 3809 
L 1275 3500 
L 2222 3500 
L 2222 3053 
L 1275 3053 
L 1275 0 
L 697 0 
L 697 3053 
L 147 3053 
L 147 3500 
L 697 3500 
L 697 3744 
Q 697 4328 969 4595 
Q 1241 4863 1831 4863 
L 2375 4863 
z
" transform="scale(0.015625)"/>
       <path id="DejaVuSans-72" d="M 2631 2963 
Q 2534 3019 2420 3045 
Q 2306 3072 2169 3072 
Q 1681 3072 1420 2755 
Q 1159 2438 1159 1844 
L 1159 0 
L 581 0 
L 581 3500 
L 1159 3500 
L 1159 2956 
Q 1341 3275 1631 3429 
Q 1922 3584 2338 3584 
Q 2397 3584 2469 3576 
Q 2541 3569 2628 3553 
L 2631 2963 
z
" transform="scale(0.015625)"/>
       <path id="DejaVuSans-6e" d="M 3513 2113 
L 3513 0 
L 2938 0 
L 2938 2094 
Q 2938 2591 2744 2837 
Q 2550 3084 2163 3084 
Q 1697 3084 1428 2787 
Q 1159 2491 1159 1978 
L 1159 0 
L 581 0 
L 581 3500 
L 1159 3500 
L 1159 2956 
Q 1366 3272 1645 3428 
Q 1925 3584 2291 3584 
Q 2894 3584 3203 3211 
Q 3513 2838 3513 2113 
z
" transform="scale(0.015625)"/>
       <path id="DejaVuSans-63" d="M 3122 3366 
L 3122 2828 
Q 2878 2963 2633 3030 
Q 2388 3097 2138 3097 
Q 1578 3097 1268 2742 
Q 959 2388 959 1747 
Q 959 1106 1268 751 
Q 1578 397 2138 397 
Q 2388 397 2633 464 
Q 2878 531 3122 666 
L 3122 134 
Q 2881 22 2623 -34 
Q 2366 -91 2075 -91 
Q 1284 -91 818 406 
Q 353 903 353 1747 
Q 353 2603 823 3093 
Q 1294 3584 2113 3584 
Q 2378 3584 2631 3529 
Q 2884 3475 3122 3366 
z
" transform="scale(0.015625)"/>
       <path id="DejaVuSans-73" d="M 2834 3397 
L 2834 2853 
Q 2591 2978 2328 3040 
Q 2066 3103 1784 3103 
Q 1356 3103 1142 2972 
Q 928 2841 928 2578 
Q 928 2378 1081 2264 
Q 1234 2150 1697 2047 
L 1894 2003 
Q 2506 1872 2764 1633 
Q 3022 1394 3022 966 
Q 3022 478 2636 193 
Q 2250 -91 1575 -91 
Q 1294 -91 989 -36 
Q 684 19 347 128 
L 347 722 
Q 666 556 975 473 
Q 1284 391 1588 391 
Q 1994 391 2212 530 
Q 2431 669 2431 922 
Q 2431 1156 2273 1281 
Q 2116 1406 1581 1522 
L 1381 1569 
Q 847 1681 609 1914 
Q 372 2147 372 2553 
Q 372 3047 722 3315 
Q 1072 3584 1716 3584 
Q 2034 3584 2315 3537 
Q 2597 3491 2834 3397 
z
" transform="scale(0.015625)"/>
       <path id="DejaVuSans-20" transform="scale(0.015625)"/>
       <path id="DejaVuSans-70" d="M 1159 525 
L 1159 -1331 
L 581 -1331 
L 581 3500 
L 1159 3500 
L 1159 2969 
Q 1341 3281 1617 3432 
Q 1894 3584 2278 3584 
Q 2916 3584 3314 3078 
Q 3713 2572 3713 1747 
Q 3713 922 3314 415 
Q 2916 -91 2278 -91 
Q 1894 -91 1617 61 
Q 1341 213 1159 525 
z
M 3116 1747 
Q 3116 2381 2855 2742 
Q 2594 3103 2138 3103 
Q 1681 3103 1420 2742 
Q 1159 2381 1159 1747 
Q 1159 1113 1420 752 
Q 1681 391 2138 391 
Q 2594 391 2855 752 
Q 3116 1113 3116 1747 
z
" transform="scale(0.015625)"/>
       <path id="DejaVuSans-55" d="M 556 4666 
L 1191 4666 
L 1191 1831 
Q 1191 1081 1462 751 
Q 1734 422 2344 422 
Q 2950 422 3222 751 
Q 3494 1081 3494 1831 
L 3494 4666 
L 4128 4666 
L 4128 1753 
Q 4128 841 3676 375 
Q 3225 -91 2344 -91 
Q 1459 -91 1007 375 
Q 556 841 556 1753 
L 556 4666 
z
" transform="scale(0.015625)"/>
       <path id="DejaVuSans-69" d="M 603 3500 
L 1178 3500 
L 1178 0 
L 603 0 
L 603 3500 
z
M 603 4863 
L 1178 4863 
L 1178 4134 
L 603 4134 
L 603 4863 
z
" transform="scale(0.015625)"/>
       <path id="DejaVuSans-71" d="M 947 1747 
Q 947 1113 1208 752 
Q 1469 391 1925 391 
Q 2381 391 2643 752 
Q 2906 1113 2906 1747 
Q 2906 2381 2643 2742 
Q 2381 3103 1925 3103 
Q 1469 3103 1208 2742 
Q 947 2381 947 1747 
z
M 2906 525 
Q 2725 213 2448 61 
Q 2172 -91 1784 -91 
Q 1150 -91 751 415 
Q 353 922 353 1747 
Q 353 2572 751 3078 
Q 1150 3584 1784 3584 
Q 2172 3584 2448 3432 
Q 2725 3281 2906 2969 
L 2906 3500 
L 3481 3500 
L 3481 -1331 
L 2906 -1331 
L 2906 525 
z
" transform="scale(0.015625)"/>
       <path id="DejaVuSans-75" d="M 544 1381 
L 544 3500 
L 1119 3500 
L 1119 1403 
Q 1119 906 1312 657 
Q 1506 409 1894 409 
Q 2359 409 2629 706 
Q 2900 1003 2900 1516 
L 2900 3500 
L 3475 3500 
L 3475 0 
L 2900 0 
L 2900 538 
Q 2691 219 2414 64 
Q 2138 -91 1772 -91 
Q 1169 -91 856 284 
Q 544 659 544 1381 
z
M 1991 3584 
L 1991 3584 
z
" transform="scale(0.015625)"/>
       <path id="DejaVuSans-48" d="M 628 4666 
L 1259 4666 
L 1259 2753 
L 3553 2753 
L 3553 4666 
L 4184 4666 
L 4184 0 
L 3553 0 
L 3553 2222 
L 1259 2222 
L 1259 0 
L 628 0 
L 628 4666 
z
" transform="scale(0.015625)"/>
       <path id="DejaVuSans-74" d="M 1172 4494 
L 1172 3500 
L 2356 3500 
L 2356 3053 
L 1172 3053 
L 1172 1153 
Q 1172 725 1289 603 
Q 1406 481 1766 481 
L 2356 481 
L 2356 0 
L 1766 0 
Q 1100 0 847 248 
Q 594 497 594 1153 
L 594 3053 
L 172 3053 
L 172 3500 
L 594 3500 
L 594 4494 
L 1172 4494 
z
" transform="scale(0.015625)"/>
       <path id="DejaVuSans-6f" d="M 1959 3097 
Q 1497 3097 1228 2736 
Q 959 2375 959 1747 
Q 959 1119 1226 758 
Q 1494 397 1959 397 
Q 2419 397 2687 759 
Q 2956 1122 2956 1747 
Q 2956 2369 2687 2733 
Q 2419 3097 1959 3097 
z
M 1959 3584 
Q 2709 3584 3137 3096 
Q 3566 2609 3566 1747 
Q 3566 888 3137 398 
Q 2709 -91 1959 -91 
Q 1206 -91 779 398 
Q 353 888 353 1747 
Q 353 2609 779 3096 
Q 1206 3584 1959 3584 
z
" transform="scale(0.015625)"/>
       <path id="DejaVuSans-61" d="M 2194 1759 
Q 1497 1759 1228 1600 
Q 959 1441 959 1056 
Q 959 750 1161 570 
Q 1363 391 1709 391 
Q 2188 391 2477 730 
Q 2766 1069 2766 1631 
L 2766 1759 
L 2194 1759 
z
M 3341 1997 
L 3341 0 
L 2766 0 
L 2766 531 
Q 2569 213 2275 61 
Q 1981 -91 1556 -91 
Q 1019 -91 701 211 
Q 384 513 384 1019 
Q 384 1609 779 1909 
Q 1175 2209 1959 2209 
L 2766 2209 
L 2766 2266 
Q 2766 2663 2505 2880 
Q 2244 3097 1772 3097 
Q 1472 3097 1187 3025 
Q 903 2953 641 2809 
L 641 3341 
Q 956 3463 1253 3523 
Q 1550 3584 1831 3584 
Q 2591 3584 2966 3190 
Q 3341 2797 3341 1997 
z
" transform="scale(0.015625)"/>
       <path id="DejaVuSans-6c" d="M 603 4863 
L 1178 4863 
L 1178 0 
L 603 0 
L 603 4863 
z
" transform="scale(0.015625)"/>
       <path id="DejaVuSans-49" d="M 628 4666 
L 1259 4666 
L 1259 0 
L 628 0 
L 628 4666 
z
" transform="scale(0.015625)"/>
       <path id="DejaVuSans-64" d="M 2906 2969 
L 2906 4863 
L 3481 4863 
L 3481 0 
L 2906 0 
L 2906 525 
Q 2725 213 2448 61 
Q 2172 -91 1784 -91 
Q 1150 -91 751 415 
Q 353 922 353 1747 
Q 353 2572 751 3078 
Q 1150 3584 1784 3584 
Q 2172 3584 2448 3432 
Q 2725 3281 2906 2969 
z
M 947 1747 
Q 947 1113 1208 752 
Q 1469 391 1925 391 
Q 2381 391 2643 752 
Q 2906 1113 2906 1747 
Q 2906 2381 2643 2742 
Q 2381 3103 1925 3103 
Q 1469 3103 1208 2742 
Q 947 2381 947 1747 
z
" transform="scale(0.015625)"/>
       <path id="DejaVuSans-76" d="M 191 3500 
L 800 3500 
L 1894 563 
L 2988 3500 
L 3597 3500 
L 2284 0 
L 1503 0 
L 191 3500 
z
" transform="scale(0.015625)"/>
      </defs>
      <use xlink:href="#DejaVuSans-52"/>
      <use xlink:href="#DejaVuSans-65" x="64.982422"/>
      <use xlink:href="#DejaVuSans-66" x="126.505859"/>
      <use xlink:href="#DejaVuSans-65" x="161.710938"/>
      <use xlink:href="#DejaVuSans-72" x="223.234375"/>
      <use xlink:href="#DejaVuSans-65" x="262.097656"/>
      <use xlink:href="#DejaVuSans-6e" x="323.621094"/>
      <use xlink:href="#DejaVuSans-63" x="387"/>
      <use xlink:href="#DejaVuSans-65" x="441.980469"/>
      <use xlink:href="#DejaVuSans-73" x="503.503906"/>
      <use xlink:href="#DejaVuSans-20" x="555.603516"/>
      <use xlink:href="#DejaVuSans-70" x="587.390625"/>
      <use xlink:href="#DejaVuSans-65" x="650.867188"/>
      <use xlink:href="#DejaVuSans-72" x="712.390625"/>
      <use xlink:href="#DejaVuSans-20" x="753.503906"/>
      <use xlink:href="#DejaVuSans-55" x="785.291016"/>
      <use xlink:href="#DejaVuSans-6e" x="858.484375"/>
      <use xlink:href="#DejaVuSans-69" x="921.863281"/>
      <use xlink:href="#DejaVuSans-71" x="949.646484"/>
      <use xlink:href="#DejaVuSans-75" x="1013.123047"/>
      <use xlink:href="#DejaVuSans-65" x="1076.501953"/>
      <use xlink:href="#DejaVuSans-20" x="1138.025391"/>
      <use xlink:href="#DejaVuSans-48" x="1169.8125"/>
      <use xlink:href="#DejaVuSans-69" x="1245.007812"/>
      <use xlink:href="#DejaVuSans-73" x="1272.791016"/>
      <use xlink:href="#DejaVuSans-74" x="1324.890625"/>
      <use xlink:href="#DejaVuSans-6f" x="1364.099609"/>
      <use xlink:href="#DejaVuSans-72" x="1425.28125"/>
      <use xlink:href="#DejaVuSans-69" x="1466.394531"/>
      <use xlink:href="#DejaVuSans-63" x="1494.177734"/>
      <use xlink:href="#DejaVuSans-61" x="1549.158203"/>
      <use xlink:href="#DejaVuSans-6c" x="1610.4375"/>
      <use xlink:href="#DejaVuSans-20" x="1638.220703"/>
      <use xlink:href="#DejaVuSans-49" x="1670.007812"/>
      <use xlink:href="#DejaVuSans-6e" x="1699.5"/>
      <use xlink:href="#DejaVuSans-64" x="1762.878906"/>
      <use xlink:href="#DejaVuSans-69" x="1826.355469"/>
      <use xlink:href="#DejaVuSans-76" x="1854.138672"/>
      <use xlink:href="#DejaVuSans-69" x="1913.318359"/>
      <use xlink:href="#DejaVuSans-64" x="1941.101562"/>
      <use xlink:href="#DejaVuSans-75" x="2004.578125"/>
      <use xlink:href="#DejaVuSans-61" x="2067.957031"/>
      <use xlink:href="#DejaVuSans-6c" x="2129.236328"/>
     </g>
    </g>
   </g>
   <g id="matplotlib.axis_2">
    <g id="ytick_1">
     <g id="line2d_9">
      <defs>
       <path id="mdcfa95f360" d="M 0 0 
L -3.5 0 
" style="stroke: #000000; stroke-width: 0.8"/>
      </defs>
      <g>
       <use xlink:href="#mdcfa95f360" x="57.6" y="295.488" style="stroke: #000000; stroke-width: 0.8"/>
      </g>
     </g>
     <g id="text_10">
      <!-- $\mathdefault{10^{0}}$ -->
      <g transform="translate(33 299.287219) scale(0.1 -0.1)">
       <use xlink:href="#DejaVuSans-31" transform="translate(0 0.765625)"/>
       <use xlink:href="#DejaVuSans-30" transform="translate(63.623047 0.765625)"/>
       <use xlink:href="#DejaVuSans-30" transform="translate(128.203125 39.046875) scale(0.7)"/>
      </g>
     </g>
    </g>
    <g id="ytick_2">
     <g id="line2d_10">
      <g>
       <use xlink:href="#mdcfa95f360" x="57.6" y="248.516641" style="stroke: #000000; stroke-width: 0.8"/>
      </g>
     </g>
     <g id="text_11">
      <!-- $\mathdefault{10^{1}}$ -->
      <g transform="translate(33 252.31586) scale(0.1 -0.1)">
       <use xlink:href="#DejaVuSans-31" transform="translate(0 0.684375)"/>
       <use xlink:href="#DejaVuSans-30" transform="translate(63.623047 0.684375)"/>
       <use xlink:href="#DejaVuSans-31" transform="translate(128.203125 38.965625) scale(0.7)"/>
      </g>
     </g>
    </g>
    <g id="ytick_3">
     <g id="line2d_11">
      <g>
       <use xlink:href="#mdcfa95f360" x="57.6" y="201.545282" style="stroke: #000000; stroke-width: 0.8"/>
      </g>
     </g>
     <g id="text_12">
      <!-- $\mathdefault{10^{2}}$ -->
      <g transform="translate(33 205.344501) scale(0.1 -0.1)">
       <use xlink:href="#DejaVuSans-31" transform="translate(0 0.765625)"/>
       <use xlink:href="#DejaVuSans-30" transform="translate(63.623047 0.765625)"/>
       <use xlink:href="#DejaVuSans-32" transform="translate(128.203125 39.046875) scale(0.7)"/>
      </g>
     </g>
    </g>
    <g id="ytick_4">
     <g id="line2d_12">
      <g>
       <use xlink:href="#mdcfa95f360" x="57.6" y="154.573924" style="stroke: #000000; stroke-width: 0.8"/>
      </g>
     </g>
     <g id="text_13">
      <!-- $\mathdefault{10^{3}}$ -->
      <g transform="translate(33 158.373142) scale(0.1 -0.1)">
       <defs>
        <path id="DejaVuSans-33" d="M 2597 2516 
Q 3050 2419 3304 2112 
Q 3559 1806 3559 1356 
Q 3559 666 3084 287 
Q 2609 -91 1734 -91 
Q 1441 -91 1130 -33 
Q 819 25 488 141 
L 488 750 
Q 750 597 1062 519 
Q 1375 441 1716 441 
Q 2309 441 2620 675 
Q 2931 909 2931 1356 
Q 2931 1769 2642 2001 
Q 2353 2234 1838 2234 
L 1294 2234 
L 1294 2753 
L 1863 2753 
Q 2328 2753 2575 2939 
Q 2822 3125 2822 3475 
Q 2822 3834 2567 4026 
Q 2313 4219 1838 4219 
Q 1578 4219 1281 4162 
Q 984 4106 628 3988 
L 628 4550 
Q 988 4650 1302 4700 
Q 1616 4750 1894 4750 
Q 2613 4750 3031 4423 
Q 3450 4097 3450 3541 
Q 3450 3153 3228 2886 
Q 3006 2619 2597 2516 
z
" transform="scale(0.015625)"/>
       </defs>
       <use xlink:href="#DejaVuSans-31" transform="translate(0 0.765625)"/>
       <use xlink:href="#DejaVuSans-30" transform="translate(63.623047 0.765625)"/>
       <use xlink:href="#DejaVuSans-33" transform="translate(128.203125 39.046875) scale(0.7)"/>
      </g>
     </g>
    </g>
    <g id="ytick_5">
     <g id="line2d_13">
      <g>
       <use xlink:href="#mdcfa95f360" x="57.6" y="107.602565" style="stroke: #000000; stroke-width: 0.8"/>
      </g>
     </g>
     <g id="text_14">
      <!-- $\mathdefault{10^{4}}$ -->
      <g transform="translate(33 111.401784) scale(0.1 -0.1)">
       <defs>
        <path id="DejaVuSans-34" d="M 2419 4116 
L 825 1625 
L 2419 1625 
L 2419 4116 
z
M 2253 4666 
L 3047 4666 
L 3047 1625 
L 3713 1625 
L 3713 1100 
L 3047 1100 
L 3047 0 
L 2419 0 
L 2419 1100 
L 313 1100 
L 313 1709 
L 2253 4666 
z
" transform="scale(0.015625)"/>
       </defs>
       <use xlink:href="#DejaVuSans-31" transform="translate(0 0.684375)"/>
       <use xlink:href="#DejaVuSans-30" transform="translate(63.623047 0.684375)"/>
       <use xlink:href="#DejaVuSans-34" transform="translate(128.203125 38.965625) scale(0.7)"/>
      </g>
     </g>
    </g>
    <g id="ytick_6">
     <g id="line2d_14">
      <g>
       <use xlink:href="#mdcfa95f360" x="57.6" y="60.631206" style="stroke: #000000; stroke-width: 0.8"/>
      </g>
     </g>
     <g id="text_15">
      <!-- $\mathdefault{10^{5}}$ -->
      <g transform="translate(33 64.430425) scale(0.1 -0.1)">
       <use xlink:href="#DejaVuSans-31" transform="translate(0 0.684375)"/>
       <use xlink:href="#DejaVuSans-30" transform="translate(63.623047 0.684375)"/>
       <use xlink:href="#DejaVuSans-35" transform="translate(128.203125 38.965625) scale(0.7)"/>
      </g>
     </g>
    </g>
    <g id="ytick_7">
     <g id="line2d_15">
      <defs>
       <path id="m52a9a9d42c" d="M 0 0 
L -2 0 
" style="stroke: #000000; stroke-width: 0.6"/>
      </defs>
      <g>
       <use xlink:href="#m52a9a9d42c" x="57.6" y="305.908537" style="stroke: #000000; stroke-width: 0.6"/>
      </g>
     </g>
    </g>
    <g id="ytick_8">
     <g id="line2d_16">
      <g>
       <use xlink:href="#m52a9a9d42c" x="57.6" y="302.763956" style="stroke: #000000; stroke-width: 0.6"/>
      </g>
     </g>
    </g>
    <g id="ytick_9">
     <g id="line2d_17">
      <g>
       <use xlink:href="#m52a9a9d42c" x="57.6" y="300.039995" style="stroke: #000000; stroke-width: 0.6"/>
      </g>
     </g>
    </g>
    <g id="ytick_10">
     <g id="line2d_18">
      <g>
       <use xlink:href="#m52a9a9d42c" x="57.6" y="297.637292" style="stroke: #000000; stroke-width: 0.6"/>
      </g>
     </g>
    </g>
    <g id="ytick_11">
     <g id="line2d_19">
      <g>
       <use xlink:href="#m52a9a9d42c" x="57.6" y="281.348212" style="stroke: #000000; stroke-width: 0.6"/>
      </g>
     </g>
    </g>
    <g id="ytick_12">
     <g id="line2d_20">
      <g>
       <use xlink:href="#m52a9a9d42c" x="57.6" y="273.076966" style="stroke: #000000; stroke-width: 0.6"/>
      </g>
     </g>
    </g>
    <g id="ytick_13">
     <g id="line2d_21">
      <g>
       <use xlink:href="#m52a9a9d42c" x="57.6" y="267.208424" style="stroke: #000000; stroke-width: 0.6"/>
      </g>
     </g>
    </g>
    <g id="ytick_14">
     <g id="line2d_22">
      <g>
       <use xlink:href="#m52a9a9d42c" x="57.6" y="262.656429" style="stroke: #000000; stroke-width: 0.6"/>
      </g>
     </g>
    </g>
    <g id="ytick_15">
     <g id="line2d_23">
      <g>
       <use xlink:href="#m52a9a9d42c" x="57.6" y="258.937178" style="stroke: #000000; stroke-width: 0.6"/>
      </g>
     </g>
    </g>
    <g id="ytick_16">
     <g id="line2d_24">
      <g>
       <use xlink:href="#m52a9a9d42c" x="57.6" y="255.792597" style="stroke: #000000; stroke-width: 0.6"/>
      </g>
     </g>
    </g>
    <g id="ytick_17">
     <g id="line2d_25">
      <g>
       <use xlink:href="#m52a9a9d42c" x="57.6" y="253.068636" style="stroke: #000000; stroke-width: 0.6"/>
      </g>
     </g>
    </g>
    <g id="ytick_18">
     <g id="line2d_26">
      <g>
       <use xlink:href="#m52a9a9d42c" x="57.6" y="250.665933" style="stroke: #000000; stroke-width: 0.6"/>
      </g>
     </g>
    </g>
    <g id="ytick_19">
     <g id="line2d_27">
      <g>
       <use xlink:href="#m52a9a9d42c" x="57.6" y="234.376853" style="stroke: #000000; stroke-width: 0.6"/>
      </g>
     </g>
    </g>
    <g id="ytick_20">
     <g id="line2d_28">
      <g>
       <use xlink:href="#m52a9a9d42c" x="57.6" y="226.105608" style="stroke: #000000; stroke-width: 0.6"/>
      </g>
     </g>
    </g>
    <g id="ytick_21">
     <g id="line2d_29">
      <g>
       <use xlink:href="#m52a9a9d42c" x="57.6" y="220.237065" style="stroke: #000000; stroke-width: 0.6"/>
      </g>
     </g>
    </g>
    <g id="ytick_22">
     <g id="line2d_30">
      <g>
       <use xlink:href="#m52a9a9d42c" x="57.6" y="215.68507" style="stroke: #000000; stroke-width: 0.6"/>
      </g>
     </g>
    </g>
    <g id="ytick_23">
     <g id="line2d_31">
      <g>
       <use xlink:href="#m52a9a9d42c" x="57.6" y="211.96582" style="stroke: #000000; stroke-width: 0.6"/>
      </g>
     </g>
    </g>
    <g id="ytick_24">
     <g id="line2d_32">
      <g>
       <use xlink:href="#m52a9a9d42c" x="57.6" y="208.821238" style="stroke: #000000; stroke-width: 0.6"/>
      </g>
     </g>
    </g>
    <g id="ytick_25">
     <g id="line2d_33">
      <g>
       <use xlink:href="#m52a9a9d42c" x="57.6" y="206.097277" style="stroke: #000000; stroke-width: 0.6"/>
      </g>
     </g>
    </g>
    <g id="ytick_26">
     <g id="line2d_34">
      <g>
       <use xlink:href="#m52a9a9d42c" x="57.6" y="203.694574" style="stroke: #000000; stroke-width: 0.6"/>
      </g>
     </g>
    </g>
    <g id="ytick_27">
     <g id="line2d_35">
      <g>
       <use xlink:href="#m52a9a9d42c" x="57.6" y="187.405495" style="stroke: #000000; stroke-width: 0.6"/>
      </g>
     </g>
    </g>
    <g id="ytick_28">
     <g id="line2d_36">
      <g>
       <use xlink:href="#m52a9a9d42c" x="57.6" y="179.134249" style="stroke: #000000; stroke-width: 0.6"/>
      </g>
     </g>
    </g>
    <g id="ytick_29">
     <g id="line2d_37">
      <g>
       <use xlink:href="#m52a9a9d42c" x="57.6" y="173.265707" style="stroke: #000000; stroke-width: 0.6"/>
      </g>
     </g>
    </g>
    <g id="ytick_30">
     <g id="line2d_38">
      <g>
       <use xlink:href="#m52a9a9d42c" x="57.6" y="168.713712" style="stroke: #000000; stroke-width: 0.6"/>
      </g>
     </g>
    </g>
    <g id="ytick_31">
     <g id="line2d_39">
      <g>
       <use xlink:href="#m52a9a9d42c" x="57.6" y="164.994461" style="stroke: #000000; stroke-width: 0.6"/>
      </g>
     </g>
    </g>
    <g id="ytick_32">
     <g id="line2d_40">
      <g>
       <use xlink:href="#m52a9a9d42c" x="57.6" y="161.849879" style="stroke: #000000; stroke-width: 0.6"/>
      </g>
     </g>
    </g>
    <g id="ytick_33">
     <g id="line2d_41">
      <g>
       <use xlink:href="#m52a9a9d42c" x="57.6" y="159.125919" style="stroke: #000000; stroke-width: 0.6"/>
      </g>
     </g>
    </g>
    <g id="ytick_34">
     <g id="line2d_42">
      <g>
       <use xlink:href="#m52a9a9d42c" x="57.6" y="156.723215" style="stroke: #000000; stroke-width: 0.6"/>
      </g>
     </g>
    </g>
    <g id="ytick_35">
     <g id="line2d_43">
      <g>
       <use xlink:href="#m52a9a9d42c" x="57.6" y="140.434136" style="stroke: #000000; stroke-width: 0.6"/>
      </g>
     </g>
    </g>
    <g id="ytick_36">
     <g id="line2d_44">
      <g>
       <use xlink:href="#m52a9a9d42c" x="57.6" y="132.16289" style="stroke: #000000; stroke-width: 0.6"/>
      </g>
     </g>
    </g>
    <g id="ytick_37">
     <g id="line2d_45">
      <g>
       <use xlink:href="#m52a9a9d42c" x="57.6" y="126.294348" style="stroke: #000000; stroke-width: 0.6"/>
      </g>
     </g>
    </g>
    <g id="ytick_38">
     <g id="line2d_46">
      <g>
       <use xlink:href="#m52a9a9d42c" x="57.6" y="121.742353" style="stroke: #000000; stroke-width: 0.6"/>
      </g>
     </g>
    </g>
    <g id="ytick_39">
     <g id="line2d_47">
      <g>
       <use xlink:href="#m52a9a9d42c" x="57.6" y="118.023102" style="stroke: #000000; stroke-width: 0.6"/>
      </g>
     </g>
    </g>
    <g id="ytick_40">
     <g id="line2d_48">
      <g>
       <use xlink:href="#m52a9a9d42c" x="57.6" y="114.87852" style="stroke: #000000; stroke-width: 0.6"/>
      </g>
     </g>
    </g>
    <g id="ytick_41">
     <g id="line2d_49">
      <g>
       <use xlink:href="#m52a9a9d42c" x="57.6" y="112.15456" style="stroke: #000000; stroke-width: 0.6"/>
      </g>
     </g>
    </g>
    <g id="ytick_42">
     <g id="line2d_50">
      <g>
       <use xlink:href="#m52a9a9d42c" x="57.6" y="109.751856" style="stroke: #000000; stroke-width: 0.6"/>
      </g>
     </g>
    </g>
    <g id="ytick_43">
     <g id="line2d_51">
      <g>
       <use xlink:href="#m52a9a9d42c" x="57.6" y="93.462777" style="stroke: #000000; stroke-width: 0.6"/>
      </g>
     </g>
    </g>
    <g id="ytick_44">
     <g id="line2d_52">
      <g>
       <use xlink:href="#m52a9a9d42c" x="57.6" y="85.191531" style="stroke: #000000; stroke-width: 0.6"/>
      </g>
     </g>
    </g>
    <g id="ytick_45">
     <g id="line2d_53">
      <g>
       <use xlink:href="#m52a9a9d42c" x="57.6" y="79.322989" style="stroke: #000000; stroke-width: 0.6"/>
      </g>
     </g>
    </g>
    <g id="ytick_46">
     <g id="line2d_54">
      <g>
       <use xlink:href="#m52a9a9d42c" x="57.6" y="74.770994" style="stroke: #000000; stroke-width: 0.6"/>
      </g>
     </g>
    </g>
    <g id="ytick_47">
     <g id="line2d_55">
      <g>
       <use xlink:href="#m52a9a9d42c" x="57.6" y="71.051743" style="stroke: #000000; stroke-width: 0.6"/>
      </g>
     </g>
    </g>
    <g id="ytick_48">
     <g id="line2d_56">
      <g>
       <use xlink:href="#m52a9a9d42c" x="57.6" y="67.907162" style="stroke: #000000; stroke-width: 0.6"/>
      </g>
     </g>
    </g>
    <g id="ytick_49">
     <g id="line2d_57">
      <g>
       <use xlink:href="#m52a9a9d42c" x="57.6" y="65.183201" style="stroke: #000000; stroke-width: 0.6"/>
      </g>
     </g>
    </g>
    <g id="ytick_50">
     <g id="line2d_58">
      <g>
       <use xlink:href="#m52a9a9d42c" x="57.6" y="62.780498" style="stroke: #000000; stroke-width: 0.6"/>
      </g>
     </g>
    </g>
    <g id="ytick_51">
     <g id="line2d_59">
      <g>
       <use xlink:href="#m52a9a9d42c" x="57.6" y="46.491418" style="stroke: #000000; stroke-width: 0.6"/>
      </g>
     </g>
    </g>
    <g id="text_16">
     <!-- Frequency -->
     <g transform="translate(26.920312 200.357687) rotate(-90) scale(0.1 -0.1)">
      <defs>
       <path id="DejaVuSans-46" d="M 628 4666 
L 3309 4666 
L 3309 4134 
L 1259 4134 
L 1259 2759 
L 3109 2759 
L 3109 2228 
L 1259 2228 
L 1259 0 
L 628 0 
L 628 4666 
z
" transform="scale(0.015625)"/>
       <path id="DejaVuSans-79" d="M 2059 -325 
Q 1816 -950 1584 -1140 
Q 1353 -1331 966 -1331 
L 506 -1331 
L 506 -850 
L 844 -850 
Q 1081 -850 1212 -737 
Q 1344 -625 1503 -206 
L 1606 56 
L 191 3500 
L 800 3500 
L 1894 763 
L 2988 3500 
L 3597 3500 
L 2059 -325 
z
" transform="scale(0.015625)"/>
      </defs>
      <use xlink:href="#DejaVuSans-46"/>
      <use xlink:href="#DejaVuSans-72" x="50.269531"/>
      <use xlink:href="#DejaVuSans-65" x="89.132812"/>
      <use xlink:href="#DejaVuSans-71" x="150.65625"/>
      <use xlink:href="#DejaVuSans-75" x="214.132812"/>
      <use xlink:href="#DejaVuSans-65" x="277.511719"/>
      <use xlink:href="#DejaVuSans-6e" x="339.035156"/>
      <use xlink:href="#DejaVuSans-63" x="402.414062"/>
      <use xlink:href="#DejaVuSans-79" x="457.394531"/>
     </g>
    </g>
   </g>
   <g id="patch_189">
    <path d="M 57.6 307.584 
L 57.6 41.472 
" style="fill: none; stroke: #000000; stroke-width: 0.8; stroke-linejoin: miter; stroke-linecap: square"/>
   </g>
   <g id="patch_190">
    <path d="M 414.72 307.584 
L 414.72 41.472 
" style="fill: none; stroke: #000000; stroke-width: 0.8; stroke-linejoin: miter; stroke-linecap: square"/>
   </g>
   <g id="patch_191">
    <path d="M 57.6 307.584 
L 414.72 307.584 
" style="fill: none; stroke: #000000; stroke-width: 0.8; stroke-linejoin: miter; stroke-linecap: square"/>
   </g>
   <g id="patch_192">
    <path d="M 57.6 41.472 
L 414.72 41.472 
" style="fill: none; stroke: #000000; stroke-width: 0.8; stroke-linejoin: miter; stroke-linecap: square"/>
   </g>
   <g id="text_17">
    <!-- Histogram of References per Unique Historical Individual (RL) -->
    <g transform="translate(51.914062 35.472) scale(0.12 -0.12)">
     <defs>
      <path id="DejaVuSans-67" d="M 2906 1791 
Q 2906 2416 2648 2759 
Q 2391 3103 1925 3103 
Q 1463 3103 1205 2759 
Q 947 2416 947 1791 
Q 947 1169 1205 825 
Q 1463 481 1925 481 
Q 2391 481 2648 825 
Q 2906 1169 2906 1791 
z
M 3481 434 
Q 3481 -459 3084 -895 
Q 2688 -1331 1869 -1331 
Q 1566 -1331 1297 -1286 
Q 1028 -1241 775 -1147 
L 775 -588 
Q 1028 -725 1275 -790 
Q 1522 -856 1778 -856 
Q 2344 -856 2625 -561 
Q 2906 -266 2906 331 
L 2906 616 
Q 2728 306 2450 153 
Q 2172 0 1784 0 
Q 1141 0 747 490 
Q 353 981 353 1791 
Q 353 2603 747 3093 
Q 1141 3584 1784 3584 
Q 2172 3584 2450 3431 
Q 2728 3278 2906 2969 
L 2906 3500 
L 3481 3500 
L 3481 434 
z
" transform="scale(0.015625)"/>
      <path id="DejaVuSans-6d" d="M 3328 2828 
Q 3544 3216 3844 3400 
Q 4144 3584 4550 3584 
Q 5097 3584 5394 3201 
Q 5691 2819 5691 2113 
L 5691 0 
L 5113 0 
L 5113 2094 
Q 5113 2597 4934 2840 
Q 4756 3084 4391 3084 
Q 3944 3084 3684 2787 
Q 3425 2491 3425 1978 
L 3425 0 
L 2847 0 
L 2847 2094 
Q 2847 2600 2669 2842 
Q 2491 3084 2119 3084 
Q 1678 3084 1418 2786 
Q 1159 2488 1159 1978 
L 1159 0 
L 581 0 
L 581 3500 
L 1159 3500 
L 1159 2956 
Q 1356 3278 1631 3431 
Q 1906 3584 2284 3584 
Q 2666 3584 2933 3390 
Q 3200 3197 3328 2828 
z
" transform="scale(0.015625)"/>
      <path id="DejaVuSans-28" d="M 1984 4856 
Q 1566 4138 1362 3434 
Q 1159 2731 1159 2009 
Q 1159 1288 1364 580 
Q 1569 -128 1984 -844 
L 1484 -844 
Q 1016 -109 783 600 
Q 550 1309 550 2009 
Q 550 2706 781 3412 
Q 1013 4119 1484 4856 
L 1984 4856 
z
" transform="scale(0.015625)"/>
      <path id="DejaVuSans-4c" d="M 628 4666 
L 1259 4666 
L 1259 531 
L 3531 531 
L 3531 0 
L 628 0 
L 628 4666 
z
" transform="scale(0.015625)"/>
      <path id="DejaVuSans-29" d="M 513 4856 
L 1013 4856 
Q 1481 4119 1714 3412 
Q 1947 2706 1947 2009 
Q 1947 1309 1714 600 
Q 1481 -109 1013 -844 
L 513 -844 
Q 928 -128 1133 580 
Q 1338 1288 1338 2009 
Q 1338 2731 1133 3434 
Q 928 4138 513 4856 
z
" transform="scale(0.015625)"/>
     </defs>
     <use xlink:href="#DejaVuSans-48"/>
     <use xlink:href="#DejaVuSans-69" x="75.195312"/>
     <use xlink:href="#DejaVuSans-73" x="102.978516"/>
     <use xlink:href="#DejaVuSans-74" x="155.078125"/>
     <use xlink:href="#DejaVuSans-6f" x="194.287109"/>
     <use xlink:href="#DejaVuSans-67" x="255.46875"/>
     <use xlink:href="#DejaVuSans-72" x="318.945312"/>
     <use xlink:href="#DejaVuSans-61" x="360.058594"/>
     <use xlink:href="#DejaVuSans-6d" x="421.337891"/>
     <use xlink:href="#DejaVuSans-20" x="518.75"/>
     <use xlink:href="#DejaVuSans-6f" x="550.537109"/>
     <use xlink:href="#DejaVuSans-66" x="611.71875"/>
     <use xlink:href="#DejaVuSans-20" x="646.923828"/>
     <use xlink:href="#DejaVuSans-52" x="678.710938"/>
     <use xlink:href="#DejaVuSans-65" x="743.693359"/>
     <use xlink:href="#DejaVuSans-66" x="805.216797"/>
     <use xlink:href="#DejaVuSans-65" x="840.421875"/>
     <use xlink:href="#DejaVuSans-72" x="901.945312"/>
     <use xlink:href="#DejaVuSans-65" x="940.808594"/>
     <use xlink:href="#DejaVuSans-6e" x="1002.332031"/>
     <use xlink:href="#DejaVuSans-63" x="1065.710938"/>
     <use xlink:href="#DejaVuSans-65" x="1120.691406"/>
     <use xlink:href="#DejaVuSans-73" x="1182.214844"/>
     <use xlink:href="#DejaVuSans-20" x="1234.314453"/>
     <use xlink:href="#DejaVuSans-70" x="1266.101562"/>
     <use xlink:href="#DejaVuSans-65" x="1329.578125"/>
     <use xlink:href="#DejaVuSans-72" x="1391.101562"/>
     <use xlink:href="#DejaVuSans-20" x="1432.214844"/>
     <use xlink:href="#DejaVuSans-55" x="1464.001953"/>
     <use xlink:href="#DejaVuSans-6e" x="1537.195312"/>
     <use xlink:href="#DejaVuSans-69" x="1600.574219"/>
     <use xlink:href="#DejaVuSans-71" x="1628.357422"/>
     <use xlink:href="#DejaVuSans-75" x="1691.833984"/>
     <use xlink:href="#DejaVuSans-65" x="1755.212891"/>
     <use xlink:href="#DejaVuSans-20" x="1816.736328"/>
     <use xlink:href="#DejaVuSans-48" x="1848.523438"/>
     <use xlink:href="#DejaVuSans-69" x="1923.71875"/>
     <use xlink:href="#DejaVuSans-73" x="1951.501953"/>
     <use xlink:href="#DejaVuSans-74" x="2003.601562"/>
     <use xlink:href="#DejaVuSans-6f" x="2042.810547"/>
     <use xlink:href="#DejaVuSans-72" x="2103.992188"/>
     <use xlink:href="#DejaVuSans-69" x="2145.105469"/>
     <use xlink:href="#DejaVuSans-63" x="2172.888672"/>
     <use xlink:href="#DejaVuSans-61" x="2227.869141"/>
     <use xlink:href="#DejaVuSans-6c" x="2289.148438"/>
     <use xlink:href="#DejaVuSans-20" x="2316.931641"/>
     <use xlink:href="#DejaVuSans-49" x="2348.71875"/>
     <use xlink:href="#DejaVuSans-6e" x="2378.210938"/>
     <use xlink:href="#DejaVuSans-64" x="2441.589844"/>
     <use xlink:href="#DejaVuSans-69" x="2505.066406"/>
     <use xlink:href="#DejaVuSans-76" x="2532.849609"/>
     <use xlink:href="#DejaVuSans-69" x="2592.029297"/>
     <use xlink:href="#DejaVuSans-64" x="2619.8125"/>
     <use xlink:href="#DejaVuSans-75" x="2683.289062"/>
     <use xlink:href="#DejaVuSans-61" x="2746.667969"/>
     <use xlink:href="#DejaVuSans-6c" x="2807.947266"/>
     <use xlink:href="#DejaVuSans-20" x="2835.730469"/>
     <use xlink:href="#DejaVuSans-28" x="2867.517578"/>
     <use xlink:href="#DejaVuSans-52" x="2906.53125"/>
     <use xlink:href="#DejaVuSans-4c" x="2976.013672"/>
     <use xlink:href="#DejaVuSans-29" x="3031.726562"/>
    </g>
   </g>
  </g>
 </g>
 <defs>
  <clipPath id="pc751de3ae3">
   <rect x="57.6" y="41.472" width="357.12" height="266.112"/>
  </clipPath>
 </defs>
</svg>
