<?xml version="1.0" encoding="utf-8" standalone="no"?>
<!DOCTYPE svg PUBLIC "-//W3C//DTD SVG 1.1//EN"
  "http://www.w3.org/Graphics/SVG/1.1/DTD/svg11.dtd">
<svg xmlns:xlink="http://www.w3.org/1999/xlink" width="460.8pt" height="345.6pt" viewBox="0 0 460.8 345.6" xmlns="http://www.w3.org/2000/svg" version="1.1">
 <metadata>
  <rdf:RDF xmlns:dc="http://purl.org/dc/elements/1.1/" xmlns:cc="http://creativecommons.org/ns#" xmlns:rdf="http://www.w3.org/1999/02/22-rdf-syntax-ns#">
   <cc:Work>
    <dc:type rdf:resource="http://purl.org/dc/dcmitype/StillImage"/>
    <dc:date>2023-01-18T21:54:58.777659</dc:date>
    <dc:format>image/svg+xml</dc:format>
    <dc:creator>
     <cc:Agent>
      <dc:title>Matplotlib v3.6.2, https://matplotlib.org/</dc:title>
     </cc:Agent>
    </dc:creator>
   </cc:Work>
  </rdf:RDF>
 </metadata>
 <defs>
  <style type="text/css">*{stroke-linejoin: round; stroke-linecap: butt}</style>
 </defs>
 <g id="figure_1">
  <g id="patch_1">
   <path d="M 0 345.6 
L 460.8 345.6 
L 460.8 0 
L 0 0 
z
" style="fill: #ffffff"/>
  </g>
  <g id="axes_1">
   <g id="LineCollection_1">
    <path d="M 267.573206 29.990083 
L 116.604519 172.8 
" clip-path="url(#p2fc9cc99e4)" style="fill: none; stroke: #008000"/>
    <path d="M 267.573206 29.990083 
L 267.573206 172.8 
" clip-path="url(#p2fc9cc99e4)" style="fill: none; stroke: #000000"/>
    <path d="M 267.573206 29.990083 
L 420.813223 172.8 
" clip-path="url(#p2fc9cc99e4)" style="fill: none; stroke: #000000"/>
    <path d="M 116.604519 172.8 
L 39.986777 315.609917 
" clip-path="url(#p2fc9cc99e4)" style="fill: none; stroke: #000000"/>
    <path d="M 116.604519 172.8 
L 193.222261 315.609917 
" clip-path="url(#p2fc9cc99e4)" style="fill: none; stroke: #000000"/>
   </g>
   <g id="PathCollection_1">
    <defs>
     <path id="C0_0_d507e10f6a" d="M 0 8.660254 
C 2.296726 8.660254 4.499694 7.747755 6.123724 6.123724 
C 7.747755 4.499694 8.660254 2.296726 8.660254 -0 
C 8.660254 -2.296726 7.747755 -4.499694 6.123724 -6.123724 
C 4.499694 -7.747755 2.296726 -8.660254 0 -8.660254 
C -2.296726 -8.660254 -4.499694 -7.747755 -6.123724 -6.123724 
C -7.747755 -4.499694 -8.660254 -2.296726 -8.660254 0 
C -8.660254 2.296726 -7.747755 4.499694 -6.123724 6.123724 
C -4.499694 7.747755 -2.296726 8.660254 0 8.660254 
z
"/>
    </defs>
    <g clip-path="url(#p2fc9cc99e4)">
     <use xlink:href="#C0_0_d507e10f6a" x="267.573206" y="29.990083" style="fill: #ff0000; stroke: #ff0000"/>
    </g>
    <g clip-path="url(#p2fc9cc99e4)">
     <use xlink:href="#C0_0_d507e10f6a" x="116.604519" y="172.8" style="fill: #800080; stroke: #800080"/>
    </g>
    <g clip-path="url(#p2fc9cc99e4)">
     <use xlink:href="#C0_0_d507e10f6a" x="267.573206" y="172.8" style="fill: #0000ff; stroke: #0000ff"/>
    </g>
    <g clip-path="url(#p2fc9cc99e4)">
     <use xlink:href="#C0_0_d507e10f6a" x="420.813223" y="172.8" style="fill: #800080; stroke: #800080"/>
    </g>
    <g clip-path="url(#p2fc9cc99e4)">
     <use xlink:href="#C0_0_d507e10f6a" x="39.986777" y="315.609917" style="fill: #0000ff; stroke: #0000ff"/>
    </g>
    <g clip-path="url(#p2fc9cc99e4)">
     <use xlink:href="#C0_0_d507e10f6a" x="193.222261" y="315.609917" style="fill: #800080; stroke: #800080"/>
    </g>
   </g>
  </g>
 </g>
 <defs>
  <clipPath id="p2fc9cc99e4">
   <rect x="0" y="0" width="460.8" height="345.6"/>
  </clipPath>
 </defs>
</svg>
