<?xml version="1.0" encoding="utf-8" standalone="no"?>
<!DOCTYPE svg PUBLIC "-//W3C//DTD SVG 1.1//EN"
  "http://www.w3.org/Graphics/SVG/1.1/DTD/svg11.dtd">
<svg xmlns:xlink="http://www.w3.org/1999/xlink" width="460.8pt" height="345.6pt" viewBox="0 0 460.8 345.6" xmlns="http://www.w3.org/2000/svg" version="1.1">
 <metadata>
  <rdf:RDF xmlns:dc="http://purl.org/dc/elements/1.1/" xmlns:cc="http://creativecommons.org/ns#" xmlns:rdf="http://www.w3.org/1999/02/22-rdf-syntax-ns#">
   <cc:Work>
    <dc:type rdf:resource="http://purl.org/dc/dcmitype/StillImage"/>
    <dc:date>2023-01-18T21:38:17.534139</dc:date>
    <dc:format>image/svg+xml</dc:format>
    <dc:creator>
     <cc:Agent>
      <dc:title>Matplotlib v3.6.2, https://matplotlib.org/</dc:title>
     </cc:Agent>
    </dc:creator>
   </cc:Work>
  </rdf:RDF>
 </metadata>
 <defs>
  <style type="text/css">*{stroke-linejoin: round; stroke-linecap: butt}</style>
 </defs>
 <g id="figure_1">
  <g id="patch_1">
   <path d="M 0 345.6 
L 460.8 345.6 
L 460.8 0 
L 0 0 
z
" style="fill: #ffffff"/>
  </g>
  <g id="axes_1">
   <g id="LineCollection_1">
    <path d="M 70.486868 29.990083 
L 50.254736 172.8 
" clip-path="url(#p3a8e34f43c)" style="fill: none; stroke: #008000"/>
    <path d="M 70.486868 29.990083 
L 70.486868 172.8 
" clip-path="url(#p3a8e34f43c)" style="fill: none; stroke: #000000"/>
    <path d="M 70.486868 29.990083 
L 91.023393 172.8 
" clip-path="url(#p3a8e34f43c)" style="fill: none; stroke: #000000"/>
    <path d="M 50.254736 172.8 
L 39.986777 315.609917 
" clip-path="url(#p3a8e34f43c)" style="fill: none; stroke: #000000"/>
    <path d="M 50.254736 172.8 
L 60.522695 315.609917 
" clip-path="url(#p3a8e34f43c)" style="fill: none; stroke: #000000"/>
    <path d="M 127.113143 29.990083 
L 104.146939 172.8 
" clip-path="url(#p3a8e34f43c)" style="fill: none; stroke: #ff0000"/>
    <path d="M 127.113143 29.990083 
L 117.088212 172.8 
" clip-path="url(#p3a8e34f43c)" style="fill: none; stroke: #008000"/>
    <path d="M 127.113143 29.990083 
L 137.19883 172.8 
" clip-path="url(#p3a8e34f43c)" style="fill: none; stroke: #000000"/>
    <path d="M 127.113143 29.990083 
L 157.370205 172.8 
" clip-path="url(#p3a8e34f43c)" style="fill: none; stroke: #000000"/>
    <path d="M 117.088212 172.8 
L 96.673809 315.609917 
" clip-path="url(#p3a8e34f43c)" style="fill: none; stroke: #000000"/>
    <path d="M 117.088212 172.8 
L 117.088212 315.609917 
" clip-path="url(#p3a8e34f43c)" style="fill: none; stroke: #000000"/>
    <path d="M 117.088212 172.8 
L 130.211758 315.609917 
" clip-path="url(#p3a8e34f43c)" style="fill: none; stroke: #ff0000"/>
    <path d="M 192.791626 29.990083 
L 170.129207 172.8 
" clip-path="url(#p3a8e34f43c)" style="fill: none; stroke: #ff0000"/>
    <path d="M 192.791626 29.990083 
L 182.766695 172.8 
" clip-path="url(#p3a8e34f43c)" style="fill: none; stroke: #008000"/>
    <path d="M 192.791626 29.990083 
L 202.816556 172.8 
" clip-path="url(#p3a8e34f43c)" style="fill: none; stroke: #000000"/>
    <path d="M 192.791626 29.990083 
L 222.987931 172.8 
" clip-path="url(#p3a8e34f43c)" style="fill: none; stroke: #000000"/>
    <path d="M 182.766695 172.8 
L 162.716835 315.609917 
" clip-path="url(#p3a8e34f43c)" style="fill: none; stroke: #000000"/>
    <path d="M 182.766695 172.8 
L 182.766695 315.609917 
" clip-path="url(#p3a8e34f43c)" style="fill: none; stroke: #000000"/>
    <path d="M 182.766695 172.8 
L 195.343426 315.609917 
" clip-path="url(#p3a8e34f43c)" style="fill: none; stroke: #ff0000"/>
    <path d="M 258.713137 29.990083 
L 235.989962 172.8 
" clip-path="url(#p3a8e34f43c)" style="fill: none; stroke: #ff0000"/>
    <path d="M 258.713137 29.990083 
L 248.748964 172.8 
" clip-path="url(#p3a8e34f43c)" style="fill: none; stroke: #008000"/>
    <path d="M 258.713137 29.990083 
L 268.677311 172.8 
" clip-path="url(#p3a8e34f43c)" style="fill: none; stroke: #000000"/>
    <path d="M 258.713137 29.990083 
L 288.787928 172.8 
" clip-path="url(#p3a8e34f43c)" style="fill: none; stroke: #000000"/>
    <path d="M 248.748964 172.8 
L 228.334561 315.609917 
" clip-path="url(#p3a8e34f43c)" style="fill: none; stroke: #000000"/>
    <path d="M 248.748964 172.8 
L 248.748964 315.609917 
" clip-path="url(#p3a8e34f43c)" style="fill: none; stroke: #000000"/>
    <path d="M 248.748964 172.8 
L 261.811752 315.609917 
" clip-path="url(#p3a8e34f43c)" style="fill: none; stroke: #ff0000"/>
    <path d="M 324.877678 29.990083 
L 301.668445 172.8 
" clip-path="url(#p3a8e34f43c)" style="fill: none; stroke: #ff0000"/>
    <path d="M 324.877678 29.990083 
L 314.670476 172.8 
" clip-path="url(#p3a8e34f43c)" style="fill: none; stroke: #008000"/>
    <path d="M 324.877678 29.990083 
L 335.084879 172.8 
" clip-path="url(#p3a8e34f43c)" style="fill: none; stroke: #000000"/>
    <path d="M 324.877678 29.990083 
L 355.195497 172.8 
" clip-path="url(#p3a8e34f43c)" style="fill: none; stroke: #000000"/>
    <path d="M 314.670476 172.8 
L 294.438344 315.609917 
" clip-path="url(#p3a8e34f43c)" style="fill: none; stroke: #000000"/>
    <path d="M 314.670476 172.8 
L 314.670476 315.609917 
" clip-path="url(#p3a8e34f43c)" style="fill: none; stroke: #000000"/>
    <path d="M 314.670476 172.8 
L 327.672507 315.609917 
" clip-path="url(#p3a8e34f43c)" style="fill: none; stroke: #ff0000"/>
    <path d="M 390.677675 29.990083 
L 367.893742 172.8 
" clip-path="url(#p3a8e34f43c)" style="fill: none; stroke: #ff0000"/>
    <path d="M 390.677675 29.990083 
L 380.713502 172.8 
" clip-path="url(#p3a8e34f43c)" style="fill: none; stroke: #008000"/>
    <path d="M 390.677675 29.990083 
L 400.702605 172.8 
" clip-path="url(#p3a8e34f43c)" style="fill: none; stroke: #000000"/>
    <path d="M 390.677675 29.990083 
L 420.813223 172.8 
" clip-path="url(#p3a8e34f43c)" style="fill: none; stroke: #000000"/>
    <path d="M 380.713502 172.8 
L 360.724398 315.609917 
" clip-path="url(#p3a8e34f43c)" style="fill: none; stroke: #000000"/>
    <path d="M 380.713502 172.8 
L 380.713502 315.609917 
" clip-path="url(#p3a8e34f43c)" style="fill: none; stroke: #000000"/>
    <path d="M 380.713502 172.8 
L 393.35099 315.609917 
" clip-path="url(#p3a8e34f43c)" style="fill: none; stroke: #ff0000"/>
   </g>
   <g id="PathCollection_1">
    <defs>
     <path id="ma3c330b44a" d="M 0 8.660254 
C 2.296726 8.660254 4.499694 7.747755 6.123724 6.123724 
C 7.747755 4.499694 8.660254 2.296726 8.660254 0 
C 8.660254 -2.296726 7.747755 -4.499694 6.123724 -6.123724 
C 4.499694 -7.747755 2.296726 -8.660254 0 -8.660254 
C -2.296726 -8.660254 -4.499694 -7.747755 -6.123724 -6.123724 
C -7.747755 -4.499694 -8.660254 -2.296726 -8.660254 0 
C -8.660254 2.296726 -7.747755 4.499694 -6.123724 6.123724 
C -4.499694 7.747755 -2.296726 8.660254 0 8.660254 
z
" style="stroke: #1f78b4"/>
    </defs>
    <g clip-path="url(#p3a8e34f43c)">
     <use xlink:href="#ma3c330b44a" x="70.486868" y="29.990083" style="fill: #1f78b4; stroke: #1f78b4"/>
     <use xlink:href="#ma3c330b44a" x="50.254736" y="172.8" style="fill: #1f78b4; stroke: #1f78b4"/>
     <use xlink:href="#ma3c330b44a" x="70.486868" y="172.8" style="fill: #1f78b4; stroke: #1f78b4"/>
     <use xlink:href="#ma3c330b44a" x="127.113143" y="29.990083" style="fill: #1f78b4; stroke: #1f78b4"/>
     <use xlink:href="#ma3c330b44a" x="104.146939" y="172.8" style="fill: #1f78b4; stroke: #1f78b4"/>
     <use xlink:href="#ma3c330b44a" x="117.088212" y="172.8" style="fill: #1f78b4; stroke: #1f78b4"/>
     <use xlink:href="#ma3c330b44a" x="137.19883" y="172.8" style="fill: #1f78b4; stroke: #1f78b4"/>
     <use xlink:href="#ma3c330b44a" x="157.370205" y="172.8" style="fill: #1f78b4; stroke: #1f78b4"/>
     <use xlink:href="#ma3c330b44a" x="96.673809" y="315.609917" style="fill: #1f78b4; stroke: #1f78b4"/>
     <use xlink:href="#ma3c330b44a" x="192.791626" y="29.990083" style="fill: #1f78b4; stroke: #1f78b4"/>
     <use xlink:href="#ma3c330b44a" x="170.129207" y="172.8" style="fill: #1f78b4; stroke: #1f78b4"/>
     <use xlink:href="#ma3c330b44a" x="182.766695" y="172.8" style="fill: #1f78b4; stroke: #1f78b4"/>
     <use xlink:href="#ma3c330b44a" x="202.816556" y="172.8" style="fill: #1f78b4; stroke: #1f78b4"/>
     <use xlink:href="#ma3c330b44a" x="222.987931" y="172.8" style="fill: #1f78b4; stroke: #1f78b4"/>
     <use xlink:href="#ma3c330b44a" x="162.716835" y="315.609917" style="fill: #1f78b4; stroke: #1f78b4"/>
     <use xlink:href="#ma3c330b44a" x="258.713137" y="29.990083" style="fill: #1f78b4; stroke: #1f78b4"/>
     <use xlink:href="#ma3c330b44a" x="235.989962" y="172.8" style="fill: #1f78b4; stroke: #1f78b4"/>
     <use xlink:href="#ma3c330b44a" x="248.748964" y="172.8" style="fill: #1f78b4; stroke: #1f78b4"/>
     <use xlink:href="#ma3c330b44a" x="268.677311" y="172.8" style="fill: #1f78b4; stroke: #1f78b4"/>
     <use xlink:href="#ma3c330b44a" x="288.787928" y="172.8" style="fill: #1f78b4; stroke: #1f78b4"/>
     <use xlink:href="#ma3c330b44a" x="228.334561" y="315.609917" style="fill: #1f78b4; stroke: #1f78b4"/>
     <use xlink:href="#ma3c330b44a" x="324.877678" y="29.990083" style="fill: #1f78b4; stroke: #1f78b4"/>
     <use xlink:href="#ma3c330b44a" x="301.668445" y="172.8" style="fill: #1f78b4; stroke: #1f78b4"/>
     <use xlink:href="#ma3c330b44a" x="314.670476" y="172.8" style="fill: #1f78b4; stroke: #1f78b4"/>
     <use xlink:href="#ma3c330b44a" x="335.084879" y="172.8" style="fill: #1f78b4; stroke: #1f78b4"/>
     <use xlink:href="#ma3c330b44a" x="355.195497" y="172.8" style="fill: #1f78b4; stroke: #1f78b4"/>
     <use xlink:href="#ma3c330b44a" x="294.438344" y="315.609917" style="fill: #1f78b4; stroke: #1f78b4"/>
     <use xlink:href="#ma3c330b44a" x="314.670476" y="315.609917" style="fill: #1f78b4; stroke: #1f78b4"/>
     <use xlink:href="#ma3c330b44a" x="248.748964" y="315.609917" style="fill: #1f78b4; stroke: #1f78b4"/>
     <use xlink:href="#ma3c330b44a" x="327.672507" y="315.609917" style="fill: #1f78b4; stroke: #1f78b4"/>
     <use xlink:href="#ma3c330b44a" x="182.766695" y="315.609917" style="fill: #1f78b4; stroke: #1f78b4"/>
     <use xlink:href="#ma3c330b44a" x="261.811752" y="315.609917" style="fill: #1f78b4; stroke: #1f78b4"/>
     <use xlink:href="#ma3c330b44a" x="117.088212" y="315.609917" style="fill: #1f78b4; stroke: #1f78b4"/>
     <use xlink:href="#ma3c330b44a" x="195.343426" y="315.609917" style="fill: #1f78b4; stroke: #1f78b4"/>
     <use xlink:href="#ma3c330b44a" x="91.023393" y="172.8" style="fill: #1f78b4; stroke: #1f78b4"/>
     <use xlink:href="#ma3c330b44a" x="130.211758" y="315.609917" style="fill: #1f78b4; stroke: #1f78b4"/>
     <use xlink:href="#ma3c330b44a" x="39.986777" y="315.609917" style="fill: #1f78b4; stroke: #1f78b4"/>
     <use xlink:href="#ma3c330b44a" x="390.677675" y="29.990083" style="fill: #1f78b4; stroke: #1f78b4"/>
     <use xlink:href="#ma3c330b44a" x="367.893742" y="172.8" style="fill: #1f78b4; stroke: #1f78b4"/>
     <use xlink:href="#ma3c330b44a" x="380.713502" y="172.8" style="fill: #1f78b4; stroke: #1f78b4"/>
     <use xlink:href="#ma3c330b44a" x="400.702605" y="172.8" style="fill: #1f78b4; stroke: #1f78b4"/>
     <use xlink:href="#ma3c330b44a" x="420.813223" y="172.8" style="fill: #1f78b4; stroke: #1f78b4"/>
     <use xlink:href="#ma3c330b44a" x="360.724398" y="315.609917" style="fill: #1f78b4; stroke: #1f78b4"/>
     <use xlink:href="#ma3c330b44a" x="380.713502" y="315.609917" style="fill: #1f78b4; stroke: #1f78b4"/>
     <use xlink:href="#ma3c330b44a" x="60.522695" y="315.609917" style="fill: #1f78b4; stroke: #1f78b4"/>
     <use xlink:href="#ma3c330b44a" x="393.35099" y="315.609917" style="fill: #1f78b4; stroke: #1f78b4"/>
    </g>
   </g>
  </g>
 </g>
 <defs>
  <clipPath id="p3a8e34f43c">
   <rect x="0" y="0" width="460.8" height="345.6"/>
  </clipPath>
 </defs>
</svg>
