<?xml version="1.0" encoding="utf-8" standalone="no"?>
<!DOCTYPE svg PUBLIC "-//W3C//DTD SVG 1.1//EN"
  "http://www.w3.org/Graphics/SVG/1.1/DTD/svg11.dtd">
<svg xmlns:xlink="http://www.w3.org/1999/xlink" width="460.8pt" height="345.6pt" viewBox="0 0 460.8 345.6" xmlns="http://www.w3.org/2000/svg" version="1.1">
 <metadata>
  <rdf:RDF xmlns:dc="http://purl.org/dc/elements/1.1/" xmlns:cc="http://creativecommons.org/ns#" xmlns:rdf="http://www.w3.org/1999/02/22-rdf-syntax-ns#">
   <cc:Work>
    <dc:type rdf:resource="http://purl.org/dc/dcmitype/StillImage"/>
    <dc:date>2023-01-18T20:25:47.648632</dc:date>
    <dc:format>image/svg+xml</dc:format>
    <dc:creator>
     <cc:Agent>
      <dc:title>Matplotlib v3.6.2, https://matplotlib.org/</dc:title>
     </cc:Agent>
    </dc:creator>
   </cc:Work>
  </rdf:RDF>
 </metadata>
 <defs>
  <style type="text/css">*{stroke-linejoin: round; stroke-linecap: butt}</style>
 </defs>
 <g id="figure_1">
  <g id="patch_1">
   <path d="M 0 345.6 
L 460.8 345.6 
L 460.8 0 
L 0 0 
z
" style="fill: #ffffff"/>
  </g>
  <g id="axes_1">
   <g id="LineCollection_1">
    <path d="M 392.841635 29.990083 
L 365.019627 58.552066 
" clip-path="url(#pe561c924dc)" style="fill: none; stroke: #000000"/>
    <path d="M 392.841635 29.990083 
L 350.360719 144.238017 
" clip-path="url(#pe561c924dc)" style="fill: none; stroke: #000000"/>
    <path d="M 392.841635 29.990083 
L 420.813223 58.552066 
" clip-path="url(#pe561c924dc)" style="fill: none; stroke: #000000"/>
    <path d="M 365.019627 58.552066 
L 340.039652 87.11405 
" clip-path="url(#pe561c924dc)" style="fill: none; stroke: #ff0000"/>
    <path d="M 340.039652 87.11405 
L 265.847631 115.676033 
" clip-path="url(#pe561c924dc)" style="fill: none; stroke: #000000"/>
    <path d="M 340.039652 87.11405 
L 315.209258 115.676033 
" clip-path="url(#pe561c924dc)" style="fill: none; stroke: #000000"/>
    <path d="M 340.039652 87.11405 
L 364.870046 115.676033 
" clip-path="url(#pe561c924dc)" style="fill: none; stroke: #000000"/>
    <path d="M 265.847631 115.676033 
L 350.360719 144.238017 
" clip-path="url(#pe561c924dc)" style="fill: none; stroke: #ff0000"/>
    <path d="M 265.847631 115.676033 
L 252.235789 144.238017 
" clip-path="url(#pe561c924dc)" style="fill: none; stroke: #000000"/>
    <path d="M 265.847631 115.676033 
L 249.543336 229.923967 
" clip-path="url(#pe561c924dc)" style="fill: none; stroke: #000000"/>
    <path d="M 252.235789 144.238017 
L 227.405395 172.8 
" clip-path="url(#pe561c924dc)" style="fill: none; stroke: #ff0000"/>
    <path d="M 227.405395 172.8 
L 153.518518 201.361983 
" clip-path="url(#pe561c924dc)" style="fill: none; stroke: #000000"/>
    <path d="M 227.405395 172.8 
L 202.575001 201.361983 
" clip-path="url(#pe561c924dc)" style="fill: none; stroke: #000000"/>
    <path d="M 227.405395 172.8 
L 252.086208 201.361983 
" clip-path="url(#pe561c924dc)" style="fill: none; stroke: #000000"/>
    <path d="M 153.518518 201.361983 
L 249.543336 229.923967 
" clip-path="url(#pe561c924dc)" style="fill: none; stroke: #ff0000"/>
    <path d="M 153.518518 201.361983 
L 139.607515 229.923967 
" clip-path="url(#pe561c924dc)" style="fill: none; stroke: #000000"/>
    <path d="M 153.518518 201.361983 
L 165.933715 315.609917 
" clip-path="url(#pe561c924dc)" style="fill: none; stroke: #000000"/>
    <path d="M 139.607515 229.923967 
L 127.341898 258.48595 
" clip-path="url(#pe561c924dc)" style="fill: none; stroke: #ff0000"/>
    <path d="M 127.341898 258.48595 
L 64.817171 287.047934 
" clip-path="url(#pe561c924dc)" style="fill: none; stroke: #000000"/>
    <path d="M 127.341898 258.48595 
L 115.076282 287.047934 
" clip-path="url(#pe561c924dc)" style="fill: none; stroke: #000000"/>
    <path d="M 127.341898 258.48595 
L 164.587489 287.047934 
" clip-path="url(#pe561c924dc)" style="fill: none; stroke: #000000"/>
    <path d="M 64.817171 287.047934 
L 165.933715 315.609917 
" clip-path="url(#pe561c924dc)" style="fill: none; stroke: #ff0000"/>
    <path d="M 64.817171 287.047934 
L 39.986777 315.609917 
" clip-path="url(#pe561c924dc)" style="fill: none; stroke: #000000"/>
    <path d="M 64.817171 287.047934 
L 89.797146 315.609917 
" clip-path="url(#pe561c924dc)" style="fill: none; stroke: #000000"/>
   </g>
   <g id="PathCollection_1">
    <defs>
     <path id="m335edf52d1" d="M 0 8.660254 
C 2.296726 8.660254 4.499694 7.747755 6.123724 6.123724 
C 7.747755 4.499694 8.660254 2.296726 8.660254 0 
C 8.660254 -2.296726 7.747755 -4.499694 6.123724 -6.123724 
C 4.499694 -7.747755 2.296726 -8.660254 0 -8.660254 
C -2.296726 -8.660254 -4.499694 -7.747755 -6.123724 -6.123724 
C -7.747755 -4.499694 -8.660254 -2.296726 -8.660254 0 
C -8.660254 2.296726 -7.747755 4.499694 -6.123724 6.123724 
C -4.499694 7.747755 -2.296726 8.660254 0 8.660254 
z
" style="stroke: #1f78b4"/>
    </defs>
    <g clip-path="url(#pe561c924dc)">
     <use xlink:href="#m335edf52d1" x="392.841635" y="29.990083" style="fill: #1f78b4; stroke: #1f78b4"/>
     <use xlink:href="#m335edf52d1" x="365.019627" y="58.552066" style="fill: #1f78b4; stroke: #1f78b4"/>
     <use xlink:href="#m335edf52d1" x="340.039652" y="87.11405" style="fill: #1f78b4; stroke: #1f78b4"/>
     <use xlink:href="#m335edf52d1" x="265.847631" y="115.676033" style="fill: #1f78b4; stroke: #1f78b4"/>
     <use xlink:href="#m335edf52d1" x="315.209258" y="115.676033" style="fill: #1f78b4; stroke: #1f78b4"/>
     <use xlink:href="#m335edf52d1" x="364.870046" y="115.676033" style="fill: #1f78b4; stroke: #1f78b4"/>
     <use xlink:href="#m335edf52d1" x="350.360719" y="144.238017" style="fill: #1f78b4; stroke: #1f78b4"/>
     <use xlink:href="#m335edf52d1" x="252.235789" y="144.238017" style="fill: #1f78b4; stroke: #1f78b4"/>
     <use xlink:href="#m335edf52d1" x="227.405395" y="172.8" style="fill: #1f78b4; stroke: #1f78b4"/>
     <use xlink:href="#m335edf52d1" x="153.518518" y="201.361983" style="fill: #1f78b4; stroke: #1f78b4"/>
     <use xlink:href="#m335edf52d1" x="202.575001" y="201.361983" style="fill: #1f78b4; stroke: #1f78b4"/>
     <use xlink:href="#m335edf52d1" x="252.086208" y="201.361983" style="fill: #1f78b4; stroke: #1f78b4"/>
     <use xlink:href="#m335edf52d1" x="249.543336" y="229.923967" style="fill: #1f78b4; stroke: #1f78b4"/>
     <use xlink:href="#m335edf52d1" x="139.607515" y="229.923967" style="fill: #1f78b4; stroke: #1f78b4"/>
     <use xlink:href="#m335edf52d1" x="127.341898" y="258.48595" style="fill: #1f78b4; stroke: #1f78b4"/>
     <use xlink:href="#m335edf52d1" x="64.817171" y="287.047934" style="fill: #1f78b4; stroke: #1f78b4"/>
     <use xlink:href="#m335edf52d1" x="115.076282" y="287.047934" style="fill: #1f78b4; stroke: #1f78b4"/>
     <use xlink:href="#m335edf52d1" x="164.587489" y="287.047934" style="fill: #1f78b4; stroke: #1f78b4"/>
     <use xlink:href="#m335edf52d1" x="165.933715" y="315.609917" style="fill: #1f78b4; stroke: #1f78b4"/>
     <use xlink:href="#m335edf52d1" x="39.986777" y="315.609917" style="fill: #1f78b4; stroke: #1f78b4"/>
     <use xlink:href="#m335edf52d1" x="89.797146" y="315.609917" style="fill: #1f78b4; stroke: #1f78b4"/>
     <use xlink:href="#m335edf52d1" x="420.813223" y="58.552066" style="fill: #1f78b4; stroke: #1f78b4"/>
    </g>
   </g>
  </g>
 </g>
 <defs>
  <clipPath id="pe561c924dc">
   <rect x="0" y="0" width="460.8" height="345.6"/>
  </clipPath>
 </defs>
</svg>
