<?xml version="1.0" encoding="utf-8" standalone="no"?>
<!DOCTYPE svg PUBLIC "-//W3C//DTD SVG 1.1//EN"
  "http://www.w3.org/Graphics/SVG/1.1/DTD/svg11.dtd">
<svg xmlns:xlink="http://www.w3.org/1999/xlink" width="460.8pt" height="345.6pt" viewBox="0 0 460.8 345.6" xmlns="http://www.w3.org/2000/svg" version="1.1">
 <metadata>
  <rdf:RDF xmlns:dc="http://purl.org/dc/elements/1.1/" xmlns:cc="http://creativecommons.org/ns#" xmlns:rdf="http://www.w3.org/1999/02/22-rdf-syntax-ns#">
   <cc:Work>
    <dc:type rdf:resource="http://purl.org/dc/dcmitype/StillImage"/>
    <dc:date>2023-01-24T12:39:40.633863</dc:date>
    <dc:format>image/svg+xml</dc:format>
    <dc:creator>
     <cc:Agent>
      <dc:title>Matplotlib v3.6.3, https://matplotlib.org/</dc:title>
     </cc:Agent>
    </dc:creator>
   </cc:Work>
  </rdf:RDF>
 </metadata>
 <defs>
  <style type="text/css">*{stroke-linejoin: round; stroke-linecap: butt}</style>
 </defs>
 <g id="figure_1">
  <g id="patch_1">
   <path d="M 0 345.6 
L 460.8 345.6 
L 460.8 0 
L 0 0 
z
" style="fill: #ffffff"/>
  </g>
  <g id="axes_1">
   <g id="LineCollection_1">
    <path d="M 261.964562 133.86488 
L 251.766746 119.898691 
" clip-path="url(#p5e185b8daf)" style="fill: none; stroke: #000000"/>
    <path d="M 261.964562 133.86488 
L 259.683012 152.25474 
" clip-path="url(#p5e185b8daf)" style="fill: none; stroke: #000000"/>
    <path d="M 251.766746 119.898691 
L 224.237192 84.484071 
" clip-path="url(#p5e185b8daf)" style="fill: none; stroke: #000000"/>
    <path d="M 251.766746 119.898691 
L 279.961202 156.389195 
" clip-path="url(#p5e185b8daf)" style="fill: none; stroke: #000000"/>
    <path d="M 224.237192 84.484071 
L 182.934915 70.357173 
" clip-path="url(#p5e185b8daf)" style="fill: none; stroke: #000000"/>
    <path d="M 224.237192 84.484071 
L 227.525196 52.756119 
" clip-path="url(#p5e185b8daf)" style="fill: none; stroke: #000000"/>
    <path d="M 182.934915 70.357173 
L 151.111925 57.725965 
" clip-path="url(#p5e185b8daf)" style="fill: none; stroke: #000000"/>
    <path d="M 227.525196 52.756119 
L 246.880178 36.018576 
" clip-path="url(#p5e185b8daf)" style="fill: none; stroke: #000000"/>
    <path d="M 227.525196 52.756119 
L 214.621794 29.990083 
" clip-path="url(#p5e185b8daf)" style="fill: none; stroke: #000000"/>
    <path d="M 279.961202 156.389195 
L 299.423593 190.678902 
" clip-path="url(#p5e185b8daf)" style="fill: none; stroke: #000000"/>
    <path d="M 299.423593 190.678902 
L 336.152669 198.500269 
" clip-path="url(#p5e185b8daf)" style="fill: none; stroke: #000000"/>
    <path d="M 299.423593 190.678902 
L 287.350756 221.013782 
" clip-path="url(#p5e185b8daf)" style="fill: none; stroke: #000000"/>
    <path d="M 287.350756 221.013782 
L 254.197723 234.649915 
" clip-path="url(#p5e185b8daf)" style="fill: none; stroke: #000000"/>
    <path d="M 287.350756 221.013782 
L 300.996821 240.796256 
" clip-path="url(#p5e185b8daf)" style="fill: none; stroke: #000000"/>
    <path d="M 259.683012 152.25474 
L 198.414529 189.586488 
" clip-path="url(#p5e185b8daf)" style="fill: none; stroke: #000000"/>
    <path d="M 259.683012 152.25474 
L 327.120456 121.439109 
" clip-path="url(#p5e185b8daf)" style="fill: none; stroke: #000000"/>
    <path d="M 198.414529 189.586488 
L 192.111947 237.758302 
" clip-path="url(#p5e185b8daf)" style="fill: none; stroke: #000000"/>
    <path d="M 198.414529 189.586488 
L 131.32762 179.323463 
" clip-path="url(#p5e185b8daf)" style="fill: none; stroke: #000000"/>
    <path d="M 192.111947 237.758302 
L 148.10821 262.501508 
" clip-path="url(#p5e185b8daf)" style="fill: none; stroke: #000000"/>
    <path d="M 192.111947 237.758302 
L 228.291169 272.161565 
" clip-path="url(#p5e185b8daf)" style="fill: none; stroke: #000000"/>
    <path d="M 148.10821 262.501508 
L 131.412161 283.692364 
" clip-path="url(#p5e185b8daf)" style="fill: none; stroke: #000000"/>
    <path d="M 148.10821 262.501508 
L 111.442321 271.915053 
" clip-path="url(#p5e185b8daf)" style="fill: none; stroke: #000000"/>
    <path d="M 228.291169 272.161565 
L 233.396954 292.196001 
" clip-path="url(#p5e185b8daf)" style="fill: none; stroke: #000000"/>
    <path d="M 228.291169 272.161565 
L 266.332935 296.210116 
" clip-path="url(#p5e185b8daf)" style="fill: none; stroke: #000000"/>
    <path d="M 266.332935 296.210116 
L 290.503285 315.609917 
" clip-path="url(#p5e185b8daf)" style="fill: none; stroke: #000000"/>
    <path d="M 131.32762 179.323463 
L 96.675093 185.031205 
" clip-path="url(#p5e185b8daf)" style="fill: none; stroke: #000000"/>
    <path d="M 131.32762 179.323463 
L 79.727824 167.168782 
" clip-path="url(#p5e185b8daf)" style="fill: none; stroke: #000000"/>
    <path d="M 79.727824 167.168782 
L 39.986777 160.210099 
" clip-path="url(#p5e185b8daf)" style="fill: none; stroke: #000000"/>
    <path d="M 327.120456 121.439109 
L 379.763926 117.64381 
" clip-path="url(#p5e185b8daf)" style="fill: none; stroke: #000000"/>
    <path d="M 327.120456 121.439109 
L 362.842696 89.345994 
" clip-path="url(#p5e185b8daf)" style="fill: none; stroke: #000000"/>
    <path d="M 379.763926 117.64381 
L 420.813223 114.644738 
" clip-path="url(#p5e185b8daf)" style="fill: none; stroke: #000000"/>
    <path d="M 362.842696 89.345994 
L 374.810937 66.393912 
" clip-path="url(#p5e185b8daf)" style="fill: none; stroke: #000000"/>
    <path d="M 362.842696 89.345994 
L 397.689023 75.080311 
" clip-path="url(#p5e185b8daf)" style="fill: none; stroke: #000000"/>
   </g>
   <g id="PathCollection_1">
    <defs>
     <path id="me4af980aaa" d="M 0 8.660254 
C 2.296726 8.660254 4.499694 7.747755 6.123724 6.123724 
C 7.747755 4.499694 8.660254 2.296726 8.660254 0 
C 8.660254 -2.296726 7.747755 -4.499694 6.123724 -6.123724 
C 4.499694 -7.747755 2.296726 -8.660254 0 -8.660254 
C -2.296726 -8.660254 -4.499694 -7.747755 -6.123724 -6.123724 
C -7.747755 -4.499694 -8.660254 -2.296726 -8.660254 0 
C -8.660254 2.296726 -7.747755 4.499694 -6.123724 6.123724 
C -4.499694 7.747755 -2.296726 8.660254 0 8.660254 
z
" style="stroke: #1f78b4"/>
    </defs>
    <g clip-path="url(#p5e185b8daf)">
     <use xlink:href="#me4af980aaa" x="261.964562" y="133.86488" style="fill: #1f78b4; stroke: #1f78b4"/>
     <use xlink:href="#me4af980aaa" x="251.766746" y="119.898691" style="fill: #1f78b4; stroke: #1f78b4"/>
     <use xlink:href="#me4af980aaa" x="224.237192" y="84.484071" style="fill: #1f78b4; stroke: #1f78b4"/>
     <use xlink:href="#me4af980aaa" x="182.934915" y="70.357173" style="fill: #1f78b4; stroke: #1f78b4"/>
     <use xlink:href="#me4af980aaa" x="151.111925" y="57.725965" style="fill: #1f78b4; stroke: #1f78b4"/>
     <use xlink:href="#me4af980aaa" x="227.525196" y="52.756119" style="fill: #1f78b4; stroke: #1f78b4"/>
     <use xlink:href="#me4af980aaa" x="246.880178" y="36.018576" style="fill: #1f78b4; stroke: #1f78b4"/>
     <use xlink:href="#me4af980aaa" x="214.621794" y="29.990083" style="fill: #1f78b4; stroke: #1f78b4"/>
     <use xlink:href="#me4af980aaa" x="279.961202" y="156.389195" style="fill: #1f78b4; stroke: #1f78b4"/>
     <use xlink:href="#me4af980aaa" x="299.423593" y="190.678902" style="fill: #1f78b4; stroke: #1f78b4"/>
     <use xlink:href="#me4af980aaa" x="336.152669" y="198.500269" style="fill: #1f78b4; stroke: #1f78b4"/>
     <use xlink:href="#me4af980aaa" x="287.350756" y="221.013782" style="fill: #1f78b4; stroke: #1f78b4"/>
     <use xlink:href="#me4af980aaa" x="254.197723" y="234.649915" style="fill: #1f78b4; stroke: #1f78b4"/>
     <use xlink:href="#me4af980aaa" x="300.996821" y="240.796256" style="fill: #1f78b4; stroke: #1f78b4"/>
     <use xlink:href="#me4af980aaa" x="259.683012" y="152.25474" style="fill: #1f78b4; stroke: #1f78b4"/>
     <use xlink:href="#me4af980aaa" x="198.414529" y="189.586488" style="fill: #1f78b4; stroke: #1f78b4"/>
     <use xlink:href="#me4af980aaa" x="192.111947" y="237.758302" style="fill: #1f78b4; stroke: #1f78b4"/>
     <use xlink:href="#me4af980aaa" x="148.10821" y="262.501508" style="fill: #1f78b4; stroke: #1f78b4"/>
     <use xlink:href="#me4af980aaa" x="131.412161" y="283.692364" style="fill: #1f78b4; stroke: #1f78b4"/>
     <use xlink:href="#me4af980aaa" x="111.442321" y="271.915053" style="fill: #1f78b4; stroke: #1f78b4"/>
     <use xlink:href="#me4af980aaa" x="228.291169" y="272.161565" style="fill: #1f78b4; stroke: #1f78b4"/>
     <use xlink:href="#me4af980aaa" x="233.396954" y="292.196001" style="fill: #1f78b4; stroke: #1f78b4"/>
     <use xlink:href="#me4af980aaa" x="266.332935" y="296.210116" style="fill: #1f78b4; stroke: #1f78b4"/>
     <use xlink:href="#me4af980aaa" x="290.503285" y="315.609917" style="fill: #1f78b4; stroke: #1f78b4"/>
     <use xlink:href="#me4af980aaa" x="131.32762" y="179.323463" style="fill: #1f78b4; stroke: #1f78b4"/>
     <use xlink:href="#me4af980aaa" x="96.675093" y="185.031205" style="fill: #1f78b4; stroke: #1f78b4"/>
     <use xlink:href="#me4af980aaa" x="79.727824" y="167.168782" style="fill: #1f78b4; stroke: #1f78b4"/>
     <use xlink:href="#me4af980aaa" x="39.986777" y="160.210099" style="fill: #1f78b4; stroke: #1f78b4"/>
     <use xlink:href="#me4af980aaa" x="327.120456" y="121.439109" style="fill: #1f78b4; stroke: #1f78b4"/>
     <use xlink:href="#me4af980aaa" x="379.763926" y="117.64381" style="fill: #1f78b4; stroke: #1f78b4"/>
     <use xlink:href="#me4af980aaa" x="420.813223" y="114.644738" style="fill: #1f78b4; stroke: #1f78b4"/>
     <use xlink:href="#me4af980aaa" x="362.842696" y="89.345994" style="fill: #1f78b4; stroke: #1f78b4"/>
     <use xlink:href="#me4af980aaa" x="374.810937" y="66.393912" style="fill: #1f78b4; stroke: #1f78b4"/>
     <use xlink:href="#me4af980aaa" x="397.689023" y="75.080311" style="fill: #1f78b4; stroke: #1f78b4"/>
    </g>
   </g>
  </g>
 </g>
 <defs>
  <clipPath id="p5e185b8daf">
   <rect x="0" y="0" width="460.8" height="345.6"/>
  </clipPath>
 </defs>
</svg>
