<?xml version="1.0" encoding="utf-8" standalone="no"?>
<!DOCTYPE svg PUBLIC "-//W3C//DTD SVG 1.1//EN"
  "http://www.w3.org/Graphics/SVG/1.1/DTD/svg11.dtd">
<svg xmlns:xlink="http://www.w3.org/1999/xlink" width="460.8pt" height="345.6pt" viewBox="0 0 460.8 345.6" xmlns="http://www.w3.org/2000/svg" version="1.1">
 <metadata>
  <rdf:RDF xmlns:dc="http://purl.org/dc/elements/1.1/" xmlns:cc="http://creativecommons.org/ns#" xmlns:rdf="http://www.w3.org/1999/02/22-rdf-syntax-ns#">
   <cc:Work>
    <dc:type rdf:resource="http://purl.org/dc/dcmitype/StillImage"/>
    <dc:date>2023-01-23T13:42:40.157297</dc:date>
    <dc:format>image/svg+xml</dc:format>
    <dc:creator>
     <cc:Agent>
      <dc:title>Matplotlib v3.6.3, https://matplotlib.org/</dc:title>
     </cc:Agent>
    </dc:creator>
   </cc:Work>
  </rdf:RDF>
 </metadata>
 <defs>
  <style type="text/css">*{stroke-linejoin: round; stroke-linecap: butt}</style>
 </defs>
 <g id="figure_1">
  <g id="patch_1">
   <path d="M 0 345.6 
L 460.8 345.6 
L 460.8 0 
L 0 0 
z
" style="fill: #ffffff"/>
  </g>
  <g id="axes_1">
   <g id="LineCollection_1">
    <path d="M 211.96596 185.692368 
L 234.183329 225.437298 
" clip-path="url(#pb297d074a4)" style="fill: none; stroke: #000000"/>
    <path d="M 211.96596 185.692368 
L 193.819936 144.162276 
" clip-path="url(#pb297d074a4)" style="fill: none; stroke: #000000"/>
    <path d="M 234.183329 225.437298 
L 303.723689 246.175687 
" clip-path="url(#pb297d074a4)" style="fill: none; stroke: #000000"/>
    <path d="M 234.183329 225.437298 
L 187.07319 249.946002 
" clip-path="url(#pb297d074a4)" style="fill: none; stroke: #000000"/>
    <path d="M 303.723689 246.175687 
L 335.962264 269.164153 
" clip-path="url(#pb297d074a4)" style="fill: none; stroke: #000000"/>
    <path d="M 303.723689 246.175687 
L 370.827039 248.829037 
" clip-path="url(#pb297d074a4)" style="fill: none; stroke: #000000"/>
    <path d="M 335.962264 269.164153 
L 360.651363 295.593048 
" clip-path="url(#pb297d074a4)" style="fill: none; stroke: #000000"/>
    <path d="M 335.962264 269.164153 
L 336.718147 247.079534 
" clip-path="url(#pb297d074a4)" style="fill: none; stroke: #000000"/>
    <path d="M 360.651363 295.593048 
L 380.26062 315.609917 
" clip-path="url(#pb297d074a4)" style="fill: none; stroke: #000000"/>
    <path d="M 370.827039 248.829037 
L 420.813223 252.623323 
" clip-path="url(#pb297d074a4)" style="fill: none; stroke: #000000"/>
    <path d="M 187.07319 249.946002 
L 147.050548 271.628021 
" clip-path="url(#pb297d074a4)" style="fill: none; stroke: #000000"/>
    <path d="M 147.050548 271.628021 
L 116.636422 288.711544 
" clip-path="url(#pb297d074a4)" style="fill: none; stroke: #000000"/>
    <path d="M 193.819936 144.162276 
L 159.516506 104.639796 
" clip-path="url(#pb297d074a4)" style="fill: none; stroke: #000000"/>
    <path d="M 193.819936 144.162276 
L 237.554891 145.712633 
" clip-path="url(#pb297d074a4)" style="fill: none; stroke: #000000"/>
    <path d="M 159.516506 104.639796 
L 90.573878 91.682408 
" clip-path="url(#pb297d074a4)" style="fill: none; stroke: #000000"/>
    <path d="M 159.516506 104.639796 
L 188.944761 71.836167 
" clip-path="url(#pb297d074a4)" style="fill: none; stroke: #000000"/>
    <path d="M 90.573878 91.682408 
L 39.986777 90.450347 
" clip-path="url(#pb297d074a4)" style="fill: none; stroke: #000000"/>
    <path d="M 90.573878 91.682408 
L 56.363996 75.134945 
" clip-path="url(#pb297d074a4)" style="fill: none; stroke: #000000"/>
    <path d="M 188.944761 71.836167 
L 169.746235 52.439657 
" clip-path="url(#pb297d074a4)" style="fill: none; stroke: #000000"/>
    <path d="M 188.944761 71.836167 
L 237.531425 50.882522 
" clip-path="url(#pb297d074a4)" style="fill: none; stroke: #000000"/>
    <path d="M 237.531425 50.882522 
L 251.625498 29.990083 
" clip-path="url(#pb297d074a4)" style="fill: none; stroke: #000000"/>
    <path d="M 237.531425 50.882522 
L 283.769574 50.936919 
" clip-path="url(#pb297d074a4)" style="fill: none; stroke: #000000"/>
    <path d="M 237.554891 145.712633 
L 178.425765 155.412088 
" clip-path="url(#pb297d074a4)" style="fill: none; stroke: #000000"/>
    <path d="M 237.554891 145.712633 
L 306.926228 138.867755 
" clip-path="url(#pb297d074a4)" style="fill: none; stroke: #000000"/>
    <path d="M 178.425765 155.412088 
L 129.626491 160.538289 
" clip-path="url(#pb297d074a4)" style="fill: none; stroke: #000000"/>
    <path d="M 306.926228 138.867755 
L 344.597887 125.605451 
" clip-path="url(#pb297d074a4)" style="fill: none; stroke: #000000"/>
    <path d="M 306.926228 138.867755 
L 355.129897 141.562206 
" clip-path="url(#pb297d074a4)" style="fill: none; stroke: #000000"/>
   </g>
   <g id="PathCollection_1">
    <defs>
     <path id="ma19c7065e6" d="M 0 8.660254 
C 2.296726 8.660254 4.499694 7.747755 6.123724 6.123724 
C 7.747755 4.499694 8.660254 2.296726 8.660254 0 
C 8.660254 -2.296726 7.747755 -4.499694 6.123724 -6.123724 
C 4.499694 -7.747755 2.296726 -8.660254 0 -8.660254 
C -2.296726 -8.660254 -4.499694 -7.747755 -6.123724 -6.123724 
C -7.747755 -4.499694 -8.660254 -2.296726 -8.660254 0 
C -8.660254 2.296726 -7.747755 4.499694 -6.123724 6.123724 
C -4.499694 7.747755 -2.296726 8.660254 0 8.660254 
z
" style="stroke: #1f78b4"/>
    </defs>
    <g clip-path="url(#pb297d074a4)">
     <use xlink:href="#ma19c7065e6" x="211.96596" y="185.692368" style="fill: #1f78b4; stroke: #1f78b4"/>
     <use xlink:href="#ma19c7065e6" x="234.183329" y="225.437298" style="fill: #1f78b4; stroke: #1f78b4"/>
     <use xlink:href="#ma19c7065e6" x="303.723689" y="246.175687" style="fill: #1f78b4; stroke: #1f78b4"/>
     <use xlink:href="#ma19c7065e6" x="335.962264" y="269.164153" style="fill: #1f78b4; stroke: #1f78b4"/>
     <use xlink:href="#ma19c7065e6" x="360.651363" y="295.593048" style="fill: #1f78b4; stroke: #1f78b4"/>
     <use xlink:href="#ma19c7065e6" x="380.26062" y="315.609917" style="fill: #1f78b4; stroke: #1f78b4"/>
     <use xlink:href="#ma19c7065e6" x="336.718147" y="247.079534" style="fill: #1f78b4; stroke: #1f78b4"/>
     <use xlink:href="#ma19c7065e6" x="370.827039" y="248.829037" style="fill: #1f78b4; stroke: #1f78b4"/>
     <use xlink:href="#ma19c7065e6" x="420.813223" y="252.623323" style="fill: #1f78b4; stroke: #1f78b4"/>
     <use xlink:href="#ma19c7065e6" x="187.07319" y="249.946002" style="fill: #1f78b4; stroke: #1f78b4"/>
     <use xlink:href="#ma19c7065e6" x="147.050548" y="271.628021" style="fill: #1f78b4; stroke: #1f78b4"/>
     <use xlink:href="#ma19c7065e6" x="116.636422" y="288.711544" style="fill: #1f78b4; stroke: #1f78b4"/>
     <use xlink:href="#ma19c7065e6" x="193.819936" y="144.162276" style="fill: #1f78b4; stroke: #1f78b4"/>
     <use xlink:href="#ma19c7065e6" x="159.516506" y="104.639796" style="fill: #1f78b4; stroke: #1f78b4"/>
     <use xlink:href="#ma19c7065e6" x="90.573878" y="91.682408" style="fill: #1f78b4; stroke: #1f78b4"/>
     <use xlink:href="#ma19c7065e6" x="39.986777" y="90.450347" style="fill: #1f78b4; stroke: #1f78b4"/>
     <use xlink:href="#ma19c7065e6" x="56.363996" y="75.134945" style="fill: #1f78b4; stroke: #1f78b4"/>
     <use xlink:href="#ma19c7065e6" x="188.944761" y="71.836167" style="fill: #1f78b4; stroke: #1f78b4"/>
     <use xlink:href="#ma19c7065e6" x="169.746235" y="52.439657" style="fill: #1f78b4; stroke: #1f78b4"/>
     <use xlink:href="#ma19c7065e6" x="237.531425" y="50.882522" style="fill: #1f78b4; stroke: #1f78b4"/>
     <use xlink:href="#ma19c7065e6" x="251.625498" y="29.990083" style="fill: #1f78b4; stroke: #1f78b4"/>
     <use xlink:href="#ma19c7065e6" x="283.769574" y="50.936919" style="fill: #1f78b4; stroke: #1f78b4"/>
     <use xlink:href="#ma19c7065e6" x="237.554891" y="145.712633" style="fill: #1f78b4; stroke: #1f78b4"/>
     <use xlink:href="#ma19c7065e6" x="178.425765" y="155.412088" style="fill: #1f78b4; stroke: #1f78b4"/>
     <use xlink:href="#ma19c7065e6" x="129.626491" y="160.538289" style="fill: #1f78b4; stroke: #1f78b4"/>
     <use xlink:href="#ma19c7065e6" x="306.926228" y="138.867755" style="fill: #1f78b4; stroke: #1f78b4"/>
     <use xlink:href="#ma19c7065e6" x="344.597887" y="125.605451" style="fill: #1f78b4; stroke: #1f78b4"/>
     <use xlink:href="#ma19c7065e6" x="355.129897" y="141.562206" style="fill: #1f78b4; stroke: #1f78b4"/>
    </g>
   </g>
  </g>
 </g>
 <defs>
  <clipPath id="pb297d074a4">
   <rect x="0" y="0" width="460.8" height="345.6"/>
  </clipPath>
 </defs>
</svg>
