<?xml version="1.0" encoding="utf-8" standalone="no"?>
<!DOCTYPE svg PUBLIC "-//W3C//DTD SVG 1.1//EN"
  "http://www.w3.org/Graphics/SVG/1.1/DTD/svg11.dtd">
<svg xmlns:xlink="http://www.w3.org/1999/xlink" width="460.8pt" height="345.6pt" viewBox="0 0 460.8 345.6" xmlns="http://www.w3.org/2000/svg" version="1.1">
 <metadata>
  <rdf:RDF xmlns:dc="http://purl.org/dc/elements/1.1/" xmlns:cc="http://creativecommons.org/ns#" xmlns:rdf="http://www.w3.org/1999/02/22-rdf-syntax-ns#">
   <cc:Work>
    <dc:type rdf:resource="http://purl.org/dc/dcmitype/StillImage"/>
    <dc:date>2022-12-22T12:54:13.251752</dc:date>
    <dc:format>image/svg+xml</dc:format>
    <dc:creator>
     <cc:Agent>
      <dc:title>Matplotlib v3.6.2, https://matplotlib.org/</dc:title>
     </cc:Agent>
    </dc:creator>
   </cc:Work>
  </rdf:RDF>
 </metadata>
 <defs>
  <style type="text/css">*{stroke-linejoin: round; stroke-linecap: butt}</style>
 </defs>
 <g id="figure_1">
  <g id="patch_1">
   <path d="M 0 345.6 
L 460.8 345.6 
L 460.8 0 
L 0 0 
z
" style="fill: #ffffff"/>
  </g>
  <g id="axes_1">
   <g id="LineCollection_1">
    <path d="M 205.322196 29.990083 
L 142.602511 77.593388 
" clip-path="url(#p3694abf9c8)" style="fill: none; stroke: #000000"/>
    <path d="M 205.322196 29.990083 
L 276.960735 77.593388 
" clip-path="url(#p3694abf9c8)" style="fill: none; stroke: #000000"/>
    <path d="M 142.602511 77.593388 
L 95.322034 125.196694 
" clip-path="url(#p3694abf9c8)" style="fill: none; stroke: #000000"/>
    <path d="M 142.602511 77.593388 
L 142.602511 125.196694 
" clip-path="url(#p3694abf9c8)" style="fill: none; stroke: #000000"/>
    <path d="M 95.322034 125.196694 
L 47.850713 172.8 
" clip-path="url(#p3694abf9c8)" style="fill: none; stroke: #000000"/>
    <path d="M 95.322034 125.196694 
L 95.322034 172.8 
" clip-path="url(#p3694abf9c8)" style="fill: none; stroke: #000000"/>
    <path d="M 47.850713 172.8 
L 39.986777 220.403306 
" clip-path="url(#p3694abf9c8)" style="fill: none; stroke: #000000"/>
    <path d="M 95.322034 172.8 
L 71.538423 220.403306 
" clip-path="url(#p3694abf9c8)" style="fill: none; stroke: #000000"/>
    <path d="M 95.322034 172.8 
L 103.18597 220.403306 
" clip-path="url(#p3694abf9c8)" style="fill: none; stroke: #000000"/>
    <path d="M 142.602511 125.196694 
L 142.602511 172.8 
" clip-path="url(#p3694abf9c8)" style="fill: none; stroke: #000000"/>
    <path d="M 142.602511 172.8 
L 134.546771 220.403306 
" clip-path="url(#p3694abf9c8)" style="fill: none; stroke: #000000"/>
    <path d="M 142.602511 172.8 
L 165.523007 220.403306 
" clip-path="url(#p3694abf9c8)" style="fill: none; stroke: #000000"/>
    <path d="M 165.523007 220.403306 
L 133.971362 268.006612 
" clip-path="url(#p3694abf9c8)" style="fill: none; stroke: #000000"/>
    <path d="M 165.523007 220.403306 
L 165.523007 268.006612 
" clip-path="url(#p3694abf9c8)" style="fill: none; stroke: #000000"/>
    <path d="M 276.960735 77.593388 
L 276.960735 125.196694 
" clip-path="url(#p3694abf9c8)" style="fill: none; stroke: #000000"/>
    <path d="M 276.960735 77.593388 
L 356.559112 125.196694 
" clip-path="url(#p3694abf9c8)" style="fill: none; stroke: #000000"/>
    <path d="M 276.960735 125.196694 
L 260.945158 172.8 
" clip-path="url(#p3694abf9c8)" style="fill: none; stroke: #000000"/>
    <path d="M 276.960735 125.196694 
L 293.072214 172.8 
" clip-path="url(#p3694abf9c8)" style="fill: none; stroke: #000000"/>
    <path d="M 260.945158 172.8 
L 228.818102 220.403306 
" clip-path="url(#p3694abf9c8)" style="fill: none; stroke: #000000"/>
    <path d="M 260.945158 172.8 
L 260.945158 220.403306 
" clip-path="url(#p3694abf9c8)" style="fill: none; stroke: #000000"/>
    <path d="M 228.818102 220.403306 
L 196.88285 268.006612 
" clip-path="url(#p3694abf9c8)" style="fill: none; stroke: #000000"/>
    <path d="M 228.818102 220.403306 
L 228.818102 268.006612 
" clip-path="url(#p3694abf9c8)" style="fill: none; stroke: #000000"/>
    <path d="M 260.945158 220.403306 
L 261.04106 268.006612 
" clip-path="url(#p3694abf9c8)" style="fill: none; stroke: #000000"/>
    <path d="M 260.945158 220.403306 
L 292.976312 268.006612 
" clip-path="url(#p3694abf9c8)" style="fill: none; stroke: #000000"/>
    <path d="M 292.976312 268.006612 
L 292.976312 315.609917 
" clip-path="url(#p3694abf9c8)" style="fill: none; stroke: #000000"/>
    <path d="M 293.072214 172.8 
L 293.072214 220.403306 
" clip-path="url(#p3694abf9c8)" style="fill: none; stroke: #000000"/>
    <path d="M 293.072214 172.8 
L 324.815663 220.403306 
" clip-path="url(#p3694abf9c8)" style="fill: none; stroke: #000000"/>
    <path d="M 324.815663 220.403306 
L 324.815663 268.006612 
" clip-path="url(#p3694abf9c8)" style="fill: none; stroke: #000000"/>
    <path d="M 356.559112 125.196694 
L 356.559112 172.8 
" clip-path="url(#p3694abf9c8)" style="fill: none; stroke: #000000"/>
    <path d="M 356.559112 125.196694 
L 388.782069 172.8 
" clip-path="url(#p3694abf9c8)" style="fill: none; stroke: #000000"/>
    <path d="M 356.559112 172.8 
L 356.559112 220.403306 
" clip-path="url(#p3694abf9c8)" style="fill: none; stroke: #000000"/>
    <path d="M 388.782069 172.8 
L 388.782069 220.403306 
" clip-path="url(#p3694abf9c8)" style="fill: none; stroke: #000000"/>
    <path d="M 388.782069 172.8 
L 420.813223 220.403306 
" clip-path="url(#p3694abf9c8)" style="fill: none; stroke: #000000"/>
   </g>
   <g id="PathCollection_1">
    <defs>
     <path id="m9b46e1bc5e" d="M 0 8.660254 
C 2.296726 8.660254 4.499694 7.747755 6.123724 6.123724 
C 7.747755 4.499694 8.660254 2.296726 8.660254 0 
C 8.660254 -2.296726 7.747755 -4.499694 6.123724 -6.123724 
C 4.499694 -7.747755 2.296726 -8.660254 0 -8.660254 
C -2.296726 -8.660254 -4.499694 -7.747755 -6.123724 -6.123724 
C -7.747755 -4.499694 -8.660254 -2.296726 -8.660254 0 
C -8.660254 2.296726 -7.747755 4.499694 -6.123724 6.123724 
C -4.499694 7.747755 -2.296726 8.660254 0 8.660254 
z
" style="stroke: #1f78b4"/>
    </defs>
    <g clip-path="url(#p3694abf9c8)">
     <use xlink:href="#m9b46e1bc5e" x="205.322196" y="29.990083" style="fill: #1f78b4; stroke: #1f78b4"/>
     <use xlink:href="#m9b46e1bc5e" x="142.602511" y="77.593388" style="fill: #1f78b4; stroke: #1f78b4"/>
     <use xlink:href="#m9b46e1bc5e" x="95.322034" y="125.196694" style="fill: #1f78b4; stroke: #1f78b4"/>
     <use xlink:href="#m9b46e1bc5e" x="47.850713" y="172.8" style="fill: #1f78b4; stroke: #1f78b4"/>
     <use xlink:href="#m9b46e1bc5e" x="39.986777" y="220.403306" style="fill: #1f78b4; stroke: #1f78b4"/>
     <use xlink:href="#m9b46e1bc5e" x="95.322034" y="172.8" style="fill: #1f78b4; stroke: #1f78b4"/>
     <use xlink:href="#m9b46e1bc5e" x="71.538423" y="220.403306" style="fill: #1f78b4; stroke: #1f78b4"/>
     <use xlink:href="#m9b46e1bc5e" x="103.18597" y="220.403306" style="fill: #1f78b4; stroke: #1f78b4"/>
     <use xlink:href="#m9b46e1bc5e" x="142.602511" y="125.196694" style="fill: #1f78b4; stroke: #1f78b4"/>
     <use xlink:href="#m9b46e1bc5e" x="142.602511" y="172.8" style="fill: #1f78b4; stroke: #1f78b4"/>
     <use xlink:href="#m9b46e1bc5e" x="134.546771" y="220.403306" style="fill: #1f78b4; stroke: #1f78b4"/>
     <use xlink:href="#m9b46e1bc5e" x="165.523007" y="220.403306" style="fill: #1f78b4; stroke: #1f78b4"/>
     <use xlink:href="#m9b46e1bc5e" x="133.971362" y="268.006612" style="fill: #1f78b4; stroke: #1f78b4"/>
     <use xlink:href="#m9b46e1bc5e" x="165.523007" y="268.006612" style="fill: #1f78b4; stroke: #1f78b4"/>
     <use xlink:href="#m9b46e1bc5e" x="276.960735" y="77.593388" style="fill: #1f78b4; stroke: #1f78b4"/>
     <use xlink:href="#m9b46e1bc5e" x="276.960735" y="125.196694" style="fill: #1f78b4; stroke: #1f78b4"/>
     <use xlink:href="#m9b46e1bc5e" x="260.945158" y="172.8" style="fill: #1f78b4; stroke: #1f78b4"/>
     <use xlink:href="#m9b46e1bc5e" x="228.818102" y="220.403306" style="fill: #1f78b4; stroke: #1f78b4"/>
     <use xlink:href="#m9b46e1bc5e" x="196.88285" y="268.006612" style="fill: #1f78b4; stroke: #1f78b4"/>
     <use xlink:href="#m9b46e1bc5e" x="228.818102" y="268.006612" style="fill: #1f78b4; stroke: #1f78b4"/>
     <use xlink:href="#m9b46e1bc5e" x="260.945158" y="220.403306" style="fill: #1f78b4; stroke: #1f78b4"/>
     <use xlink:href="#m9b46e1bc5e" x="261.04106" y="268.006612" style="fill: #1f78b4; stroke: #1f78b4"/>
     <use xlink:href="#m9b46e1bc5e" x="292.976312" y="268.006612" style="fill: #1f78b4; stroke: #1f78b4"/>
     <use xlink:href="#m9b46e1bc5e" x="292.976312" y="315.609917" style="fill: #1f78b4; stroke: #1f78b4"/>
     <use xlink:href="#m9b46e1bc5e" x="293.072214" y="172.8" style="fill: #1f78b4; stroke: #1f78b4"/>
     <use xlink:href="#m9b46e1bc5e" x="293.072214" y="220.403306" style="fill: #1f78b4; stroke: #1f78b4"/>
     <use xlink:href="#m9b46e1bc5e" x="324.815663" y="220.403306" style="fill: #1f78b4; stroke: #1f78b4"/>
     <use xlink:href="#m9b46e1bc5e" x="324.815663" y="268.006612" style="fill: #1f78b4; stroke: #1f78b4"/>
     <use xlink:href="#m9b46e1bc5e" x="356.559112" y="125.196694" style="fill: #1f78b4; stroke: #1f78b4"/>
     <use xlink:href="#m9b46e1bc5e" x="356.559112" y="172.8" style="fill: #1f78b4; stroke: #1f78b4"/>
     <use xlink:href="#m9b46e1bc5e" x="356.559112" y="220.403306" style="fill: #1f78b4; stroke: #1f78b4"/>
     <use xlink:href="#m9b46e1bc5e" x="388.782069" y="172.8" style="fill: #1f78b4; stroke: #1f78b4"/>
     <use xlink:href="#m9b46e1bc5e" x="388.782069" y="220.403306" style="fill: #1f78b4; stroke: #1f78b4"/>
     <use xlink:href="#m9b46e1bc5e" x="420.813223" y="220.403306" style="fill: #1f78b4; stroke: #1f78b4"/>
    </g>
   </g>
  </g>
 </g>
 <defs>
  <clipPath id="p3694abf9c8">
   <rect x="0" y="0" width="460.8" height="345.6"/>
  </clipPath>
 </defs>
</svg>
