<?xml version="1.0" encoding="utf-8" standalone="no"?>
<!DOCTYPE svg PUBLIC "-//W3C//DTD SVG 1.1//EN"
  "http://www.w3.org/Graphics/SVG/1.1/DTD/svg11.dtd">
<svg xmlns:xlink="http://www.w3.org/1999/xlink" width="460.8pt" height="345.6pt" viewBox="0 0 460.8 345.6" xmlns="http://www.w3.org/2000/svg" version="1.1">
 <metadata>
  <rdf:RDF xmlns:dc="http://purl.org/dc/elements/1.1/" xmlns:cc="http://creativecommons.org/ns#" xmlns:rdf="http://www.w3.org/1999/02/22-rdf-syntax-ns#">
   <cc:Work>
    <dc:type rdf:resource="http://purl.org/dc/dcmitype/StillImage"/>
    <dc:date>2022-12-22T12:36:28.972264</dc:date>
    <dc:format>image/svg+xml</dc:format>
    <dc:creator>
     <cc:Agent>
      <dc:title>Matplotlib v3.6.2, https://matplotlib.org/</dc:title>
     </cc:Agent>
    </dc:creator>
   </cc:Work>
  </rdf:RDF>
 </metadata>
 <defs>
  <style type="text/css">*{stroke-linejoin: round; stroke-linecap: butt}</style>
 </defs>
 <g id="figure_1">
  <g id="patch_1">
   <path d="M 0 345.6 
L 460.8 345.6 
L 460.8 0 
L 0 0 
z
" style="fill: #ffffff"/>
  </g>
  <g id="axes_1">
   <g id="LineCollection_1">
    <path d="M 192.499092 29.990083 
L 155.055948 101.395041 
" clip-path="url(#p1193fed656)" style="fill: none; stroke: #000000"/>
    <path d="M 192.499092 29.990083 
L 230.398858 101.395041 
" clip-path="url(#p1193fed656)" style="fill: none; stroke: #000000"/>
    <path d="M 155.055948 101.395041 
L 116.242934 172.8 
" clip-path="url(#p1193fed656)" style="fill: none; stroke: #000000"/>
    <path d="M 116.242934 172.8 
L 39.986777 244.204959 
" clip-path="url(#p1193fed656)" style="fill: none; stroke: #000000"/>
    <path d="M 116.242934 172.8 
L 116.242934 244.204959 
" clip-path="url(#p1193fed656)" style="fill: none; stroke: #000000"/>
    <path d="M 39.986777 244.204959 
L 39.986777 315.609917 
" clip-path="url(#p1193fed656)" style="fill: none; stroke: #000000"/>
    <path d="M 116.242934 244.204959 
L 115.329687 315.609917 
" clip-path="url(#p1193fed656)" style="fill: none; stroke: #000000"/>
    <path d="M 116.242934 244.204959 
L 190.215973 315.609917 
" clip-path="url(#p1193fed656)" style="fill: none; stroke: #000000"/>
    <path d="M 230.398858 101.395041 
L 230.398858 172.8 
" clip-path="url(#p1193fed656)" style="fill: none; stroke: #000000"/>
    <path d="M 230.398858 101.395041 
L 345.013689 172.8 
" clip-path="url(#p1193fed656)" style="fill: none; stroke: #000000"/>
    <path d="M 230.398858 172.8 
L 192.27078 244.204959 
" clip-path="url(#p1193fed656)" style="fill: none; stroke: #000000"/>
    <path d="M 230.398858 172.8 
L 268.757532 244.204959 
" clip-path="url(#p1193fed656)" style="fill: none; stroke: #000000"/>
    <path d="M 268.757532 244.204959 
L 268.757532 315.609917 
" clip-path="url(#p1193fed656)" style="fill: none; stroke: #000000"/>
    <path d="M 345.013689 172.8 
L 345.013689 244.204959 
" clip-path="url(#p1193fed656)" style="fill: none; stroke: #000000"/>
    <path d="M 345.013689 172.8 
L 420.813223 244.204959 
" clip-path="url(#p1193fed656)" style="fill: none; stroke: #000000"/>
   </g>
   <g id="PathCollection_1">
    <defs>
     <path id="mbf11719ca7" d="M 0 8.660254 
C 2.296726 8.660254 4.499694 7.747755 6.123724 6.123724 
C 7.747755 4.499694 8.660254 2.296726 8.660254 0 
C 8.660254 -2.296726 7.747755 -4.499694 6.123724 -6.123724 
C 4.499694 -7.747755 2.296726 -8.660254 0 -8.660254 
C -2.296726 -8.660254 -4.499694 -7.747755 -6.123724 -6.123724 
C -7.747755 -4.499694 -8.660254 -2.296726 -8.660254 0 
C -8.660254 2.296726 -7.747755 4.499694 -6.123724 6.123724 
C -4.499694 7.747755 -2.296726 8.660254 0 8.660254 
z
" style="stroke: #1f78b4"/>
    </defs>
    <g clip-path="url(#p1193fed656)">
     <use xlink:href="#mbf11719ca7" x="192.499092" y="29.990083" style="fill: #1f78b4; stroke: #1f78b4"/>
     <use xlink:href="#mbf11719ca7" x="155.055948" y="101.395041" style="fill: #1f78b4; stroke: #1f78b4"/>
     <use xlink:href="#mbf11719ca7" x="116.242934" y="172.8" style="fill: #1f78b4; stroke: #1f78b4"/>
     <use xlink:href="#mbf11719ca7" x="39.986777" y="244.204959" style="fill: #1f78b4; stroke: #1f78b4"/>
     <use xlink:href="#mbf11719ca7" x="39.986777" y="315.609917" style="fill: #1f78b4; stroke: #1f78b4"/>
     <use xlink:href="#mbf11719ca7" x="116.242934" y="244.204959" style="fill: #1f78b4; stroke: #1f78b4"/>
     <use xlink:href="#mbf11719ca7" x="115.329687" y="315.609917" style="fill: #1f78b4; stroke: #1f78b4"/>
     <use xlink:href="#mbf11719ca7" x="190.215973" y="315.609917" style="fill: #1f78b4; stroke: #1f78b4"/>
     <use xlink:href="#mbf11719ca7" x="230.398858" y="101.395041" style="fill: #1f78b4; stroke: #1f78b4"/>
     <use xlink:href="#mbf11719ca7" x="230.398858" y="172.8" style="fill: #1f78b4; stroke: #1f78b4"/>
     <use xlink:href="#mbf11719ca7" x="192.27078" y="244.204959" style="fill: #1f78b4; stroke: #1f78b4"/>
     <use xlink:href="#mbf11719ca7" x="268.757532" y="244.204959" style="fill: #1f78b4; stroke: #1f78b4"/>
     <use xlink:href="#mbf11719ca7" x="268.757532" y="315.609917" style="fill: #1f78b4; stroke: #1f78b4"/>
     <use xlink:href="#mbf11719ca7" x="345.013689" y="172.8" style="fill: #1f78b4; stroke: #1f78b4"/>
     <use xlink:href="#mbf11719ca7" x="345.013689" y="244.204959" style="fill: #1f78b4; stroke: #1f78b4"/>
     <use xlink:href="#mbf11719ca7" x="420.813223" y="244.204959" style="fill: #1f78b4; stroke: #1f78b4"/>
    </g>
   </g>
  </g>
 </g>
 <defs>
  <clipPath id="p1193fed656">
   <rect x="0" y="0" width="460.8" height="345.6"/>
  </clipPath>
 </defs>
</svg>
