<?xml version="1.0" encoding="utf-8" standalone="no"?>
<!DOCTYPE svg PUBLIC "-//W3C//DTD SVG 1.1//EN"
  "http://www.w3.org/Graphics/SVG/1.1/DTD/svg11.dtd">
<svg xmlns:xlink="http://www.w3.org/1999/xlink" width="460.8pt" height="345.6pt" viewBox="0 0 460.8 345.6" xmlns="http://www.w3.org/2000/svg" version="1.1">
 <metadata>
  <rdf:RDF xmlns:dc="http://purl.org/dc/elements/1.1/" xmlns:cc="http://creativecommons.org/ns#" xmlns:rdf="http://www.w3.org/1999/02/22-rdf-syntax-ns#">
   <cc:Work>
    <dc:type rdf:resource="http://purl.org/dc/dcmitype/StillImage"/>
    <dc:date>2022-12-19T18:37:25.525407</dc:date>
    <dc:format>image/svg+xml</dc:format>
    <dc:creator>
     <cc:Agent>
      <dc:title>Matplotlib v3.6.2, https://matplotlib.org/</dc:title>
     </cc:Agent>
    </dc:creator>
   </cc:Work>
  </rdf:RDF>
 </metadata>
 <defs>
  <style type="text/css">*{stroke-linejoin: round; stroke-linecap: butt}</style>
 </defs>
 <g id="figure_1">
  <g id="patch_1">
   <path d="M 0 345.6 
L 460.8 345.6 
L 460.8 0 
L 0 0 
z
" style="fill: #ffffff"/>
  </g>
  <g id="axes_1">
   <g id="LineCollection_1">
    <path d="M 145.17402 29.990083 
L 102.945565 87.11405 
" clip-path="url(#p2939db9b55)" style="fill: none; stroke: #000000"/>
    <path d="M 145.17402 29.990083 
L 187.658405 87.11405 
" clip-path="url(#p2939db9b55)" style="fill: none; stroke: #000000"/>
    <path d="M 102.945565 87.11405 
L 187.402475 144.238017 
" clip-path="url(#p2939db9b55)" style="fill: none; stroke: #000000"/>
    <path d="M 102.945565 87.11405 
L 102.945565 144.238017 
" clip-path="url(#p2939db9b55)" style="fill: none; stroke: #000000"/>
    <path d="M 271.094155 87.11405 
L 187.402475 144.238017 
" clip-path="url(#p2939db9b55)" style="fill: none; stroke: #000000"/>
    <path d="M 271.094155 87.11405 
L 271.350085 144.238017 
" clip-path="url(#p2939db9b55)" style="fill: none; stroke: #000000"/>
    <path d="M 102.945565 144.238017 
L 39.986777 201.361983 
" clip-path="url(#p2939db9b55)" style="fill: none; stroke: #000000"/>
    <path d="M 102.945565 144.238017 
L 123.931827 201.361983 
" clip-path="url(#p2939db9b55)" style="fill: none; stroke: #000000"/>
    <path d="M 271.350085 144.238017 
L 250.361263 201.361983 
" clip-path="url(#p2939db9b55)" style="fill: none; stroke: #000000"/>
    <path d="M 271.350085 144.238017 
L 335.844453 201.361983 
" clip-path="url(#p2939db9b55)" style="fill: none; stroke: #000000"/>
    <path d="M 250.361263 201.361983 
L 164.624702 258.48595 
" clip-path="url(#p2939db9b55)" style="fill: none; stroke: #000000"/>
    <path d="M 250.361263 201.361983 
L 250.361263 258.48595 
" clip-path="url(#p2939db9b55)" style="fill: none; stroke: #000000"/>
    <path d="M 250.361263 258.48595 
L 250.361263 315.609917 
" clip-path="url(#p2939db9b55)" style="fill: none; stroke: #000000"/>
    <path d="M 335.844453 201.361983 
L 335.844453 258.48595 
" clip-path="url(#p2939db9b55)" style="fill: none; stroke: #000000"/>
    <path d="M 335.844453 201.361983 
L 420.813223 258.48595 
" clip-path="url(#p2939db9b55)" style="fill: none; stroke: #000000"/>
   </g>
   <g id="PathCollection_1">
    <defs>
     <path id="m6eb60a3380" d="M 0 8.660254 
C 2.296726 8.660254 4.499694 7.747755 6.123724 6.123724 
C 7.747755 4.499694 8.660254 2.296726 8.660254 0 
C 8.660254 -2.296726 7.747755 -4.499694 6.123724 -6.123724 
C 4.499694 -7.747755 2.296726 -8.660254 0 -8.660254 
C -2.296726 -8.660254 -4.499694 -7.747755 -6.123724 -6.123724 
C -7.747755 -4.499694 -8.660254 -2.296726 -8.660254 0 
C -8.660254 2.296726 -7.747755 4.499694 -6.123724 6.123724 
C -4.499694 7.747755 -2.296726 8.660254 0 8.660254 
z
" style="stroke: #1f78b4"/>
    </defs>
    <g clip-path="url(#p2939db9b55)">
     <use xlink:href="#m6eb60a3380" x="145.17402" y="29.990083" style="fill: #1f78b4; stroke: #1f78b4"/>
     <use xlink:href="#m6eb60a3380" x="102.945565" y="87.11405" style="fill: #1f78b4; stroke: #1f78b4"/>
     <use xlink:href="#m6eb60a3380" x="271.094155" y="87.11405" style="fill: #1f78b4; stroke: #1f78b4"/>
     <use xlink:href="#m6eb60a3380" x="187.402475" y="144.238017" style="fill: #1f78b4; stroke: #1f78b4"/>
     <use xlink:href="#m6eb60a3380" x="187.658405" y="87.11405" style="fill: #1f78b4; stroke: #1f78b4"/>
     <use xlink:href="#m6eb60a3380" x="102.945565" y="144.238017" style="fill: #1f78b4; stroke: #1f78b4"/>
     <use xlink:href="#m6eb60a3380" x="39.986777" y="201.361983" style="fill: #1f78b4; stroke: #1f78b4"/>
     <use xlink:href="#m6eb60a3380" x="123.931827" y="201.361983" style="fill: #1f78b4; stroke: #1f78b4"/>
     <use xlink:href="#m6eb60a3380" x="271.350085" y="144.238017" style="fill: #1f78b4; stroke: #1f78b4"/>
     <use xlink:href="#m6eb60a3380" x="250.361263" y="201.361983" style="fill: #1f78b4; stroke: #1f78b4"/>
     <use xlink:href="#m6eb60a3380" x="164.624702" y="258.48595" style="fill: #1f78b4; stroke: #1f78b4"/>
     <use xlink:href="#m6eb60a3380" x="250.361263" y="258.48595" style="fill: #1f78b4; stroke: #1f78b4"/>
     <use xlink:href="#m6eb60a3380" x="250.361263" y="315.609917" style="fill: #1f78b4; stroke: #1f78b4"/>
     <use xlink:href="#m6eb60a3380" x="335.844453" y="201.361983" style="fill: #1f78b4; stroke: #1f78b4"/>
     <use xlink:href="#m6eb60a3380" x="335.844453" y="258.48595" style="fill: #1f78b4; stroke: #1f78b4"/>
     <use xlink:href="#m6eb60a3380" x="420.813223" y="258.48595" style="fill: #1f78b4; stroke: #1f78b4"/>
    </g>
   </g>
  </g>
 </g>
 <defs>
  <clipPath id="p2939db9b55">
   <rect x="0" y="0" width="460.8" height="345.6"/>
  </clipPath>
 </defs>
</svg>
