<?xml version="1.0" encoding="utf-8" standalone="no"?>
<!DOCTYPE svg PUBLIC "-//W3C//DTD SVG 1.1//EN"
  "http://www.w3.org/Graphics/SVG/1.1/DTD/svg11.dtd">
<svg xmlns:xlink="http://www.w3.org/1999/xlink" width="460.8pt" height="345.6pt" viewBox="0 0 460.8 345.6" xmlns="http://www.w3.org/2000/svg" version="1.1">
 <metadata>
  <rdf:RDF xmlns:dc="http://purl.org/dc/elements/1.1/" xmlns:cc="http://creativecommons.org/ns#" xmlns:rdf="http://www.w3.org/1999/02/22-rdf-syntax-ns#">
   <cc:Work>
    <dc:type rdf:resource="http://purl.org/dc/dcmitype/StillImage"/>
    <dc:date>2022-12-16T15:09:48.464104</dc:date>
    <dc:format>image/svg+xml</dc:format>
    <dc:creator>
     <cc:Agent>
      <dc:title>Matplotlib v3.6.2, https://matplotlib.org/</dc:title>
     </cc:Agent>
    </dc:creator>
   </cc:Work>
  </rdf:RDF>
 </metadata>
 <defs>
  <style type="text/css">*{stroke-linejoin: round; stroke-linecap: butt}</style>
 </defs>
 <g id="figure_1">
  <g id="patch_1">
   <path d="M 0 345.6 
L 460.8 345.6 
L 460.8 0 
L 0 0 
z
" style="fill: #ffffff"/>
  </g>
  <g id="axes_1">
   <g id="LineCollection_1">
    <path d="M 105.118447 93.165724 
L 238.649584 109.243306 
" clip-path="url(#pffd1c415b2)" style="fill: none; stroke: #000000"/>
    <path d="M 105.118447 93.165724 
L 69.164676 61.388788 
" clip-path="url(#pffd1c415b2)" style="fill: none; stroke: #000000"/>
    <path d="M 238.649584 109.243306 
L 225.818677 148.872741 
" clip-path="url(#pffd1c415b2)" style="fill: none; stroke: #000000"/>
    <path d="M 238.649584 109.243306 
L 320.849084 93.165724 
" clip-path="url(#pffd1c415b2)" style="fill: none; stroke: #000000"/>
    <path d="M 212.98777 188.49653 
L 225.818677 148.872741 
" clip-path="url(#pffd1c415b2)" style="fill: none; stroke: #000000"/>
    <path d="M 212.98777 188.49653 
L 200.148854 228.125965 
" clip-path="url(#pffd1c415b2)" style="fill: none; stroke: #000000"/>
    <path d="M 320.849084 93.165724 
L 420.813223 117.953879 
" clip-path="url(#pffd1c415b2)" style="fill: none; stroke: #000000"/>
    <path d="M 320.849084 93.165724 
L 264.311398 29.990083 
" clip-path="url(#pffd1c415b2)" style="fill: none; stroke: #000000"/>
    <path d="M 200.148854 228.125965 
L 109.075044 223.767856 
" clip-path="url(#pffd1c415b2)" style="fill: none; stroke: #000000"/>
    <path d="M 200.148854 228.125965 
L 284.895313 252.056046 
" clip-path="url(#pffd1c415b2)" style="fill: none; stroke: #000000"/>
    <path d="M 109.075044 223.767856 
L 39.986777 188.49653 
" clip-path="url(#pffd1c415b2)" style="fill: none; stroke: #000000"/>
    <path d="M 109.075044 223.767856 
L 105.118447 283.831853 
" clip-path="url(#pffd1c415b2)" style="fill: none; stroke: #000000"/>
    <path d="M 105.118447 283.831853 
L 69.164676 315.609917 
" clip-path="url(#pffd1c415b2)" style="fill: none; stroke: #000000"/>
    <path d="M 284.895313 252.056046 
L 251.480491 307.377495 
" clip-path="url(#pffd1c415b2)" style="fill: none; stroke: #000000"/>
    <path d="M 284.895313 252.056046 
L 368.85686 241.403519 
" clip-path="url(#pffd1c415b2)" style="fill: none; stroke: #000000"/>
   </g>
   <g id="PathCollection_1">
    <defs>
     <path id="m7bba64f8cf" d="M 0 8.660254 
C 2.296726 8.660254 4.499694 7.747755 6.123724 6.123724 
C 7.747755 4.499694 8.660254 2.296726 8.660254 0 
C 8.660254 -2.296726 7.747755 -4.499694 6.123724 -6.123724 
C 4.499694 -7.747755 2.296726 -8.660254 0 -8.660254 
C -2.296726 -8.660254 -4.499694 -7.747755 -6.123724 -6.123724 
C -7.747755 -4.499694 -8.660254 -2.296726 -8.660254 0 
C -8.660254 2.296726 -7.747755 4.499694 -6.123724 6.123724 
C -4.499694 7.747755 -2.296726 8.660254 0 8.660254 
z
" style="stroke: #1f78b4"/>
    </defs>
    <g clip-path="url(#pffd1c415b2)">
     <use xlink:href="#m7bba64f8cf" x="105.118447" y="93.165724" style="fill: #1f78b4; stroke: #1f78b4"/>
     <use xlink:href="#m7bba64f8cf" x="238.649584" y="109.243306" style="fill: #1f78b4; stroke: #1f78b4"/>
     <use xlink:href="#m7bba64f8cf" x="212.98777" y="188.49653" style="fill: #1f78b4; stroke: #1f78b4"/>
     <use xlink:href="#m7bba64f8cf" x="225.818677" y="148.872741" style="fill: #1f78b4; stroke: #1f78b4"/>
     <use xlink:href="#m7bba64f8cf" x="69.164676" y="61.388788" style="fill: #1f78b4; stroke: #1f78b4"/>
     <use xlink:href="#m7bba64f8cf" x="320.849084" y="93.165724" style="fill: #1f78b4; stroke: #1f78b4"/>
     <use xlink:href="#m7bba64f8cf" x="420.813223" y="117.953879" style="fill: #1f78b4; stroke: #1f78b4"/>
     <use xlink:href="#m7bba64f8cf" x="264.311398" y="29.990083" style="fill: #1f78b4; stroke: #1f78b4"/>
     <use xlink:href="#m7bba64f8cf" x="200.148854" y="228.125965" style="fill: #1f78b4; stroke: #1f78b4"/>
     <use xlink:href="#m7bba64f8cf" x="109.075044" y="223.767856" style="fill: #1f78b4; stroke: #1f78b4"/>
     <use xlink:href="#m7bba64f8cf" x="39.986777" y="188.49653" style="fill: #1f78b4; stroke: #1f78b4"/>
     <use xlink:href="#m7bba64f8cf" x="105.118447" y="283.831853" style="fill: #1f78b4; stroke: #1f78b4"/>
     <use xlink:href="#m7bba64f8cf" x="69.164676" y="315.609917" style="fill: #1f78b4; stroke: #1f78b4"/>
     <use xlink:href="#m7bba64f8cf" x="284.895313" y="252.056046" style="fill: #1f78b4; stroke: #1f78b4"/>
     <use xlink:href="#m7bba64f8cf" x="251.480491" y="307.377495" style="fill: #1f78b4; stroke: #1f78b4"/>
     <use xlink:href="#m7bba64f8cf" x="368.85686" y="241.403519" style="fill: #1f78b4; stroke: #1f78b4"/>
    </g>
   </g>
  </g>
 </g>
 <defs>
  <clipPath id="pffd1c415b2">
   <rect x="0" y="0" width="460.8" height="345.6"/>
  </clipPath>
 </defs>
</svg>
